<svg width="598" height="279" viewBox="0 0 598 279" fill="none" xmlns="http://www.w3.org/2000/svg">
<path d="M33.1973 201.014H88.2549C89.3098 201.014 90.3215 200.595 91.0675 199.849C91.8134 199.103 92.2325 198.091 92.2325 197.036C92.2325 195.981 91.8134 194.97 91.0675 194.224C90.3215 193.478 89.3098 193.059 88.2549 193.059H33.1973C31.7495 193.058 30.3215 192.723 29.0242 192.08C27.7269 191.438 26.5952 190.504 25.7171 189.353C24.8391 188.202 24.2382 186.864 23.9612 185.443C23.6842 184.022 23.7386 182.557 24.1202 181.16L43.6513 111.161C43.7908 110.656 43.8296 110.129 43.7654 109.61C43.7012 109.09 43.5354 108.589 43.2773 108.133C43.0192 107.678 42.674 107.278 42.2613 106.956C41.8486 106.634 41.3765 106.396 40.872 106.257C40.3675 106.117 39.8405 106.079 39.321 106.143C38.8016 106.207 38.2998 106.373 37.8444 106.631C37.389 106.889 36.989 107.234 36.667 107.647C36.345 108.06 36.1075 108.532 35.968 109.036L16.4369 178.967C15.7024 181.553 15.5785 184.274 16.0751 186.916C16.5717 189.558 17.6752 192.048 19.2987 194.191C20.9221 196.334 23.021 198.07 25.43 199.263C27.839 200.456 30.4921 201.073 33.1803 201.065L33.1973 201.014Z" fill="white" stroke="#263238" stroke-linecap="round" stroke-linejoin="round"/>
<path d="M59.2903 180.244L71.7627 178.748L52.4292 17.5692L39.9568 19.0653L59.2903 180.244Z" fill="white" stroke="#263238" stroke-linecap="round" stroke-linejoin="round"/>
<path d="M39.9972 19.0638C39.9972 19.0638 17.8993 98.0721 59.3243 180.242L39.9972 19.0638Z" fill="#263238" stroke="#263238" stroke-linecap="round" stroke-linejoin="round"/>
<path d="M566.13 84.5249C566.215 84.5249 567.83 78.6605 567.83 78.2865C568.442 73.85 567.031 64.9088 562.51 62.7161C561.749 62.3747 560.925 62.1973 560.092 62.1957C559.258 62.1941 558.434 62.3682 557.672 62.7066C556.91 63.045 556.228 63.5401 555.67 64.1597C555.113 64.7794 554.692 65.5095 554.436 66.3027C553.212 69.7023 554.758 73.714 556.577 76.5017C558.668 79.8164 566.13 84.5249 566.13 84.5249Z" fill="#99E9A0"/>
<path d="M477.025 82.5872C480.629 84.1511 489.434 83.9641 489.434 83.9641C489.434 83.9641 487.547 78.1846 487.377 77.8447C485.439 73.7991 479.337 67.1187 474.356 67.7986C473.532 67.9305 472.745 68.2352 472.047 68.6928C471.349 69.1504 470.756 69.7505 470.306 70.4537C469.857 71.1569 469.561 71.9473 469.439 72.7729C469.317 73.5985 469.37 74.4406 469.597 75.2439C470.413 78.6776 473.948 81.2443 477.025 82.5872Z" fill="#99E9A0"/>
<path d="M473.88 189.354C473.716 189.929 473.676 190.532 473.762 191.123C473.849 191.715 474.059 192.282 474.381 192.786C474.702 193.29 475.126 193.721 475.626 194.049C476.126 194.377 476.689 194.596 477.279 194.691C478.566 194.799 479.86 194.625 481.072 194.181C482.285 193.738 483.386 193.036 484.3 192.124C486.129 190.003 487.62 187.612 488.719 185.036C489.909 185.444 491.116 185.852 492.255 186.311C493.02 186.634 493.785 186.889 494.55 187.263L496.793 188.3C498.187 189.031 499.649 189.762 500.992 190.492C501.944 190.985 502.828 191.478 503.729 191.988C502.539 191.631 500.176 191.019 499.972 190.985C496.81 190.526 490.402 191.495 488.821 194.708C488.676 195.017 488.567 195.342 488.498 195.677H501.927C503.151 194.147 504.137 192.634 504.341 192.277C505.837 193.11 507.264 193.977 508.607 194.725L510.137 195.643H514.438C512.976 194.776 511.395 193.858 509.661 192.889C507.927 191.92 506.533 191.189 504.868 190.288C505.435 188.57 505.912 186.822 506.296 185.053C509.11 184.618 511.85 183.794 514.438 182.605C515.22 184.118 515.968 185.597 516.647 186.991C518.245 190.254 519.571 193.195 520.642 195.643H523.209C522.002 193.008 520.455 189.744 518.551 186.039C517.769 184.509 516.851 182.894 515.985 181.228C516.273 180.99 517.684 179.851 519.18 178.509L520.421 178.356C520.88 180.684 521.322 182.962 521.696 185.155C522.376 189.031 522.92 192.566 523.396 195.694H526.643C526.116 192.43 525.47 188.708 524.654 184.611C524.178 182.248 523.634 179.715 523.056 177.132C525.382 176.186 527.652 175.108 529.855 173.902C532.422 176.69 539 179.936 539.85 180.361C538.966 182.554 538.065 184.696 537.198 186.702C535.754 190.016 534.377 193.025 533.102 195.694H536.604C537.657 193.314 538.779 190.696 540.003 187.858C540.921 185.614 541.856 183.217 542.791 180.735C543.743 180.939 551.46 182.435 555.064 181.687C558.327 180.956 562.288 179.104 563.75 175.874C564.121 175.126 564.33 174.309 564.363 173.475C564.397 172.642 564.254 171.81 563.945 171.035C563.635 170.261 563.165 169.56 562.567 168.979C561.968 168.398 561.253 167.95 560.469 167.664C555.71 166.066 548.451 171.471 545.783 175.075C545.63 175.296 544.185 177.795 543.301 179.376C543.675 178.373 544.066 177.387 544.44 176.333C545.188 174.276 545.885 172.185 546.65 169.941C546.972 168.837 547.312 167.732 547.635 166.542C547.958 165.352 548.23 164.23 548.536 163.142C549.182 160.422 549.709 157.635 550.236 154.813C552.055 155.476 558.531 157.737 561.88 157.499C565.229 157.261 569.41 156.037 571.348 153.062C571.826 152.38 572.156 151.606 572.315 150.788C572.474 149.971 572.46 149.129 572.272 148.318C572.084 147.507 571.728 146.744 571.226 146.079C570.724 145.415 570.088 144.863 569.359 144.461C564.889 142.149 556.9 146.399 553.721 149.56C553.517 149.747 551.494 152.28 550.406 153.691C550.678 151.991 550.95 150.291 551.171 148.592C551.783 143.611 552.259 138.563 552.735 133.514C552.888 131.967 553.058 130.437 553.228 128.89C553.874 129.128 561.506 131.984 565.263 131.712C568.662 131.474 572.793 130.25 574.731 127.293C575.209 126.609 575.537 125.832 575.695 125.012C575.854 124.193 575.837 123.349 575.648 122.537C575.459 121.724 575.101 120.96 574.597 120.295C574.094 119.629 573.456 119.077 572.725 118.675C568.271 116.38 560.265 120.612 557.087 123.774C556.849 124.012 553.942 127.65 553.245 128.618C553.602 125.219 553.993 121.819 554.52 118.538C555.187 114.06 556.152 109.63 557.409 105.28C557.715 105.399 565.671 108.39 569.512 108.119C572.912 107.898 577.043 106.657 578.98 103.699C579.459 103.016 579.789 102.24 579.948 101.421C580.107 100.603 580.093 99.7597 579.905 98.947C579.718 98.1343 579.361 97.3702 578.859 96.7041C578.357 96.0381 577.721 95.485 576.992 95.0808C572.521 92.7861 564.532 97.0186 561.353 100.18C561.132 100.401 558.922 103.155 557.953 104.498L557.698 104.379C559.071 100.033 560.829 95.8173 562.951 91.7831C564.107 89.5564 565.314 87.4826 566.538 85.4937C567.965 86.2077 574.527 89.3864 578.011 89.5223C581.496 89.6583 585.661 88.8934 587.904 86.1227C588.455 85.4973 588.868 84.763 589.116 83.9675C589.364 83.172 589.441 82.3332 589.344 81.5057C589.246 80.6782 588.975 79.8806 588.548 79.1649C588.121 78.4491 587.549 77.8312 586.868 77.3515C582.686 74.5638 574.272 77.9125 570.77 80.7512C570.566 80.9042 568.798 82.655 567.54 83.9639C568.101 83.063 568.679 82.1451 569.24 81.2952C571.331 78.1335 573.456 75.3798 575.343 72.932C576.431 71.5551 577.45 70.3483 578.402 69.2094C580.102 69.2094 587.276 68.9544 590.386 67.5095C593.497 66.0647 596.88 63.4299 597.611 59.9623C597.811 59.1522 597.84 58.309 597.693 57.4873C597.547 56.6656 597.23 55.8839 596.762 55.1929C596.293 54.502 595.685 53.9172 594.976 53.4767C594.267 53.0362 593.474 52.7498 592.647 52.636C587.649 52.1091 581.717 58.9424 579.898 63.039C579.745 63.3959 577.909 69.2094 577.994 69.2094H578.113C577.162 70.2803 576.159 71.4362 575.088 72.728C573.15 75.1248 570.957 77.8275 568.781 80.9892C566.404 84.3356 564.219 87.8146 562.237 91.4092C560.006 95.435 558.134 99.6499 556.645 104.005V104.158C556.645 102.696 556.645 98.5825 556.645 98.2595C556.067 93.8229 552.344 85.5618 547.397 84.6608C546.578 84.5388 545.742 84.5897 544.944 84.8102C544.146 85.0307 543.402 85.416 542.762 85.9412C542.121 86.4664 541.598 87.1199 541.225 87.8596C540.852 88.5994 540.639 89.409 540.598 90.2363C540.309 93.7719 542.876 97.3076 545.375 99.5344C548.179 102.05 555.999 104.481 556.628 104.634C555.227 109.088 554.125 113.631 553.33 118.233C552.837 120.918 552.446 123.638 552.072 126.375C552.072 125.1 552.072 123.961 552.072 123.808C551.494 119.354 547.754 111.11 542.825 110.209C542.004 110.087 541.167 110.139 540.368 110.36C539.568 110.582 538.824 110.968 538.183 111.495C537.542 112.022 537.019 112.678 536.648 113.42C536.276 114.162 536.064 114.973 536.026 115.802C535.737 119.32 538.303 122.856 540.785 125.1C543.267 127.344 549.947 129.57 551.715 130.199L551.307 133.344C550.712 138.444 550.134 143.407 549.42 148.32C549.165 150.019 548.842 151.719 548.536 153.419C548.536 152.297 548.536 151.345 548.536 151.192C547.958 146.756 544.236 138.495 539.289 137.594C538.47 137.472 537.634 137.522 536.836 137.743C536.037 137.963 535.294 138.349 534.654 138.874C534.013 139.399 533.49 140.053 533.117 140.792C532.744 141.532 532.531 142.342 532.49 143.169C532.201 146.705 534.768 150.24 537.266 152.467C539.765 154.694 545.766 156.717 547.856 157.397C547.499 159.097 547.125 160.796 546.701 162.496C546.378 163.618 546.14 164.723 545.766 165.896L544.695 169.194C543.947 171.267 543.182 173.409 542.4 175.415C541.856 176.809 541.312 178.135 540.7 179.46C540.972 177.761 541.431 174.361 541.431 174.072C541.377 170.129 540.312 166.266 538.337 162.853C538.36 162.415 538.332 161.976 538.252 161.544C538.157 160.712 537.887 159.909 537.459 159.188C537.03 158.468 536.454 157.846 535.769 157.364C535.083 156.882 534.303 156.551 533.48 156.393C532.657 156.234 531.81 156.252 530.994 156.445C527.186 157.465 524.484 162.921 523.379 167.392C523.084 166.829 522.673 166.336 522.171 165.946C521.67 165.555 521.09 165.278 520.472 165.131L519.707 162.649C519.401 161.527 518.925 160.388 518.551 159.25C517.582 156.632 516.478 154.014 515.322 151.413C517.191 150.971 523.821 149.271 526.506 147.215C529.192 145.158 531.98 141.843 531.963 138.308C531.985 137.473 531.831 136.644 531.511 135.873C531.191 135.102 530.713 134.407 530.107 133.833C529.501 133.259 528.781 132.819 527.993 132.541C527.206 132.264 526.37 132.155 525.538 132.222C520.557 132.766 516.223 140.721 515.339 145.107C515.339 145.379 514.999 148.609 514.863 150.376C514.149 148.813 513.452 147.249 512.67 145.702C510.443 141.197 508.046 136.727 505.684 132.256C504.953 130.879 504.239 129.502 503.525 128.126C504.205 127.973 512.143 126.137 515.135 123.842C517.786 121.802 520.591 118.471 520.574 114.935C520.598 114.101 520.447 113.272 520.129 112.501C519.811 111.73 519.334 111.035 518.729 110.461C518.125 109.886 517.406 109.446 516.619 109.169C515.833 108.891 514.997 108.782 514.166 108.849C509.168 109.393 504.834 117.349 503.967 121.734C503.967 122.057 503.474 126.698 503.423 127.888C501.859 124.862 500.312 121.819 498.918 118.776C497.019 114.669 495.384 110.445 494.023 106.13C494.346 106.13 502.641 104.175 505.701 101.812C508.352 99.7893 511.174 96.4407 511.14 92.905C511.164 92.0715 511.012 91.2422 510.695 90.4713C510.377 89.7004 509.9 89.0051 509.295 88.4308C508.69 87.8566 507.971 87.4164 507.185 87.1387C506.399 86.8611 505.563 86.7524 504.732 86.8196C499.734 87.3636 495.4 95.3188 494.533 99.7044C494.533 99.9933 494.159 103.529 494.04 105.212H493.751C492.506 100.825 491.652 96.3373 491.201 91.8001C490.929 89.3184 490.793 86.9046 490.725 84.5758C492.306 84.3888 499.513 83.42 502.505 81.6181C505.497 79.8163 508.539 76.8756 508.896 73.357C509.014 72.5276 508.955 71.6828 508.724 70.8775C508.494 70.0723 508.096 69.3246 507.557 68.6833C507.018 68.0419 506.351 67.5211 505.597 67.1549C504.844 66.7886 504.022 66.5852 503.185 66.5576C498.17 66.5576 492.986 73.9859 491.609 78.2525C491.609 78.4735 491.031 80.9212 490.691 82.706C490.691 81.6522 490.691 80.5642 490.691 79.5443C490.691 75.7537 490.946 72.2861 491.184 69.2094C491.337 67.5095 491.507 65.8097 491.677 64.3988C493.122 63.3959 498.935 59.2993 500.72 56.3756C502.505 53.4519 503.882 49.3893 502.59 46.0916C502.316 45.3018 501.877 44.5789 501.304 43.9703C500.731 43.3616 500.035 42.8811 499.263 42.5601C498.491 42.239 497.66 42.0849 496.824 42.1076C495.989 42.1303 495.167 42.3295 494.414 42.692C489.943 44.9867 488.77 53.9619 489.518 58.3814C489.518 58.7724 491.218 64.6368 491.337 64.5858H491.422C491.235 65.9967 491.031 67.5265 490.861 69.1924C490.555 72.2691 490.232 75.7367 490.147 79.5613C490.003 83.6657 490.1 87.775 490.436 91.8681C490.793 96.4592 491.556 101.01 492.714 105.467V105.62C491.932 104.379 489.603 100.979 489.314 100.741C486.526 97.5286 479.489 93.024 474.815 94.2479C474.054 93.7847 473.162 93.5822 472.276 93.6712C471.389 93.7601 470.556 94.1357 469.902 94.7408C467.284 97.2056 468.202 103.597 469.63 106.487C469.749 106.742 472.061 110.43 472.112 110.379C472.248 111.377 472.418 112.464 472.622 113.643C473.013 115.819 473.489 118.284 474.186 120.918C474.895 123.76 475.769 126.558 476.803 129.298C477.957 132.38 479.379 135.355 481.053 138.189V138.274C480.254 137.577 477.993 135.707 477.806 135.588C475.121 133.888 468.916 132.035 466.128 134.296C465.678 134.684 465.313 135.161 465.059 135.699C464.804 136.236 464.665 136.821 464.651 137.415C464.636 138.01 464.747 138.6 464.975 139.149C465.203 139.698 465.544 140.193 465.975 140.602C466.992 141.398 468.169 141.962 469.425 142.255C470.682 142.549 471.987 142.565 473.251 142.302C475.919 141.928 480.866 138.902 481.257 138.563C483.04 141.395 485.004 144.109 487.138 146.688C488.379 148.201 489.671 149.679 490.98 151.141L489.552 149.985C486.866 148.286 480.662 146.433 477.874 148.694C477.422 149.081 477.057 149.559 476.802 150.097C476.548 150.635 476.41 151.221 476.397 151.816C476.384 152.411 476.497 153.003 476.728 153.551C476.959 154.1 477.303 154.593 477.738 155C478.751 155.795 479.926 156.359 481.18 156.652C482.433 156.946 483.736 156.962 484.997 156.7C487.765 155.902 490.396 154.687 492.799 153.096L494.329 154.796C496.776 157.448 499.241 160.099 501.587 162.768C502.063 163.312 502.505 163.873 502.964 164.468L502.675 164.638C499.972 162.938 493.819 161.136 491.048 163.38C490.596 163.769 490.23 164.249 489.975 164.788C489.721 165.328 489.582 165.915 489.569 166.511C489.557 167.108 489.67 167.7 489.901 168.25C490.132 168.8 490.477 169.295 490.912 169.703C491.927 170.495 493.101 171.057 494.354 171.351C495.608 171.644 496.91 171.662 498.17 171.403C498.781 171.303 499.38 171.138 499.955 170.91C500.022 171.267 500.113 171.62 500.227 171.964C500.562 172.859 501.071 173.679 501.723 174.378C500.869 174.259 499.999 174.412 499.236 174.815C498.474 175.217 497.857 175.85 497.473 176.622C495.927 179.851 499.173 185.478 501.451 187.688L504.29 189.829L502.233 188.759C500.822 188.028 499.411 187.365 497.881 186.617L495.621 185.631C494.856 185.274 494.023 185.002 493.224 184.696C491.354 183.999 489.433 183.387 487.461 182.809C488.844 180.301 489.83 177.595 490.385 174.786C490.504 172.389 490.011 169.312 488.073 167.681C487.629 167.283 487.107 166.984 486.54 166.801C485.973 166.618 485.374 166.555 484.782 166.618C484.189 166.68 483.616 166.866 483.1 167.163C482.584 167.46 482.135 167.863 481.784 168.344C479.761 171.318 482.073 177.353 484.045 179.885C484.164 180.038 485.745 181.704 486.679 182.588C485.507 182.248 484.334 181.908 483.127 181.602C479.727 180.735 476.106 179.902 472.571 179.172L469.341 178.424C469.562 177.999 472.248 172.831 472.384 170.128C472.539 168.85 472.413 167.553 472.014 166.328C471.614 165.104 470.951 163.981 470.072 163.04C469.628 162.643 469.106 162.343 468.539 162.16C467.972 161.977 467.373 161.915 466.78 161.977C466.188 162.04 465.615 162.225 465.099 162.523C464.582 162.82 464.134 163.222 463.783 163.703C461.76 166.661 464.072 172.712 466.043 175.245C466.196 175.432 468.508 177.812 469.137 178.39C466.757 177.829 464.412 177.268 462.1 176.605C458.983 175.739 455.928 174.666 452.955 173.392C453.057 173.188 455.878 167.817 456.031 165.063C456.15 162.666 455.658 159.589 453.72 157.958C453.276 157.56 452.753 157.261 452.186 157.078C451.619 156.894 451.02 156.832 450.428 156.895C449.836 156.957 449.263 157.143 448.746 157.44C448.23 157.737 447.782 158.14 447.43 158.621C445.407 161.595 447.719 167.63 449.691 170.162C449.81 170.332 451.578 172.151 452.445 172.984L452.326 173.154C449.358 171.794 446.514 170.179 443.827 168.327C442.348 167.324 440.988 166.27 439.679 165.233C441.352 162.848 442.653 160.223 443.538 157.448C443.832 156.192 443.847 154.886 443.583 153.624C443.318 152.361 442.781 151.171 442.008 150.138C441.611 149.695 441.125 149.34 440.581 149.098C440.038 148.855 439.45 148.729 438.855 148.729C438.26 148.729 437.671 148.855 437.128 149.098C436.584 149.34 436.098 149.695 435.701 150.138C433.373 152.858 435.004 159.114 436.67 161.85C436.772 161.986 437.86 163.397 438.676 164.417L436.976 162.972C434.92 161.272 433.152 159.47 431.588 157.873C430.704 156.989 429.888 156.173 429.208 155.374C429.595 152.504 429.538 149.591 429.038 146.739C428.29 144.461 426.709 141.775 424.33 140.959C423.772 140.749 423.177 140.658 422.582 140.692C421.987 140.726 421.406 140.884 420.875 141.156C420.345 141.429 419.878 141.809 419.504 142.273C419.13 142.736 418.857 143.273 418.703 143.849C417.887 147.334 422.222 152.144 424.958 153.793C425.196 153.929 429.174 155.731 429.174 155.663C429.837 156.428 430.585 157.227 431.401 158.111C432.931 159.691 434.682 161.51 436.704 163.21C438.864 165.19 441.134 167.046 443.504 168.769C446.178 170.719 449.023 172.426 452.003 173.868H452.105C451.068 173.732 448.144 173.409 447.923 173.426C444.711 173.426 438.54 175.364 437.469 178.781C437.306 179.357 437.266 179.961 437.352 180.553C437.438 181.146 437.649 181.714 437.97 182.219C438.291 182.725 438.715 183.157 439.215 183.487C439.714 183.817 440.278 184.038 440.869 184.135C442.156 184.239 443.451 184.062 444.663 183.616C445.876 183.17 446.976 182.465 447.889 181.551C449.912 179.851 452.326 174.446 452.513 174.021C455.557 175.41 458.692 176.591 461.896 177.557C463.766 178.135 465.652 178.645 467.556 179.155L465.737 178.968C462.525 178.968 456.354 180.922 455.284 184.339C455.12 184.914 455.08 185.517 455.166 186.109C455.253 186.7 455.463 187.267 455.785 187.771C456.106 188.276 456.53 188.706 457.03 189.035C457.529 189.363 458.093 189.582 458.683 189.676C459.97 189.784 461.264 189.61 462.476 189.167C463.689 188.724 464.79 188.022 465.703 187.11C467.572 184.916 469.097 182.452 470.225 179.8L472.418 180.361C475.937 181.228 479.455 182.061 482.872 183.013C484.079 183.353 485.252 183.71 486.441 184.084L484.861 183.931C481.121 183.999 474.951 185.92 473.88 189.354ZM511.48 179.155L511.191 178.917H512.415L512.619 179.274C513.129 180.208 513.588 181.109 514.064 182.027C513.265 181.075 511.633 179.257 511.48 179.121V179.155ZM514.608 178.917H514.897C515.067 179.426 515.271 179.97 515.424 180.412L514.608 178.917ZM514.251 155.799C514.812 157.227 515.373 158.638 515.849 160.048C516.206 161.17 516.63 162.207 516.919 163.363C517.106 164.06 517.31 164.74 517.497 165.42L517.123 165.59C515.992 166.386 515.174 167.552 514.812 168.888C512.679 166.72 510.055 165.099 507.162 164.162C509.057 163.093 510.777 161.74 512.262 160.15C513.218 158.853 513.895 157.371 514.251 155.799ZM474.186 120.816C473.438 118.199 472.911 115.717 472.486 113.609C472.248 112.385 472.061 111.263 471.891 110.209C472.35 109.648 473.591 108.051 474.73 106.368C476.434 107.236 478.273 107.811 480.169 108.068C483.892 108.611 491.762 106.368 492.391 106.147C493.684 110.644 495.274 115.05 497.15 119.337C498.238 121.853 499.411 124.335 500.55 126.817C499.836 125.763 499.19 124.828 499.088 124.709C496.147 121.309 488.498 116.499 483.875 118.454L483.739 118.538C485.016 116.949 485.626 114.926 485.439 112.895C485.355 112.305 485.147 111.739 484.83 111.235C484.512 110.731 484.092 110.299 483.596 109.969C483.1 109.638 482.54 109.416 481.952 109.317C481.365 109.218 480.763 109.244 480.186 109.393C476.786 110.362 474.645 116.482 474.543 119.694C474.543 119.864 474.679 121.632 474.781 122.924C474.543 122.244 474.288 121.513 474.101 120.816H474.186ZM480.815 133.837C480.815 134.041 481.308 136.54 481.563 137.713L481.376 137.798C479.613 135.037 478.1 132.124 476.854 129.094C476.174 127.395 475.614 125.814 475.155 124.216C477.186 123.364 479.147 122.352 481.019 121.19C480.593 122.094 480.387 123.087 480.42 124.086C480.452 125.084 480.722 126.061 481.206 126.936C481.351 127.177 481.51 127.41 481.682 127.633C480.982 129.624 480.659 131.728 480.73 133.837H480.815ZM487.614 146.059C485.494 143.616 483.535 141.038 481.75 138.342C481.954 138.223 487.291 135.299 488.923 133.089C489.178 132.732 489.433 132.341 489.671 131.933L490.385 132.052C493.785 132.545 500.482 130.743 502.284 130.233C502.743 131.185 503.219 132.137 503.678 133.072C505.956 137.611 508.25 142.132 510.358 146.671C510.919 147.861 511.429 149.05 511.939 150.24L511.531 150.07L511.191 149.611C508.514 146.742 505.15 144.601 501.417 143.39C501.983 142.064 502.102 140.591 501.757 139.191C501.617 138.598 501.351 138.043 500.977 137.562C500.602 137.081 500.129 136.687 499.588 136.406C499.048 136.126 498.453 135.965 497.844 135.935C497.236 135.905 496.628 136.007 496.062 136.234C492.663 137.594 491.337 143.9 491.575 147.096C491.575 147.334 492.221 150.597 492.425 151.43C490.742 149.662 489.093 147.878 487.529 146.059H487.614ZM502.386 161.833C499.972 159.181 497.439 156.581 494.941 153.98C494.159 153.181 493.411 152.382 492.646 151.566L493.139 151.294C493.139 151.447 493.258 151.6 493.326 151.736C495.026 154.847 499.122 156.377 502.437 156.836C503.11 156.898 503.787 156.898 504.46 156.836C504.172 158.141 504.052 159.478 504.103 160.813C504.103 160.983 504.426 162.513 504.681 163.805H504.256C503.559 163.244 502.947 162.53 502.352 161.833H502.386Z" fill="#99E9A0"/>
<path d="M522.379 174.548C522.379 174.446 522.498 174.327 522.549 174.208C522.549 174.735 522.549 175.262 522.651 175.704C522.566 175.33 522.464 174.939 522.379 174.548Z" fill="#99E9A0"/>
<path d="M465.737 125.406C468.525 125.78 474.526 123.893 474.526 123.893C474.526 123.893 472.095 120.306 471.908 120.102C469.783 117.705 464.276 114.323 460.995 115.768C460.456 116.022 459.976 116.386 459.587 116.838C459.199 117.289 458.909 117.818 458.737 118.388C458.566 118.959 458.516 119.559 458.592 120.15C458.667 120.741 458.867 121.31 459.176 121.819C459.944 122.857 460.929 123.715 462.062 124.334C463.195 124.954 464.449 125.319 465.737 125.406Z" fill="#99E9A0"/>
<path d="M434.36 163.584C431.267 162.768 424.807 162.989 422.869 165.998C422.56 166.507 422.361 167.075 422.285 167.667C422.21 168.258 422.259 168.858 422.431 169.429C422.602 169.999 422.892 170.527 423.281 170.979C423.67 171.43 424.149 171.795 424.688 172.049C426.949 173.205 429.975 172.457 432.133 171.42C434.666 170.196 438.644 165.318 438.644 165.318C438.644 165.318 434.632 163.669 434.36 163.584Z" fill="#99E9A0"/>
<path d="M0.916992 196H569.035" stroke="#263238" stroke-linecap="round" stroke-linejoin="round"/>
<path d="M232.978 205.655L167.042 245.601L293.85 252.588L333.796 206.93L232.978 205.655Z" fill="white" stroke="#263238" stroke-linecap="round" stroke-linejoin="round"/>
<path d="M301.77 214.256C301.77 214.256 275.932 219.696 288.63 223.333C301.328 226.971 318.547 218.336 311.289 218.336C304.031 218.336 295.429 217.435 292.251 219.696" stroke="#263238" stroke-linecap="round" stroke-linejoin="round"/>
<path d="M285.384 226.053C285.384 226.053 278.584 233.753 260.447 238.734" stroke="#263238" stroke-linecap="round" stroke-linejoin="round"/>
<path d="M265.886 234.213L257.285 239.652H272.686" stroke="#263238" stroke-linecap="round" stroke-linejoin="round"/>
<path d="M242.276 232.852C242.276 232.852 210.983 234.212 223.68 241.913C236.378 249.613 252.237 242.372 250.436 238.734C248.634 235.096 225.958 231.935 228.678 238.292C231.398 244.649 241.359 240.553 241.359 240.553" stroke="#263238" stroke-linecap="round" stroke-linejoin="round"/>
<path d="M219.653 227.855L227.353 224.693L210.134 237.833" stroke="#263238" stroke-linecap="round" stroke-linejoin="round"/>
<path d="M227.369 224.693L226.009 229.215" stroke="#263238" stroke-linecap="round" stroke-linejoin="round"/>
<path d="M244.13 217.894L266.347 218.795" stroke="#263238" stroke-linecap="round" stroke-linejoin="round"/>
<path d="M245.49 213.355L269.968 214.715" stroke="#263238" stroke-linecap="round" stroke-linejoin="round"/>
<path d="M464.003 223.452L449.656 239.601L466.706 252.146L489.109 240.502L484.639 225.254L464.003 223.452Z" stroke="#263238" stroke-linecap="round" stroke-linejoin="round"/>
<path d="M464.002 223.452L477.465 240.502L466.705 252.146" stroke="#263238" stroke-linecap="round" stroke-linejoin="round"/>
<path d="M477.465 240.502L483.738 234.212L479.25 227.039L470.292 229.742" stroke="#263238" stroke-linecap="round" stroke-linejoin="round"/>
<path d="M449.656 239.601L450.149 216.415H469.629L482.803 225.594L463.901 241.624L449.656 239.601Z" fill="white" stroke="#263238" stroke-linecap="round" stroke-linejoin="round"/>
<path d="M516.306 252.163L503.388 266.696L518.737 278L538.914 267.495L534.886 253.777L516.306 252.163Z" stroke="#263238" stroke-linecap="round" stroke-linejoin="round"/>
<path d="M516.306 252.163L528.425 267.495L518.736 278" stroke="#263238" stroke-linecap="round" stroke-linejoin="round"/>
<path d="M528.424 267.495L534.068 261.852L530.039 255.392L521.965 257.806" stroke="#263238" stroke-linecap="round" stroke-linejoin="round"/>
<path d="M503.388 266.696L503.83 245.822H521.372L533.237 254.084L516.204 268.515L503.388 266.696Z" fill="white" stroke="#263238" stroke-linecap="round" stroke-linejoin="round"/>
<path d="M545.902 223.469L544.695 201.915L523.754 205.009L516.07 229.096L530.009 236.745L545.902 223.469Z" stroke="#263238" stroke-linecap="round" stroke-linejoin="round"/>
<path d="M545.901 223.469L524.347 220.869L523.752 205.009" stroke="#263238" stroke-linecap="round" stroke-linejoin="round"/>
<path d="M524.346 220.868L524.312 229.742L532.557 231.679L537.01 223.452" stroke="#263238" stroke-linecap="round" stroke-linejoin="round"/>
<path d="M544.692 201.915L560.688 218.693L546.868 232.427L531.06 235.215L533.15 210.5L544.692 201.915Z" fill="white" stroke="#263238" stroke-linecap="round" stroke-linejoin="round"/>
<path d="M225.805 61.9512H379.759C387.572 61.9512 395.064 65.0548 400.589 70.5793C406.113 76.1038 409.217 83.5965 409.217 91.4093V195.983H196.381V91.4093C196.381 83.6024 199.48 76.1148 204.997 70.5913C210.514 65.0678 217.998 61.9602 225.805 61.9512Z" fill="#263238"/>
<path d="M488.039 139.396C488.039 139.396 445.237 119.423 402.911 103.699C360.586 87.9758 318.26 75.1591 268.812 78.4908C268.812 78.4908 237.892 86.582 195.09 108.459C152.288 130.336 128.048 149.833 114.246 165.131C100.443 180.43 98.9473 196.034 98.9473 196.034H148.786L196.518 177.982L202.161 196.034H401.484L396.724 168.463L435.718 184.152L488.039 139.396Z" fill="#99E9A0"/>
<path opacity="0.2" d="M455.334 167.341L449.401 143.033C449.401 143.033 402.333 129.009 383.278 121.734C364.223 114.459 349.655 103.24 349.655 109.41C349.655 115.581 356.947 130.131 351.355 126.222C345.762 122.312 336.226 95.3868 333.422 100.435C330.617 105.484 271.225 95.9477 253.291 100.996C235.358 106.045 216.881 116.125 200.07 127.888C183.258 139.65 165.886 131.287 167.008 136.302C168.13 141.316 175.966 150.308 175.966 150.308C175.966 150.308 155.245 140.789 155.245 149.186C155.245 157.584 139.556 171.607 139.556 171.607L147.188 196H148.786L196.517 177.948L202.16 196H401.483L396.723 168.429L435.717 184.118L455.334 167.341Z" fill="black"/>
<path d="M488.039 139.396C488.039 139.396 445.237 119.423 402.911 103.699C360.586 87.9758 318.26 75.1591 268.812 78.4908C268.812 78.4908 237.892 86.582 195.09 108.459C152.288 130.336 128.048 149.833 114.246 165.131C100.443 180.43 98.9473 196.034 98.9473 196.034H148.786L196.518 177.982L202.161 196.034H401.484L396.724 168.463L435.718 184.152L488.039 139.396Z" stroke="#263238" stroke-linecap="round" stroke-linejoin="round"/>
<path d="M248.361 100.402C248.361 100.402 238.723 110.244 239.573 127.973" stroke="#263238" stroke-linecap="round" stroke-linejoin="round"/>
<path d="M247.172 122.057C247.172 122.057 247.172 142.32 253.971 158.349" stroke="#263238" stroke-linecap="round" stroke-linejoin="round"/>
<path d="M323.138 107.711C323.138 107.711 334.952 129.656 335.801 149.918" stroke="#263238" stroke-linecap="round" stroke-linejoin="round"/>
<path d="M328.202 135.571C332.174 147.17 331.566 159.847 326.502 171.013" stroke="#263238" stroke-linecap="round" stroke-linejoin="round"/>
<path d="M184.635 154.201L196.5 177.931L169.982 150.02" stroke="#263238" stroke-linecap="round" stroke-linejoin="round"/>
<path d="M395.227 168.48L363.865 164.247" stroke="#263238" stroke-linecap="round" stroke-linejoin="round"/>
<path d="M396.724 168.412L366.416 159.165" stroke="#263238" stroke-linecap="round" stroke-linejoin="round"/>
<path d="M248.361 100.402C248.361 100.402 251.761 128.466 255.96 143.679C260.158 158.893 264.459 162.7 264.459 162.7L277.292 151.771L280.692 161.749L295.991 167.936L307.889 155.085L305.034 145.107L325.432 155.085C325.432 155.085 323.528 125.134 317.341 103.257C311.153 81.3804 291.163 73.3402 273.553 79.9526C263.145 83.8302 254.296 91.0134 248.361 100.402Z" fill="white"/>
<path opacity="0.2" d="M248.361 100.402C248.361 100.402 251.761 128.466 255.96 143.679C260.158 158.893 264.459 162.7 264.459 162.7L277.292 151.771L280.692 161.749L295.991 167.936L307.889 155.085L305.034 145.107L325.432 155.085C325.432 155.085 323.528 125.134 317.341 103.257C311.153 81.3804 291.163 73.3402 273.553 79.9526C263.145 83.8302 254.296 91.0134 248.361 100.402Z" fill="black"/>
<path d="M248.361 100.402C248.361 100.402 251.761 128.466 255.96 143.679C260.158 158.893 264.459 162.7 264.459 162.7L277.292 151.771L280.692 161.749L295.991 167.936L307.889 155.085L305.034 145.107L325.432 155.085C325.432 155.085 323.528 125.134 317.341 103.257C311.153 81.3804 291.163 73.3402 273.553 79.9526C263.145 83.8302 254.296 91.0134 248.361 100.402Z" stroke="#263238" stroke-linecap="round" stroke-linejoin="round"/>
<path d="M274.574 140.823C274.574 140.823 290.281 170.315 295.975 167.936C301.67 165.556 304.066 135.639 304.066 135.639C294.707 139.414 284.66 141.181 274.574 140.823Z" fill="#99E9A0"/>
<path opacity="0.5" d="M274.574 140.823C274.574 140.823 290.281 170.315 295.975 167.936C301.67 165.556 304.066 135.639 304.066 135.639C294.707 139.414 284.66 141.181 274.574 140.823Z" fill="white"/>
<path d="M274.574 140.823C274.574 140.823 290.281 170.315 295.975 167.936C301.67 165.556 304.066 135.639 304.066 135.639C294.707 139.414 284.66 141.181 274.574 140.823V140.823Z" stroke="#263238" stroke-linecap="round" stroke-linejoin="round"/>
<path d="M432.795 180.073C430.959 177.03 436.517 161.97 437.622 158.332C442.62 142.064 449.878 124.114 467.828 119.831C485.778 115.547 501.723 134.806 503.984 145.532C506.244 156.258 489.297 171.523 481.886 176.605C474.474 181.688 444.098 198.142 432.795 180.073Z" fill="white" stroke="#263238" stroke-linecap="round" stroke-linejoin="round"/>
<path opacity="0.2" d="M500.65 146.994C500.65 146.994 485.998 129.877 476.852 129.095C467.707 128.313 457.559 136.795 445.66 154.932C433.762 173.069 433.354 186.753 440.357 184.186C447.36 181.62 500.089 162.292 500.65 146.994Z" fill="black"/>
<path d="M158.662 181.789C158.662 181.789 146.865 157.414 138.74 149.017C130.615 140.619 121.741 147.708 103.876 162.122C86.011 176.537 84.7361 191.223 86.5719 195.422C88.4077 199.621 90.7705 200.148 92.3343 199.876C93.8982 199.604 104.131 179.172 117.509 177.064C130.887 174.956 154.48 190.442 158.407 187.824C162.333 185.206 158.662 181.789 158.662 181.789Z" fill="white" stroke="#263238" stroke-linecap="round" stroke-linejoin="round"/>
<path opacity="0.2" d="M90.9907 190.068C90.9907 190.068 89.8518 184.39 96.0902 174.191C102.329 163.992 118.188 154.932 126.126 154.932C134.064 154.932 147.085 169.67 148.785 176.469C150.485 183.268 119.667 193.739 111.95 194.589C104.232 195.439 92.1295 197.989 90.9907 190.068Z" fill="black"/>
<path d="M205.646 190.629C205.646 190.629 131.924 170.231 122.235 165.522C112.546 160.814 103.35 168.922 95.4798 179.682C87.6096 190.442 87.5756 208.579 89.7174 211.656C97.9276 223.401 185.928 214.018 185.928 214.018L205.646 190.629Z" fill="white" stroke="#263238" stroke-linecap="round" stroke-linejoin="round"/>
<path d="M197.503 191.903C197.503 191.903 135.748 178.305 117.882 181.076C100.017 183.846 89.1553 210.874 104.284 213.032C119.412 215.191 192.046 210.874 192.046 210.874L197.503 191.903Z" fill="#99E9A0"/>
<path opacity="0.5" d="M197.503 191.903C197.503 191.903 135.748 178.305 117.882 181.076C100.017 183.846 89.1553 210.874 104.284 213.032C119.412 215.191 192.046 210.874 192.046 210.874L197.503 191.903Z" fill="white"/>
<path d="M241.053 85.528C241.053 85.528 247.632 110.77 252.119 119.423C256.607 128.075 275.917 148.116 281.866 150.886C287.816 153.657 297.42 150.19 300.887 144.308C304.355 138.427 316.781 118.726 317.07 110.736C317.359 102.747 318.107 87.2278 318.107 87.2278C318.107 87.2278 321.897 89.9985 324.328 87.5677C326.759 85.137 328.476 68.8695 325.365 61.6283C322.254 54.387 319.144 55.7638 318.107 58.8745C317.464 60.7854 316.651 62.6344 315.676 64.399C315.676 64.399 311.868 50.9194 302.536 49.8825C293.204 48.8456 239.269 70.6204 239.269 70.6204L241.053 85.528Z" fill="white" stroke="#263238" stroke-linecap="round" stroke-linejoin="round"/>
<path d="M247.121 82.4853C247.121 82.4853 251.047 105.467 254.396 111.059C257.745 116.652 271.768 141.894 279.061 145.804C286.353 149.714 292.506 152.603 297.555 143.56C302.603 134.517 310.44 120.596 313.244 110.516C316.049 100.436 313.805 84.1681 313.805 84.1681C313.805 84.1681 309.879 60.6424 309.318 53.3502C308.757 46.0579 242.633 38.7826 247.121 82.4853Z" fill="#99E9A0"/>
<path opacity="0.5" d="M247.121 82.4853C247.121 82.4853 251.047 105.467 254.396 111.059C257.745 116.652 271.768 141.894 279.061 145.804C286.353 149.714 292.506 152.603 297.555 143.56C302.603 134.517 310.44 120.596 313.244 110.516C316.049 100.436 313.805 84.1681 313.805 84.1681C313.805 84.1681 309.879 60.6424 309.318 53.3502C308.757 46.0579 242.633 38.7826 247.121 82.4853Z" fill="white"/>
<path d="M272.874 96.9337C272.874 96.9337 275.645 111.467 271.837 120.102C271.837 120.102 278.755 124.25 283.583 115.955" stroke="#263238" stroke-linecap="round" stroke-linejoin="round"/>
<path d="M285.316 96.9338C282.154 90.8314 288.07 76.6887 305.374 90.7124C305.374 90.7124 287.39 83.5391 285.316 96.9338Z" fill="#263238"/>
<path d="M273.213 99.7048C273.213 99.7048 271.836 94.1804 264.578 90.7127C257.32 87.245 254.549 86.9051 254.549 86.9051C254.549 86.9051 274.573 82.7575 273.213 99.7048Z" fill="#263238"/>
<path d="M287.05 128.058C287.05 128.058 296.042 127.021 301.923 116.312" stroke="#263238" stroke-linecap="round" stroke-linejoin="round"/>
<path d="M294.58 100.01C294.58 101.931 293.73 103.495 292.693 103.495C291.656 103.495 290.823 101.931 290.823 100.01C290.823 98.0896 291.656 96.5258 292.693 96.5258C293.73 96.5258 294.58 98.0896 294.58 100.01Z" fill="#263238"/>
<path d="M267.773 101.353C267.773 103.274 266.923 104.753 265.886 104.753C264.85 104.753 264.017 103.189 264.017 101.353C264.017 99.5175 264.85 97.8686 265.886 97.8686C266.923 97.8686 267.773 99.4155 267.773 101.353Z" fill="#263238"/>
<path d="M290.023 103.495C292.433 103.55 294.791 102.796 296.721 101.353" stroke="#263238" stroke-width="0.75" stroke-linecap="round" stroke-linejoin="round"/>
<path d="M262.487 104.43C264.798 105.125 267.274 105.029 269.525 104.158" stroke="#263238" stroke-width="0.75" stroke-linecap="round" stroke-linejoin="round"/>
<path d="M209.555 178.237C209.555 178.237 223.833 174.837 228.576 177.761C233.318 180.685 230.48 199.638 228.117 202.493C225.754 205.349 220.978 205.349 220.978 200.114C221.068 196.43 221.547 192.767 222.405 189.184H214.79L209.555 178.237Z" fill="white"/>
<path d="M228.814 199.451C229.069 194.674 230.072 188.419 226.808 183.659C223.545 178.9 214.773 181.399 214.773 181.399L216.592 189.184H222.406C221.547 192.767 221.068 196.43 220.978 200.114C220.968 200.686 221.031 201.257 221.165 201.814C224.191 203.055 228.678 203.276 228.814 199.451Z" fill="#99E9A0"/>
<path opacity="0.5" d="M228.814 199.451C229.069 194.674 230.072 188.419 226.808 183.659C223.545 178.9 214.773 181.399 214.773 181.399L216.592 189.184H222.406C221.547 192.767 221.068 196.43 220.978 200.114C220.968 200.686 221.031 201.257 221.165 201.814C224.191 203.055 228.678 203.276 228.814 199.451Z" fill="white"/>
<path d="M209.555 178.237C209.555 178.237 223.833 174.837 228.576 177.761C233.318 180.685 230.48 199.638 228.117 202.493C225.754 205.349 220.978 205.349 220.978 200.114C221.068 196.43 221.547 192.767 222.405 189.184H214.79L209.555 178.237Z" stroke="#263238" stroke-linecap="round" stroke-linejoin="round"/>
<path d="M232.773 215.106L233.963 221.243L229.288 216.789L195.139 145.838L198.64 144.172L232.773 215.106Z" fill="white" stroke="#263238" stroke-linecap="round" stroke-linejoin="round"/>
<path d="M229.289 216.789L233.963 221.243L232.774 215.106L232.57 214.664L229.255 216.704L229.289 216.789Z" fill="white" stroke="#263238" stroke-linecap="round" stroke-linejoin="round"/>
<path d="M198.64 144.172L195.139 145.838L198.215 152.213L201.632 150.394L198.64 144.172Z" fill="white" stroke="#263238" stroke-linecap="round" stroke-linejoin="round"/>
<path d="M201.48 183.948C199.56 188.076 197.333 192.053 194.816 195.847C191.961 199.655 183.887 205.842 182.918 212.505C181.949 219.169 195.751 226.291 201.939 227.243C208.126 228.195 218.58 220.104 220.96 219.152C223.34 218.2 226.195 216.772 222.864 209.65C219.532 202.527 201.48 183.948 201.48 183.948Z" fill="white"/>
<path d="M222.881 209.633C221.182 205.842 215.181 198.822 209.997 193.076L207.26 193.535C207.26 193.535 200.767 200.028 200.767 204.363C200.767 208.698 207.26 214.664 207.26 214.664C207.26 214.664 197.503 212.488 195.361 215.752C195.054 216.173 194.835 216.652 194.72 217.161C194.604 217.669 194.594 218.196 194.689 218.709C194.785 219.222 194.984 219.709 195.275 220.142C195.566 220.575 195.942 220.943 196.381 221.225C193.05 220.099 189.588 219.402 186.08 219.152C190.568 223.181 196.018 225.985 201.906 227.294C208.093 228.246 218.547 220.155 220.927 219.203C223.306 218.251 226.213 216.755 222.881 209.633Z" fill="#99E9A0"/>
<path opacity="0.5" d="M222.881 209.633C221.182 205.842 215.181 198.822 209.997 193.076L207.26 193.535C207.26 193.535 200.767 200.028 200.767 204.363C200.767 208.698 207.26 214.664 207.26 214.664C207.26 214.664 197.503 212.488 195.361 215.752C195.054 216.173 194.835 216.652 194.72 217.161C194.604 217.669 194.594 218.196 194.689 218.709C194.785 219.222 194.984 219.709 195.275 220.142C195.566 220.575 195.942 220.943 196.381 221.225C193.05 220.099 189.588 219.402 186.08 219.152C190.568 223.181 196.018 225.985 201.906 227.294C208.093 228.246 218.547 220.155 220.927 219.203C223.306 218.251 226.213 216.755 222.881 209.633Z" fill="white"/>
<path d="M201.48 183.948C199.56 188.076 197.333 192.053 194.816 195.847C191.961 199.655 183.887 205.842 182.918 212.505C181.949 219.169 195.751 226.291 201.939 227.243C208.126 228.195 218.58 220.104 220.96 219.152C223.34 218.2 226.195 216.772 222.864 209.65C219.532 202.527 201.48 183.948 201.48 183.948Z" stroke="#263238" stroke-linecap="round" stroke-linejoin="round"/>
<path d="M201.481 175.84C202.274 175.169 203.21 174.688 204.217 174.435C205.225 174.182 206.277 174.163 207.293 174.379C208.309 174.596 209.261 175.042 210.078 175.685C210.894 176.327 211.553 177.147 212.003 178.084C216.49 186.804 225.789 205.094 225.789 207.253C225.789 210.109 226.265 214.375 221.029 211.06C215.794 207.746 204.864 192.991 202.008 188.708C199.934 185.665 197.673 179.291 201.481 175.84Z" fill="white"/>
<path d="M218.037 190.629C218.037 190.629 213.77 183.829 209.011 186.107C204.251 188.385 217.289 207.661 219.533 210.415C221.777 213.168 224.547 212.676 225.312 210.67C226.077 208.664 225.55 206.165 224.309 201.406C223.068 196.646 218.037 190.629 218.037 190.629Z" fill="#99E9A0"/>
<path opacity="0.5" d="M218.037 190.629C218.037 190.629 213.77 183.829 209.011 186.107C204.251 188.385 217.289 207.661 219.533 210.415C221.777 213.168 224.547 212.676 225.312 210.67C226.077 208.664 225.55 206.165 224.309 201.406C223.068 196.646 218.037 190.629 218.037 190.629Z" fill="white"/>
<path d="M201.481 175.84C202.274 175.169 203.21 174.688 204.217 174.435C205.225 174.182 206.277 174.163 207.293 174.379C208.309 174.596 209.261 175.042 210.078 175.685C210.894 176.327 211.553 177.147 212.003 178.084C216.49 186.804 225.789 205.094 225.789 207.253C225.789 210.109 226.265 214.375 221.029 211.06C215.794 207.746 204.864 192.991 202.008 188.708C199.934 185.665 197.673 179.291 201.481 175.84Z" stroke="#263238" stroke-linecap="round" stroke-linejoin="round"/>
<path d="M195.294 200.114C198.061 205.158 201.269 209.948 204.881 214.426C209.148 219.186 224.378 216.806 224.378 216.806" stroke="#263238" stroke-linecap="round" stroke-linejoin="round"/>
<path d="M187.695 209.633C187.695 209.633 195.77 221.991 200.053 224.37C204.337 226.75 215.743 221.515 215.743 221.515" stroke="#263238" stroke-linecap="round" stroke-linejoin="round"/>
<path d="M371.465 203.513C371.465 203.513 357.339 201.253 354.789 202.102C352.24 202.952 348.585 207.202 338.692 210.007C328.799 212.811 325.977 214.817 329.649 216.517C334.864 218.352 340.548 218.352 345.763 216.517C350.863 214.528 355.367 211.418 356.489 211.146C358.688 211.279 360.866 211.655 362.983 212.268C362.983 212.268 370.649 208.596 371.465 203.513Z" fill="white" stroke="#263238" stroke-linecap="round" stroke-linejoin="round"/>
<path d="M488.445 138.257C455.893 133.48 449.842 161.544 430.923 184.424C416.457 201.898 403.93 208.919 398.813 211.265C392.609 206.845 385.214 202.119 380.812 200.981C372.058 198.72 369.525 203.241 365.853 206.913C362.182 210.585 336.752 225.611 335.341 228.382C333.93 231.153 337.313 231.781 339.574 232.053C341.835 232.325 349.467 229.504 349.467 229.504C349.467 229.504 342.668 232.614 344.367 234.875C346.067 237.136 361.587 232.886 366.958 230.915C366.958 230.915 352.833 237.408 353.682 239.669C354.532 241.929 359.615 241.08 362.998 240.23C366.38 239.38 384.755 232.886 384.755 232.886C384.755 232.886 371.157 239.108 367.757 241.08C364.357 243.051 369.457 244.479 371.99 244.479C374.522 244.479 386.676 238.819 392.048 237.136C397.419 235.453 408.859 234.824 416.406 230.915C419.107 229.568 421.607 227.851 423.835 225.815C439.235 217.588 484.757 191.903 495.771 172.967C507.908 152.076 505.291 140.738 488.445 138.257Z" fill="white"/>
<path d="M488.446 138.257C486.15 137.92 483.832 137.749 481.511 137.747C481.919 138.07 487.494 142.846 484.214 153.232C480.814 163.992 421.898 217.265 415.659 219.526C409.421 221.786 394.7 212.165 395.261 215.565C395.822 218.965 402.061 225.186 400.922 227.464C399.783 229.742 382.802 238.224 376.563 242.184C375.713 242.734 374.906 243.348 374.149 244.02C378.569 242.643 387.663 238.53 392.117 237.136C397.488 235.436 408.792 234.875 416.407 230.915C419.108 229.567 421.608 227.851 423.836 225.815C439.236 217.588 484.758 191.903 495.772 172.967C507.909 152.076 505.292 140.738 488.446 138.257Z" fill="#99E9A0"/>
<path opacity="0.5" d="M488.446 138.257C486.15 137.92 483.832 137.749 481.511 137.747C481.919 138.07 487.494 142.846 484.214 153.232C480.814 163.992 421.898 217.265 415.659 219.526C409.421 221.786 394.7 212.165 395.261 215.565C395.822 218.965 402.061 225.186 400.922 227.464C399.783 229.742 382.802 238.224 376.563 242.184C375.713 242.734 374.906 243.348 374.149 244.02C378.569 242.643 387.663 238.53 392.117 237.136C397.488 235.436 408.792 234.875 416.407 230.915C419.108 229.567 421.608 227.851 423.836 225.815C439.236 217.588 484.758 191.903 495.772 172.967C507.909 152.076 505.292 140.738 488.446 138.257Z" fill="white"/>
<path d="M488.445 138.257C455.893 133.48 449.842 161.544 430.923 184.424C416.457 201.898 403.93 208.919 398.813 211.265C392.609 206.845 385.214 202.119 380.812 200.981C372.058 198.72 369.525 203.241 365.853 206.913C362.182 210.585 336.752 225.611 335.341 228.382C333.93 231.153 337.313 231.781 339.574 232.053C341.835 232.325 349.467 229.504 349.467 229.504C349.467 229.504 342.668 232.614 344.367 234.875C346.067 237.136 361.587 232.886 366.958 230.915C366.958 230.915 352.833 237.408 353.682 239.669C354.532 241.929 359.615 241.08 362.998 240.23C366.38 239.38 384.755 232.886 384.755 232.886C384.755 232.886 371.157 239.108 367.757 241.08C364.357 243.051 369.457 244.479 371.99 244.479C374.522 244.479 386.676 238.819 392.048 237.136C397.419 235.453 408.859 234.824 416.406 230.915C419.107 229.568 421.607 227.851 423.835 225.815C439.235 217.588 484.757 191.903 495.771 172.967C507.908 152.076 505.291 140.738 488.445 138.257Z" stroke="#263238" stroke-linecap="round" stroke-linejoin="round"/>
<path d="M349.469 229.504C349.469 229.504 375.459 215.089 379.692 209.735" stroke="#263238" stroke-linecap="round" stroke-linejoin="round"/>
<path d="M366.978 230.915C366.978 230.915 382.276 224.421 387.597 220.461" stroke="#263238" stroke-linecap="round" stroke-linejoin="round"/>
<path d="M384.772 232.887C384.772 232.887 394.666 229.487 397.487 227.243" stroke="#263238" stroke-linecap="round" stroke-linejoin="round"/>
<path d="M398.815 211.265L404.901 216.126" stroke="#263238" stroke-linecap="round" stroke-linejoin="round"/>
<path d="M303.3 58.5517C303.3 58.5517 302.263 66.5069 278.058 79.3067C253.852 92.1064 236.225 88.9787 233.862 87.2619C231.499 85.545 223.833 63.7362 229.714 39.8875C235.596 16.0389 261.11 5.34692 283.242 5.34692C305.374 5.34692 317.137 21.5973 321.284 34.38C325.432 47.1628 318.854 82.1114 318.854 82.1114C318.854 82.1114 305.374 78.6097 303.3 58.5517Z" fill="#263238" stroke="#263238" stroke-linecap="round" stroke-linejoin="round"/>
<path d="M302.195 60.7443C302.195 60.7443 297.01 84.9499 249.075 94.452" stroke="#263238" stroke-linecap="round" stroke-linejoin="round"/>
<path d="M303.47 11.5001C303.47 11.5001 290.075 -9.66277 251.625 8.10048" stroke="#263238" stroke-linecap="round" stroke-linejoin="round"/>
<path d="M306.089 14.1012C308.725 13.7311 311.412 14.0991 313.852 15.1644C316.291 16.2296 318.388 17.9505 319.909 20.1356" stroke="#263238" stroke-linecap="round" stroke-linejoin="round"/>
<path d="M302.552 37.1167C302.552 37.1167 299.969 65.5209 250.895 74.513" stroke="white" stroke-linecap="round" stroke-linejoin="round"/>
<path d="M239.284 57.7017C237.584 57.5827 235.884 57.3957 234.185 57.1237" stroke="white" stroke-linecap="round" stroke-linejoin="round"/>
<path d="M300.614 29.3654C300.614 29.3654 277.973 55.4748 247.019 57.6676" stroke="white" stroke-linecap="round" stroke-linejoin="round"/>
</svg>
