<svg width="202" height="231" viewBox="0 0 202 231" fill="none" xmlns="http://www.w3.org/2000/svg">
<path d="M0 96.4118L0 224.038C0 227.503 2.80838 230.311 6.2727 230.311H194.888C198.353 230.311 201.161 227.503 201.161 224.038V96.4118C201.161 92.9475 198.353 90.1391 194.888 90.1391H6.2727C2.80838 90.1391 0 92.9475 0 96.4118Z" fill="#263238"/>
<path d="M13.7618 94.5602L13.7618 225.896H181.756V94.5602H13.7618Z" fill="white"/>
<path d="M196.304 161.475C196.983 158.584 195.191 155.69 192.3 155.01C189.41 154.331 186.515 156.123 185.836 159.014C185.156 161.904 186.949 164.799 189.839 165.478C192.73 166.158 195.624 164.365 196.304 161.475Z" fill="#455A64"/>
<path d="M5.78918 139.778L5.78918 180.673C5.78918 181.038 6.08583 181.335 6.45176 181.335H7.34785C7.71378 181.335 8.01043 181.038 8.01043 180.673L8.01043 139.778C8.01043 139.412 7.71378 139.115 7.34785 139.115H6.45176C6.08583 139.115 5.78918 139.412 5.78918 139.778Z" fill="#455A64"/>
<path d="M61.4167 171.619C65.5374 165.358 63.8021 156.942 57.5409 152.821C51.2797 148.7 42.8634 150.435 38.7428 156.697C34.6221 162.958 36.3574 171.374 42.6186 175.495C48.8798 179.615 57.296 177.88 61.4167 171.619Z" fill="#99E9A0"/>
<path opacity="0.3" d="M61.4167 171.619C65.5374 165.358 63.8021 156.942 57.5409 152.821C51.2797 148.7 42.8634 150.435 38.7428 156.697C34.6221 162.958 36.3574 171.374 42.6186 175.495C48.8798 179.615 57.296 177.88 61.4167 171.619Z" fill="white"/>
<path d="M45.3753 160.752C45.8858 160.709 46.3529 161.295 46.4181 162.023C46.4832 162.751 46.1085 163.397 45.5926 163.44C45.0766 163.484 44.615 162.897 44.5552 162.175C44.4955 161.453 44.8811 160.795 45.3753 160.752Z" fill="#263238"/>
<path d="M54.0213 160.573C53.5108 160.573 53.0655 161.116 53.0329 161.887C53.0003 162.658 53.3967 163.25 53.9127 163.272C54.4286 163.294 54.874 162.729 54.9011 161.963C54.9283 161.197 54.5372 160.594 54.0213 160.573Z" fill="#263238"/>
<path d="M55.5037 166.867C55.5037 167.025 52.9729 167.155 49.8555 167.155C46.7382 167.155 44.202 167.025 44.202 166.867C44.202 166.71 46.7328 166.574 49.8555 166.574C52.9783 166.574 55.5037 166.699 55.5037 166.867Z" fill="#263238"/>
<path d="M46.4617 159.193C46.4291 159.356 45.7828 159.351 45.0279 159.47C44.273 159.59 43.6593 159.785 43.5779 159.644C43.4964 159.503 44.0666 159.036 44.941 158.9C45.8154 158.764 46.4617 159.041 46.4617 159.193Z" fill="#263238"/>
<path d="M56.4707 159.851C56.3729 159.981 55.7864 159.677 55.0315 159.449C54.2766 159.221 53.6249 159.139 53.6086 158.971C53.5923 158.802 54.3309 158.623 55.1999 158.895C56.0688 159.166 56.5739 159.736 56.4707 159.851Z" fill="#263238"/>
<path d="M162.229 165.267C163.451 157.595 158.222 150.385 150.551 149.163C142.879 147.941 135.669 153.17 134.447 160.842C133.225 168.513 138.454 175.723 146.126 176.945C153.797 178.167 161.007 172.939 162.229 165.267Z" fill="#99E9A0"/>
<path opacity="0.3" d="M162.229 165.267C163.451 157.595 158.222 150.385 150.551 149.163C142.879 147.941 135.669 153.17 134.447 160.842C133.225 168.513 138.454 175.723 146.126 176.945C153.797 178.167 161.007 172.939 162.229 165.267Z" fill="black"/>
<path d="M143.474 159.503C144.017 159.459 144.495 160.046 144.56 160.817C144.625 161.588 144.245 162.245 143.713 162.289C143.181 162.332 142.692 161.746 142.627 160.975C142.562 160.203 142.942 159.546 143.474 159.503Z" fill="#263238"/>
<path d="M152.418 159.318C151.875 159.318 151.425 159.905 151.392 160.676C151.359 161.447 151.772 162.088 152.304 162.11C152.837 162.131 153.298 161.523 153.331 160.752C153.363 159.981 152.956 159.34 152.418 159.318Z" fill="#263238"/>
<path d="M153.955 165.835C153.896 165.911 153.309 165.493 152.326 164.977C151.033 164.302 149.597 163.948 148.139 163.945C146.679 164.01 145.249 164.38 143.941 165.031C142.92 165.531 142.312 165.911 142.263 165.835C142.214 165.759 142.746 165.292 143.751 164.673C145.075 163.872 146.582 163.422 148.128 163.364C149.683 163.36 151.208 163.795 152.527 164.619C153.499 165.238 153.993 165.781 153.955 165.835Z" fill="#263238"/>
<path d="M144.549 157.885C144.598 157.944 144.506 158.124 144.272 158.324C143.966 158.601 143.591 158.788 143.186 158.868C142.774 158.946 142.349 158.899 141.964 158.732C141.676 158.601 141.546 158.449 141.579 158.379C141.611 158.308 142.312 158.449 143.083 158.297C143.854 158.145 144.446 157.754 144.549 157.885Z" fill="#263238"/>
<path d="M154.96 158.569C154.96 158.639 154.83 158.775 154.515 158.873C154.101 158.99 153.66 158.975 153.255 158.829C152.857 158.689 152.501 158.452 152.218 158.14C152.011 157.901 151.935 157.711 151.99 157.656C152.044 157.602 152.679 158.015 153.44 158.281C154.2 158.547 154.906 158.406 154.96 158.569Z" fill="#263238"/>
<path d="M121.37 202.092L124.629 200.479L127.811 202.25L127.279 198.649L129.945 196.172L126.356 195.564L124.824 192.262L123.141 195.488L119.529 195.923L122.071 198.524L121.37 202.092Z" fill="#E0E0E0"/>
<path d="M108.075 202.092L111.334 200.479L114.516 202.25L113.984 198.649L116.651 196.172L113.061 195.564L111.529 192.262L109.846 195.488L106.234 195.923L108.776 198.524L108.075 202.092Z" fill="#99E9A0"/>
<path d="M94.7801 202.092L98.0387 200.479L101.216 202.25L100.689 198.649L103.356 196.172L99.7657 195.564L98.2342 192.262L96.5506 195.488L92.939 195.923L95.4807 198.524L94.7801 202.092Z" fill="#99E9A0"/>
<path d="M81.4855 202.092L84.744 200.479L87.9211 202.25L87.3943 198.649L90.0609 196.172L86.4711 195.564L84.9396 192.262L83.256 195.488L79.6444 195.923L82.1861 198.524L81.4855 202.092Z" fill="#99E9A0"/>
<path d="M68.1906 202.092L71.4491 200.479L74.6262 202.25L74.0994 198.649L76.766 196.172L73.1762 195.564L71.6446 192.262L69.961 195.488L66.3495 195.923L68.8912 198.524L68.1906 202.092Z" fill="#99E9A0"/>
<path d="M130.097 122.068C130.097 122.149 115.51 122.214 97.512 122.214C79.5139 122.214 64.9265 122.149 64.9265 122.068C64.9265 121.986 79.5085 121.926 97.512 121.926C115.515 121.926 130.097 121.992 130.097 122.068Z" fill="#263238"/>
<path d="M114.076 118.157C114.076 118.239 106.875 118.304 97.9899 118.304C89.105 118.304 81.8981 118.239 81.8981 118.157C81.8981 118.076 89.0995 118.011 97.9899 118.011C106.88 118.011 114.076 118.076 114.076 118.157Z" fill="#263238"/>
<path d="M117.949 165.506C121.088 155.765 115.736 145.324 105.995 142.186C96.2542 139.047 85.8134 144.399 82.6747 154.14C79.536 163.88 84.8881 174.321 94.6289 177.46C104.37 180.599 114.811 175.247 117.949 165.506Z" fill="#99E9A0"/>
<path d="M93.906 155.136C94.6066 155.082 95.242 155.853 95.3289 156.869C95.4158 157.884 94.9107 158.748 94.2101 158.808C93.5095 158.867 92.8687 158.091 92.7872 157.081C92.7057 156.07 93.2054 155.196 93.906 155.136Z" fill="#263238"/>
<path d="M105.685 154.919C104.985 154.886 104.376 155.69 104.338 156.706C104.3 157.721 104.833 158.569 105.533 158.596C106.234 158.623 106.842 157.825 106.886 156.809C106.929 155.793 106.391 154.919 105.685 154.919Z" fill="#263238"/>
<path d="M107.706 160.974C107.739 161.007 107.586 161.197 107.288 161.518C106.862 161.976 106.397 162.396 105.897 162.772C105.149 163.333 104.324 163.784 103.448 164.114C102.363 164.521 101.207 164.706 100.048 164.657C98.8987 164.595 97.7684 164.334 96.7083 163.885C95.8483 163.537 95.0244 163.106 94.2481 162.598C92.9338 161.719 92.2387 161.034 92.2767 160.969C92.3147 160.904 93.1239 161.458 94.4491 162.229C95.2307 162.674 96.046 163.057 96.8875 163.375C97.9038 163.77 98.976 164.003 100.065 164.065C101.149 164.11 102.231 163.954 103.258 163.603C104.101 163.31 104.905 162.916 105.653 162.43C106.283 161.996 106.794 161.632 107.125 161.344C107.456 161.056 107.679 160.947 107.706 160.974Z" fill="#263238"/>
<path d="M94.7425 150.971C94.7099 151.134 93.8247 151.074 92.7711 151.242C91.7175 151.411 90.892 151.731 90.8105 151.585C90.729 151.438 91.5111 150.851 92.6842 150.672C93.8572 150.493 94.7968 150.819 94.7425 150.971Z" fill="#263238"/>
<path d="M109.661 151.835C109.558 151.965 108.776 151.498 107.722 151.183C106.669 150.868 105.762 150.803 105.756 150.64C105.751 150.477 106.728 150.27 107.896 150.64C109.064 151.009 109.764 151.72 109.661 151.835Z" fill="#263238"/>
<path d="M92.5808 159.644C92.6514 159.644 92.7709 159.823 92.7872 160.187C92.7958 160.647 92.6548 161.097 92.3853 161.469C92.1219 161.849 91.74 162.132 91.2991 162.273C90.9624 162.37 90.756 162.321 90.7289 162.273C90.7289 162.11 91.4132 161.871 91.902 161.154C92.3907 160.437 92.4179 159.671 92.5808 159.644Z" fill="#263238"/>
<path d="M109.275 161.349C109.275 161.42 109.134 161.534 108.846 161.556C108.468 161.573 108.095 161.458 107.793 161.23C107.483 161.007 107.262 160.682 107.168 160.312C107.108 160.03 107.168 159.851 107.244 159.845C107.407 159.845 107.592 160.388 108.135 160.763C108.678 161.138 109.237 161.187 109.275 161.349Z" fill="#263238"/>
<path d="M181.756 94.5601H13.7618V102.94H181.756V94.5601Z" fill="#E0E0E0"/>
<path d="M19.1819 98.5191C19.1819 98.7436 19.1154 98.963 18.9906 99.1497C18.8659 99.3364 18.6886 99.4818 18.4812 99.5678C18.2738 99.6537 18.0456 99.6761 17.8254 99.6323C17.6052 99.5886 17.403 99.4804 17.2443 99.3217C17.0855 99.163 16.9774 98.9607 16.9336 98.7405C16.8898 98.5204 16.9123 98.2921 16.9982 98.0847C17.0841 97.8773 17.2296 97.7001 17.4163 97.5753C17.6029 97.4506 17.8224 97.384 18.0469 97.384C18.3479 97.384 18.6366 97.5036 18.8495 97.7165C19.0623 97.9294 19.1819 98.2181 19.1819 98.5191Z" fill="white"/>
<path d="M22.9511 98.5191C22.9511 98.7436 22.8845 98.963 22.7598 99.1497C22.6351 99.3364 22.4578 99.4818 22.2504 99.5678C22.043 99.6537 21.8148 99.6761 21.5946 99.6323C21.3744 99.5886 21.1722 99.4804 21.0134 99.3217C20.8547 99.163 20.7466 98.9607 20.7028 98.7405C20.659 98.5204 20.6815 98.2921 20.7674 98.0847C20.8533 97.8773 20.9988 97.7001 21.1854 97.5753C21.3721 97.4506 21.5915 97.384 21.816 97.384C22.1171 97.384 22.4058 97.5036 22.6186 97.7165C22.8315 97.9294 22.9511 98.2181 22.9511 98.5191Z" fill="white"/>
<path d="M26.7255 98.5191C26.7255 98.7436 26.6589 98.963 26.5342 99.1497C26.4095 99.3364 26.2322 99.4818 26.0248 99.5678C25.8174 99.6537 25.5892 99.6761 25.369 99.6323C25.1488 99.5886 24.9466 99.4804 24.7878 99.3217C24.6291 99.163 24.521 98.9607 24.4772 98.7405C24.4334 98.5204 24.4559 98.2921 24.5418 98.0847C24.6277 97.8773 24.7732 97.7001 24.9598 97.5753C25.1465 97.4506 25.366 97.384 25.5904 97.384C25.891 97.3855 26.1789 97.5055 26.3915 97.7181C26.604 97.9306 26.7241 98.2185 26.7255 98.5191Z" fill="white"/>
<path d="M163.226 128.677C163.226 128.759 134.078 128.824 98.1258 128.824C62.1732 128.824 33.02 128.759 33.02 128.677C33.02 128.596 62.1677 128.536 98.1258 128.536C134.084 128.536 163.226 128.601 163.226 128.677Z" fill="#E0E0E0"/>
<path d="M163.226 131.908C163.226 131.985 134.078 132.05 98.1258 132.05C62.1732 132.05 33.02 131.985 33.02 131.908C33.02 131.832 62.1677 131.762 98.1258 131.762C134.084 131.762 163.226 131.827 163.226 131.908Z" fill="#E0E0E0"/>
<path d="M77.7977 91.0244C77.7977 91.0244 76.6518 88.423 76.4346 87.8528C75.8535 86.2941 72.0898 75.8505 72.9968 74.2755C77.1623 66.9601 80.3937 61.7844 88.6107 61.7844L103.128 61.6866C103.128 61.6866 116.879 58.8843 126.573 90.1664L77.7977 91.0244Z" fill="#466770"/>
<path d="M47.1783 93.6422L66.1865 89.5473L88.5292 77.8002L88.6107 61.7627C85.2598 60.8395 78.8351 63.1639 67.2944 69.0456L50.1381 77.9034C48.7643 78.6115 47.5703 79.6237 46.6469 80.863C45.7235 82.1024 45.0952 83.5361 44.8097 85.055C44.5243 86.5739 44.5893 88.1379 44.9997 89.6279C45.4102 91.1179 46.1553 92.4946 47.1783 93.6531V93.6422Z" fill="#466770"/>
<mask id="path-42-outside-1" maskUnits="userSpaceOnUse" x="74.8039" y="114.235" width="24" height="23" fill="black">
<rect fill="white" x="74.8039" y="114.235" width="24" height="23"/>
<path d="M89.9521 124.685C89.6752 123.784 89.8652 123.203 91.1795 123.648C94.0796 124.62 96.6702 124.3 97.3002 123.74C97.9301 123.181 97.3545 122.111 96.4095 122.192C95.3777 122.19 94.351 122.047 93.3573 121.769C92.5507 121.577 91.7816 121.252 91.0818 120.808C90.4735 120.422 89.9521 120.058 89.4905 119.721C89.4905 119.721 86.8131 117.788 85.9767 116.235L76.8039 120.161L78.2811 124.756C78.4565 125.561 78.8328 126.309 79.375 126.93C79.9172 127.551 80.6077 128.025 81.3822 128.308C84.0053 129.16 88.1762 128.851 88.1762 128.851C88.942 128.351 91.891 132.62 92.7871 134.124C93.6832 135.629 94.7422 135.819 95.0898 134.901C95.3233 134.271 92.7002 129.595 91.7878 128.123C91.0514 127.044 90.4358 125.888 89.9521 124.674"/>
</mask>
<path d="M89.9521 124.685C89.6752 123.784 89.8652 123.203 91.1795 123.648C94.0796 124.62 96.6702 124.3 97.3002 123.74C97.9301 123.181 97.3545 122.111 96.4095 122.192C95.3777 122.19 94.351 122.047 93.3573 121.769C92.5507 121.577 91.7816 121.252 91.0818 120.808C90.4735 120.422 89.9521 120.058 89.4905 119.721C89.4905 119.721 86.8131 117.788 85.9767 116.235L76.8039 120.161L78.2811 124.756C78.4565 125.561 78.8328 126.309 79.375 126.93C79.9172 127.551 80.6077 128.025 81.3822 128.308C84.0053 129.16 88.1762 128.851 88.1762 128.851C88.942 128.351 91.891 132.62 92.7871 134.124C93.6832 135.629 94.7422 135.819 95.0898 134.901C95.3233 134.271 92.7002 129.595 91.7878 128.123C91.0514 127.044 90.4358 125.888 89.9521 124.674" fill="white"/>
<path d="M91.1795 123.648L90.8586 124.595L90.8617 124.596L91.1795 123.648ZM96.4095 122.192L96.4066 123.192L96.4511 123.193L96.4954 123.189L96.4095 122.192ZM93.3573 121.769L93.6269 120.806L93.6079 120.801L93.5886 120.796L93.3573 121.769ZM91.0818 120.808L91.618 119.964L91.6172 119.963L91.0818 120.808ZM89.4905 119.721L90.0798 118.913L90.0759 118.911L89.4905 119.721ZM85.9767 116.235L86.8572 115.761L86.4237 114.956L85.5832 115.315L85.9767 116.235ZM76.8039 120.161L76.4104 119.242L75.5731 119.6L75.8519 120.467L76.8039 120.161ZM78.2811 124.756L79.2582 124.543L79.2479 124.496L79.2331 124.45L78.2811 124.756ZM81.3822 128.308L81.0395 129.247L81.0562 129.253L81.073 129.259L81.3822 128.308ZM88.1762 128.851L88.2502 129.848L88.507 129.829L88.7227 129.688L88.1762 128.851ZM95.0898 134.901L96.025 135.255L96.0274 135.248L95.0898 134.901ZM91.7878 128.123L92.6377 127.596L92.6261 127.577L92.6137 127.559L91.7878 128.123ZM90.908 124.392C90.8822 124.308 90.8651 124.238 90.8548 124.182C90.8442 124.125 90.8423 124.091 90.8422 124.077C90.8422 124.062 90.8443 124.083 90.8314 124.126C90.8175 124.173 90.7862 124.246 90.7214 124.32C90.6548 124.396 90.5777 124.445 90.5117 124.471C90.4508 124.496 90.4151 124.495 90.4243 124.495C90.4337 124.495 90.473 124.495 90.5501 124.51C90.6261 124.524 90.7277 124.551 90.8586 124.595L91.5004 122.701C91.1172 122.571 90.7308 122.485 90.3644 122.496C89.9825 122.507 89.5424 122.631 89.2169 123.003C88.9073 123.356 88.8412 123.777 88.8422 124.084C88.8433 124.395 88.9122 124.705 88.9962 124.979L90.908 124.392ZM90.8617 124.596C92.4244 125.12 93.9136 125.3 95.1173 125.268C95.7184 125.252 96.2659 125.183 96.7268 125.069C97.1559 124.963 97.6249 124.789 97.9641 124.488L96.6362 122.992C96.6604 122.971 96.5694 123.047 96.245 123.128C95.9523 123.201 95.5528 123.256 95.065 123.269C94.0909 123.294 92.8348 123.148 91.4974 122.7L90.8617 124.596ZM97.9641 124.488C98.6993 123.835 98.6826 122.888 98.3179 122.237C97.9558 121.591 97.2136 121.119 96.3236 121.196L96.4954 123.189C96.5305 123.186 96.5462 123.193 96.5531 123.197C96.5648 123.203 96.5715 123.212 96.573 123.215C96.5751 123.219 96.5598 123.194 96.5658 123.14C96.569 123.112 96.5777 123.081 96.5932 123.051C96.6088 123.02 96.6262 123.001 96.6362 122.992L97.9641 124.488ZM96.4124 121.192C95.4707 121.19 94.5337 121.06 93.6269 120.806L93.0877 122.732C94.1682 123.034 95.2846 123.189 96.4066 123.192L96.4124 121.192ZM93.5886 120.796C92.8901 120.63 92.2241 120.349 91.618 119.964L90.5455 121.652C91.3392 122.156 92.2113 122.524 93.126 122.742L93.5886 120.796ZM91.6172 119.963C91.0314 119.592 90.5284 119.241 90.0798 118.913L88.9012 120.529C89.3759 120.876 89.9156 121.252 90.5464 121.652L91.6172 119.963ZM89.4905 119.721C90.0759 118.911 90.076 118.911 90.0761 118.911C90.0761 118.911 90.0762 118.911 90.0762 118.911C90.0762 118.911 90.0762 118.911 90.0762 118.911C90.0761 118.911 90.0759 118.911 90.0755 118.91C90.0747 118.91 90.0733 118.909 90.0713 118.907C90.0672 118.904 90.0607 118.9 90.0519 118.893C90.0342 118.88 90.0073 118.86 89.9722 118.834C89.9021 118.782 89.7995 118.704 89.6733 118.606C89.4202 118.409 89.0749 118.131 88.7059 117.808C87.9338 117.132 87.1816 116.363 86.8572 115.761L85.0962 116.709C85.6082 117.66 86.6129 118.634 87.3886 119.313C87.7935 119.667 88.1699 119.97 88.4449 120.184C88.5827 120.291 88.6959 120.377 88.7754 120.436C88.8152 120.466 88.8467 120.489 88.8686 120.506C88.8796 120.514 88.8882 120.52 88.8944 120.524C88.8974 120.527 88.8999 120.528 88.9017 120.53C88.9025 120.53 88.9033 120.531 88.9039 120.531C88.9041 120.531 88.9044 120.532 88.9046 120.532C88.9047 120.532 88.9048 120.532 88.9049 120.532C88.905 120.532 88.9051 120.532 89.4905 119.721ZM85.5832 115.315L76.4104 119.242L77.1974 121.081L86.3702 117.154L85.5832 115.315ZM75.8519 120.467L77.3291 125.062L79.2331 124.45L77.7559 119.855L75.8519 120.467ZM77.304 124.969C77.5153 125.939 77.9686 126.84 78.6217 127.588L80.1283 126.273C79.6971 125.779 79.3977 125.184 79.2582 124.543L77.304 124.969ZM78.6217 127.588C79.2749 128.336 80.1066 128.907 81.0395 129.247L81.7248 127.368C81.1088 127.144 80.5596 126.767 80.1283 126.273L78.6217 127.588ZM81.073 129.259C82.5298 129.732 84.3496 129.869 85.7416 129.899C86.4503 129.914 87.0733 129.901 87.5198 129.885C87.7434 129.877 87.9235 129.868 88.0488 129.861C88.1115 129.857 88.1606 129.854 88.1946 129.852C88.2116 129.851 88.2249 129.85 88.2342 129.849C88.2389 129.849 88.2426 129.849 88.2452 129.848C88.2466 129.848 88.2477 129.848 88.2485 129.848C88.2489 129.848 88.2493 129.848 88.2496 129.848C88.2497 129.848 88.2499 129.848 88.25 129.848C88.2501 129.848 88.2502 129.848 88.1762 128.851C88.1022 127.853 88.1023 127.853 88.1024 127.853C88.1024 127.853 88.1025 127.853 88.1025 127.853C88.1025 127.853 88.1025 127.853 88.1024 127.853C88.1023 127.853 88.1018 127.854 88.1011 127.854C88.0998 127.854 88.0975 127.854 88.0941 127.854C88.0875 127.855 88.077 127.855 88.0629 127.856C88.0345 127.858 87.9914 127.861 87.9349 127.864C87.8219 127.87 87.6557 127.879 87.4472 127.886C87.0297 127.902 86.4461 127.913 85.7842 127.899C84.4348 127.87 82.8577 127.736 81.6913 127.357L81.073 129.259ZM88.7227 129.688C88.3763 129.914 88.0807 129.754 88.1384 129.78C88.1625 129.791 88.258 129.848 88.4299 130C88.7617 130.295 89.187 130.774 89.649 131.357C90.5647 132.513 91.501 133.919 91.9279 134.636L93.6462 133.612C93.177 132.825 92.1908 131.345 91.2166 130.115C90.7336 129.505 90.2221 128.917 89.7576 128.505C89.5313 128.304 89.2637 128.097 88.9765 127.964C88.7229 127.847 88.1677 127.662 87.6298 128.013L88.7227 129.688ZM91.9279 134.636C92.4296 135.478 93.0899 136.158 93.8678 136.382C94.2839 136.502 94.754 136.491 95.1852 136.258C95.6083 136.029 95.8754 135.65 96.025 135.255L94.1546 134.547C94.1304 134.611 94.1348 134.552 94.2335 134.499C94.3404 134.441 94.4246 134.461 94.4205 134.46C94.4032 134.455 94.3097 134.419 94.1578 134.278C94.01 134.14 93.8324 133.925 93.6462 133.612L91.9279 134.636ZM96.0274 135.248C96.1199 134.999 96.1085 134.765 96.0967 134.642C96.0829 134.497 96.0519 134.356 96.0183 134.23C95.9509 133.978 95.8454 133.693 95.7248 133.401C95.4814 132.812 95.1318 132.093 94.7567 131.368C94.0051 129.915 93.1085 128.356 92.6377 127.596L90.9379 128.65C91.3794 129.362 92.2507 130.877 92.9803 132.287C93.3459 132.994 93.6653 133.654 93.8765 134.165C93.9833 134.423 94.0516 134.618 94.0864 134.748C94.104 134.813 94.1063 134.838 94.1057 134.832C94.1053 134.828 94.103 134.803 94.1058 134.762C94.1083 134.724 94.117 134.648 94.1521 134.553L96.0274 135.248ZM92.6137 127.559C91.9186 126.541 91.3376 125.449 90.8811 124.304L89.0232 125.045C89.534 126.326 90.1841 127.547 90.9619 128.687L92.6137 127.559Z" fill="#263238" mask="url(#path-42-outside-1)"/>
<path d="M83.7393 128.851C83.7393 128.883 83.5112 128.851 83.1962 128.721C82.7888 128.513 82.4537 128.188 82.2349 127.786C82.0103 127.388 81.9065 126.934 81.9362 126.478C81.9688 126.13 82.0774 125.934 82.11 125.934C82.0692 126.524 82.2017 127.113 82.4911 127.628C82.7806 128.143 83.2145 128.563 83.7393 128.835V128.851Z" fill="#995037"/>
<path d="M86.6502 128.987C86.6502 129.019 86.4329 128.987 86.1397 128.84C85.7591 128.626 85.4481 128.308 85.2436 127.922C85.0336 127.539 84.9357 127.104 84.9612 126.668C84.9937 126.336 85.0861 126.125 85.1241 126.163C85.1408 126.725 85.2681 127.279 85.4988 127.792C85.8035 128.259 86.1942 128.665 86.6502 128.987Z" fill="#995037"/>
<path d="M46.6351 93.0067C46.6351 93.0067 75.7557 126.472 75.7177 125.918C75.6797 125.364 88.7519 115.599 88.7519 115.599L60.2233 81.6018L46.6351 93.0067Z" fill="#466770"/>
<path d="M64.2964 86.4463C64.2964 86.4463 64.3724 86.506 64.5028 86.6418L65.0459 87.2501L67.001 89.5093C68.6303 91.421 70.8949 94.0822 73.3714 97.0311C75.8479 99.9801 78.0801 102.663 79.6822 104.634L81.5667 106.953L82.0718 107.594C82.1804 107.741 82.2401 107.822 82.2293 107.828C82.1543 107.771 82.0868 107.706 82.0283 107.632L81.4852 107.024C80.991 106.481 80.3339 105.693 79.5301 104.765C77.9008 102.853 75.6307 100.192 73.1542 97.243C70.6777 94.294 68.451 91.6111 66.8435 89.6397L64.959 87.3207C64.758 87.0654 64.5897 86.8536 64.4593 86.6798C64.396 86.6087 64.3413 86.5303 64.2964 86.4463Z" fill="#263238"/>
<path d="M115.809 90.2914C116.005 89.5825 116.122 88.8539 116.156 88.119C116.174 87.2488 116.015 86.3841 115.688 85.5774C115.362 84.7707 114.874 84.0389 114.255 83.4267C113.549 82.6827 112.789 82.0418 112.175 81.3684C111.613 80.7822 111.171 80.0923 110.872 79.3372C110.667 78.82 110.585 78.2622 110.633 77.7079C110.644 77.506 110.696 77.3083 110.785 77.1268C110.688 77.8449 110.783 78.5759 111.062 79.2449C111.38 79.9605 111.823 80.6135 112.371 81.1729C112.979 81.8191 113.739 82.4491 114.462 83.2095C115.167 83.9174 115.703 84.7749 116.031 85.7185C116.292 86.487 116.404 87.2978 116.363 88.1081C116.338 88.6526 116.233 89.1905 116.053 89.7048C116.005 89.9125 115.922 90.1108 115.809 90.2914Z" fill="#263238"/>
<path d="M76.5325 64.5488C76.5325 64.5488 76.6791 64.4728 76.9561 64.3478C77.2331 64.2229 77.6621 64.0654 78.2161 63.8917C78.8957 63.6825 79.5942 63.5406 80.3015 63.468C81.2473 63.3654 82.204 63.4541 83.1147 63.7287C84.2187 64.0796 85.21 64.7167 85.9877 65.5752C86.8715 66.5794 87.4747 67.7989 87.7364 69.1108C88.0647 70.5343 88.1583 72.0018 88.0134 73.4555C87.8403 75.0167 87.2803 76.5101 86.3842 77.8002C85.4376 79.0486 84.2547 80.0985 82.9029 80.8904C81.6267 81.6942 80.345 82.3459 79.1284 82.9867L72.6602 86.3865L68.3155 88.6512L67.1207 89.254C66.9845 89.3317 66.8407 89.3954 66.6917 89.4441C66.8201 89.3538 66.9543 89.2722 67.0935 89.1997L68.2612 88.548L72.6059 86.2019L79.0361 82.7532C80.2472 82.1069 81.5343 81.4444 82.7889 80.646C84.1067 79.871 85.2613 78.8473 86.1886 77.6319C87.0552 76.3744 87.593 74.9199 87.7527 73.4012C87.8942 71.9846 87.808 70.5545 87.4975 69.1651C87.2598 67.9044 86.6983 66.7271 85.8682 65.749C85.126 64.9101 84.1737 64.2839 83.1093 63.9351C82.2322 63.6597 81.3098 63.5582 80.3939 63.6364C79.6939 63.6961 79.0011 63.8216 78.3247 64.0111C77.7816 64.1686 77.3417 64.3098 77.0538 64.413C76.8862 64.4793 76.7111 64.5249 76.5325 64.5488Z" fill="#263238"/>
<path d="M67.5008 89.5148C67.403 89.542 67.1641 87.5923 65.8715 85.6317C64.579 83.6711 62.928 82.6393 62.9931 82.5632C63.3905 82.7203 63.7579 82.9444 64.0793 83.2258C65.6909 84.5011 66.8364 86.2727 67.3379 88.2657C67.4637 88.6696 67.5189 89.0922 67.5008 89.5148Z" fill="#263238"/>
<path d="M112.49 53.2904C111.872 52.5372 111.429 51.6561 111.192 50.7107C111.095 50.4065 111.084 50.0813 111.16 49.7711C111.199 49.6152 111.289 49.4768 111.416 49.3783C111.543 49.2798 111.7 49.2269 111.86 49.228C112.186 49.228 112.404 49.5593 112.583 49.8363C113.114 50.6356 113.562 51.4873 113.919 52.378C114.024 52.6214 114.078 52.884 114.076 53.1492C114.075 53.2816 114.04 53.4114 113.974 53.5264C113.909 53.6415 113.815 53.7378 113.702 53.8063C113.568 53.8642 113.421 53.8847 113.276 53.8656C113.132 53.8465 112.995 53.7884 112.881 53.6977C112.663 53.5124 112.479 53.2899 112.338 53.0405" fill="#455A64"/>
<path d="M113.886 52.6876L112.453 49.6789C112.29 49.3912 112.189 49.0733 112.154 48.7448C112.14 48.5798 112.177 48.4144 112.259 48.2708C112.342 48.1272 112.466 48.0122 112.615 47.941C112.754 47.9011 112.901 47.8993 113.04 47.9356C113.18 47.9719 113.307 48.045 113.408 48.1474C113.613 48.35 113.777 48.5896 113.892 48.8534L114.571 50.1731C114.772 50.5229 114.922 50.8996 115.016 51.2919C115.062 51.4895 115.066 51.6947 115.028 51.894C114.99 52.0933 114.91 52.2823 114.793 52.4487C114.669 52.6094 114.493 52.7225 114.295 52.769C114.098 52.8154 113.89 52.7925 113.707 52.7039" fill="#455A64"/>
<path d="M107.505 61.9908L107.307 62.1435L107.437 62.3121L107.624 62.2106L114.217 58.6316L114.45 58.5053L114.31 58.2802L113.249 56.5679C113.368 56.4961 113.53 56.3975 113.723 56.2788C114.139 56.0219 114.697 55.6704 115.265 55.2921C115.832 54.9145 116.412 54.5076 116.87 54.1403C117.098 53.9569 117.301 53.7798 117.457 53.6183C117.606 53.465 117.741 53.2982 117.795 53.1356C117.891 52.8447 117.829 52.505 117.709 52.1703C117.585 51.8275 117.383 51.4442 117.139 51.0418C116.789 50.4621 116.337 49.8164 115.883 49.1665C115.708 48.9167 115.533 48.6662 115.363 48.4187C115.05 47.9629 114.781 47.6137 114.549 47.3585C114.321 47.1075 114.112 46.9297 113.919 46.8395C113.82 46.7931 113.713 46.7644 113.603 46.7704C113.488 46.7767 113.387 46.8195 113.303 46.889C113.15 47.0173 113.074 47.2231 113.029 47.4181L113.029 47.4181L113.028 47.4207C113.016 47.4757 113.018 47.5308 113.021 47.5718C113.025 47.6167 113.033 47.6653 113.043 47.715C113.063 47.8145 113.095 47.9344 113.135 48.0668C113.215 48.3322 113.332 48.6658 113.464 49.0218C113.728 49.7349 114.059 50.5529 114.296 51.1266L114.296 51.1273C114.376 51.3201 114.388 51.5347 114.328 51.7348C114.269 51.9333 114.143 52.1054 113.973 52.2227C112.885 52.893 111.66 53.3103 110.39 53.4438L110.39 53.4435L110.378 53.4452C108.534 53.7243 107.169 54.4928 106.286 55.3809C105.411 56.2592 104.984 57.2821 105.084 58.0688C105.133 58.4509 105.305 58.898 105.52 59.3395C105.738 59.7857 106.009 60.2461 106.273 60.6595C106.537 61.0736 106.795 61.444 106.987 61.7108C107.083 61.8443 107.163 61.952 107.218 62.0266C107.246 62.0639 107.268 62.0929 107.283 62.1127L107.301 62.1354L107.305 62.1413L107.306 62.1429L107.307 62.1433L107.307 62.1435L107.505 61.9908ZM114.567 51.8063C114.644 51.551 114.629 51.2772 114.527 51.0313L110.416 53.6924C111.726 53.5549 112.988 53.1242 114.109 52.4324C114.329 52.2827 114.491 52.0616 114.567 51.8063Z" fill="white" stroke="#263238" stroke-width="0.5"/>
<path d="M119.377 88.6241L105.599 61.627L114.473 56.6577L133.112 86.2019C133.112 86.2019 134.095 88.0918 135.469 90.3022H119.844" fill="#466770"/>
<path d="M114.348 56.6577C114.348 56.6577 114.299 56.7012 114.196 56.7663L113.729 57.0487L111.947 58.086L105.539 61.7356L105.588 61.5727C106.929 64.2881 108.673 67.4652 110.427 70.903C113.039 75.9809 115.315 80.6352 116.889 84.0241C117.682 85.7185 118.312 87.098 118.741 88.0484C118.942 88.51 119.105 88.8739 119.225 89.1346C119.289 89.2592 119.34 89.3902 119.377 89.5256C119.296 89.4099 119.226 89.2862 119.17 89.1563C119.04 88.8848 118.861 88.5263 118.627 88.0701L116.694 84.0838C115.065 80.7221 112.773 76.0841 110.177 71.0062C108.423 67.5739 106.69 64.4076 105.371 61.6596L105.322 61.551L105.425 61.4912L111.882 57.934L113.702 56.951L114.185 56.7012C114.237 56.6795 114.292 56.6649 114.348 56.6577Z" fill="#263238"/>
<path d="M77.7978 91.0243C76.6082 89.0883 75.8264 86.9298 75.5005 84.681C75.5874 84.681 75.9621 86.1257 76.5867 87.869C77.2112 89.6123 77.8738 90.9863 77.7978 91.0243Z" fill="#263238"/>
<path d="M108.146 51.2267C109.24 51.6707 110.45 51.7456 111.591 51.4401C112.733 51.1345 113.743 50.4652 114.469 49.5336C115.196 48.602 115.599 47.459 115.617 46.2778C115.635 45.0965 115.268 43.9416 114.57 42.988C117.682 42.2005 119.621 38.6107 118.991 35.4607C118.361 32.3108 115.553 29.856 112.414 29.1772C111.214 28.8894 109.96 28.9212 108.776 29.2695C108.187 29.4502 107.642 29.7503 107.175 30.1512C106.708 30.5521 106.328 31.0451 106.06 31.5994" fill="#263238"/>
<path d="M110.063 35.6291C111.196 35.5647 112.279 35.1408 113.155 34.4189C114.031 33.697 114.654 32.7147 114.934 31.6146C115.214 30.5146 115.135 29.354 114.711 28.3014C114.286 27.2488 113.537 26.359 112.572 25.7611C113.039 24.4507 113.083 23.0265 112.696 21.6901C112.309 20.3537 111.512 19.1728 110.417 18.3145C109.322 17.4562 107.985 16.964 106.595 16.9076C105.205 16.8513 103.832 17.2335 102.671 18.0003C101.789 16.4352 100.448 15.1778 98.8294 14.3973C97.2108 13.6169 95.3921 13.3507 93.6178 13.6346C91.8435 13.9184 90.1987 14.7388 88.9045 15.9853C87.6103 17.2318 86.7288 18.8448 86.3785 20.6072C84.7877 19.9495 83.0348 19.7901 81.3514 20.1499C79.6681 20.5098 78.1336 21.372 76.9507 22.6225C75.7678 23.8731 74.9922 25.4532 74.7265 27.1539C74.4607 28.8547 74.7174 30.5961 75.4624 32.1479C73.721 32.2962 72.1099 33.1303 70.9834 34.4665C69.8569 35.8028 69.3075 37.5318 69.4558 39.2732C69.6042 41.0146 70.4382 42.6258 71.7745 43.7522C73.1108 44.8787 74.8398 45.4282 76.5812 45.2798C76.2293 46.4289 76.2423 47.6588 76.6184 48.8001C76.9946 49.9415 77.7153 50.9382 78.6814 51.6529C79.6475 52.3677 80.8114 52.7653 82.0129 52.7911C83.2143 52.8169 84.3942 52.4695 85.3901 51.7969C86.0263 52.8223 86.9408 53.6457 88.0271 54.1712C89.1133 54.6967 90.3266 54.9025 91.5254 54.7648C92.7242 54.627 93.8592 54.1513 94.7979 53.3931C95.7367 52.635 96.4406 51.6256 96.8276 50.4826" fill="#263238"/>
<path d="M103.774 61.1219L103.774 61.1217C103.831 59.8004 103.895 58.5413 103.944 57.6125C103.969 57.1481 103.99 56.7663 104.005 56.5007L104.017 56.2851C104.038 56.2813 104.06 56.2771 104.083 56.2725C104.251 56.2391 104.491 56.1848 104.778 56.1004C105.352 55.9318 106.121 55.6422 106.901 55.1571C108.467 54.1821 110.067 52.4189 110.199 49.3038C110.327 46.2769 110.24 41.2868 110.121 37.0606C110.061 34.9459 109.994 33.02 109.941 31.6228C109.915 30.9242 109.893 30.3577 109.877 29.9658C109.869 29.7698 109.862 29.6175 109.858 29.5142L109.853 29.3966L109.852 29.3666L109.851 29.359L109.851 29.3571L109.851 29.3566C109.851 29.3565 109.851 29.3564 109.601 29.3672L109.851 29.3564L109.845 29.2068L109.71 29.1419L98.8479 23.9174L98.7056 23.849L98.5827 23.948L86.8737 33.376L86.7724 33.4576L86.781 33.5873L88.6166 61.285L88.6167 61.2852C88.7497 63.2695 89.6549 65.1227 91.1382 66.4474C92.6215 67.7722 94.5648 68.4631 96.5514 68.372L96.5519 68.372C98.4429 68.2814 100.232 67.4877 101.568 66.1464C102.904 64.8052 103.691 63.0132 103.774 61.1219Z" fill="white" stroke="#263238" stroke-width="0.5"/>
<path d="M109.314 39.697C109.216 39.8002 108.651 39.3277 107.842 39.2951C107.033 39.2625 106.43 39.6753 106.348 39.5667C106.267 39.458 106.403 39.3331 106.663 39.1376C107.014 38.8925 107.437 38.772 107.864 38.7955C108.292 38.8129 108.702 38.9714 109.031 39.2462C109.276 39.4635 109.357 39.6536 109.314 39.697Z" fill="#263238"/>
<path d="M100.342 39.697C100.244 39.8002 99.6846 39.3277 98.87 39.2951C98.0553 39.2625 97.4634 39.6753 97.3765 39.5667C97.2896 39.458 97.4308 39.3331 97.6915 39.1376C98.042 38.8925 98.4646 38.772 98.8917 38.7955C99.32 38.8129 99.7304 38.9714 100.059 39.2462C100.304 39.4635 100.385 39.6536 100.342 39.697Z" fill="#263238"/>
<path d="M103.383 45.7849C103.811 45.6572 104.255 45.5896 104.702 45.584C104.909 45.584 105.104 45.5297 105.142 45.383C105.164 45.1548 105.121 44.925 105.017 44.7205C104.829 44.1774 104.634 43.6071 104.431 43.0097C103.616 40.5712 103.035 38.5727 103.127 38.5401C103.22 38.5075 103.948 40.4572 104.757 42.8848L105.3 44.6064C105.422 44.8808 105.455 45.1869 105.392 45.4808C105.361 45.5549 105.313 45.6212 105.253 45.6747C105.193 45.7282 105.122 45.7677 105.045 45.7903C104.931 45.8201 104.814 45.8329 104.697 45.8284C104.259 45.8724 103.817 45.8578 103.383 45.7849Z" fill="#263238"/>
<path d="M103.779 56.0766C100.977 56.0032 98.2564 55.1122 95.9534 53.5132C95.9534 53.5132 97.7945 57.9068 103.676 57.5592L103.779 56.0766Z" fill="#455A64"/>
<path d="M95.3831 24.4795C94.441 25.8394 93.9454 27.4588 93.9648 29.1131C93.9843 30.7673 94.5179 32.3746 95.4917 33.712C96.3715 34.8634 97.6967 35.8029 99.1467 35.7486C100.597 35.6943 101.998 34.3257 101.688 32.9082C101.547 33.3532 101.512 33.8249 101.585 34.2858C101.659 34.7468 101.839 35.1842 102.111 35.5634C102.383 35.9425 102.74 36.2527 103.154 36.4695C103.567 36.6863 104.025 36.8035 104.492 36.8119C104.959 36.8203 105.421 36.7195 105.842 36.5178C106.263 36.316 106.631 36.0187 106.917 35.6496C107.202 35.2806 107.398 34.8499 107.488 34.3918C107.578 33.9338 107.559 33.4611 107.434 33.0114C107.547 33.6629 107.777 34.2885 108.113 34.8579C108.285 35.1421 108.531 35.374 108.825 35.529C109.119 35.684 109.449 35.7562 109.78 35.7378C110.687 35.6183 111.214 34.6516 111.41 33.7446C111.691 32.3954 111.627 30.9971 111.223 29.6793C110.82 28.3616 110.09 27.167 109.102 26.2065C108.098 25.2659 106.909 24.5449 105.611 24.0895C104.313 23.6342 102.935 23.4544 101.563 23.5616C98.8049 23.8045 96.2032 24.9497 94.1611 26.8202" fill="#263238"/>
<path d="M96.149 26.6083C96.9141 28.3188 97.3278 30.1657 97.3655 32.0392C97.398 33.9231 96.6969 35.7459 95.4104 37.1225C94.7593 37.7926 93.9313 38.2642 93.0229 38.4824C92.1144 38.7007 91.1626 38.6566 90.2781 38.3553C90.5163 39.1639 90.5726 40.0151 90.443 40.8479C90.3134 41.6808 90.0012 42.4746 89.5287 43.1726C88.5185 44.514 86.5308 45.1549 85.059 44.3456C83.723 43.6179 83.1474 41.9995 82.9627 40.4897C82.7409 38.6572 82.9327 36.7982 83.524 35.0496C84.1154 33.301 85.0911 31.7072 86.3796 30.3854C87.6681 29.0635 89.2364 28.0474 90.9694 27.4116C92.7023 26.7758 94.5558 26.5366 96.3934 26.7115" fill="#263238"/>
<mask id="path-66-outside-2" maskUnits="userSpaceOnUse" x="84.2404" y="39.7626" width="6" height="9" fill="black">
<rect fill="white" x="84.2404" y="39.7626" width="6" height="9"/>
<path d="M88.6869 40.9841C87.8831 40.4844 86.786 40.8917 86.1452 41.5923C85.6407 42.1462 85.3289 42.8485 85.2566 43.5943C85.1843 44.34 85.3553 45.0892 85.744 45.7297C86.1327 46.3702 86.7183 46.8677 87.4132 47.1479C88.1081 47.428 88.875 47.4757 89.5992 47.2839"/>
</mask>
<path d="M88.6869 40.9841C87.8831 40.4844 86.786 40.8917 86.1452 41.5923C85.6407 42.1462 85.3289 42.8485 85.2566 43.5943C85.1843 44.34 85.3553 45.0892 85.744 45.7297C86.1327 46.3702 86.7183 46.8677 87.4132 47.1479C88.1081 47.428 88.875 47.4757 89.5992 47.2839" fill="white"/>
<path d="M86.1452 41.5923L85.4073 40.9174L85.4059 40.9189L86.1452 41.5923ZM89.2148 40.1348C88.5181 39.7017 87.7386 39.6928 87.0861 39.8749C86.439 40.0555 85.8454 40.4385 85.4073 40.9174L86.8831 42.2673C87.0859 42.0456 87.3611 41.8746 87.6238 41.8013C87.8809 41.7295 88.0519 41.7668 88.1589 41.8333L89.2148 40.1348ZM85.4059 40.9189C84.756 41.6324 84.3544 42.5371 84.2613 43.4978L86.252 43.6908C86.3034 43.16 86.5253 42.66 86.8845 42.2657L85.4059 40.9189ZM84.2613 43.4978C84.1681 44.4584 84.3884 45.4234 84.8891 46.2485L86.5989 45.2109C86.3222 44.7549 86.2005 44.2217 86.252 43.6908L84.2613 43.4978ZM84.8891 46.2485C85.3898 47.0736 86.1441 47.7145 87.0393 48.0753L87.7871 46.2204C87.2924 46.021 86.8756 45.6668 86.5989 45.2109L84.8891 46.2485ZM87.0393 48.0753C87.9344 48.4362 88.9223 48.4977 89.8553 48.2506L89.3432 46.3173C88.8277 46.4538 88.2817 46.4198 87.7871 46.2204L87.0393 48.0753Z" fill="#263238" mask="url(#path-66-outside-2)"/>
<path d="M88.502 45.4752C88.502 45.5078 88.2359 45.5458 87.8177 45.4318C87.5408 45.3601 87.2845 45.2245 87.0695 45.0359C86.8545 44.8472 86.6866 44.6108 86.5795 44.3456C86.4697 44.0305 86.4813 43.6859 86.612 43.3789C86.7218 43.1399 86.8945 42.9353 87.1117 42.7869C87.4864 42.5425 87.7688 42.548 87.7743 42.5806C87.7797 42.6131 87.5299 42.6946 87.2312 42.9499C87.0414 43.1017 86.9028 43.308 86.8338 43.5411C86.7649 43.7741 86.769 44.0226 86.8456 44.2533C86.9405 44.4828 87.0815 44.6905 87.2599 44.8633C87.4384 45.0361 87.6504 45.1705 87.8829 45.258C88.2793 45.3938 88.5074 45.4318 88.502 45.4752Z" fill="#995037"/>
<path d="M100.841 37.1825C100.765 37.416 99.8799 37.3291 98.8318 37.378C97.7836 37.4269 96.9092 37.5572 96.8169 37.3291C96.7246 37.101 97.5772 36.5525 98.7992 36.509C100.021 36.4656 100.923 36.9598 100.841 37.1825Z" fill="#263238"/>
<path d="M109.292 37.014C109.199 37.0955 109.02 37.014 108.808 36.9869C108.567 36.9287 108.317 36.914 108.07 36.9434C107.755 36.9434 107.407 37.0303 107.141 37.0249C106.875 37.0195 106.69 36.9652 106.658 36.8457C106.625 36.7262 106.745 36.585 106.967 36.4329C107.277 36.2353 107.628 36.1125 107.994 36.0745C108.207 36.0467 108.424 36.0695 108.627 36.1412C108.83 36.2129 109.013 36.3315 109.161 36.4872C109.362 36.7316 109.379 36.938 109.292 37.014Z" fill="#263238"/>
<path d="M101.976 47.3274C102.2 47.1827 102.452 47.0883 102.715 47.0508C102.979 47.0133 103.247 47.0335 103.502 47.1101C103.754 47.1972 103.968 47.3699 104.106 47.5981C104.244 47.8263 104.297 48.0956 104.257 48.3592C104.183 48.6422 104.01 48.889 103.768 49.0544C103.593 49.1905 103.39 49.288 103.174 49.3404C102.957 49.3928 102.733 49.399 102.514 49.3585C102.295 49.3149 102.092 49.2125 101.926 49.0623C101.761 48.9122 101.639 48.7198 101.574 48.5059C101.52 48.2894 101.54 48.0612 101.629 47.8569C101.719 47.6526 101.873 47.4836 102.069 47.3762" fill="#455A64"/>
<path d="M104.941 47.9737C104.941 47.9737 104.746 48.142 104.36 48.2235C103.847 48.3301 103.313 48.279 102.829 48.0768C102.346 47.8729 101.934 47.531 101.645 47.0938C101.428 46.7626 101.384 46.5182 101.417 46.5019C101.449 46.4856 101.569 46.692 101.808 46.9744C102.116 47.335 102.503 47.6209 102.937 47.8107C103.378 47.9872 103.854 48.0597 104.328 48.0225C104.697 47.9954 104.925 47.9302 104.941 47.9737Z" fill="#263238"/>
<path d="M109.286 23.8495C109.339 23.8531 109.39 23.8659 109.438 23.8875C109.58 23.9433 109.709 24.0263 109.818 24.1319C110.024 24.3359 110.175 24.5874 110.259 24.8641C110.344 25.1408 110.358 25.434 110.302 25.7177C110.187 26.1487 109.947 26.5362 109.613 26.8318C109.278 27.1273 108.865 27.3179 108.423 27.3796C107.305 27.5138 106.176 27.2441 105.24 26.6193L104.121 25.973L105.349 26.3749C105.56 26.4496 105.749 26.5763 105.898 26.7434C106.047 26.9105 106.151 27.1125 106.201 27.3307C106.26 27.5477 106.275 27.7743 106.246 27.9972C106.216 28.2201 106.142 28.4348 106.028 28.6287C105.779 29.0187 105.39 29.2986 104.942 29.4107C104.489 29.5249 104.014 29.5136 103.567 29.3782C102.568 28.9886 101.732 28.2678 101.2 27.3361L100.374 26.2065L101.373 27.1786C101.632 27.4457 101.818 27.7748 101.913 28.1342C102.008 28.4936 102.009 28.8715 101.916 29.2315C101.844 29.5605 101.698 29.8688 101.489 30.1332C101.28 30.3975 101.014 30.611 100.711 30.7576C100.213 30.994 99.6585 31.0843 99.1114 31.018C98.5644 30.9517 98.0474 30.7314 97.6206 30.3829C97.0573 29.925 96.6417 29.311 96.4258 28.6178C96.3689 28.4403 96.3253 28.2588 96.2955 28.0747C96.2894 28.0097 96.2894 27.9443 96.2955 27.8792C96.3227 27.8792 96.3552 28.1399 96.529 28.5907C96.7694 29.2321 97.1807 29.7956 97.7184 30.2199C98.1224 30.5315 98.605 30.7244 99.1125 30.7772C99.6199 30.83 100.132 30.7404 100.591 30.5187C100.859 30.3848 101.094 30.1922 101.277 29.9553C101.46 29.7183 101.588 29.4431 101.65 29.1501C101.73 28.8357 101.728 28.5065 101.645 28.1931C101.562 27.8796 101.402 27.5923 101.178 27.3579L101.39 27.1786C101.889 28.0504 102.668 28.7279 103.6 29.1012C103.981 29.2421 104.397 29.2581 104.787 29.1468C105.178 29.0355 105.523 28.8026 105.772 28.4821C106.163 27.8412 105.93 26.8528 105.267 26.6301L105.376 26.3857C106.253 26.9884 107.314 27.2633 108.374 27.1623C108.783 27.1138 109.17 26.9458 109.485 26.6793C109.799 26.4127 110.029 26.0594 110.144 25.6634C110.201 25.4016 110.196 25.1302 110.129 24.8709C110.062 24.6116 109.935 24.3715 109.759 24.1699C109.617 24.0417 109.458 23.9339 109.286 23.8495Z" fill="#455A64"/>
<path d="M94.7966 33.5546C94.7966 33.5546 94.7966 33.5926 94.726 33.6577C94.6477 33.7545 94.5624 33.8452 94.4707 33.9293C94.1195 34.2488 93.7077 34.4945 93.2596 34.6516C92.5579 34.8958 91.796 34.9073 91.0873 34.6842C90.6178 34.5372 90.1831 34.2963 89.8096 33.976C89.4362 33.6558 89.1318 33.2629 88.9149 32.8214L89.143 32.7888C89.0549 33.3387 88.8374 33.8599 88.5084 34.3092C88.1793 34.7586 87.7482 35.1233 87.2505 35.3733C86.7527 35.6232 86.2027 35.7513 85.6458 35.747C85.0889 35.7426 84.5409 35.6059 84.0472 35.3481C83.5535 35.0904 83.1281 34.719 82.8062 34.2645C82.4842 33.81 82.2749 33.2855 82.1955 32.7343C82.1161 32.183 82.1688 31.6208 82.3494 31.0939C82.53 30.567 82.8333 30.0907 83.2341 29.704L83.4242 29.905C82.783 30.4376 81.9768 30.7313 81.1432 30.7359C80.3867 30.7506 79.6419 30.547 78.998 30.1494C78.4225 29.7921 77.9726 29.2644 77.7109 28.6396C77.4978 28.1071 77.4069 27.5337 77.4448 26.9614C77.4904 26.1483 77.8036 25.3731 78.3355 24.7565C78.5213 24.5365 78.7459 24.3524 78.998 24.2134C78.998 24.2134 78.7536 24.398 78.4115 24.8271C77.9258 25.45 77.6484 26.21 77.6186 26.9994C77.5961 27.5428 77.6944 28.0844 77.9064 28.5853C78.1601 29.1609 78.5849 29.6444 79.123 29.9701C79.7283 30.3414 80.4279 30.53 81.1378 30.5132C81.9073 30.5025 82.6504 30.2306 83.245 29.7421L83.4297 29.943C82.9678 30.4167 82.6559 31.0162 82.5333 31.6664C82.4106 32.3166 82.4825 32.9885 82.7399 33.598C83.0553 34.2634 83.5827 34.8052 84.2393 35.1384C84.8959 35.4717 85.6446 35.5774 86.3678 35.4391C87.0012 35.2899 87.578 34.9609 88.0289 34.4917C88.4798 34.0225 88.7856 33.433 88.9095 32.7942L88.9692 32.4141L89.1375 32.7616C89.3354 33.1766 89.6141 33.5479 89.9572 33.8538C90.3004 34.1597 90.7012 34.394 91.1361 34.543C91.8148 34.7687 92.5483 34.7687 93.227 34.543C93.666 34.4078 94.0751 34.1904 94.4327 33.9021C94.6934 33.674 94.7966 33.5437 94.7966 33.5546Z" fill="#455A64"/>
<path d="M84.0486 43.2108C83.912 43.3362 83.7512 43.4323 83.5761 43.4932C83.1008 43.691 82.5847 43.7711 82.0718 43.7267C81.278 43.668 80.5371 43.3064 80.0026 42.7166C79.6656 42.3434 79.417 41.8993 79.275 41.417C79.1331 40.9347 79.1014 40.4267 79.1825 39.9305L79.4323 40.0391C78.896 40.7493 78.1978 41.3209 77.3957 41.7064C76.7772 42.0001 76.0979 42.1434 75.4135 42.1246C74.7757 42.1067 74.1516 41.9353 73.5941 41.625C73.1126 41.377 72.7015 41.0116 72.3986 40.5626C72.0958 40.1136 71.9111 39.5954 71.8616 39.0561C71.797 38.3345 71.9893 37.6132 72.4047 37.0195C72.522 36.8648 72.6589 36.7261 72.812 36.6068C72.8626 36.5599 72.9215 36.523 72.9858 36.4982C72.9858 36.4982 72.774 36.6828 72.4971 37.0847C72.1335 37.668 71.9766 38.3566 72.0517 39.0398C72.1081 39.5443 72.2911 40.0263 72.5835 40.4412C72.8759 40.8561 73.2684 41.1904 73.7244 41.4131C74.2695 41.7015 74.8752 41.8563 75.4917 41.8648C76.1083 41.8733 76.7181 41.7352 77.2708 41.462C78.0319 41.0991 78.6962 40.5613 79.2097 39.8925L79.5627 39.4363L79.4595 39.9794C79.3826 40.4352 79.4074 40.9024 79.5323 41.3474C79.6572 41.7925 79.879 42.2044 80.1818 42.5536C80.672 43.1137 81.3539 43.4701 82.0935 43.5529C82.5817 43.6101 83.0766 43.5601 83.5435 43.4063C83.8694 43.2922 84.0377 43.1945 84.0486 43.2108Z" fill="#455A64"/>
<path d="M114.804 31.4474C114.935 31.765 114.977 32.1126 114.924 32.4521C114.859 33.2872 114.508 34.0743 113.928 34.6793C113.349 35.2843 112.578 35.6699 111.747 35.7704C111.411 35.8413 111.063 35.815 110.742 35.6944C110.742 35.6455 111.127 35.6944 111.714 35.5694C112.48 35.425 113.182 35.044 113.721 34.4799C114.26 33.9159 114.608 33.1972 114.717 32.4249C114.815 31.833 114.755 31.4528 114.804 31.4474Z" fill="#455A64"/>
<path d="M118.15 37.1335C118.224 37.26 118.27 37.4007 118.285 37.5463C118.35 37.946 118.311 38.3556 118.171 38.7357C118.072 39.0318 117.899 39.298 117.669 39.5097C117.44 39.7214 117.16 39.8717 116.857 39.9468C116.493 40.0213 116.116 39.9873 115.771 39.849C115.578 39.7759 115.401 39.664 115.253 39.5201C115.104 39.3763 114.987 39.2036 114.907 39.0126L115.179 38.9203C115.228 39.097 115.252 39.2799 115.25 39.4634C115.233 39.8829 115.096 40.2888 114.854 40.6319C114.612 40.9751 114.276 41.2407 113.886 41.3968C113.538 41.5245 113.159 41.5415 112.8 41.4457C112.498 41.3591 112.219 41.205 111.986 40.9949C111.641 40.7024 111.409 40.2993 111.328 39.8544C111.28 39.5449 111.328 39.3711 111.328 39.3765C111.328 39.3819 111.328 39.5449 111.421 39.8327C111.539 40.2289 111.776 40.5795 112.1 40.8374C112.326 41.0319 112.601 41.163 112.894 41.2173C113.188 41.2717 113.491 41.2474 113.772 41.147C114.107 41.0051 114.395 40.771 114.601 40.472C114.808 40.1729 114.926 39.8213 114.94 39.458C114.943 39.3073 114.923 39.1572 114.88 39.0126L115.157 38.9203C115.303 39.2133 115.543 39.4492 115.838 39.5909C116.133 39.7325 116.467 39.7717 116.786 39.7024C117.053 39.6409 117.3 39.5153 117.506 39.3364C117.712 39.1574 117.872 38.9307 117.97 38.6759C118.114 38.3327 118.179 37.9615 118.161 37.5897C118.15 37.2856 118.101 37.139 118.15 37.1335Z" fill="#455A64"/>
<path d="M101.564 45.2146C101.602 45.2146 101.623 45.3395 101.564 45.5242C101.49 45.7626 101.347 45.9741 101.154 46.1324C100.961 46.2907 100.726 46.3889 100.477 46.4148C100.287 46.4148 100.173 46.3822 100.179 46.3442C100.184 46.3062 100.597 46.2247 100.966 45.9043C101.336 45.5839 101.482 45.2146 101.564 45.2146Z" fill="#263238"/>
<path d="M40.1616 0.474691C40.0359 0.497701 39.909 0.514017 39.7815 0.523569L38.6953 0.615896C38.096 0.656426 37.5005 0.741747 36.9139 0.871147C36.5609 0.94718 36.1753 0.979767 35.7843 1.09925C35.3933 1.21873 34.9697 1.33821 34.5298 1.46312C32.3875 2.15076 30.3702 3.17956 28.5558 4.50986C26.1711 6.29074 24.186 8.5515 22.7284 11.1464C20.4938 15.1727 19.5301 19.781 19.9641 24.3653C19.9966 24.8649 20.1053 25.3591 20.1759 25.8642C20.2432 26.372 20.3448 26.8746 20.48 27.3686C20.959 29.4403 21.7462 31.4285 22.8153 33.2666C25.0906 37.2441 28.6063 40.3668 32.8245 42.157C35.0469 43.0849 37.4226 43.5914 39.8303 43.6505C42.31 43.7487 44.7847 43.3575 47.1132 42.4991L47.8246 42.2276L47.917 42.195L48.0039 42.233L58.3226 47.3272L58.0239 47.5933L54.7328 37.7688L54.6948 37.6439L54.7816 37.5516C57.2455 35.0175 59.0587 31.9241 60.0659 28.5362C60.9717 25.4406 61.2014 22.1863 60.7394 18.9941C60.0023 13.6735 57.3396 8.80799 53.2556 5.31907C51.7084 4.05096 50.0011 2.9919 48.1777 2.16914C46.8004 1.59466 45.3683 1.16158 43.9035 0.876579L42.3068 0.626758L41.1283 0.556155L40.406 0.507277C40.3238 0.50654 40.2419 0.497442 40.1616 0.480123C40.2428 0.470493 40.3248 0.470493 40.406 0.480123H41.1283L42.3177 0.512707L43.947 0.735375C45.4348 0.99663 46.891 1.41348 48.2917 1.97905C50.1472 2.78731 51.8846 3.84327 53.4565 5.11812C55.3638 6.71938 56.9854 8.63292 58.252 10.7771C59.731 13.2796 60.7069 16.0469 61.125 18.9235C61.608 22.1678 61.3857 25.478 60.4732 28.6286C59.4592 32.0846 57.6195 35.2421 55.1129 37.8285L55.1509 37.6113C56.2371 40.7612 57.3233 44.0469 58.4529 47.4304L58.6213 47.9246L58.1542 47.6965L47.8355 42.6077H48.0147L47.287 42.8847C44.9058 43.7584 42.3752 44.1515 39.8412 44.0415C37.3811 43.982 34.9537 43.4645 32.6833 42.5154C28.3827 40.681 24.802 37.4875 22.4894 33.4241C21.4049 31.5622 20.605 29.5486 20.1161 27.45C19.979 26.9476 19.8792 26.4357 19.8174 25.9185C19.7468 25.408 19.6328 24.9084 19.6056 24.3979C19.5128 23.4014 19.4874 22.3999 19.5296 21.4C19.5859 19.5052 19.8759 17.6245 20.3931 15.8007C20.8898 14.1266 21.5787 12.5155 22.446 10.9998C23.9439 8.37523 25.9798 6.09694 28.42 4.31435C30.2599 2.98636 32.3057 1.96989 34.4754 1.30562L35.7517 0.958042C36.1263 0.869916 36.5051 0.801036 36.8868 0.751669C37.4791 0.630306 38.0803 0.55765 38.6844 0.534431L39.7978 0.480123L40.1616 0.474691Z" fill="#263238"/>
<path d="M45.0169 19.4177H43.5126L40.178 14.8829L40.1454 11.8796C40.1454 11.8796 37.821 11.7656 38.136 15.6813C38.4509 19.597 38.136 18.6085 38.136 18.6085C38.136 18.6085 33.2047 18.6846 32.7974 19.119C32.5041 19.434 32.4226 24.3381 32.4063 26.9939C32.3765 27.6452 32.5688 28.2874 32.9516 28.8153C33.3344 29.3431 33.8851 29.7254 34.5135 29.8994C34.6913 29.943 34.8736 29.9649 35.0566 29.9646C36.2894 29.9646 42.5621 28.8784 42.5621 28.8784L45.1635 28.8458L45.0169 19.4177Z" fill="#D95736"/>
<path d="M49.3126 18.5432L48.5034 28.8348L45.9292 28.8674L45.8151 18.793L49.3126 18.5432Z" fill="#D95736"/>
</svg>
