<svg width="15" height="12" viewBox="0 0 15 12" fill="none" xmlns="http://www.w3.org/2000/svg">
<path d="M1.7 3.81C1.5 3.81 1.33 3.74 1.19 3.6C1.05 3.46 0.98 3.29 0.98 3.09V1.41C0.98 1.19 1.05 1.02 1.19 0.899999C1.33 0.759999 1.5 0.689999 1.7 0.689999H13.31C13.53 0.689999 13.71 0.759999 13.85 0.899999C13.99 1.04 14.06 1.21 14.06 1.41V3.09C14.06 3.29 13.99 3.46 13.85 3.6C13.71 3.74 13.53 3.81 13.31 3.81H1.7ZM1.7 11.31C1.5 11.31 1.33 11.24 1.19 11.1C1.05 10.96 0.98 10.79 0.98 10.59V8.91C0.98 8.69 1.05 8.52 1.19 8.4C1.33 8.26 1.5 8.19 1.7 8.19H13.31C13.53 8.19 13.71 8.26 13.85 8.4C13.99 8.54 14.06 8.71 14.06 8.91V10.59C14.06 10.79 13.99 10.96 13.85 11.1C13.71 11.24 13.53 11.31 13.31 11.31H1.7Z" fill="#D95736"/>
</svg>
