<svg width="20" height="20" viewBox="0 0 20 20" fill="none" xmlns="http://www.w3.org/2000/svg">
<path d="M9.16667 0V1.71875C4.1569 2.13867 0.211588 6.22396 0.0260417 10.5208C0.0227867 10.625 0 10.7292 0 10.8333H1.66667C1.66667 10.7682 1.74154 10.6022 2.10938 10.3906C2.47721 10.179 3.07292 10 3.75 10C4.42708 10 5.02279 10.179 5.39062 10.3906C5.75846 10.6022 5.83333 10.7682 5.83333 10.8333H7.5C7.5 10.8236 7.56836 10.6152 8.02083 10.3906C8.47331 10.166 9.19271 10 10 10C10.8073 10 11.5267 10.166 11.9792 10.3906C12.4316 10.6152 12.5 10.8236 12.5 10.8333H14.1667C14.1667 10.7682 14.2415 10.6022 14.6094 10.3906C14.9772 10.179 15.5729 10 16.25 10C16.9271 10 17.5228 10.179 17.8906 10.3906C18.2585 10.6022 18.3333 10.7682 18.3333 10.8333H20C20 10.7259 19.9902 10.6217 19.974 10.5208C19.7884 6.22396 15.8431 2.13867 10.8333 1.71875V0H9.16667ZM10 3.33333C13.623 3.33333 16.7188 5.79427 17.8646 8.56771C17.3698 8.41471 16.8262 8.33333 16.25 8.33333C15.3158 8.33333 14.4629 8.54167 13.776 8.93229C13.61 9.02669 13.4538 9.14714 13.3073 9.27083C13.1283 9.13412 12.9329 9.00716 12.7344 8.90625C11.9792 8.52865 11.0319 8.33333 10 8.33333C8.9681 8.33333 8.02083 8.52865 7.26562 8.90625C7.07031 9.00391 6.89128 9.13737 6.71875 9.27083C6.71224 9.26758 6.69922 9.27409 6.69271 9.27083C6.54622 9.14714 6.38997 9.02669 6.22396 8.93229C5.53711 8.54167 4.68425 8.33333 3.75 8.33333C3.17383 8.33333 2.63021 8.41471 2.13542 8.56771C3.28125 5.79427 6.37695 3.33333 10 3.33333ZM9.16667 10.8333V17.5C9.16667 17.972 8.80534 18.3333 8.33333 18.3333C7.86133 18.3333 7.5 17.972 7.5 17.5V16.6667H5.83333V17.5C5.83333 18.8704 6.96289 20 8.33333 20C9.70378 20 10.8333 18.8704 10.8333 17.5V10.8333H9.16667Z" fill="#7FA082"/>
</svg>
