<svg width="498" height="507" viewBox="0 0 498 507" fill="none" xmlns="http://www.w3.org/2000/svg">
<path d="M7.29065 506.194L487.977 506.153" stroke="#263238" stroke-linecap="round" stroke-linejoin="round"/>
<path d="M274.237 442.419V505.775" stroke="#263238" stroke-linecap="round" stroke-linejoin="round"/>
<path d="M274.237 421.689V435.257" stroke="#263238" stroke-linecap="round" stroke-linejoin="round"/>
<path d="M7.53674 506.153V388.089H274.237V414.002" stroke="#263238" stroke-linecap="round" stroke-linejoin="round"/>
<path d="M46.3921 401.002H23.2451V495.322" stroke="#263238" stroke-linecap="round" stroke-linejoin="round"/>
<path d="M258.53 505.775V401.002H59.8296" stroke="#263238" stroke-linecap="round" stroke-linejoin="round"/>
<path d="M247.436 375.86H240.084" stroke="#263238" stroke-linecap="round" stroke-linejoin="round"/>
<path d="M229.53 375.86H0.913086V388.002H280.861V375.86H252.124" stroke="#263238" stroke-linecap="round" stroke-linejoin="round"/>
<path d="M16.6791 298.063C16.6791 298.063 38.5159 299.796 39.5058 315.955C39.5058 315.955 17.3051 326.174 16.6791 298.063Z" stroke="#263238" stroke-linecap="round" stroke-linejoin="round"/>
<path d="M60.0179 302.081C60.0179 302.081 72.2611 285.529 92.0452 294.016C92.0452 294.016 79.9622 314.019 60.0179 302.081Z" stroke="#263238" stroke-linecap="round" stroke-linejoin="round"/>
<path d="M90.3715 249.818C90.3715 249.818 93.8945 281.657 64.9098 272.893C64.9098 272.893 74.1104 249.484 90.3715 249.818Z" stroke="#263238" stroke-linecap="round" stroke-linejoin="round"/>
<path d="M54.777 232.087C54.777 232.087 77.7056 244.461 60.8476 263.212C60.8476 263.212 44.7757 249.818 54.777 232.087Z" stroke="#263238" stroke-linecap="round" stroke-linejoin="round"/>
<path d="M26.5792 260.548C26.5792 260.548 51.5023 258.044 51.5023 281.103C51.5023 281.103 26.5792 282.093 26.5792 260.548Z" stroke="#263238" stroke-linecap="round" stroke-linejoin="round"/>
<path d="M45.2566 328.984C44.8927 321.239 44.8927 311.282 49.624 300.756C60.5278 276.474 64.1818 256.02 58.5188 241.608" stroke="#263238" stroke-linecap="round" stroke-linejoin="round"/>
<path d="M34.76 266.778C34.76 266.778 49.6964 272.718 54.7771 288.106" stroke="#263238" stroke-linecap="round" stroke-linejoin="round"/>
<path d="M82.5243 262.557C82.5243 262.557 73.8915 274.319 59.2317 273.053" stroke="#263238" stroke-linecap="round" stroke-linejoin="round"/>
<path d="M82.5246 297.35C82.5246 297.35 58.606 304.236 49.0415 301.979" stroke="#263238" stroke-linecap="round" stroke-linejoin="round"/>
<path d="M23.8124 305.342C23.8124 305.342 34.5124 317.076 45.2561 316.886" stroke="#263238" stroke-linecap="round" stroke-linejoin="round"/>
<path d="M73.6882 328.984H21.7311C21.3952 328.984 21.0731 329.118 20.8356 329.355C20.598 329.593 20.4646 329.915 20.4646 330.251V334.196C20.4646 334.361 20.4974 334.525 20.5613 334.678C20.6251 334.831 20.7186 334.97 20.8364 335.086C20.9542 335.203 21.094 335.295 21.2475 335.357C21.4011 335.419 21.5655 335.45 21.7311 335.448H23.1869L27.8163 375.86H67.5302L72.1596 335.448H73.6882C73.8531 335.45 74.0168 335.419 74.1696 335.356C74.3223 335.294 74.4611 335.202 74.5778 335.085C74.6944 334.969 74.7866 334.83 74.8488 334.677C74.911 334.524 74.9421 334.361 74.9401 334.196V330.251C74.9421 330.085 74.9111 329.921 74.849 329.767C74.787 329.613 74.6951 329.474 74.5786 329.356C74.4622 329.238 74.3235 329.145 74.1707 329.081C74.0178 329.017 73.8538 328.984 73.6882 328.984V328.984Z" stroke="#263238" stroke-miterlimit="10"/>
<path d="M26.5792 335.448H56.8014" stroke="#263238" stroke-linecap="round" stroke-linejoin="round"/>
<path d="M62.4929 335.448H67.035" stroke="#263238" stroke-linecap="round" stroke-linejoin="round"/>
<path d="M393.64 167.916L387.817 199.565L340.33 228.419L346.895 240.472C346.895 240.472 401.793 223.731 403.132 219.815C404.472 215.899 417.122 174.423 417.122 174.423L393.64 167.916Z" fill="#263238"/>
<path d="M414.444 114.401L411.27 152.776L409.596 172.909C400.439 177.364 391.486 170.668 390.933 170.231C393.422 162.923 396.319 121.68 414.444 114.401Z" fill="#999999" stroke="#263238" stroke-linecap="round" stroke-linejoin="round"/>
<path d="M411.212 152.776L409.538 172.909C400.381 177.364 391.428 170.667 390.875 170.231C391.268 170.405 396.086 172.443 399.216 170.231C398.122 169.049 397.146 167.761 396.305 166.387C396.116 165.63 399.216 165.427 399.216 165.427C399.216 165.427 397.178 149.107 402.608 142.134C404.734 139.484 408.053 145.016 411.212 152.776Z" fill="#263238"/>
<path d="M447.33 469.773L448.786 474.053C446.579 477.695 444.108 481.169 441.39 484.448C441.39 484.448 439.935 483.982 437.547 486.093C436.076 487.56 435.169 489.498 434.985 491.567C434.985 491.567 423.863 504.902 409.756 505.091C395.65 505.28 399.9 498.176 399.9 498.176L447.33 469.773Z" fill="#466770" stroke="#263238" stroke-linecap="round" stroke-linejoin="round"/>
<path d="M434.067 435.839C434.067 435.839 415.142 428.866 411.445 442.812C411.445 442.812 414.822 458.171 412.798 466.571C410.775 474.971 400.584 491.013 399.958 494.056C398.721 500.025 399.653 500.432 399.653 500.432C399.653 500.432 407.063 504.712 417.02 500.127C426.978 495.541 444.214 475.8 446.907 471.739C449.601 467.677 438.464 451.663 438.464 451.663L434.067 435.839Z" fill="white"/>
<path opacity="0.4" d="M434.067 435.839C434.067 435.839 415.142 428.866 411.445 442.812C411.445 442.812 414.822 458.171 412.798 466.571C410.775 474.971 400.584 491.013 399.958 494.056C398.721 500.025 399.653 500.432 399.653 500.432C399.653 500.432 407.063 504.712 417.02 500.127C426.978 495.541 444.214 475.8 446.907 471.739C449.601 467.677 438.464 451.663 438.464 451.663L434.067 435.839Z" fill="#BFCCD0"/>
<path d="M434.067 435.839C434.067 435.839 415.142 428.866 411.445 442.812C411.445 442.812 414.822 458.171 412.798 466.571C410.775 474.971 400.584 491.013 399.958 494.056C398.721 500.025 399.653 500.432 399.653 500.432C399.653 500.432 407.063 504.712 417.02 500.127C426.978 495.541 444.214 475.8 446.907 471.739C449.601 467.677 438.464 451.663 438.464 451.663L434.067 435.839Z" stroke="#263238" stroke-linecap="round" stroke-linejoin="round"/>
<path d="M424.387 455.565C426.034 464.96 424.361 474.636 419.656 482.934" stroke="#263238" stroke-linecap="round" stroke-linejoin="round"/>
<path d="M419.656 486.602C418.951 488.375 417.859 489.967 416.458 491.262C415.057 492.557 413.384 493.522 411.562 494.085C407.747 495.106 403.73 495.106 399.915 494.085L404.457 484.884C409.279 486.805 414.527 487.399 419.656 486.602Z" fill="#466770" stroke="#263238" stroke-linecap="round" stroke-linejoin="round"/>
<path d="M422.334 481.027C422.334 481.027 412.434 481.623 407.266 479.571" stroke="#263238" stroke-linecap="round" stroke-linejoin="round"/>
<path d="M424.169 475.567C424.169 475.567 414.91 477.023 409.742 474.112" stroke="#263238" stroke-linecap="round" stroke-linejoin="round"/>
<path d="M425.741 469.497C425.741 469.497 417.632 470.676 412.333 468.172" stroke="#263238" stroke-linecap="round" stroke-linejoin="round"/>
<path d="M426.643 462.625C426.643 462.625 417.617 465.45 413.352 462.625" stroke="#263238" stroke-linecap="round" stroke-linejoin="round"/>
<path d="M427.997 445.651L429.57 455.565C429.57 455.565 417.632 463.426 409.742 453.6V443.249C409.742 443.249 412.712 450.208 427.997 445.651Z" fill="#466770" stroke="#263238" stroke-linecap="round" stroke-linejoin="round"/>
<path d="M417.632 223.105C405.534 261.436 367.99 322.914 371.789 338.651C373.871 347.24 386.26 395.907 395.955 417.263C399.638 425.43 407.602 430.889 407.602 430.889L413.352 443.22C427.371 449.32 432.394 436.916 432.394 436.916L429.569 422.941C437.081 409.285 433.937 409.285 424.168 338.505C423.018 330.163 442.366 304.381 442.366 304.381L452.294 369.251L453.91 422.388L459.064 438.809C459.064 438.809 460.345 454.226 460.228 455.157H483.273L485.777 438.212C485.777 438.212 496.477 428.123 496.477 416.477C496.477 404.831 494.177 345.507 496.477 328.227C498.778 310.947 491.091 230.384 491.091 230.384L417.632 223.105Z" fill="#1B414C"/>
<path d="M260.97 188.951L292.997 191.833C293.723 191.899 294.393 192.25 294.86 192.809C295.327 193.369 295.553 194.091 295.487 194.817L293.43 217.672L255.929 214.297L257.986 191.441C258.052 190.716 258.403 190.045 258.962 189.578C259.522 189.111 260.244 188.886 260.97 188.951Z" fill="#99E9A0"/>
<path opacity="0.3" d="M260.97 188.951L292.997 191.833C293.723 191.899 294.393 192.25 294.86 192.809C295.328 193.369 295.553 194.091 295.488 194.817L293.431 217.673L255.93 214.297L257.987 191.442C258.052 190.716 258.403 190.046 258.963 189.578C259.522 189.111 260.244 188.886 260.97 188.951Z" fill="black" fill-opacity="0.7"/>
<path opacity="0.3" d="M293.5 191.437L284.319 190.648L282.742 209.011L291.923 209.8L293.5 191.437Z" fill="white" fill-opacity="0.7"/>
<path d="M260.97 188.951L292.997 191.833C293.723 191.899 294.393 192.25 294.86 192.809C295.327 193.369 295.553 194.091 295.487 194.817L293.43 217.672L255.929 214.297L257.986 191.441C258.052 190.716 258.403 190.045 258.962 189.578C259.522 189.111 260.244 188.886 260.97 188.951V188.951Z" stroke="#263238" stroke-width="1.00404" stroke-linecap="round" stroke-linejoin="round"/>
<path d="M316.25 190.974L348.159 193.715C348.883 193.778 349.552 194.124 350.019 194.68C350.486 195.235 350.714 195.953 350.652 196.677L348.696 219.449L311.332 216.239L313.289 193.467C313.351 192.744 313.698 192.075 314.253 191.607C314.808 191.14 315.526 190.912 316.25 190.974Z" fill="#99E9A0"/>
<path opacity="0.3" d="M316.25 190.974L348.16 193.716C348.883 193.778 349.552 194.125 350.02 194.68C350.487 195.235 350.715 195.954 350.653 196.677L348.697 219.449L311.333 216.239L313.289 193.467C313.351 192.744 313.698 192.075 314.254 191.607C314.809 191.14 315.527 190.912 316.25 190.974Z" fill="black" fill-opacity="0.7"/>
<path opacity="0.3" d="M347.986 196.127L342.446 195.651L340.868 214.013L346.409 214.489L347.986 196.127Z" fill="white" fill-opacity="0.7"/>
<path d="M316.25 190.974L348.159 193.715C348.883 193.778 349.552 194.124 350.019 194.68C350.486 195.235 350.714 195.953 350.652 196.677L348.696 219.449L311.332 216.239L313.289 193.467C313.351 192.744 313.698 192.075 314.253 191.607C314.808 191.14 315.526 190.912 316.25 190.974Z" stroke="#263238" stroke-linecap="round" stroke-linejoin="round"/>
<path d="M304.659 189.97L336.569 192.712C337.292 192.774 337.961 193.121 338.428 193.676C338.896 194.231 339.123 194.949 339.061 195.673L337.105 218.445L299.742 215.235L301.698 192.463C301.76 191.74 302.107 191.071 302.662 190.603C303.217 190.136 303.936 189.908 304.659 189.97Z" fill="#99E9A0" stroke="#263238" stroke-linecap="round" stroke-linejoin="round"/>
<path d="M359.763 194.714L391.673 197.455C392.396 197.517 393.065 197.864 393.533 198.42C394 198.975 394.228 199.693 394.166 200.416L392.211 223.174L354.847 219.964L356.804 197.192C356.869 196.472 357.218 195.807 357.772 195.342C358.327 194.878 359.043 194.652 359.763 194.714Z" fill="#99E9A0" stroke="#263238" stroke-linecap="round" stroke-linejoin="round"/>
<path opacity="0.3" d="M337.014 195.177L327.832 194.388L326.255 212.75L335.436 213.539L337.014 195.177Z" fill="white" fill-opacity="0.7"/>
<path opacity="0.3" d="M391.514 199.854L382.332 199.065L380.755 217.427L389.936 218.216L391.514 199.854Z" fill="white" fill-opacity="0.7"/>
<path d="M408.897 219.305L399.886 324.02L231.175 309.462L240.186 204.762C240.259 203.895 240.503 203.052 240.903 202.28C241.303 201.508 241.851 200.822 242.517 200.262C243.182 199.702 243.951 199.279 244.78 199.017C245.61 198.755 246.482 198.659 247.349 198.735L402.856 212.099C403.728 212.17 404.576 212.414 405.353 212.816C406.13 213.218 406.82 213.77 407.382 214.44C407.944 215.111 408.367 215.886 408.627 216.721C408.887 217.556 408.979 218.434 408.897 219.305Z" fill="#99E9A0"/>
<path opacity="0.3" d="M408.897 219.305L399.886 324.02L231.175 309.462L240.186 204.762C240.259 203.895 240.503 203.052 240.903 202.28C241.303 201.508 241.851 200.822 242.517 200.262C243.182 199.702 243.951 199.279 244.78 199.017C245.61 198.755 246.482 198.659 247.349 198.735L402.856 212.099C403.728 212.17 404.576 212.414 405.353 212.816C406.13 213.218 406.82 213.77 407.382 214.44C407.944 215.111 408.367 215.886 408.627 216.721C408.887 217.556 408.979 218.434 408.897 219.305Z" fill="black" fill-opacity="0.7"/>
<path d="M408.897 219.305L399.886 324.02L231.175 309.462L240.186 204.762C240.259 203.895 240.503 203.052 240.903 202.28C241.303 201.508 241.851 200.822 242.517 200.262C243.182 199.702 243.951 199.279 244.78 199.017C245.61 198.755 246.482 198.659 247.349 198.735L402.856 212.099C403.728 212.17 404.576 212.414 405.353 212.816C406.13 213.218 406.82 213.77 407.382 214.44C407.944 215.111 408.367 215.886 408.627 216.721C408.887 217.556 408.979 218.434 408.897 219.305V219.305Z" stroke="#263238" stroke-linecap="round" stroke-linejoin="round"/>
<path d="M408.898 219.305L399.886 324.02L274.689 313.247L283.714 208.547C283.788 207.681 284.031 206.837 284.431 206.065C284.831 205.293 285.379 204.607 286.045 204.047C286.71 203.487 287.48 203.064 288.309 202.802C289.138 202.54 290.011 202.444 290.877 202.52L402.871 212.143C403.737 212.216 404.581 212.46 405.353 212.86C406.125 213.259 406.811 213.808 407.371 214.473C407.931 215.139 408.354 215.908 408.616 216.737C408.878 217.566 408.973 218.439 408.898 219.305Z" fill="#99E9A0" stroke="#263238" stroke-linecap="round" stroke-linejoin="round"/>
<path opacity="0.3" d="M400.105 222.304L293.09 213.104C292.376 213.041 291.716 212.7 291.251 212.156C290.785 211.612 290.552 210.907 290.6 210.192C290.664 209.479 291.004 208.819 291.548 208.353C292.092 207.888 292.797 207.654 293.512 207.703L400.527 216.903C401.24 216.966 401.9 217.307 402.366 217.851C402.831 218.395 403.065 219.1 403.016 219.815C402.953 220.528 402.613 221.188 402.069 221.654C401.524 222.119 400.819 222.353 400.105 222.304Z" fill="white" fill-opacity="0.7"/>
<path d="M484.03 455.754C484.03 455.754 475.965 450.004 459.282 451.154C459.282 451.154 458.059 471.171 455.788 476.994C453.517 482.817 441.55 492.906 439.323 494.638C437.095 496.371 437.095 502.412 437.095 502.412H487.786C487.136 493.748 485.787 485.15 483.753 476.703L484.03 455.754Z" fill="white"/>
<path opacity="0.4" d="M484.03 455.754C484.03 455.754 475.965 450.004 459.282 451.154C459.282 451.154 458.059 471.171 455.788 476.994C453.517 482.817 441.55 492.906 439.323 494.638C437.095 496.371 437.095 502.412 437.095 502.412H487.786C487.136 493.748 485.787 485.15 483.753 476.703L484.03 455.754Z" fill="#E5EBEC"/>
<path d="M484.03 455.754C484.03 455.754 475.965 450.004 459.282 451.154C459.282 451.154 458.059 471.171 455.788 476.994C453.517 482.817 441.55 492.906 439.323 494.638C437.095 496.371 437.095 502.412 437.095 502.412H487.786C487.136 493.748 485.787 485.15 483.753 476.703L484.03 455.754Z" stroke="#263238" stroke-linecap="round" stroke-linejoin="round"/>
<path d="M473.563 458.345C473.563 458.345 472.369 476.776 469.501 481.638C467.97 484.31 466.079 486.759 463.882 488.917" stroke="#263238" stroke-linecap="round" stroke-linejoin="round"/>
<path d="M462.485 491.465C462.485 491.465 459.938 494.638 457.113 495.06C454.289 495.483 439.367 494.638 439.367 494.638L445.453 489.368C445.453 489.368 457.827 487.286 462.485 491.465Z" fill="#466770" stroke="#263238" stroke-linecap="round" stroke-linejoin="round"/>
<path d="M467.755 487.141C467.755 487.141 456.953 480.939 449.252 485.685" stroke="#263238" stroke-linecap="round" stroke-linejoin="round"/>
<path d="M470.36 482.934C470.36 482.934 462.819 477.038 453.925 480.27" stroke="#263238" stroke-linecap="round" stroke-linejoin="round"/>
<path d="M473.563 476.514C473.563 476.514 465.44 470.196 456.88 474.214" stroke="#263238" stroke-linecap="round" stroke-linejoin="round"/>
<path d="M474.669 468.492C474.669 468.492 464.813 463.193 457.651 467.211" stroke="#263238" stroke-linecap="round" stroke-linejoin="round"/>
<path d="M487.771 502.412V506.153H481.948C481.948 506.153 476.955 503.242 472.209 506.153H444.869C441.98 506.144 439.129 505.503 436.513 504.276L437.081 502.412H487.771Z" fill="#466770" stroke="#263238" stroke-linecap="round" stroke-linejoin="round"/>
<path d="M480.508 454.575L479.212 462.742C479.212 462.742 463.999 457.807 455.599 461.01V450.965C455.599 450.965 471.22 445.491 480.508 454.575Z" fill="#466770" stroke="#263238" stroke-linecap="round" stroke-linejoin="round"/>
<path d="M496.958 251.1C496.958 251.1 464.625 257.432 432.903 247.154C425.681 244.853 418.771 241.665 412.333 237.663C412.333 237.663 412.42 235.625 412.479 232.291C412.741 219.276 412.668 186.536 405.811 178.427C401.444 173.317 398.023 141.726 406.452 125.756L432.234 105.026C467.93 111.999 475.471 121.447 481.367 141.828C482.458 145.555 483.477 149.646 484.613 154.159C485.85 159.079 487.015 165.092 488.121 171.628C493.479 204.18 496.958 251.1 496.958 251.1Z" fill="#999999"/>
<path opacity="0.2" d="M488.121 171.628L473.563 236.658C473.563 236.658 452.527 242.481 432.918 247.154C425.69 244.854 418.775 241.666 412.333 237.663C412.333 237.663 412.42 235.625 412.478 232.291C430.093 223.279 455.803 210.032 455.599 209.406C455.264 208.43 455.599 174.467 455.599 174.467C455.599 174.467 478.891 169.066 481.366 141.785C482.458 145.511 483.477 149.602 484.613 154.115C485.85 159.05 487.015 165.019 488.121 171.628Z" fill="black"/>
<path d="M496.958 251.1C496.958 251.1 464.625 257.432 432.903 247.154C425.681 244.853 418.771 241.665 412.333 237.663C412.333 237.663 412.42 235.625 412.479 232.291C412.741 219.276 412.668 186.536 405.811 178.427C401.444 173.317 398.023 141.726 406.452 125.756L432.234 105.026C467.93 111.999 475.471 121.447 481.367 141.828C482.458 145.555 483.477 149.646 484.613 154.159C485.85 159.079 487.015 165.092 488.121 171.628C493.479 204.18 496.958 251.1 496.958 251.1Z" stroke="#263238" stroke-linecap="round" stroke-linejoin="round"/>
<path d="M433.369 77.8174C433.369 77.8174 421.984 94.1222 437.125 106.846C437.125 106.846 418.753 127.46 412.711 124.621C410.163 123.427 412.711 115.988 412.711 115.988L402.055 96.2768L433.369 77.8174Z" fill="white" stroke="#263238" stroke-linecap="round" stroke-linejoin="round"/>
<path d="M429.657 86.261C433.209 70.7277 431.505 47.5953 409.741 49.6479C394.485 51.1037 383.61 59.5473 387.905 80.0156C389.695 88.6485 391.166 100.877 399.085 111.912C401.283 114.969 424.285 104.153 422.887 95.4033" fill="white"/>
<path d="M429.657 86.261C433.209 70.7277 431.505 47.5953 409.741 49.6479C394.485 51.1037 383.61 59.5473 387.905 80.0156C389.695 88.6485 391.166 100.877 399.085 111.912C401.283 114.969 424.285 104.153 422.887 95.4033" stroke="#263238" stroke-linecap="round" stroke-linejoin="round"/>
<path d="M398.517 76.5508C400.052 75.9565 401.705 75.7299 403.343 75.8892C404.981 76.0485 406.559 76.5891 407.951 77.4679" stroke="#263238" stroke-linecap="round" stroke-linejoin="round"/>
<path d="M387.57 78.4579C387.85 77.8619 388.335 77.3866 388.936 77.1192C389.538 76.8518 390.216 76.8102 390.846 77.0021" stroke="#263238" stroke-linecap="round" stroke-linejoin="round"/>
<path d="M393.015 81.6898C393.015 81.6898 388.531 89.8568 388.516 91.0214C388.502 92.186 394.034 92.5791 394.034 92.5791" fill="white"/>
<path d="M393.015 81.6898C393.015 81.6898 388.531 89.8568 388.516 91.0214C388.502 92.186 394.034 92.5791 394.034 92.5791" stroke="#263238" stroke-linecap="round" stroke-linejoin="round"/>
<path d="M402.652 83.3493C402.652 84.2374 402.259 84.9653 401.706 84.9944C401.152 85.0235 400.687 84.2956 400.657 83.4075C400.628 82.5195 401.05 81.7916 401.604 81.7771C402.157 81.7625 402.623 82.4904 402.652 83.3493Z" fill="#263238"/>
<path d="M396.319 98.5186C396.319 98.5186 404.923 96.9027 406.509 93.8746" stroke="#263238" stroke-linecap="round" stroke-linejoin="round"/>
<path d="M387.511 65.8799L394.208 63.9292C394.208 63.9292 403.598 59.5618 405.592 60.1733C407.587 60.7847 411.634 67.0009 411.503 70.553C411.503 70.553 417.821 76.1141 418.622 84.1792L420.543 83.3057C420.543 83.3057 420.441 76.0268 424.576 76.216C428.71 76.4053 430.574 81.355 430.297 82.9126C430.02 84.4703 425.493 90.934 425.493 90.934C425.493 90.934 435.858 89.3909 436.193 69.0972C436.528 48.8036 414.283 45.4989 403.467 46.3287C397.99 46.8534 392.488 47.0575 386.987 46.9402L387.599 52.7633L383.231 53.9134L386.521 57.9459L382.911 59.5909L387.511 65.8799Z" fill="#263238"/>
<path d="M425.013 287.159C425.013 287.159 451.363 294.133 458.496 313.757" stroke="white" stroke-linecap="round" stroke-linejoin="round"/>
<path d="M437.081 297.714C437.081 297.714 422.844 321.429 401.051 333.745" stroke="white" stroke-linecap="round" stroke-linejoin="round"/>
<path d="M417.064 431.079C417.064 431.079 425.158 429.259 427.371 426.114" stroke="white" stroke-linecap="round" stroke-linejoin="round"/>
<path d="M462.136 434.092C462.136 434.092 470.055 429.987 477.946 434.092" stroke="white" stroke-linecap="round" stroke-linejoin="round"/>
<path d="M487.771 323.685C487.771 323.685 474.48 358.115 467.754 361.303" stroke="white" stroke-linecap="round" stroke-linejoin="round"/>
<path d="M429.57 269.763C429.934 273.504 445.583 290.843 458.496 297.714" stroke="white" stroke-linecap="round" stroke-linejoin="round"/>
<path d="M442.92 255.132C444.804 259.774 445.195 264.888 444.041 269.763C442.785 273.97 442.785 278.453 444.041 282.661" stroke="white" stroke-linecap="round" stroke-linejoin="round"/>
<path d="M414.444 183.537C414.444 183.537 438.945 215.244 465.28 225.653" stroke="#263238" stroke-linecap="round" stroke-linejoin="round"/>
<path d="M439.803 132.278C439.803 132.278 439.716 153.839 455.264 163.563" stroke="#263238" stroke-linecap="round" stroke-linejoin="round"/>
<path d="M448.553 163.738C445.263 166.97 448.844 207.528 448.844 207.528C448.844 207.528 429.73 215.011 423.747 219.829C417.763 224.648 389.419 235.712 389.419 235.712C389.419 235.712 385.052 250.59 390.496 251.1C395.941 251.609 452.324 232.393 465.222 225.653C465.222 225.653 473.622 176.156 473.563 163.563" fill="white"/>
<path d="M448.553 163.738C445.263 166.97 448.844 207.528 448.844 207.528C448.844 207.528 429.73 215.011 423.747 219.829C417.763 224.648 389.419 235.712 389.419 235.712C389.419 235.712 385.052 250.59 390.496 251.1C395.941 251.609 452.324 232.393 465.222 225.653C465.222 225.653 473.622 176.156 473.563 163.563" stroke="#263238" stroke-linecap="round" stroke-linejoin="round"/>
<path d="M391.661 234.824C389.04 234.329 384.382 232.611 381.936 233.179C379.49 233.747 375.021 236.44 370.421 237.546C365.821 238.653 367.728 240.458 370.421 240.996C372.392 241.325 374.404 241.325 376.375 240.996L372.634 244.65C370.491 245.81 368.279 246.836 366.01 247.722C364.656 247.722 359.866 249.018 360.187 251.056C360.507 253.094 363.258 252.861 366.33 252.978C366.33 252.978 361.439 253.953 361.963 256.734C362.283 258.641 367.786 256.923 370.596 256.923C370.596 256.923 368.295 259.427 370.013 260.198C371.731 260.97 375.545 259.048 375.545 259.048C375.545 259.048 375.4 261.115 377.117 261.319C378.835 261.523 383.159 259.863 386.1 258.087C388.996 256.221 391.767 254.169 394.398 251.944C395.511 250.926 396.785 250.1 398.168 249.498" fill="white"/>
<path d="M391.661 234.824C389.04 234.329 384.382 232.611 381.936 233.179C379.49 233.747 375.021 236.44 370.421 237.546C365.821 238.653 367.728 240.458 370.421 240.996C372.392 241.325 374.404 241.325 376.375 240.996L372.634 244.65C370.491 245.81 368.279 246.836 366.01 247.722C364.656 247.722 359.866 249.018 360.187 251.056C360.507 253.094 363.258 252.861 366.33 252.978C366.33 252.978 361.439 253.953 361.963 256.734C362.283 258.641 367.786 256.923 370.596 256.923C370.596 256.923 368.295 259.427 370.013 260.198C371.731 260.97 375.545 259.048 375.545 259.048C375.545 259.048 375.4 261.115 377.117 261.319C378.835 261.523 383.159 259.863 386.1 258.087C388.996 256.221 391.767 254.169 394.398 251.944C395.511 250.926 396.785 250.1 398.168 249.498" stroke="#263238" stroke-linecap="round" stroke-linejoin="round"/>
<path d="M366.403 253.036C367.755 252.963 369.102 252.807 370.435 252.57C371.585 252.279 372.735 251.9 372.735 251.9" stroke="#263238" stroke-linecap="round" stroke-linejoin="round"/>
<path d="M370.61 256.981C372.37 256.734 374.065 256.151 375.604 255.263" stroke="#263238" stroke-linecap="round" stroke-linejoin="round"/>
<path d="M375.56 259.106C376.861 258.943 378.107 258.479 379.199 257.753" stroke="#263238" stroke-linecap="round" stroke-linejoin="round"/>
<path d="M373.099 245.757C373.099 245.757 372.051 248.159 373.099 249.498C374.148 250.838 375.414 250.954 375.603 252.41C375.793 253.866 378.297 253.866 379.199 254.812C380.102 255.758 380.786 257.578 383.668 257.723" stroke="#263238" stroke-linecap="round" stroke-linejoin="round"/>
<path d="M447.33 121.68C437.416 144.114 447.33 175.239 447.33 175.239C447.33 175.239 471.322 183.391 473.534 179.883C475.747 176.374 479.794 159.167 480.479 151.218" fill="#999999"/>
<path d="M447.33 121.68C437.416 144.114 447.33 175.239 447.33 175.239C447.33 175.239 471.322 183.391 473.534 179.883C475.747 176.374 479.794 159.167 480.479 151.218" stroke="#263238" stroke-linecap="round" stroke-linejoin="round"/>
<path d="M473.563 153.708C473.563 153.708 463.373 167.727 455.264 167.916" stroke="#263238" stroke-linecap="round" stroke-linejoin="round"/>
<path d="M109.326 506.153C109.326 506.153 106.836 496.647 109.748 493.124C114.959 486.806 109.107 481.478 114.348 479.309L116.546 481.856C116.968 479.279 115.746 471.404 125.47 470.385C137.233 469.147 137.451 477.663 138.092 480.575L137.888 476.63C142.911 476.63 140.305 481.638 147.904 489.819C149.896 492.028 151.413 494.623 152.359 497.443C153.306 500.263 153.662 503.248 153.407 506.211L109.326 506.153Z" fill="#263238"/>
<path d="M198.987 506.153C194.256 504.042 198.594 486.194 198.594 486.194C198.594 486.194 192.232 481.929 198.594 477.46C201.055 479.545 204.038 480.918 207.222 481.431C210.406 481.944 213.669 481.578 216.66 480.371C216.66 480.371 217.898 468.434 225.395 469.962C225.395 469.962 227.317 477.532 231.699 481.856C243.563 493.502 258.893 494.958 261.455 500.548C262.227 502.237 261.295 506.095 261.295 506.095L198.987 506.153Z" fill="#263238"/>
<path d="M178.766 221.518L184.589 233.863C184.589 233.863 208.668 283.622 223.415 340.601C223.765 341.955 231.393 368.945 225.279 436.159L228.772 447.951L224.958 467.429C224.958 467.429 230.694 475.713 230.49 478.421C230.49 478.421 216.34 481.056 211.565 483.589C207.896 485.568 196.876 496.443 196.876 496.443C193.746 495.803 193.47 483.166 193.47 483.166C193.47 483.166 186.933 370.969 185.055 366.136C183.177 361.303 171.706 340.456 153.799 292.75C153.799 292.75 153.392 359.381 148.617 376.239C144.351 391.234 149.403 433.204 149.403 433.204L146.491 479.92C146.491 479.92 156.565 490.387 148.398 493.197C148.398 493.197 142.939 482.701 127.391 480.313C119.487 479.09 109.645 493.124 109.645 493.124C106.181 492.018 111.101 474.388 111.101 474.388C100.081 391.233 108.19 406.286 106.006 365.641C104.55 339.553 97.1984 227.952 105.875 218.883L178.766 221.518Z" fill="#BFBFBF"/>
<path opacity="0.2" d="M101.828 259.951C140.756 263.008 174.457 250.27 189.088 243.617C186.307 237.386 184.604 233.863 184.604 233.863L178.781 221.532L105.992 218.883C102.905 222.158 101.814 238.798 101.828 259.951Z" fill="black"/>
<path opacity="0.2" d="M154.193 293.608C171.91 340.703 183.308 361.317 185.143 366.121C186.205 368.916 188.811 407.014 190.849 438.983C193.179 409.868 195.581 379.194 195.784 373.182C196.221 361.186 187.559 344.75 186.264 340.499C184.968 336.248 187.894 331.648 187.894 331.648L172.317 311.995C172.841 305.328 164.587 276.226 164.587 276.226C159.681 280.87 155.314 290.755 154.193 293.608Z" fill="black"/>
<path d="M178.766 221.518L184.589 233.863C184.589 233.863 208.668 283.622 223.415 340.601C223.765 341.955 231.393 368.945 225.279 436.159L228.772 447.951L224.958 467.429C224.958 467.429 230.694 475.713 230.49 478.421C230.49 478.421 216.34 481.056 211.565 483.589C207.896 485.568 196.876 496.443 196.876 496.443C193.746 495.803 193.47 483.166 193.47 483.166C193.47 483.166 186.933 370.969 185.055 366.136C183.177 361.303 171.706 340.456 153.799 292.75C153.799 292.75 153.392 359.381 148.617 376.239C144.351 391.234 149.403 433.204 149.403 433.204L146.491 479.92C146.491 479.92 156.565 490.387 148.398 493.197C148.398 493.197 142.939 482.701 127.391 480.313C119.487 479.09 109.645 493.124 109.645 493.124C106.181 492.018 111.101 474.388 111.101 474.388C100.081 391.233 108.19 406.286 106.006 365.641C104.55 339.553 97.1984 227.952 105.875 218.883L178.766 221.518Z" stroke="#263238" stroke-linecap="round" stroke-linejoin="round"/>
<path d="M153.858 292.75C153.858 292.75 162.753 275.586 170.338 270.796" stroke="#263238" stroke-linecap="round" stroke-linejoin="round"/>
<path d="M173.685 265.235C173.685 265.235 146.666 273.46 137.291 275.047" stroke="#263238" stroke-linecap="round" stroke-linejoin="round"/>
<path d="M159.856 237.662C161.02 260.154 168.954 263.983 161.312 268.889C161.312 268.889 161.53 279.414 157.716 286.082" stroke="#263238" stroke-linecap="round" stroke-linejoin="round"/>
<path d="M112.513 229.059C112.513 229.059 115.702 263.634 105.06 270.141" stroke="#263238" stroke-linecap="round" stroke-linejoin="round"/>
<path d="M105.06 240.21C105.06 240.21 104.259 263.226 105.06 281.773C105.06 281.773 107.724 360.167 110.388 370.008C113.052 379.849 106.283 394.757 106.865 437.295" stroke="#263238" stroke-linecap="round" stroke-linejoin="round"/>
<path d="M130.565 470.588C128.046 470.04 125.414 470.391 123.126 471.578" stroke="#263238" stroke-linecap="round" stroke-linejoin="round"/>
<path d="M146.579 479.92C143.241 476.671 139.371 474.017 135.137 472.073" stroke="#263238" stroke-linecap="round" stroke-linejoin="round"/>
<path d="M142.212 298.18C136.243 304.876 126.78 317.498 117.085 318.561" stroke="#263238" stroke-linecap="round" stroke-linejoin="round"/>
<path d="M151.339 287.29C149.505 289.605 147.613 291.876 145.691 294.132" stroke="#263238" stroke-linecap="round" stroke-linejoin="round"/>
<path d="M142.837 365.641C142.837 365.641 129.269 384.115 121.83 385.177" stroke="#263238" stroke-linecap="round" stroke-linejoin="round"/>
<path d="M158.793 289.416C158.793 289.416 182.959 356.717 191.359 363.355C191.359 363.355 192.305 412.852 192.582 430.132C192.859 447.412 196.833 470.385 196.833 470.385" stroke="#263238" stroke-linecap="round" stroke-linejoin="round"/>
<path d="M222.629 469.89C222.629 469.89 213.327 473.107 208.799 475.16C206.019 476.517 203.841 478.856 202.685 481.725" stroke="#263238" stroke-linecap="round" stroke-linejoin="round"/>
<path d="M199.089 339.087C186.118 330.949 169.013 320.773 162.112 306.434" stroke="#263238" stroke-linecap="round" stroke-linejoin="round"/>
<path d="M210.4 345.798C207.94 344.445 205.523 343.032 203.121 341.577" stroke="#263238" stroke-linecap="round" stroke-linejoin="round"/>
<path d="M169.523 246.761C162.55 246.659 154.965 245.742 148.953 241.797" stroke="#263238" stroke-linecap="round" stroke-linejoin="round"/>
<path d="M180.6 246.106C178.606 246.383 176.597 246.557 174.588 246.659" stroke="#263238" stroke-linecap="round" stroke-linejoin="round"/>
<path d="M193.543 91.5597C188.214 83.4947 161.064 81.442 143.638 81.442C126.212 81.442 105.06 78.5305 95.5099 98.1836C88.231 113.193 105.002 192.562 105.002 192.562L100.896 226.831C132.458 236.731 186.526 234.547 186.526 234.547L179.247 203.568C179.247 203.568 198.871 99.6102 193.543 91.5597Z" fill="#1B414C"/>
<path d="M133.288 61.5123C133.288 61.5123 135.632 80.1901 128.527 84.2226C128.527 84.2226 132.079 97.9216 144.541 98.7805C157.003 99.6394 162.505 86.2607 162.505 86.2607L133.288 61.5123Z" fill="white" stroke="#263238" stroke-linecap="round" stroke-linejoin="round"/>
<path d="M199.328 13.5556L231.22 10.6139C231.942 10.5473 232.662 10.7704 233.22 11.2344C233.779 11.6983 234.13 12.365 234.196 13.0878L236.296 35.8471L199.011 39.2862L196.912 16.5269C196.846 15.8141 197.062 15.1038 197.514 14.5483C197.965 13.9929 198.616 13.6365 199.328 13.5556Z" fill="#99E9A0"/>
<path opacity="0.3" d="M199.327 13.5556L231.219 10.6139C231.942 10.5473 232.662 10.7704 233.22 11.2344C233.778 11.6983 234.129 12.365 234.196 13.0878L236.295 35.8471L199.011 39.2862L196.911 16.5269C196.845 15.8141 197.062 15.1038 197.513 14.5483C197.965 13.9929 198.616 13.6365 199.327 13.5556Z" fill="black" fill-opacity="0.7"/>
<path opacity="0.3" d="M232.148 12.9162L222.972 13.7626L224.665 32.1149L233.841 31.2685L232.148 12.9162Z" fill="white" fill-opacity="0.7"/>
<path d="M199.328 13.5556L231.22 10.6139C231.942 10.5473 232.662 10.7704 233.22 11.2344C233.779 11.6983 234.13 12.365 234.196 13.0878L236.296 35.8471L199.011 39.2862L196.912 16.5269C196.846 15.8141 197.062 15.1038 197.514 14.5483C197.965 13.9929 198.616 13.6365 199.328 13.5556V13.5556Z" stroke="#263238" stroke-linecap="round" stroke-linejoin="round"/>
<path d="M254.469 8.43954L286.361 5.49785C287.084 5.43118 287.804 5.65438 288.362 6.11833C288.92 6.58229 289.271 7.24899 289.338 7.97179L291.437 30.731L254.095 34.1755L251.995 11.4162C251.929 10.6934 252.152 9.97376 252.616 9.41552C253.08 8.85728 253.747 8.50621 254.469 8.43954Z" fill="#99E9A0"/>
<path opacity="0.3" d="M254.469 8.43929L286.361 5.49761C287.084 5.43094 287.804 5.65414 288.362 6.11809C288.92 6.58204 289.271 7.24875 289.338 7.97155L291.437 30.7308L254.095 34.1752L251.995 11.416C251.929 10.6932 252.152 9.97351 252.616 9.41528C253.08 8.85704 253.746 8.50596 254.469 8.43929Z" fill="black" fill-opacity="0.7"/>
<path opacity="0.3" d="M286.632 7.90535L281.094 8.41614L282.787 26.7685L288.325 26.2577L286.632 7.90535Z" fill="white" fill-opacity="0.7"/>
<path d="M254.469 8.43954L286.361 5.49785C287.084 5.43118 287.804 5.65438 288.362 6.11833C288.92 6.58229 289.271 7.24899 289.338 7.97179L291.437 30.731L254.095 34.1755L251.995 11.4162C251.929 10.6934 252.152 9.97376 252.616 9.41552C253.08 8.85728 253.747 8.50621 254.469 8.43954V8.43954Z" stroke="#263238" stroke-linecap="round" stroke-linejoin="round"/>
<path d="M242.882 9.49938L274.774 6.5577C275.497 6.49103 276.216 6.71421 276.775 7.17817C277.333 7.64212 277.684 8.30883 277.75 9.03162L279.85 31.7909L242.449 35.2407L240.35 12.4814C240.316 12.1186 240.356 11.7527 240.465 11.4053C240.575 11.0578 240.753 10.7358 240.989 10.458C241.225 10.1803 241.514 9.95241 241.839 9.7878C242.164 9.62318 242.518 9.52512 242.882 9.49938Z" fill="#99E9A0" stroke="#263238" stroke-linecap="round" stroke-linejoin="round"/>
<path d="M297.968 4.41732L329.86 1.47564C330.583 1.40897 331.303 1.63215 331.861 2.09611C332.419 2.56006 332.77 3.22676 332.837 3.94956L334.936 26.7088L297.594 30.1532L295.494 7.39401C295.428 6.67121 295.651 5.95153 296.115 5.3933C296.579 4.83506 297.246 4.48399 297.968 4.41732Z" fill="#99E9A0" stroke="#263238" stroke-linecap="round" stroke-linejoin="round"/>
<path opacity="0.3" d="M275.649 8.90872L266.473 9.75513L268.166 28.1075L277.342 27.2611L275.649 8.90872Z" fill="white" fill-opacity="0.7"/>
<path opacity="0.3" d="M330.131 3.86808L320.955 4.71448L322.647 23.0668L331.824 22.2204L330.131 3.86808Z" fill="white" fill-opacity="0.7"/>
<path d="M350.695 19.9058L360.361 124.548L191.708 140.125L182.1 35.4536C181.938 33.7046 182.478 31.9629 183.6 30.6115C184.722 29.2602 186.335 28.4098 188.084 28.2474L343.503 13.9079C344.37 13.8279 345.243 13.9196 346.074 14.178C346.905 14.4364 347.676 14.8562 348.345 15.4135C349.013 15.9707 349.564 16.6544 349.968 17.4253C350.371 18.1962 350.618 19.0391 350.695 19.9058Z" fill="#99E9A0"/>
<path opacity="0.3" d="M350.695 19.9058L360.361 124.548L191.708 140.125L182.1 35.4536C181.938 33.7046 182.478 31.9629 183.6 30.6115C184.722 29.2602 186.335 28.4098 188.084 28.2474L343.503 13.9079C344.37 13.8279 345.243 13.9196 346.074 14.178C346.905 14.4364 347.676 14.8562 348.345 15.4135C349.013 15.9707 349.564 16.6544 349.968 17.4253C350.371 18.1962 350.618 19.0391 350.695 19.9058Z" fill="black" fill-opacity="0.7"/>
<path d="M350.695 19.9058L360.361 124.548L191.708 140.125L182.1 35.4536C181.938 33.7046 182.478 31.9629 183.6 30.6115C184.722 29.2602 186.335 28.4098 188.084 28.2474L343.503 13.9079C344.37 13.8279 345.243 13.9196 346.074 14.178C346.905 14.4364 347.676 14.8562 348.345 15.4135C349.013 15.9707 349.564 16.6544 349.968 17.4253C350.371 18.1962 350.618 19.0391 350.695 19.9058V19.9058Z" stroke="#263238" stroke-linecap="round" stroke-linejoin="round"/>
<path d="M350.695 19.906L360.362 124.548L235.164 136.092L225.512 31.4504C225.35 29.7014 225.89 27.9597 227.012 26.6083C228.134 25.257 229.746 24.4066 231.495 24.2442L343.431 13.9082C344.303 13.8179 345.184 13.9021 346.023 14.1557C346.863 14.4094 347.643 14.8275 348.319 15.3857C348.995 15.9439 349.553 16.6311 349.961 17.4071C350.369 18.1832 350.619 19.0326 350.695 19.906Z" fill="#99E9A0" stroke="#263238" stroke-linecap="round" stroke-linejoin="round"/>
<path opacity="0.3" d="M342.586 24.4043L235.63 34.2745C234.918 34.3232 234.214 34.0917 233.671 33.6293C233.127 33.167 232.785 32.5104 232.718 31.7997C232.665 31.0889 232.894 30.3858 233.354 29.8414C233.814 29.297 234.469 28.9547 235.178 28.8881L342.135 19.0179C342.847 18.9692 343.55 19.2007 344.094 19.663C344.638 20.1254 344.98 20.7819 345.047 21.4927C345.092 22.2018 344.861 22.9008 344.402 23.4435C343.944 23.9863 343.293 24.3305 342.586 24.4043Z" fill="white" fill-opacity="0.7"/>
<path d="M154.644 24.477C154.644 24.477 129.969 19.5274 127.203 35.41C124.437 51.2926 133.477 58.0475 133.477 58.0475L154.644 24.477Z" fill="#263238"/>
<path d="M133.477 66.7677C130.658 58.8722 130.217 50.3229 132.211 42.1795C134.627 31.989 146.769 17.9697 165.184 30.7079C174.661 37.2735 175.244 51.5256 172.288 64.5695C171.59 67.6849 172.114 70.7275 171.08 73.5954C167.441 83.6403 160.788 91.3705 157.148 91.5452C151.078 91.8509 138.936 84.4992 139.431 78.0937" fill="white"/>
<path d="M133.477 66.7677C130.658 58.8723 130.217 50.3229 132.211 42.1795C134.627 31.989 146.769 17.9697 165.184 30.7079C174.661 37.2735 175.244 51.5256 172.288 64.5695C171.59 67.6849 172.114 70.7275 171.08 73.5954C167.441 83.6403 160.788 91.3705 157.148 91.5452C151.078 91.8509 138.936 84.4992 139.431 78.0937" stroke="#263238" stroke-linecap="round" stroke-linejoin="round"/>
<path d="M158.065 62.1528C158.065 62.1528 153.159 58.6007 148.442 61.5123" stroke="#263238" stroke-linecap="round" stroke-linejoin="round"/>
<path d="M167.324 61.5122C167.324 61.5122 171.037 58.1057 173.453 58.6007" stroke="#263238" stroke-linecap="round" stroke-linejoin="round"/>
<path d="M151.135 67.5974C151.135 68.5 151.586 69.2424 152.154 69.2424C152.722 69.2424 153.188 68.5 153.188 67.5974C153.188 66.6948 152.722 65.9669 152.154 65.9669C151.586 65.9669 151.135 66.6948 151.135 67.5974Z" fill="#263238"/>
<path d="M167.324 68.3254C167.895 68.3254 168.358 67.5954 168.358 66.6949C168.358 65.7944 167.895 65.0645 167.324 65.0645C166.753 65.0645 166.29 65.7944 166.29 66.6949C166.29 67.5954 166.753 68.3254 167.324 68.3254Z" fill="#263238"/>
<path d="M165.242 64.948C163.437 67.3064 165.97 76.2886 165.242 76.9291C164.514 77.5697 159.885 75.7499 159.885 75.7499C159.885 75.7499 158.807 74.3815 161.064 73.6536" stroke="#263238" stroke-linecap="round" stroke-linejoin="round"/>
<path d="M161.137 81.442C161.137 81.442 154.92 81.442 153.261 79.171" stroke="#263238" stroke-linecap="round" stroke-linejoin="round"/>
<path d="M146.259 47.7988L145.779 55.3106C145.779 55.3106 140.451 58.0621 139.111 60.8572C138.314 62.6878 138.023 64.6987 138.267 66.6803C138.267 66.6803 135.035 61.0319 133.288 61.4977C132.662 61.6579 132.662 64.0308 132.662 64.0308C132.662 64.0308 125.383 47.7842 131.963 39.1951C138.543 30.6059 146.259 47.7988 146.259 47.7988Z" fill="#757575" stroke="#263238" stroke-linecap="round" stroke-linejoin="round"/>
<path d="M135.996 65.0645C135.996 65.0645 134.54 59.6053 129.634 58.1641C124.728 56.7229 128.091 69.8104 132.269 71.5136C136.447 73.2169 137.495 74.4252 137.743 72.8675" fill="white"/>
<path d="M135.996 65.0645C135.996 65.0645 134.54 59.6053 129.634 58.1641C124.728 56.7229 128.091 69.8104 132.269 71.5136C136.447 73.2169 137.495 74.4252 137.743 72.8675" stroke="#263238" stroke-linecap="round" stroke-linejoin="round"/>
<path d="M129.313 46.8526C128.906 46.2994 127.1 32.2947 136.345 26.0057C145.589 19.7167 161.209 20.3864 171.152 29.092C181.095 37.7976 178.271 52.8941 171.152 58.0476V51.744C171.152 51.744 167.877 58.0621 158.05 58.5862L161.049 53.9568C161.049 53.9568 156.216 56.8684 147.7 56.6209C147.7 56.6209 151.703 53.4327 151.121 50.5939C151.135 50.5939 137.611 58.2077 129.313 46.8526Z" fill="#263238"/>
<path d="M131.046 97.3392C124.233 98.1544 114.537 107.049 120.855 122.845C124.888 132.86 158.021 126.906 158.021 126.906C170.308 121.84 188.258 103.614 201.433 95.1555C201.433 95.1555 198.652 77.6861 195.45 80.1609C180.557 91.5597 168.314 92.3458 147.54 102.333C147.583 102.274 135.326 96.8297 131.046 97.3392Z" fill="white" stroke="#263238" stroke-linecap="round" stroke-linejoin="round"/>
<path d="M146.259 116.73C146.055 123.252 148.734 124.402 153.247 125.945L146.259 116.73Z" fill="white"/>
<path d="M146.259 116.73C146.055 123.252 148.734 124.402 153.247 125.945" stroke="#263238" stroke-linecap="round" stroke-linejoin="round"/>
<path d="M194.459 81.442C194.765 80.4958 200.283 70.8002 201.84 68.3399C203.398 65.8797 210.357 63.6523 213.05 62.1674C215.743 60.6825 215.961 58.426 217.417 60.042C218.873 61.6579 217.417 65.341 209.352 69.2571C212.218 69.4155 215.09 69.4155 217.956 69.2571C220.11 68.9368 222.032 66.9861 222.993 68.3399C223.954 69.6938 224.143 72.125 219.339 73.6099C217.054 74.4381 214.661 74.9285 212.235 75.0657C214.585 75.5678 216.896 76.2393 219.15 77.0747C219.921 77.6424 221.071 78.9672 222.221 79.171C223.371 79.3748 224.623 80.6268 222.512 82.0826C221.764 82.4963 220.925 82.7206 220.07 82.7359C219.215 82.7511 218.369 82.5568 217.606 82.1699C217.606 82.1699 223.182 84.8631 221.45 86.5373C219.717 88.2114 214.171 87.8766 214.171 87.8766C214.171 87.8766 205.946 97.907 198.987 95.8106" fill="white"/>
<path d="M194.459 81.442C194.765 80.4958 200.283 70.8002 201.84 68.3399C203.398 65.8797 210.357 63.6523 213.05 62.1674C215.743 60.6825 215.961 58.426 217.417 60.042C218.873 61.6579 217.417 65.341 209.352 69.2571C212.218 69.4155 215.09 69.4155 217.956 69.2571C220.11 68.9368 222.032 66.9861 222.993 68.3399C223.954 69.6938 224.143 72.125 219.339 73.6099C217.054 74.4381 214.661 74.9285 212.235 75.0657C214.585 75.5678 216.896 76.2393 219.15 77.0747C219.921 77.6424 221.071 78.9672 222.221 79.171C223.371 79.3748 224.623 80.6268 222.512 82.0826C221.764 82.4963 220.925 82.7206 220.07 82.7359C219.215 82.7511 218.369 82.5568 217.606 82.1699C217.606 82.1699 223.182 84.8631 221.45 86.5373C219.717 88.2114 214.171 87.8766 214.171 87.8766C214.171 87.8766 205.946 97.907 198.987 95.8106" stroke="#263238" stroke-linecap="round" stroke-linejoin="round"/>
<path d="M204.315 68.3253C204.786 68.4346 205.217 68.6719 205.562 69.0111C205.906 69.3502 206.15 69.7779 206.266 70.247C206.747 71.9648 208.159 72.0667 209.018 73.9883C209.877 75.91 209.629 78.8798 210.473 79.8988C211.318 80.9179 210.473 85.2125 210.473 85.2125" stroke="#263238" stroke-linecap="round" stroke-linejoin="round"/>
<path d="M132.472 96.1018C128.906 91.5598 120.899 93.6124 120.899 93.6124" stroke="white" stroke-linecap="round" stroke-linejoin="round"/>
<path d="M116.531 85.2417C116.531 85.2417 124.771 86.45 127.202 93.3067" stroke="white" stroke-linecap="round" stroke-linejoin="round"/>
<path d="M131.045 128.653C131.045 128.653 123.009 134.869 110.781 125.945" stroke="white" stroke-linecap="round" stroke-linejoin="round"/>
<path d="M120.899 130.531C120.899 130.531 116.822 136.165 106.894 136.092" stroke="white" stroke-linecap="round" stroke-linejoin="round"/>
<path d="M171.968 201.413C171.968 201.413 150.946 218.17 129.59 215.971" stroke="white" stroke-linecap="round" stroke-linejoin="round"/>
<path d="M115.149 164.597C115.149 164.597 147.773 188.53 171.924 190.058" stroke="white" stroke-linecap="round" stroke-linejoin="round"/>
<path d="M116.008 341.766C121.62 338.653 128.218 337.828 134.424 339.466C145.065 342.144 172.711 381.683 176.554 385.541C180.397 389.399 187.589 391.364 194.213 398.338C204.694 409.271 219.936 418.937 221.48 418.937C223.023 418.937 224.26 417.976 226.182 417.598C228.103 417.219 242.982 415.865 242.982 415.865C242.982 415.865 247.975 416.972 242.982 419.112C237.988 421.252 238.367 423.159 238.367 423.159C238.367 423.159 237.362 424.775 239.371 426.318C241.38 427.861 242.559 427.017 245.427 431.078C248.295 435.14 241.38 432.84 241.38 432.84C241.38 432.84 242.909 437.207 239.837 436.77C236.765 436.334 239.459 441.036 234.465 440.395C229.472 439.755 218.786 433.015 216.108 425.954C216.108 425.954 172.521 405.122 166 399.75C159.478 394.378 132.021 365.568 130.144 365.189" fill="#263238"/>
<path d="M230.039 380.781H262.066C262.792 380.781 263.488 381.069 264.002 381.583C264.515 382.096 264.803 382.792 264.803 383.518V406.374H227.302V383.518C227.302 382.792 227.59 382.096 228.104 381.583C228.617 381.069 229.313 380.781 230.039 380.781Z" fill="#99E9A0"/>
<path opacity="0.3" d="M230.039 380.781H262.066C262.792 380.781 263.488 381.069 264.002 381.583C264.515 382.096 264.803 382.792 264.803 383.518V406.374H227.302V383.518C227.302 382.792 227.59 382.096 228.104 381.583C228.617 381.069 229.313 380.781 230.039 380.781Z" fill="black" fill-opacity="0.7"/>
<path opacity="0.3" d="M262.721 383.198H253.506V401.628H262.721V383.198Z" fill="white" fill-opacity="0.7"/>
<path d="M230.039 380.781H262.066C262.792 380.781 263.488 381.069 264.002 381.583C264.515 382.096 264.803 382.792 264.803 383.518V406.374H227.302V383.518C227.302 382.792 227.59 382.096 228.104 381.583C228.617 381.069 229.313 380.781 230.039 380.781V380.781Z" stroke="#263238" stroke-linecap="round" stroke-linejoin="round"/>
<path d="M285.36 380.781H317.387C318.113 380.781 318.809 381.069 319.323 381.583C319.836 382.096 320.124 382.792 320.124 383.518V406.374H282.623V383.518C282.623 383.158 282.694 382.803 282.831 382.471C282.969 382.138 283.171 381.837 283.425 381.583C283.679 381.328 283.981 381.127 284.313 380.989C284.645 380.852 285.001 380.781 285.36 380.781Z" fill="#99E9A0"/>
<path opacity="0.3" d="M285.36 380.781H317.387C318.113 380.781 318.809 381.069 319.323 381.583C319.836 382.096 320.124 382.792 320.124 383.518V406.374H282.623V383.518C282.623 383.158 282.694 382.803 282.831 382.471C282.969 382.138 283.171 381.837 283.425 381.583C283.679 381.328 283.981 381.127 284.313 380.989C284.645 380.852 285.001 380.781 285.36 380.781Z" fill="black" fill-opacity="0.7"/>
<path opacity="0.3" d="M317.432 383.198H311.87V401.628H317.432V383.198Z" fill="white" fill-opacity="0.7"/>
<path d="M285.36 380.781H317.387C318.113 380.781 318.809 381.069 319.323 381.583C319.836 382.096 320.124 382.792 320.124 383.518V406.374H282.623V383.518C282.623 383.158 282.694 382.803 282.831 382.471C282.969 382.138 283.171 381.837 283.425 381.583C283.679 381.328 283.981 381.127 284.313 380.989C284.645 380.852 285.001 380.781 285.36 380.781V380.781Z" stroke="#263238" stroke-linecap="round" stroke-linejoin="round"/>
<path d="M273.713 380.781H305.741C306.466 380.781 307.163 381.069 307.676 381.583C308.189 382.096 308.478 382.792 308.478 383.518V406.374H270.976V383.518C270.976 383.158 271.047 382.803 271.185 382.471C271.322 382.138 271.524 381.837 271.778 381.583C272.032 381.328 272.334 381.127 272.666 380.989C272.998 380.852 273.354 380.781 273.713 380.781Z" fill="#99E9A0" stroke="#263238" stroke-linecap="round" stroke-linejoin="round"/>
<path d="M329.033 380.781H361.061C361.786 380.781 362.483 381.069 362.996 381.583C363.509 382.096 363.797 382.792 363.797 383.518V406.374H326.296V383.518C326.296 382.792 326.585 382.096 327.098 381.583C327.611 381.069 328.307 380.781 329.033 380.781Z" fill="#99E9A0" stroke="#263238" stroke-linecap="round" stroke-linejoin="round"/>
<path opacity="0.3" d="M306.396 383.198H297.181V401.628H306.396V383.198Z" fill="white" fill-opacity="0.7"/>
<path opacity="0.3" d="M361.104 383.198H351.888V401.628H361.104V383.198Z" fill="white" fill-opacity="0.7"/>
<path d="M380.117 401.045V506.139H210.794V401.045C210.794 399.289 211.492 397.604 212.734 396.362C213.976 395.12 215.661 394.422 217.418 394.422H373.493C375.25 394.422 376.934 395.12 378.177 396.362C379.419 397.604 380.117 399.289 380.117 401.045Z" fill="#99E9A0"/>
<path opacity="0.3" d="M380.117 401.045V506.139H210.794V401.045C210.794 399.289 211.492 397.604 212.734 396.362C213.976 395.12 215.661 394.422 217.418 394.422H373.493C375.25 394.422 376.934 395.12 378.177 396.362C379.419 397.604 380.117 399.289 380.117 401.045Z" fill="black" fill-opacity="0.7"/>
<path d="M380.117 401.045V506.139H210.794V401.045C210.794 399.289 211.492 397.604 212.734 396.362C213.976 395.12 215.661 394.422 217.418 394.422H373.493C375.25 394.422 376.934 395.12 378.177 396.362C379.419 397.604 380.117 399.289 380.117 401.045V401.045Z" stroke="#263238" stroke-linecap="round" stroke-linejoin="round"/>
<path d="M380.116 401.046V506.139H254.467V401.046C254.467 399.289 255.165 397.604 256.407 396.362C257.65 395.12 259.334 394.422 261.091 394.422H373.493C375.249 394.422 376.934 395.12 378.176 396.362C379.419 397.604 380.116 399.289 380.116 401.046Z" fill="#99E9A0" stroke="#263238" stroke-linecap="round" stroke-linejoin="round"/>
<path opacity="0.3" d="M371.615 404.787H264.207C263.482 404.787 262.785 404.499 262.272 403.985C261.759 403.472 261.471 402.776 261.471 402.05C261.463 401.686 261.528 401.324 261.662 400.985C261.796 400.646 261.996 400.337 262.251 400.077C262.506 399.817 262.811 399.61 263.146 399.469C263.482 399.328 263.843 399.255 264.207 399.255H371.615C372.341 399.255 373.037 399.543 373.551 400.057C374.064 400.57 374.352 401.266 374.352 401.992C374.36 402.356 374.295 402.718 374.161 403.057C374.027 403.396 373.826 403.705 373.572 403.965C373.317 404.225 373.012 404.432 372.676 404.573C372.341 404.714 371.98 404.787 371.615 404.787Z" fill="white" fill-opacity="0.7"/>
<path d="M172.784 506.139C164.049 506.139 151.777 500.519 137.641 494.58C122.981 488.407 106.283 481.885 89.3378 480.91C83.0197 480.546 86.8484 506.139 86.8484 506.139H73.0185C73.0185 506.139 59.3632 487.912 57.7764 471.593C57.7764 471.593 68.9277 464.707 71.6063 464.314C72.5299 464.217 73.4583 464.174 74.3869 464.183C77.3858 464.183 81.3892 464.314 81.3892 464.314C80.7487 463.936 70.5436 457.792 64.9097 451.547C60.2658 446.393 58.1403 438.255 57.9802 433.393C58.1602 430.174 58.5149 426.966 59.0429 423.785L131.716 424.993C131.716 424.993 132.502 425.546 133.899 426.58C142.328 432.723 173.133 455.608 188.535 472.859C193.514 478.435 196.877 483.414 197.372 487.053C199.686 503.839 185.958 506.139 172.784 506.139Z" fill="#757575" stroke="#263238" stroke-linecap="round" stroke-linejoin="round"/>
<path d="M188.55 472.83L153.203 480.91C147.143 484.377 141.841 489.025 137.612 494.58C122.952 488.407 106.254 481.885 89.3087 480.91C82.9906 480.546 86.8193 506.139 86.8193 506.139H72.9893C72.9893 506.139 59.3632 487.912 57.7764 471.593C57.7764 471.593 70.6455 489.936 73.79 499.253C73.79 499.253 78.7834 482.016 86.8921 475.101C83.2297 470.977 79.0682 467.324 74.5034 464.227C77.5023 464.227 81.5057 464.358 81.5057 464.358C80.8652 463.979 70.6601 457.836 65.0262 451.59C60.3822 446.437 58.5043 438.285 58.0966 433.437C57.8928 431.049 58.184 423.829 58.184 423.829C58.184 423.829 112.383 431.559 134.016 426.624C142.343 432.738 173.147 455.579 188.55 472.83Z" fill="#263238"/>
<path d="M131.73 471.593C131.73 471.593 160.525 486.02 168.212 491.668C175.899 497.317 178.184 495.788 178.184 495.788" stroke="#263238" stroke-linecap="round" stroke-linejoin="round"/>
<path d="M64.9244 470.064C64.9244 470.064 71.8394 480.619 72.2034 483.778" stroke="#263238" stroke-linecap="round" stroke-linejoin="round"/>
<path d="M180.747 267.477C180.747 267.477 196.076 260.81 194.62 289.168C193.164 317.527 198.362 318.983 198.362 318.983C198.362 318.983 159.783 334.822 149.986 321.283C140.188 307.744 149.491 270.694 180.747 267.477Z" fill="#263238"/>
<path d="M178.607 318.983C178.607 318.983 162.739 326.465 161.297 333.38C159.856 340.295 139.985 329.887 139.985 329.887L154.382 309.185L178.607 318.983Z" fill="white" stroke="#263238" stroke-linecap="round" stroke-linejoin="round"/>
<path d="M74.5616 394.888C38.1669 441.24 67.7048 463.601 108.962 459.903L100.693 473.005L121.452 476.601C121.452 476.601 137.364 466.207 159.055 455.099C195.974 436.174 210.896 437.309 207.096 418.369C203.297 399.43 158.051 387.143 112.689 407.102C112.645 407.087 88.013 377.826 74.5616 394.888Z" fill="#757575" stroke="#263238" stroke-linecap="round" stroke-linejoin="round"/>
<path d="M87.2559 495.788C87.2559 495.788 96.7331 469.584 100.693 468.128C104.653 466.672 119.618 472.35 121.452 476.572C121.452 476.572 126.504 468.827 128.571 472.117C130.638 475.407 127.654 480.852 128.571 485.015C129.488 489.179 139.722 495.002 143.813 495.774C147.904 496.545 150.233 498.845 150.233 501.145V506.139H87.2559C86.5572 504.503 86.1969 502.742 86.1969 500.963C86.1969 499.185 86.5572 497.424 87.2559 495.788Z" fill="white" stroke="#263238" stroke-linecap="round" stroke-linejoin="round"/>
<path d="M128.571 480.91C128.571 480.91 120.23 485.03 117.187 483.821C114.144 482.613 118.745 490.736 119.895 491.508C121.045 492.28 128.63 488.815 128.63 488.815" stroke="#263238" stroke-linecap="round" stroke-linejoin="round"/>
<path d="M95.132 476.586C95.132 476.586 106.458 476.805 109.908 480.954" stroke="#263238" stroke-linecap="round" stroke-linejoin="round"/>
<path d="M87.2555 495.788C87.2555 495.788 105.307 500.01 106.836 500.01C109.318 499.517 111.754 498.811 114.115 497.899C114.115 497.899 119.064 500.388 122.355 501.932C125.645 503.475 147.103 501.932 147.103 501.932" stroke="#263238" stroke-linecap="round" stroke-linejoin="round"/>
<path d="M108.962 459.932C126.199 458.069 159.682 436.829 171.328 429.448C182.974 422.067 185.886 424.003 185.886 424.003" stroke="#263238" stroke-linecap="round" stroke-linejoin="round"/>
<path d="M58.0826 423.756L60.8341 402.865L67.4725 397.857C78.2307 371.755 126.97 323.001 140.262 323.161C160.221 323.394 163.744 344.343 166.204 367.271C168.664 390.2 137.569 386.75 137.569 386.75V392.5L119.881 401.657L130.595 401.322C130.595 401.322 99.7764 431.282 58.0826 423.756Z" fill="#466770" stroke="#263238" stroke-linecap="round" stroke-linejoin="round"/>
<path d="M144.469 282.792C148.647 269.69 167.762 266.196 174.633 268.336C180.273 270.538 184.896 274.756 187.604 280.171C189.351 283.942 185.697 290.609 188.303 294.496C192.03 300.072 191.709 311.835 190.37 319.245C189.642 323.175 173.294 325.505 159.93 316.333C145.575 306.405 140.422 295.399 144.469 282.792Z" fill="white" stroke="#263238" stroke-linecap="round" stroke-linejoin="round"/>
<path d="M163.787 264.42C163.787 264.42 180.616 261.683 180.733 266.007C181.475 294.729 164.253 300.756 164.253 300.756C164.253 300.756 157.222 295.151 155.649 298.995C154.077 302.838 158.124 313.465 163.103 313.684C161.956 315.466 161.329 317.533 161.293 319.652C161.257 321.772 161.813 323.859 162.899 325.679C162.899 325.679 134.395 330.44 132.036 317.236C133.138 312.646 133.926 307.986 134.395 303.289C136.244 284.786 131.92 272.339 163.787 264.42Z" fill="#263238"/>
<path d="M186.264 293.696C189.772 296.855 192.291 296.855 192.247 297.99C192.116 301.528 187.88 303.289 187.88 303.289" fill="white"/>
<path d="M186.264 293.696C189.772 296.855 192.291 296.855 192.247 297.99C192.116 301.528 187.88 303.289 187.88 303.289" stroke="#263238" stroke-linecap="round" stroke-linejoin="round"/>
<path d="M187.793 309.185C185.314 310.024 182.638 310.09 180.121 309.375" stroke="#263238" stroke-linecap="round" stroke-linejoin="round"/>
<path d="M178.462 276.066C178.462 276.066 189.657 272.82 187.604 290.988C187.604 290.988 192.263 284.655 192.248 277.537C192.248 265.206 175.754 267.681 175.754 267.681L177.908 276.416" fill="#263238"/>
<path d="M188.637 284.961C188.214 284.679 187.737 284.486 187.237 284.394C186.736 284.301 186.222 284.311 185.726 284.422" stroke="#263238" stroke-linecap="round" stroke-linejoin="round"/>
<path d="M181.096 284.757C181.096 284.757 175.083 285.107 172.477 289.125" stroke="#263238" stroke-linecap="round" stroke-linejoin="round"/>
<path d="M179.655 294.322C179.743 295.283 179.335 296.112 178.738 296.171C178.141 296.229 177.588 295.486 177.486 294.525C177.384 293.565 177.807 292.735 178.403 292.677C179 292.618 179.568 293.361 179.655 294.322Z" fill="#263238"/>
<path d="M109.908 464.299C109.908 464.299 123.302 465.755 126.213 471.578" stroke="#263238" stroke-linecap="round" stroke-linejoin="round"/>
<path d="M143.814 332.987C149.426 329.874 156.024 329.05 162.23 330.687C172.886 333.38 200.517 372.905 204.36 376.763C208.203 380.621 215.395 382.586 222.019 389.559C232.5 400.492 247.742 410.159 249.286 410.159C250.829 410.159 252.066 409.198 253.988 408.819C255.909 408.441 270.788 407.087 270.788 407.087C270.788 407.087 275.781 408.208 270.788 410.333C265.794 412.459 266.173 414.395 266.173 414.395C266.173 414.395 265.183 415.996 267.177 417.539C269.172 419.083 270.365 418.238 273.233 422.3C276.101 426.362 269.186 424.061 269.186 424.061C269.186 424.061 270.715 428.429 267.643 427.992C264.571 427.555 267.265 432.258 262.271 431.617C257.278 430.976 246.592 424.236 243.914 417.176C243.914 417.176 200.327 396.343 193.806 390.971C187.284 385.6 159.857 356.79 157.92 356.411" fill="white"/>
<path d="M143.814 332.987C149.426 329.874 156.024 329.05 162.23 330.687C172.886 333.38 200.517 372.905 204.36 376.763C208.203 380.621 215.395 382.586 222.019 389.559C232.5 400.492 247.742 410.159 249.286 410.159C250.829 410.159 252.066 409.198 253.988 408.819C255.909 408.441 270.788 407.087 270.788 407.087C270.788 407.087 275.781 408.208 270.788 410.333C265.794 412.459 266.173 414.395 266.173 414.395C266.173 414.395 265.183 415.996 267.177 417.539C269.172 419.083 270.365 418.238 273.233 422.3C276.101 426.362 269.186 424.061 269.186 424.061C269.186 424.061 270.715 428.429 267.643 427.992C264.571 427.555 267.265 432.258 262.271 431.617C257.278 430.976 246.592 424.236 243.914 417.176C243.914 417.176 200.327 396.343 193.806 390.971C187.284 385.6 159.857 356.79 157.92 356.411" stroke="#263238" stroke-linecap="round" stroke-linejoin="round"/>
<path d="M137.554 328.766C137.554 328.766 159.041 323.015 166.539 327.237C174.036 331.459 188.244 351.039 188.244 351.039C188.244 351.039 170.921 366.543 165.563 365.131C160.206 363.719 143.814 361.404 143.814 361.404" fill="#466770"/>
<path d="M137.554 328.766C137.554 328.766 159.041 323.015 166.539 327.237C174.036 331.459 188.244 351.039 188.244 351.039C188.244 351.039 170.921 366.543 165.563 365.131C160.206 363.719 143.814 361.404 143.814 361.404" stroke="#263238" stroke-linecap="round" stroke-linejoin="round"/>
<path d="M156.188 363.297C156.188 363.297 148.399 367.577 145.531 367.577" stroke="#263238" stroke-linecap="round" stroke-linejoin="round"/>
<path d="M143.814 341.824C144.469 342.974 144.251 355.567 157.92 359.483" stroke="#263238" stroke-linecap="round" stroke-linejoin="round"/>
<path d="M70.7472 398.265C70.7472 398.265 99.8629 403.258 109.908 394.422" stroke="#263238" stroke-linecap="round" stroke-linejoin="round"/>
<path d="M119.866 401.657C119.866 401.657 112.587 400.376 109.908 404.117C107.229 407.859 92.6423 411.396 92.6423 411.396" stroke="#263238" stroke-linecap="round" stroke-linejoin="round"/>
<path d="M61.343 429.448C61.343 429.448 57.1358 447.587 75.0856 455.652" stroke="#263238" stroke-linecap="round" stroke-linejoin="round"/>
<path d="M70.7472 430.7C70.7472 430.7 70.8491 439.638 73.6588 444.53L82.5827 447.441L92.5694 441.88C92.5694 441.88 90.444 430.452 90.2547 428.138" stroke="#263238" stroke-linecap="round" stroke-linejoin="round"/>
</svg>
