<svg width="592" height="601" viewBox="0 0 592 601" fill="none" xmlns="http://www.w3.org/2000/svg">
<path d="M472.21 312.382C468.483 310.469 465.407 307.494 463.371 303.833C461.335 300.172 460.43 295.989 460.772 291.814C461.113 287.639 462.684 283.659 465.288 280.377C467.891 277.095 471.409 274.658 475.397 273.376C479.385 272.094 483.664 272.023 487.692 273.172C491.721 274.322 495.318 276.64 498.028 279.834C500.739 283.028 502.442 286.954 502.921 291.116C503.4 295.277 502.635 299.488 500.721 303.214C499.452 305.689 497.708 307.89 495.588 309.69C493.468 311.491 491.013 312.856 488.366 313.707C485.718 314.558 482.928 314.88 480.156 314.652C477.384 314.425 474.684 313.653 472.21 312.382V312.382Z" fill="#263238"/>
<path d="M492.548 282.173L502.82 296.587C503.233 293.786 503.073 290.93 502.351 288.192L492.548 282.173Z" fill="#99E9A0"/>
<path d="M471.009 275.394L495.419 309.827C497.446 308.143 499.137 306.091 500.403 303.78L479.928 272.467C476.773 272.762 473.725 273.762 471.009 275.394V275.394Z" fill="#99E9A0"/>
<path d="M481.102 314.687L470.498 299.5L476.021 313.887C477.676 314.356 479.382 314.625 481.102 314.687V314.687Z" fill="#99E9A0"/>
<path d="M489.717 313.196L465.472 280.157C465.238 280.447 465.017 280.764 464.796 281.068L482.358 314.715C484.881 314.648 487.373 314.133 489.717 313.196Z" fill="#99E9A0"/>
<path d="M322.747 597.907C316.601 600.709 309.762 601.627 303.095 600.543C296.428 599.458 290.232 596.422 285.29 591.817C280.348 587.212 276.883 581.245 275.332 574.671C273.781 568.097 274.214 561.21 276.576 554.882C278.938 548.554 283.123 543.068 288.603 539.118C294.082 535.169 300.61 532.932 307.36 532.692C314.111 532.451 320.781 534.218 326.528 537.767C332.275 541.317 336.84 546.491 339.646 552.635C341.513 556.717 342.556 561.127 342.717 565.612C342.878 570.097 342.152 574.57 340.583 578.775C339.013 582.98 336.63 586.834 333.57 590.117C330.509 593.4 326.831 596.047 322.747 597.907V597.907Z" fill="#263238"/>
<path d="M339.343 581.602L316.038 545.014L342.505 570.446C342.574 569.742 342.629 569.065 342.657 568.32L311.302 532.781C308.621 532.559 305.923 532.661 303.267 533.085L309.562 543.095L299.152 533.983L307.436 548.977L290.689 537.738C290.275 538 289.86 538.263 289.46 538.539L320.539 573.055L295.88 554.292L304.647 568.099L291.876 559.262L325.316 596.623C329.386 594.35 332.944 591.262 335.767 587.552L328.961 576.189L337.41 585.191C338.129 584.036 338.774 582.837 339.343 581.602V581.602Z" fill="#99E9A0"/>
<path d="M318.619 599.481L291.903 568.665L303.777 587L274.507 564.053C273.787 572.792 276.456 581.473 281.962 588.297C287.467 595.121 295.388 599.566 304.081 600.71L293.533 591.335L309.907 601C312.864 600.866 315.792 600.355 318.619 599.481Z" fill="#99E9A0"/>
<path d="M321.27 535.17L336.25 552.566L333.212 545.925L338.058 549.653C334.237 543.085 328.327 537.986 321.27 535.17V535.17Z" fill="#99E9A0"/>
<path d="M286.437 562.079L278.346 550.896C276.684 554.063 275.52 557.467 274.895 560.988L286.437 562.079Z" fill="#99E9A0"/>
<path d="M359.294 544.13C356.808 538.691 345.791 537.931 331.156 541.259C332.085 542.076 332.966 542.947 333.793 543.868C344.728 541.355 352.528 541.576 354.144 545.083C356.988 551.31 339.246 565.531 314.505 576.838C289.763 588.146 267.424 592.288 264.566 586.061C263.103 582.858 267.12 577.529 274.728 571.564C274.554 570.352 274.448 569.13 274.41 567.905C263.793 576.189 258.146 584.253 260.48 589.333C264.414 597.949 289.736 594.856 317.087 582.333C344.438 569.811 363.229 552.746 359.294 544.13Z" fill="#263238"/>
<path d="M109.495 222.542C128.124 222.542 143.225 207.441 143.225 188.812C143.225 170.184 128.124 155.083 109.495 155.083C90.8669 155.083 75.7656 170.184 75.7656 188.812C75.7656 207.441 90.8669 222.542 109.495 222.542Z" fill="#99E9A0"/>
<path d="M117.448 163.864C119.712 161.788 122.324 160.129 125.166 158.962C122.428 157.515 119.5 156.46 116.468 155.828C113.342 157.913 110.37 160.22 107.576 162.731C95.5091 173.694 98.7951 172.603 81.2607 179.175C79.6429 179.773 78.085 180.522 76.6078 181.412C76.0536 183.826 75.7711 186.294 75.7656 188.771C75.7691 193.026 76.5796 197.243 78.1542 201.197C84.4224 199.291 92.7616 196.199 96.6136 192.347C103.186 185.802 104.29 175.931 117.448 163.864Z" fill="#263238"/>
<path d="M84.9883 211.966C87.5409 214.675 90.5214 216.947 93.8107 218.69C100.093 214.299 103.02 209.633 111.966 205.573C119.822 201.997 132.787 201.211 140.878 201.114C142.416 197.205 143.208 193.041 143.211 188.84C143.211 188.26 143.211 187.694 143.128 187.114C133.572 187.858 124.178 190.012 115.252 193.506C102.495 198.573 96.3097 207.617 84.9883 211.966Z" fill="#263238"/>
<path d="M118.539 177.021C124.504 180.004 133.726 178.402 140.837 176.414C139.472 172.982 137.555 169.797 135.162 166.984C125.663 168.765 110.283 172.893 118.539 177.021Z" fill="#263238"/>
<path d="M373.617 62.5642C372.942 61.487 372.722 60.1862 373.004 58.9467C373.286 57.7071 374.047 56.6299 375.122 55.9508L382.951 50.9943C383.485 50.6557 384.081 50.426 384.705 50.3184C385.328 50.2108 385.967 50.2273 386.584 50.3672C387.201 50.507 387.784 50.7673 388.3 51.1332C388.816 51.4991 389.255 51.9633 389.592 52.4992V52.4992C389.93 53.0337 390.16 53.6297 390.267 54.2532C390.375 54.8767 390.358 55.5153 390.219 56.1323C390.079 56.7494 389.818 57.3327 389.453 57.8489C389.087 58.3651 388.623 58.8039 388.087 59.1402L380.272 64.0691C379.736 64.4081 379.139 64.638 378.515 64.7458C377.89 64.8536 377.251 64.8371 376.632 64.6974C376.014 64.5576 375.43 64.2972 374.912 63.9312C374.395 63.5651 373.955 63.1006 373.617 62.5642V62.5642Z" fill="white" stroke="#263238" stroke-width="1.19148" stroke-linecap="round" stroke-linejoin="round"/>
<path d="M369.365 96.3905C365.663 91.1077 361.06 86.5182 355.765 82.8324C348.835 78.6943 341.661 74.9782 334.282 71.7042L329.823 46.8523C334.095 42.7528 337.926 38.218 341.255 33.3218C345.286 26.8188 344.016 22.4559 341.434 17.955C338.852 13.454 335.276 16.3672 334.738 18.4244C334.342 20.5904 334.102 22.7821 334.02 24.9825C334.02 24.9825 331.618 8.41457 330.223 4.64536C328.829 0.876147 323.513 4.5073 323.983 5.7637C323.983 5.7637 322.381 1.05563 319.081 1.00041C315.781 0.945181 314.843 6.52306 314.843 6.52306C314.843 6.52306 310.604 4.56252 308.229 7.0201C305.854 9.47769 306.987 15.6354 306.987 15.6354C306.987 15.6354 303.204 17.0161 302.624 22.3869C302.044 27.7577 302.513 37.16 304.004 39.7418C304.771 40.9671 305.44 42.2505 306.006 43.5801C304.129 66.0021 304.198 64.5248 303.645 73.4715C303.259 79.7673 307.387 94.4023 313.31 100.491C319.233 106.58 340.426 117.335 340.426 117.335C340.426 117.335 362.558 111.633 369.365 96.3905Z" fill="white"/>
<path d="M340.509 117.363C340.509 117.363 362.6 111.633 369.365 96.3905C369.365 96.3905 368.923 95.7416 368.136 94.7061L362.393 89.9152C354.238 90.599 346.136 91.8027 338.134 93.5187C326.012 96.28 316.582 90.3708 312.992 76.9507C309.403 63.5307 306.089 43.6629 306.089 43.6629C304.211 66.0849 304.28 64.6076 303.728 73.5543C303.342 79.8501 307.47 94.4852 313.393 100.574C319.316 106.663 340.509 117.363 340.509 117.363Z" fill="#99E9A0"/>
<path opacity="0.5" d="M340.509 117.363C340.509 117.363 362.6 111.633 369.365 96.3905C369.365 96.3905 368.923 95.7416 368.136 94.7061L362.393 89.9152C354.238 90.599 346.136 91.8027 338.134 93.5187C326.012 96.28 316.582 90.3708 312.992 76.9507C309.403 63.5307 306.089 43.6629 306.089 43.6629C304.211 66.0849 304.28 64.6076 303.728 73.5543C303.342 79.8501 307.47 94.4852 313.393 100.574C319.316 106.663 340.509 117.363 340.509 117.363Z" fill="white"/>
<path d="M369.365 96.3905C365.663 91.1077 361.06 86.5182 355.765 82.8324C348.835 78.6943 341.661 74.9782 334.282 71.7042L329.823 46.8523C334.095 42.7528 337.926 38.218 341.255 33.3218C345.286 26.8188 344.016 22.4559 341.434 17.955C338.852 13.454 335.276 16.3672 334.738 18.4244C334.342 20.5904 334.102 22.7821 334.02 24.9825C334.02 24.9825 331.618 8.41457 330.223 4.64536C328.829 0.876147 323.513 4.5073 323.983 5.7637C323.983 5.7637 322.381 1.05563 319.081 1.00041C315.781 0.945181 314.843 6.52306 314.843 6.52306C314.843 6.52306 310.604 4.56252 308.229 7.0201C305.854 9.47769 306.987 15.6354 306.987 15.6354C306.987 15.6354 303.204 17.0161 302.624 22.3869C302.044 27.7577 302.513 37.16 304.004 39.7418C304.771 40.9671 305.44 42.2505 306.006 43.5801C304.129 66.0021 304.198 64.5248 303.645 73.4715C303.259 79.7673 307.387 94.4023 313.31 100.491C319.233 106.58 340.426 117.335 340.426 117.335C340.426 117.335 362.558 111.633 369.365 96.3905Z" stroke="#263238" stroke-width="1.19148" stroke-linecap="round" stroke-linejoin="round"/>
<path d="M332.557 62.0534L329.795 46.8661C334.067 42.7666 337.899 38.2318 341.227 33.3355C345.259 26.8326 343.989 22.4697 341.407 17.9688C338.825 13.4678 335.249 16.381 334.711 18.4382C334.315 20.6042 334.075 22.7959 333.993 24.9963C333.993 24.9963 331.59 8.42837 330.196 4.65915C328.801 0.889941 323.486 4.52109 323.955 5.77749C323.955 5.77749 322.354 1.06943 319.054 1.0142C315.754 0.958975 314.815 6.53686 314.815 6.53686C314.815 6.53686 310.577 4.57632 308.202 7.0339C305.827 9.49148 306.959 15.6492 306.959 15.6492C306.959 15.6492 303.176 17.0299 302.596 22.4007C302.017 27.7715 302.486 37.1738 303.977 39.7556C304.743 40.9809 305.413 42.2642 305.979 43.5939C305.151 53.5071 304.695 58.7812 304.405 62.2881L332.557 62.0534Z" fill="white" stroke="#263238" stroke-width="1.19148" stroke-linecap="round" stroke-linejoin="round"/>
<path d="M310.52 96.7357C311.03 97.568 311.587 98.3701 312.19 99.138C318.017 94.2643 331.133 82.57 337.042 72.5326C335.385 72.008 334.281 71.7042 334.281 71.7042C334.281 71.7042 322.076 87.7061 310.52 96.7357Z" fill="white" stroke="#263238" stroke-width="1.19148" stroke-linecap="round" stroke-linejoin="round"/>
<path d="M334.019 24.9549C334.019 24.9549 320.971 24.4717 319.591 35.4756" stroke="#263238" stroke-width="1.19148" stroke-linecap="round" stroke-linejoin="round"/>
<path d="M323.981 5.7361L324.423 19.6118" stroke="#263238" stroke-width="1.19148" stroke-linecap="round" stroke-linejoin="round"/>
<path d="M314.843 6.55067L315.74 19.1009" stroke="#263238" stroke-width="1.19148" stroke-linecap="round" stroke-linejoin="round"/>
<path d="M306.986 15.6631L308.395 23.4914" stroke="#263238" stroke-width="1.19148" stroke-linecap="round" stroke-linejoin="round"/>
<path d="M327.047 18.9628C327.047 18.9628 312.315 21.4342 306.641 26.2528" stroke="#263238" stroke-width="1.19148" stroke-linecap="round" stroke-linejoin="round"/>
<path d="M323.582 105.986C328.387 101.844 328.014 93.5601 322.726 87.3609C317.631 81.3965 309.831 79.643 304.971 83.219C306.614 89.57 309.624 96.6942 313.351 100.491C316.071 102.968 319.036 105.161 322.201 107.035C322.697 106.735 323.16 106.383 323.582 105.986V105.986Z" fill="#99E9A0"/>
<path d="M323.582 105.986C328.387 101.844 328.014 93.5601 322.726 87.3609C317.631 81.3965 309.831 79.643 304.971 83.219C306.614 89.57 309.624 96.6942 313.351 100.491C316.071 102.968 319.036 105.161 322.201 107.035C322.697 106.735 323.16 106.383 323.582 105.986V105.986Z" stroke="#263238" stroke-width="1.19148" stroke-linecap="round" stroke-linejoin="round"/>
<path d="M314.208 122.126C314.208 122.126 308.036 122.775 306.089 124.446C304.142 126.116 289.328 138.791 286.926 146.302C284.523 153.812 293.649 176.29 303.618 184.96C313.586 193.631 326.04 202.812 336.616 200.921C347.192 199.029 359.341 182.737 360.598 178.305C361.854 173.873 320.476 123.079 320.476 123.079C320.476 123.079 317.535 120.124 314.208 122.126Z" fill="white"/>
<path d="M314.207 122.126C314.207 122.126 312.992 122.25 311.445 122.54L312.826 124.874C312.826 124.874 311.556 137.962 320.53 152.791C329.504 167.619 345.23 177.035 344.774 182.42C344.319 187.804 346.155 194.998 332.652 194.1C319.149 193.203 304.818 170.297 299.875 159.073C297.307 153.232 295.098 144.369 292.572 137.507C290.135 140.062 288.189 143.043 286.828 146.302C284.426 153.812 293.552 176.29 303.52 184.96C313.489 193.631 325.942 202.812 336.518 200.921C347.094 199.029 359.244 182.737 360.5 178.305C361.757 173.873 320.378 123.079 320.378 123.079C320.378 123.079 317.534 120.124 314.207 122.126Z" fill="#99E9A0"/>
<path opacity="0.5" d="M314.207 122.126C314.207 122.126 312.992 122.25 311.445 122.54L312.826 124.874C312.826 124.874 311.556 137.962 320.53 152.791C329.504 167.619 345.23 177.035 344.774 182.42C344.319 187.804 346.155 194.998 332.652 194.1C319.149 193.203 304.818 170.297 299.875 159.073C297.307 153.232 295.098 144.369 292.572 137.507C290.135 140.062 288.189 143.043 286.828 146.302C284.426 153.812 293.552 176.29 303.52 184.96C313.489 193.631 325.942 202.812 336.518 200.921C347.094 199.029 359.244 182.737 360.5 178.305C361.757 173.873 320.378 123.079 320.378 123.079C320.378 123.079 317.534 120.124 314.207 122.126Z" fill="white"/>
<path d="M314.208 122.126C314.208 122.126 308.036 122.775 306.089 124.446C304.142 126.116 289.328 138.791 286.926 146.302C284.523 153.812 293.649 176.29 303.618 184.96C313.586 193.631 326.04 202.812 336.616 200.921C347.192 199.029 359.341 182.737 360.598 178.305C361.854 173.873 320.476 123.079 320.476 123.079C320.476 123.079 317.535 120.124 314.208 122.126Z" stroke="#263238" stroke-width="1.19148" stroke-linecap="round" stroke-linejoin="round"/>
<path d="M366.92 92.0138C366.92 92.0138 360.376 89.8047 350.629 93.9467C340.881 98.0887 316.499 112.406 312.923 124.874C310.562 133.061 336.394 171.292 352.534 177.587C356.869 179.272 360.818 181.108 369.696 173.873C378.573 166.639 397.185 146.55 402.058 137.7C406.932 128.85 399.297 122.25 396.743 118.371C394.189 114.491 373.769 89.0868 366.92 92.0138Z" fill="white"/>
<path d="M402.113 137.576L385.283 142.933C385.283 142.933 367.776 163.643 361.494 168.986C355.212 174.329 335.441 161.351 328.703 155.055L326.715 153.205C334.764 164.14 344.774 174.577 352.533 177.615C356.869 179.299 360.817 181.136 369.695 173.901C378.573 166.666 397.184 146.578 402.058 137.728C402.084 137.68 402.103 137.629 402.113 137.576Z" fill="#99E9A0"/>
<path d="M393.373 135.726L402.431 136.899C406.448 128.45 399.269 122.126 396.742 118.343C394.216 114.56 373.768 89.0868 366.92 92.0138C365.665 91.6615 364.371 91.4713 363.068 91.4477C354.784 97.6883 355.723 104.854 363.289 117.763C370.855 130.672 393.373 135.726 393.373 135.726Z" fill="#99E9A0"/>
<g opacity="0.5">
<path opacity="0.5" d="M402.113 137.576L385.283 142.933C385.283 142.933 367.776 163.643 361.494 168.986C355.212 174.329 335.441 161.351 328.703 155.055L326.715 153.205C334.764 164.14 344.774 174.577 352.533 177.615C356.869 179.299 360.817 181.136 369.695 173.901C378.573 166.666 397.184 146.578 402.058 137.728C402.084 137.68 402.103 137.629 402.113 137.576Z" fill="white"/>
<path opacity="0.5" d="M393.373 135.726L402.431 136.899C406.448 128.45 399.269 122.126 396.742 118.343C394.216 114.56 373.768 89.0868 366.92 92.0138C365.665 91.6615 364.371 91.4713 363.068 91.4477C354.784 97.6883 355.723 104.854 363.289 117.763C370.855 130.672 393.373 135.726 393.373 135.726Z" fill="white"/>
</g>
<path d="M366.92 92.0138C366.92 92.0138 360.376 89.8047 350.629 93.9467C340.881 98.0887 316.499 112.406 312.923 124.874C310.562 133.061 336.394 171.292 352.534 177.587C356.869 179.272 360.818 181.108 369.696 173.873C378.573 166.639 397.185 146.55 402.058 137.7C406.932 128.85 399.297 122.25 396.743 118.371C394.189 114.491 373.769 89.0868 366.92 92.0138Z" stroke="#263238" stroke-width="1.19148" stroke-linecap="round" stroke-linejoin="round"/>
<path d="M374.269 129.87L357.531 106.909C354.886 103.28 349.799 102.482 346.17 105.128L328.497 118.01C324.868 120.656 324.07 125.743 326.716 129.372L343.453 152.333C346.099 155.963 351.186 156.76 354.815 154.115L372.488 141.232C376.117 138.587 376.915 133.5 374.269 129.87Z" fill="white" stroke="#263238" stroke-width="1.19148" stroke-linecap="round" stroke-linejoin="round"/>
<path d="M586.626 266.116C565.985 212.27 514.348 212.863 468.8 213.429C453.102 213.623 438.273 213.816 424.619 212.049C378.546 206.222 365.374 158.866 365.25 158.203C365.139 157.785 364.948 157.393 364.686 157.049C364.423 156.705 364.096 156.417 363.722 156.199C363.349 155.982 362.936 155.84 362.507 155.783C362.079 155.725 361.643 155.752 361.225 155.863C360.808 155.973 360.415 156.165 360.072 156.427C359.728 156.689 359.439 157.017 359.222 157.39C359.004 157.764 358.863 158.177 358.805 158.605C358.747 159.034 358.775 159.469 358.885 159.887C359.023 160.412 373.23 212.132 423.776 218.538C437.901 220.333 453.654 220.126 468.896 219.919C514.458 219.352 561.484 218.759 580.496 268.366C584.736 279.817 585.826 292.196 583.653 304.212C581.479 316.228 576.122 327.441 568.139 336.681C554.001 352.959 533.94 359.559 513.119 354.782C493.472 350.267 474.06 344.054 455.283 338.048C424.204 328.107 392.076 317.821 357.974 314.963C299.503 310.048 258.828 338.531 211.775 371.488C202.304 378.129 192.515 384.977 182.257 391.797L176.417 395.691C147.298 415.131 117.2 435.233 83.139 438.864C56.6578 441.626 29.7349 429.282 16.1077 408.006C12.3222 402.222 9.72558 395.741 8.46928 388.943C7.21298 382.145 7.32207 375.165 8.7902 368.409C10.1489 362.561 12.6943 357.055 16.2687 352.231C19.843 347.408 24.3701 343.37 29.5692 340.368C47.2003 329.861 78.348 326.368 104.912 329.322L105.368 322.764C77.492 319.796 44.9636 323.606 26.2004 334.776C20.2576 338.261 15.0831 342.914 10.9895 348.455C6.89601 353.996 3.9685 360.31 2.38392 367.014C0.696751 374.644 0.550669 382.533 1.95425 390.22C3.35784 397.906 6.2828 405.235 10.5574 411.776C24.226 433.134 48.9537 446.044 75.2001 446.085C78.0825 446.084 80.9628 445.932 83.8293 445.629C119.492 441.833 151.675 420.35 180.048 401.448L185.874 397.555C196.215 390.651 206.032 383.748 215.531 377.162C261.548 344.924 301.284 317.076 357.408 321.798C390.765 324.559 422.534 334.762 453.254 344.592C472.169 350.64 491.719 356.894 511.628 361.464C534.906 366.807 557.3 359.448 573.095 341.279C581.888 331.117 587.784 318.777 590.164 305.552C592.545 292.327 591.323 278.705 586.626 266.116V266.116Z" fill="white" stroke="#263238" stroke-width="1.19148" stroke-linecap="round" stroke-linejoin="round"/>
<path d="M357.27 115.402C357.27 116.29 357.007 117.157 356.514 117.895C356.021 118.633 355.32 119.208 354.5 119.548C353.68 119.887 352.778 119.976 351.908 119.803C351.037 119.63 350.238 119.203 349.61 118.575C348.983 117.948 348.555 117.148 348.382 116.278C348.209 115.407 348.298 114.505 348.637 113.685C348.977 112.865 349.552 112.164 350.29 111.671C351.028 111.178 351.896 110.915 352.783 110.915C353.973 110.915 355.114 111.388 355.956 112.229C356.797 113.071 357.27 114.212 357.27 115.402V115.402Z" fill="#99E9A0" stroke="#263238" stroke-width="1.19148" stroke-linecap="round" stroke-linejoin="round"/>
<path d="M345.092 125.647C345.095 126.535 344.834 127.405 344.342 128.145C343.85 128.885 343.149 129.462 342.329 129.803C341.508 130.145 340.605 130.235 339.733 130.062C338.862 129.889 338.061 129.462 337.432 128.833C336.804 128.205 336.376 127.404 336.204 126.533C336.031 125.661 336.121 124.758 336.462 123.937C336.804 123.117 337.381 122.416 338.121 121.924C338.861 121.432 339.73 121.171 340.619 121.173C341.806 121.173 342.943 121.645 343.782 122.484C344.621 123.323 345.092 124.46 345.092 125.647V125.647Z" fill="#99E9A0" stroke="#263238" stroke-width="1.19148" stroke-linecap="round" stroke-linejoin="round"/>
<path d="M406.874 126.738C426.279 121.101 437.439 100.8 431.802 81.3957C426.164 61.9912 405.863 50.8309 386.459 56.4684C367.055 62.1059 355.894 82.4064 361.532 101.811C367.169 121.215 387.47 132.376 406.874 126.738Z" fill="white"/>
<path d="M424.467 67.8107C423.197 66.3236 421.813 64.9386 420.325 63.6687C422.477 71.2135 422.144 79.2505 419.375 86.5912C416.606 93.9319 411.548 100.187 404.949 104.431C398.35 108.674 390.561 110.682 382.733 110.157C374.905 109.631 367.454 106.6 361.481 101.513C362.965 106.779 365.61 111.645 369.224 115.753C372.837 119.861 377.326 123.106 382.36 125.249C387.394 127.392 392.844 128.378 398.31 128.135C403.775 127.892 409.117 126.426 413.94 123.845C418.764 121.264 422.948 117.634 426.182 113.221C429.417 108.809 431.62 103.727 432.631 98.3504C433.641 92.9735 433.432 87.4385 432.019 82.1531C430.606 76.8677 428.026 71.9665 424.467 67.8107Z" fill="#99E9A0"/>
<path opacity="0.5" d="M424.467 67.8107C423.197 66.3236 421.813 64.9386 420.325 63.6687C422.477 71.2135 422.144 79.2505 419.375 86.5912C416.606 93.9319 411.548 100.187 404.949 104.431C398.35 108.674 390.561 110.682 382.733 110.157C374.905 109.631 367.454 106.6 361.481 101.513C362.965 106.779 365.61 111.645 369.224 115.753C372.837 119.861 377.326 123.106 382.36 125.249C387.394 127.392 392.844 128.378 398.31 128.135C403.775 127.892 409.117 126.426 413.94 123.845C418.764 121.264 422.948 117.634 426.182 113.221C429.417 108.809 431.62 103.727 432.631 98.3504C433.641 92.9735 433.432 87.4385 432.019 82.1531C430.606 76.8677 428.026 71.9665 424.467 67.8107Z" fill="white"/>
<path d="M406.874 126.738C426.279 121.101 437.439 100.8 431.802 81.3957C426.164 61.9912 405.863 50.8309 386.459 56.4684C367.055 62.1059 355.894 82.4064 361.532 101.811C367.169 121.215 387.47 132.376 406.874 126.738Z" stroke="#263238" stroke-width="1.19148" stroke-linecap="round" stroke-linejoin="round"/>
<path d="M429.146 116.88L439.805 107.767" stroke="#263238" stroke-width="1.19148" stroke-linecap="round" stroke-linejoin="round"/>
<path d="M442.637 108.913C443.205 108.428 443.556 107.737 443.614 106.993C443.673 106.248 443.433 105.511 442.948 104.944C442.462 104.376 441.772 104.025 441.027 103.966C440.283 103.908 439.546 104.148 438.978 104.633C438.697 104.873 438.466 105.167 438.298 105.496C438.131 105.826 438.03 106.185 438.001 106.553C437.943 107.298 438.182 108.035 438.668 108.602C439.153 109.17 439.844 109.522 440.588 109.58C441.332 109.638 442.069 109.398 442.637 108.913V108.913Z" fill="#263238"/>
<path d="M416.087 127.925C415.677 127.445 415.365 126.888 415.17 126.287C414.975 125.687 414.901 125.053 414.951 124.424C415.001 123.794 415.174 123.18 415.462 122.618C415.749 122.056 416.145 121.555 416.625 121.146L423.639 115.126C424.613 114.3 425.874 113.893 427.147 113.994C428.42 114.095 429.601 114.696 430.432 115.665V115.665C430.843 116.144 431.156 116.7 431.352 117.3C431.548 117.9 431.624 118.533 431.575 119.163C431.526 119.792 431.354 120.406 431.068 120.969C430.782 121.532 430.387 122.033 429.907 122.444L422.88 128.463C421.908 129.293 420.646 129.702 419.372 129.601C418.098 129.5 416.916 128.897 416.087 127.925Z" fill="white" stroke="#263238" stroke-width="1.19148" stroke-linecap="round" stroke-linejoin="round"/>
<path d="M404.641 133.958C404.641 133.958 390.434 130.12 384.842 140.793C379.25 151.465 385.56 178.071 385.56 178.071C385.56 178.071 375.177 194.942 372.54 196.779C369.903 198.615 362.475 197.814 355.158 201.542C347.84 205.27 350.257 209.094 352.203 210.378C354.15 211.662 360.114 207.824 361.868 207.962C363.621 208.1 363.428 211.262 356.525 218.427C349.621 225.593 346.46 225.773 348.434 229.086C348.97 230.034 349.795 230.786 350.789 231.23C351.783 231.675 352.893 231.79 353.957 231.558C353.713 232.378 353.775 233.259 354.13 234.038C354.485 234.817 355.11 235.442 355.89 235.796C358.734 237.177 359.949 236.114 359.949 236.114C359.949 236.114 359.673 239.717 362.31 240.822C364.378 241.43 366.578 241.43 368.647 240.822C368.647 240.822 371.146 243.749 373.673 243.266C376.199 242.782 381.957 235.741 386.513 229.749C391.069 223.757 408.603 202.453 415.507 189.392C422.41 176.331 419.138 163.159 417.73 155.11C416.321 147.061 409.943 135.726 404.641 133.958Z" fill="white"/>
<path d="M417.729 155.152C416.349 147.102 409.942 135.726 404.641 133.958L404.309 133.876C409.166 145.525 411.114 158.182 409.984 170.753C408.189 193.644 387.189 211.704 380.796 218.345C375.674 223.674 369.226 231.143 359.935 236.666C359.899 237.508 360.102 238.344 360.519 239.076C360.937 239.809 361.553 240.409 362.296 240.808C364.364 241.417 366.564 241.417 368.633 240.808C368.633 240.808 371.132 243.735 373.658 243.252C376.185 242.769 381.942 235.727 386.499 229.735C391.055 223.743 408.589 202.439 415.493 189.378C422.396 176.317 419.138 163.201 417.729 155.152Z" fill="#99E9A0"/>
<path opacity="0.5" d="M417.729 155.152C416.349 147.102 409.942 135.726 404.641 133.958L404.309 133.876C409.166 145.525 411.114 158.182 409.984 170.753C408.189 193.644 387.189 211.704 380.796 218.345C375.674 223.674 369.226 231.143 359.935 236.666C359.899 237.508 360.102 238.344 360.519 239.076C360.937 239.809 361.553 240.409 362.296 240.808C364.364 241.417 366.564 241.417 368.633 240.808C368.633 240.808 371.132 243.735 373.658 243.252C376.185 242.769 381.942 235.727 386.499 229.735C391.055 223.743 408.589 202.439 415.493 189.378C422.396 176.317 419.138 163.201 417.729 155.152Z" fill="white"/>
<path d="M404.641 133.958C404.641 133.958 390.434 130.12 384.842 140.793C379.25 151.465 385.56 178.071 385.56 178.071C385.56 178.071 375.177 194.942 372.54 196.779C369.903 198.615 362.475 197.814 355.158 201.542C347.84 205.27 350.257 209.094 352.203 210.378C354.15 211.662 360.114 207.824 361.868 207.962C363.621 208.1 363.428 211.262 356.525 218.427C349.621 225.593 346.46 225.773 348.434 229.086C348.97 230.034 349.795 230.786 350.789 231.23C351.783 231.675 352.893 231.79 353.957 231.558C353.713 232.378 353.775 233.259 354.13 234.038C354.485 234.817 355.11 235.442 355.89 235.796C358.734 237.177 359.949 236.114 359.949 236.114C359.949 236.114 359.673 239.717 362.31 240.822C364.378 241.43 366.578 241.43 368.647 240.822C368.647 240.822 371.146 243.749 373.673 243.266C376.199 242.782 381.957 235.741 386.513 229.749C391.069 223.757 408.603 202.453 415.507 189.392C422.41 176.331 419.138 163.159 417.73 155.11C416.321 147.061 409.943 135.726 404.641 133.958Z" stroke="#263238" stroke-width="1.19148" stroke-linecap="round" stroke-linejoin="round"/>
<path d="M373.659 243.307C376.185 242.824 381.943 235.782 386.499 229.79C389.081 226.408 395.818 218.11 402.432 209.177C398 193.99 384.884 189.447 379.043 188.191C376.406 192.14 373.7 195.923 372.54 196.737C369.903 198.573 362.475 197.773 355.158 201.5C347.84 205.228 350.257 209.053 352.203 210.337C354.15 211.621 360.114 207.782 361.868 207.921C363.621 208.059 363.428 211.22 356.525 218.386C349.621 225.552 346.46 225.773 348.434 229.086C348.97 230.034 349.795 230.786 350.789 231.23C351.783 231.675 352.893 231.79 353.957 231.558C353.713 232.378 353.775 233.259 354.13 234.038C354.485 234.817 355.11 235.442 355.89 235.796C358.734 237.177 359.949 236.114 359.949 236.114C359.949 236.114 359.673 239.717 362.31 240.822C364.378 241.43 366.578 241.43 368.647 240.822C368.647 240.822 371.132 243.79 373.659 243.307Z" stroke="#263238" stroke-width="1.19148" stroke-linecap="round" stroke-linejoin="round"/>
<path d="M353.956 231.558C359.215 228.828 363.901 225.116 367.763 220.623" stroke="#263238" stroke-width="1.19148" stroke-linecap="round" stroke-linejoin="round"/>
<path d="M359.935 236.114C365.461 233.428 370.384 229.646 374.404 224.999" stroke="#263238" stroke-width="1.19148" stroke-linecap="round" stroke-linejoin="round"/>
<path d="M368.632 240.863C368.632 240.863 376.584 234.913 380.367 229.997" stroke="#263238" stroke-width="1.19148" stroke-linecap="round" stroke-linejoin="round"/>
<path d="M418.364 182.199C418.654 181.149 418.875 180.1 419.068 179.065C407.498 171.347 392.919 173.873 385.145 176.124C385.394 177.325 385.56 178.029 385.56 178.029L384.358 179.962C402.942 175.475 413.187 178.83 418.364 182.199Z" fill="white" stroke="#263238" stroke-width="1.19148" stroke-linecap="round" stroke-linejoin="round"/>
<path d="M410.301 189.254C411.329 190.453 412.552 191.471 413.918 192.264C414.484 191.284 415.023 190.345 415.506 189.502C419.025 182.568 420.427 174.751 419.538 167.025C416.607 167.154 413.804 168.257 411.571 170.159C408.883 172.531 407.242 175.868 407.004 179.445C406.766 183.022 407.951 186.547 410.301 189.254V189.254Z" fill="#99E9A0" stroke="#263238" stroke-width="1.19148" stroke-linecap="round" stroke-linejoin="round"/>
<path d="M279.483 138.915C279.483 138.915 285.227 155.483 292.613 156.712C300 157.94 310.272 145.404 312.357 136.002C314.442 126.599 307.11 119.033 296.507 109.59C285.903 100.146 270.702 94.6508 257.848 101.816C244.994 108.982 225.996 129.43 225.996 129.43C225.996 129.43 214.109 118.978 207.799 124.377C201.49 129.775 209.718 146.288 215.531 153.094C221.344 159.901 231.947 169.883 242.123 167.508C252.298 165.134 260.361 146.039 266.975 140.42C273.588 134.801 278.02 137.217 279.483 138.915Z" fill="white"/>
<path d="M295.968 142.933C284.743 137.548 287.891 124.073 276.639 120.483C265.386 116.893 266.311 124.528 257.309 138.901C248.307 153.274 231.712 152.363 220.487 148.773C216.929 147.621 213.431 146.29 210.008 144.783C211.542 147.784 213.394 150.612 215.53 153.219C221.343 160.025 231.905 169.911 242.067 167.536C252.229 165.161 260.305 146.067 266.919 140.447C273.532 134.828 278.047 137.244 279.497 138.943C279.497 138.943 285.24 155.511 292.627 156.739C300.013 157.968 310.285 145.432 312.37 136.029C312.716 134.49 312.805 132.904 312.633 131.335L312.108 131.225C312.108 131.225 307.151 148.303 295.968 142.933Z" fill="#99E9A0"/>
<path opacity="0.5" d="M295.968 142.933C284.743 137.548 287.891 124.073 276.639 120.483C265.386 116.893 266.311 124.528 257.309 138.901C248.307 153.274 231.712 152.363 220.487 148.773C216.929 147.621 213.431 146.29 210.008 144.783C211.542 147.784 213.394 150.612 215.53 153.219C221.343 160.025 231.905 169.911 242.067 167.536C252.229 165.161 260.305 146.067 266.919 140.447C273.532 134.828 278.047 137.244 279.497 138.943C279.497 138.943 285.24 155.511 292.627 156.739C300.013 157.968 310.285 145.432 312.37 136.029C312.716 134.49 312.805 132.904 312.633 131.335L312.108 131.225C312.108 131.225 307.151 148.303 295.968 142.933Z" fill="white"/>
<path d="M279.483 138.915C279.483 138.915 285.227 155.483 292.613 156.712C300 157.94 310.272 145.404 312.357 136.002C314.442 126.599 307.11 119.033 296.507 109.59C285.903 100.146 270.702 94.6508 257.848 101.816C244.994 108.982 225.996 129.43 225.996 129.43C225.996 129.43 214.109 118.978 207.799 124.377C201.49 129.775 209.718 146.288 215.531 153.094C221.344 159.901 231.947 169.883 242.123 167.508C252.298 165.134 260.361 146.039 266.975 140.42C273.588 134.801 278.02 137.217 279.483 138.915Z" stroke="#263238" stroke-width="1.19148" stroke-linecap="round" stroke-linejoin="round"/>
<path d="M243.268 112.807C234.101 120.842 226.037 129.526 226.037 129.526C226.037 129.526 214.15 119.075 207.84 124.473C201.531 129.872 209.759 146.384 215.572 153.191C221.385 159.998 231.947 169.883 242.122 167.508C251.29 165.368 258.69 149.56 264.931 142.449C256.263 133.712 248.96 123.719 243.268 112.807V112.807Z" stroke="#263238" stroke-width="1.19148" stroke-linecap="round" stroke-linejoin="round"/>
<path d="M273.878 98.7514C272.75 98.6205 271.617 98.5514 270.481 98.5443C273.854 111.143 274.625 124.297 272.746 137.203C273.849 136.908 275.004 136.86 276.128 137.065C276.888 127.276 277.454 111.053 273.878 98.7514Z" stroke="#263238" stroke-width="1.19148" stroke-linecap="round" stroke-linejoin="round"/>
<path d="M281.623 120.262C279.794 121.816 277.546 122.792 275.162 123.068C272.779 123.344 270.367 122.908 268.231 121.813C266.096 120.719 264.333 119.016 263.165 116.92C261.997 114.824 261.476 112.429 261.669 110.037C261.862 107.645 262.76 105.365 264.248 103.483C265.737 101.601 267.75 100.203 270.034 99.4649C272.317 98.7269 274.768 98.6824 277.076 99.3369C279.385 99.9914 281.447 101.315 283.004 103.142C284.038 104.356 284.823 105.763 285.314 107.28C285.804 108.798 285.991 110.398 285.863 111.988C285.734 113.578 285.294 115.128 284.566 116.547C283.839 117.967 282.839 119.229 281.623 120.262V120.262Z" fill="#99E9A0" stroke="#263238" stroke-width="1.19148" stroke-linecap="round" stroke-linejoin="round"/>
<path d="M242.122 167.509C244.54 166.826 246.75 165.555 248.556 163.808C242.053 164.885 230.041 164.526 219.12 151.382C208.489 138.625 208.31 128.698 209.359 123.479C208.817 123.729 208.311 124.049 207.854 124.432C201.531 129.83 209.773 146.343 215.586 153.15C221.398 159.956 231.947 169.883 242.122 167.509Z" stroke="#263238" stroke-width="1.19148" stroke-linecap="round" stroke-linejoin="round"/>
<path d="M312.716 197.593C312.716 197.593 329.518 202.536 334.806 197.262C340.094 191.988 340.881 175.958 329.449 169.165C321.165 164.278 312.591 163.643 298.743 166.735C284.895 169.828 271.599 179.065 269.984 193.644C268.369 208.224 273.988 235.644 273.988 235.644C273.988 235.644 258.594 239.248 259.311 247.532C260.029 255.816 278.268 258.701 287.173 257.914C296.079 257.127 310.286 254.283 314.248 244.632C318.211 234.982 307.345 217.323 306.599 208.735C305.854 200.147 310.493 197.786 312.716 197.593Z" fill="white"/>
<path d="M312.715 197.593C312.715 197.593 329.518 202.536 334.806 197.262C338.258 193.824 339.763 185.858 337.264 178.83C337.264 178.83 338.644 186.023 328.731 187.818C318.818 189.613 302.692 186.023 295.512 194.998C288.333 203.972 298.646 222.39 299.544 234.512C300.441 246.634 297.721 250.624 285.599 252.005C273.477 253.386 262.639 244.688 260.14 249.962C263.854 256.354 279.234 258.591 287.201 257.887C296.12 257.1 310.313 254.256 314.275 244.605C318.238 234.954 307.372 217.295 306.627 208.708C305.881 200.12 310.492 197.786 312.715 197.593Z" fill="#99E9A0"/>
<path opacity="0.5" d="M312.715 197.593C312.715 197.593 329.518 202.536 334.806 197.262C338.258 193.824 339.763 185.858 337.264 178.83C337.264 178.83 338.644 186.023 328.731 187.818C318.818 189.613 302.692 186.023 295.512 194.998C288.333 203.972 298.646 222.39 299.544 234.512C300.441 246.634 297.721 250.624 285.599 252.005C273.477 253.386 262.639 244.688 260.14 249.962C263.854 256.354 279.234 258.591 287.201 257.887C296.12 257.1 310.313 254.256 314.275 244.605C318.238 234.954 307.372 217.295 306.627 208.708C305.881 200.12 310.492 197.786 312.715 197.593Z" fill="white"/>
<path d="M312.716 197.593C312.716 197.593 329.518 202.536 334.806 197.262C340.094 191.988 340.881 175.958 329.449 169.165C321.165 164.278 312.591 163.643 298.743 166.735C284.895 169.828 271.599 179.065 269.984 193.644C268.369 208.224 273.988 235.644 273.988 235.644C273.988 235.644 258.594 239.248 259.311 247.532C260.029 255.816 278.268 258.701 287.173 257.914C296.079 257.127 310.286 254.283 314.248 244.632C318.211 234.982 307.345 217.323 306.599 208.735C305.854 200.147 310.493 197.786 312.716 197.593Z" stroke="#263238" stroke-width="1.19148" stroke-linecap="round" stroke-linejoin="round"/>
<path d="M270.426 211.966C271.641 224.102 274.015 235.7 274.015 235.7C274.015 235.7 258.621 239.303 259.339 247.587C260.057 255.871 278.295 258.757 287.201 257.97C296.106 257.183 310.313 254.338 314.275 244.688C317.851 235.976 309.388 220.775 307.124 211.552C294.981 213.535 282.609 213.675 270.426 211.966V211.966Z" stroke="#263238" stroke-width="1.19148" stroke-linecap="round" stroke-linejoin="round"/>
<path d="M276.75 178.913C275.993 179.751 275.283 180.632 274.624 181.55C286.813 186.132 297.949 193.135 307.36 202.136C307.768 201.091 308.399 200.149 309.21 199.374C301.74 192.954 288.859 183.069 276.75 178.913Z" stroke="#263238" stroke-width="1.19148" stroke-linecap="round" stroke-linejoin="round"/>
<path d="M290.319 197.699C296.72 195.686 300.277 188.865 298.264 182.464C296.251 176.063 289.43 172.506 283.029 174.519C276.628 176.533 273.071 183.354 275.084 189.755C277.097 196.156 283.918 199.713 290.319 197.699Z" fill="#99E9A0" stroke="#263238" stroke-width="1.19148" stroke-linecap="round" stroke-linejoin="round"/>
<path d="M314.276 244.632C315.129 242.269 315.376 239.729 314.994 237.246C312.095 243.169 304.832 252.737 287.822 254.007C271.255 255.25 263.067 249.63 259.45 245.723C259.329 246.309 259.292 246.908 259.339 247.504C260.071 255.788 278.296 258.674 287.201 257.887C296.106 257.1 310.314 254.283 314.276 244.632Z" stroke="#263238" stroke-width="1.19148" stroke-linecap="round" stroke-linejoin="round"/>
<path d="M409.003 76.1914C405.357 71.402 402.049 66.3641 399.104 61.1145C392.924 60.2858 386.637 61.3285 381.055 64.1083C375.473 66.888 370.853 71.277 367.79 76.7087C364.728 82.1404 363.364 88.3654 363.874 94.5801C364.385 100.795 366.746 106.714 370.654 111.573C374.562 116.432 379.836 120.009 385.797 121.84C391.757 123.672 398.13 123.675 404.092 121.849C410.055 120.023 415.333 116.451 419.245 111.596C423.157 106.74 425.525 100.824 426.041 94.6094C419.763 89.052 414.056 82.8821 409.003 76.1914V76.1914Z" fill="#263238" stroke="#263238" stroke-width="1.19148" stroke-linecap="round" stroke-linejoin="round"/>
<path d="M412.027 104.509C410.588 105.913 408.76 106.853 406.78 107.205C404.8 107.556 402.76 107.305 400.925 106.482C399.09 105.659 397.545 104.304 396.491 102.592C395.436 100.879 394.921 98.8897 395.012 96.8809C395.103 94.8721 395.797 92.9371 397.002 91.3275C398.207 89.7179 399.869 88.508 401.771 87.8551C403.673 87.2021 405.727 87.1363 407.667 87.6662C409.607 88.1961 411.342 89.2972 412.648 90.8264C413.508 91.7644 414.175 92.8629 414.609 94.0591C415.043 95.2552 415.237 96.5254 415.18 97.7967C415.122 99.0679 414.814 100.315 414.273 101.467C413.732 102.619 412.968 103.653 412.027 104.509V104.509Z" fill="white"/>
<path d="M401.769 81.3827C401.324 81.7758 400.772 82.0272 400.183 82.1048C399.595 82.1823 398.997 82.0825 398.465 81.818C397.934 81.5535 397.493 81.1365 397.2 80.6202C396.907 80.104 396.775 79.512 396.82 78.9201C396.866 78.3282 397.087 77.7634 397.455 77.2978C397.823 76.8323 398.322 76.4872 398.888 76.3068C399.453 76.1265 400.06 76.119 400.63 76.2854C401.199 76.4517 401.707 76.7843 402.086 77.2407C402.586 77.8354 402.832 78.6021 402.773 79.3765C402.713 80.1508 402.353 80.871 401.769 81.3827V81.3827Z" fill="white"/>
<path d="M106.899 319.489L98.0361 318.617L96.776 331.423L105.638 332.295L106.899 319.489Z" fill="#263238"/>
<path d="M175.444 502.539L174.852 499.684L175.993 499.337C176.66 499.125 176.932 498.725 176.81 498.138L173.408 481.747L171.377 482.058L170.755 479.062L180.836 476.97C183.468 476.423 185.642 476.622 187.357 477.565C189.091 478.479 190.215 480.17 190.727 482.638C191.239 485.105 190.805 487.205 189.424 488.938C188.038 490.647 185.971 491.787 183.222 492.358L180.225 492.98L181.286 498.091L184.692 497.494L185.314 500.491L175.444 502.539ZM179.516 489.561L182.054 489.034C185.484 488.322 186.91 486.568 186.329 483.771C185.978 482.079 185.3 481.056 184.295 480.701C183.308 480.317 181.852 480.325 179.925 480.725L177.774 481.172L179.516 489.561ZM209.269 477.76L211.99 490.872C212.068 491.248 212.181 491.495 212.328 491.611C212.498 491.723 212.75 491.756 213.084 491.712L214.226 491.548L214.812 494.368L209.207 495.531L208.783 493.487L208.67 493.473C207.846 495.409 206.412 496.589 204.367 497.014C201.97 497.511 200.038 497.116 198.569 495.827C197.101 494.539 196.091 492.567 195.54 489.912C194.876 486.716 195.135 484.064 196.315 481.956C197.495 479.848 199.636 478.472 202.738 477.828C204.736 477.414 206.913 477.391 209.269 477.76ZM207.55 490.029L205.655 480.9C204.934 480.731 203.998 480.766 202.846 481.005C201.272 481.332 200.264 482.203 199.822 483.618C199.38 485.033 199.377 486.786 199.811 488.878C200.601 492.685 202.218 494.335 204.662 493.827C205.696 493.613 206.478 493.132 207.01 492.384C207.536 491.613 207.716 490.828 207.55 490.029ZM233.359 490.481C233.689 493.134 233.334 495.205 232.295 496.695C231.256 498.185 229.362 499.216 226.613 499.786C223.864 500.357 221.633 500.416 219.921 499.962L218.904 495.063L222.194 494.086L222.545 495.777C222.677 496.412 223.059 496.774 223.69 496.864C224.326 496.977 225.161 496.926 226.195 496.711C227.699 496.399 228.662 495.721 229.082 494.678C229.508 493.658 229.55 492.326 229.209 490.681L228.806 488.742C227.951 490.292 226.525 491.275 224.528 491.689C223.306 491.943 222.176 491.932 221.139 491.657C220.125 491.378 219.276 490.892 218.593 490.2C217.251 488.812 216.356 487.037 215.907 484.875C215.268 481.797 215.619 479.297 216.961 477.376C218.298 475.432 220.353 474.172 223.126 473.597C225.428 473.119 227.692 473.102 229.917 473.547L232.632 486.625C233.046 488.622 233.289 489.908 233.359 490.481ZM227.855 484.16L226.282 476.581C225.401 476.47 224.432 476.524 223.374 476.744C221.941 477.041 220.946 477.799 220.39 479.018C219.858 480.231 219.779 481.743 220.155 483.552C220.926 487.265 222.533 488.868 224.977 488.361C225.987 488.151 226.77 487.67 227.324 486.917C227.898 486.137 228.075 485.217 227.855 484.16ZM240.258 470.592L243.331 485.396L245.362 485.085L245.948 487.905L237.559 489.646L237.003 486.967L238.144 486.62C238.811 486.408 239.073 485.962 238.932 485.28L236.898 475.481C236.815 475.081 236.688 474.826 236.518 474.714C236.371 474.598 236.134 474.573 235.805 474.642L234.556 474.827L233.949 471.902L240.258 470.592ZM235.188 468.482C234.592 468.091 234.216 467.52 234.06 466.768C233.904 466.016 234.021 465.342 234.412 464.746C234.799 464.127 235.391 463.734 236.19 463.568C236.989 463.402 237.689 463.527 238.29 463.941C238.909 464.327 239.297 464.897 239.453 465.648C239.609 466.4 239.48 467.077 239.065 467.678C238.669 468.25 238.072 468.619 237.273 468.785C236.474 468.951 235.779 468.85 235.188 468.482ZM245.387 472.469L244.802 469.649L250.759 468.412L251.235 470.704C251.665 469.707 252.334 468.858 253.242 468.154C254.146 467.428 255.185 466.942 256.36 466.698C258.145 466.328 259.627 466.559 260.806 467.393C262.002 468.199 262.813 469.624 263.237 471.668L265.147 480.868L267.178 480.557L267.763 483.377L259.374 485.118L258.818 482.439L259.959 482.092C260.302 481.972 260.541 481.824 260.676 481.649C260.806 481.451 260.828 481.14 260.74 480.717L259.233 473.456C258.965 472.163 258.567 471.253 258.041 470.725C257.51 470.173 256.68 470.014 255.552 470.249C254.448 470.478 253.64 471.013 253.128 471.855C252.616 472.696 252.461 473.599 252.661 474.562L254.431 483.092L256.462 482.781L257.048 485.601L248.658 487.342L248.102 484.663L249.244 484.316C249.586 484.196 249.825 484.048 249.961 483.873C250.091 483.675 250.112 483.364 250.024 482.941L247.998 473.177C247.851 472.472 247.482 472.169 246.89 472.267L245.387 472.469ZM282.827 462.492L285.549 475.604C285.627 475.98 285.739 476.226 285.886 476.343C286.056 476.455 286.308 476.488 286.642 476.443L287.785 476.28L288.37 479.1L282.765 480.263L282.341 478.219L282.228 478.205C281.404 480.141 279.97 481.321 277.926 481.745C275.529 482.243 273.596 481.848 272.128 480.559C270.659 479.271 269.649 477.299 269.098 474.643C268.435 471.447 268.693 468.796 269.873 466.688C271.054 464.58 273.195 463.204 276.297 462.56C278.294 462.146 280.471 462.123 282.827 462.492ZM281.109 474.761L279.214 465.631C278.492 465.463 277.556 465.498 276.404 465.737C274.83 466.063 273.822 466.934 273.38 468.35C272.939 469.765 272.935 471.518 273.369 473.61C274.159 477.417 275.776 479.066 278.22 478.559C279.254 478.345 280.037 477.863 280.568 477.116C281.094 476.345 281.274 475.56 281.109 474.761ZM277.631 454.819L280.032 454.873C279.988 456.549 279.577 457.933 278.798 459.026C278.044 460.114 276.868 460.824 275.27 461.156C273.695 461.482 272.338 461.262 271.198 460.493C270.053 459.701 269.226 458.611 268.717 457.221L270.997 456.16C272.065 457.997 273.374 458.755 274.925 458.433C275.654 458.282 276.232 457.941 276.662 457.411C277.109 456.852 277.433 455.988 277.631 454.819Z" fill="#1B414C"/>
<path d="M301.7 457.839L304.773 472.643L306.804 472.332L307.389 475.152L299 476.893L298.444 474.214L299.585 473.867C300.252 473.655 300.515 473.208 300.373 472.527L298.339 462.728C298.257 462.328 298.13 462.073 297.96 461.961C297.813 461.844 297.575 461.82 297.246 461.889L295.998 462.074L295.39 459.148L301.7 457.839ZM294.007 457.266L292.328 456.438L295.277 450.274C295.62 449.566 296.062 449.156 296.602 449.043C297.19 448.921 297.798 449.138 298.428 449.694L303.494 454.084L302.298 455.582L297.378 452.78L294.007 457.266ZM306.829 459.716L306.243 456.896L312.2 455.659L312.676 457.95C313.107 456.954 313.776 456.104 314.684 455.401C315.587 454.674 316.626 454.189 317.801 453.945C319.587 453.575 321.069 453.806 322.247 454.64C323.444 455.446 324.254 456.871 324.679 458.915L326.588 468.115L328.619 467.804L329.205 470.624L320.815 472.365L320.259 469.686L321.401 469.339C321.743 469.219 321.982 469.071 322.118 468.896C322.248 468.697 322.269 468.387 322.181 467.964L320.674 460.702C320.406 459.41 320.009 458.5 319.482 457.972C318.951 457.42 318.122 457.261 316.994 457.495C315.889 457.725 315.081 458.26 314.57 459.102C314.058 459.943 313.902 460.846 314.102 461.809L315.873 470.339L317.904 470.028L318.489 472.848L310.1 474.589L309.544 471.91L310.685 471.563C311.028 471.443 311.267 471.295 311.402 471.12C311.532 470.922 311.554 470.611 311.466 470.188L309.439 460.424C309.293 459.719 308.924 459.416 308.331 459.514L306.829 459.716ZM340.83 441.996L345.439 464.202L347.471 463.891L348.056 466.711L339.667 468.452L339.111 465.773L340.252 465.426C340.919 465.214 341.181 464.767 341.04 464.086L337.433 446.708C337.326 446.191 336.973 445.97 336.376 446.045L335.128 446.231L334.521 443.305L340.83 441.996ZM368.701 459.521L369.279 462.306L363.568 463.491L363.093 461.2C362.181 463.301 360.468 464.613 357.953 465.135C354.311 465.891 352.068 464.236 351.224 460.171L349.534 452.028C349.402 451.394 349.04 451.126 348.448 451.224L347.305 451.388L346.705 448.497L352.909 447.21L355.228 458.383C355.487 459.629 355.858 460.532 356.342 461.094C356.826 461.655 357.621 461.821 358.725 461.592C359.83 461.362 360.64 460.839 361.157 460.021C361.697 459.198 361.867 458.305 361.667 457.341L360.123 449.904C360.045 449.528 359.921 449.284 359.751 449.172C359.599 449.032 359.356 448.984 359.022 449.029L357.88 449.193L357.28 446.302L363.483 445.015L366.352 458.832C366.43 459.208 366.542 459.454 366.689 459.571C366.831 459.664 367.083 459.698 367.445 459.671L368.701 459.521ZM374.512 451.77C374.927 453.768 375.625 455.241 376.606 456.189C377.587 457.137 378.783 457.465 380.193 457.173C381.626 456.875 382.931 456.077 384.108 454.779L386.187 457.178C384.801 458.888 382.851 460.003 380.337 460.525C377.823 461.047 375.674 460.672 373.89 459.4C372.125 458.1 370.92 455.898 370.276 452.797C369.632 449.695 369.972 447.198 371.295 445.305C372.637 443.384 374.342 442.209 376.409 441.78C378.501 441.346 380.54 441.425 382.525 442.018L383.477 446.601L380.285 447.52L379.934 445.828C379.802 445.194 379.487 444.855 378.987 444.812C378.507 444.74 378.02 444.755 377.526 444.857C374.683 445.448 373.678 447.752 374.512 451.77ZM390.79 453.723L388.763 443.959C388.685 443.583 388.561 443.339 388.391 443.227C388.239 443.087 387.997 443.04 387.663 443.084L386.16 443.286L385.568 440.431L391.525 439.194L392.073 441.838C392.306 440.834 392.808 439.945 393.579 439.172C394.345 438.376 395.304 437.858 396.455 437.619C397.63 437.375 398.8 437.402 399.965 437.7L401.055 442.952L397.828 443.879L397.492 442.258C397.394 441.788 397.216 441.518 396.956 441.449C396.673 441.386 396.344 441.393 395.968 441.471C395.028 441.666 394.323 442.168 393.854 442.976C393.403 443.756 393.285 444.663 393.499 445.697L395.197 453.874L398.293 453.379L398.871 456.164L389.424 458.124L388.868 455.445L390.009 455.098C390.352 454.978 390.591 454.83 390.726 454.655C390.857 454.457 390.878 454.146 390.79 453.723ZM424.17 448.008L424.748 450.792L419.038 451.977L418.563 449.686C417.651 451.787 415.937 453.099 413.423 453.621C409.781 454.377 407.538 452.722 406.694 448.657L405.004 440.514C404.872 439.88 404.51 439.612 403.918 439.71L402.775 439.874L402.175 436.984L408.379 435.696L410.698 446.87C410.957 448.115 411.328 449.019 411.812 449.58C412.296 450.141 413.091 450.307 414.195 450.078C415.3 449.849 416.11 449.325 416.627 448.507C417.167 447.684 417.337 446.791 417.137 445.828L415.593 438.39C415.515 438.014 415.391 437.77 415.22 437.658C415.069 437.518 414.826 437.471 414.492 437.516L413.35 437.679L412.75 434.789L418.953 433.501L421.821 447.319C421.899 447.695 422.012 447.941 422.159 448.057C422.3 448.151 422.553 448.184 422.915 448.158L424.17 448.008Z" fill="#D95736"/>
</svg>
