<svg width="229" height="45" viewBox="0 0 229 45" fill="none" xmlns="http://www.w3.org/2000/svg">
<path d="M24.1055 27.0223C29.6128 32.1019 37.2609 30.4322 42.9615 25.403C43.1383 25.247 43.1569 24.9757 43.0062 24.7933L40.7149 22.0316C40.5697 21.8569 40.3164 21.8229 40.1308 21.9525C36.1987 24.6977 32.2655 27.3046 27.4252 23.9958C27.2647 23.8859 27.0518 23.8991 26.9034 24.0232L24.123 26.3598C23.9188 26.5312 23.9112 26.8432 24.1055 27.0223Z" fill="#369B3F"/>
<path d="M42.5739 5.96527C41.8786 4.91396 41.2083 3.90219 40.5413 2.89483C40.4136 2.70148 40.4682 2.44003 40.6625 2.3137C45.3893 -0.755646 51.9424 -0.746857 56.2042 2.3137C56.3854 2.44442 56.4323 2.69599 56.309 2.88384C55.6594 3.86594 55.0034 4.85903 54.2949 5.93011C54.1759 6.11027 53.939 6.1696 53.7523 6.06414C50.2187 4.06698 46.6883 4.26911 43.1023 6.10808C42.9167 6.20255 42.6896 6.13884 42.5739 5.96527Z" fill="#369B3F"/>
<path d="M24.4974 2.84321C23.8195 3.86596 23.1623 4.85795 22.4658 5.90926C22.3468 6.08832 22.111 6.14764 21.9244 6.04218C18.382 4.03074 14.8582 4.26363 11.2568 6.06964C11.0723 6.16192 10.8475 6.09821 10.7339 5.92574C10.0462 4.88321 9.3781 3.87035 8.7122 2.86189C8.58775 2.67294 8.63797 2.41807 8.82464 2.29064C13.272 -0.747939 19.7454 -0.771008 24.3784 2.26647C24.5705 2.39171 24.624 2.65097 24.4974 2.84321Z" fill="#369B3F"/>
<path d="M17.6703 15.9258C15.7643 15.8863 14.2546 14.278 14.3103 12.3445C14.3659 10.4188 15.9739 8.90939 17.8908 8.98519C19.7171 9.05659 21.228 10.655 21.205 12.4918C21.1799 14.39 19.5599 15.9643 17.6703 15.9258Z" fill="#369B3F"/>
<path d="M48.4787 15.9214C46.5508 15.9434 44.9963 14.4098 44.9865 12.4742C44.9767 10.5397 46.5257 8.97422 48.4394 8.98301C50.2799 8.9918 51.818 10.5056 51.8769 12.3643C51.9359 14.2648 50.3748 15.8995 48.4787 15.9214Z" fill="#369B3F"/>
<path d="M42.0859 38C44.9744 38 47.7635 37.443 50.0276 36.3247C51.7699 35.5085 53.3167 34.3968 54.6638 32.9851C54.7522 32.8918 54.8396 32.7973 54.9258 32.7028C56.9301 30.4925 58.1964 27.8648 58.7269 24.8207C58.9147 23.7409 59.0107 22.6094 59.0129 21.4251C59.0129 21.4086 59.0129 21.3933 59.0129 21.3768C59.0129 21.3559 59.0129 21.335 59.0118 21.3131C59.0118 21.3054 59.0118 21.2988 59.0118 21.2911C59.0118 21.2691 59.0129 21.2483 59.0129 21.2274C59.0129 21.19 59.0129 21.1505 59.0118 21.1131C59.0118 20.9385 59.0129 20.7704 59.0151 20.6089C59.0249 19.8212 59.0686 19.1929 59.2542 18.76C59.3186 18.6095 59.3895 18.4821 59.4856 18.369C59.5948 18.2404 59.7378 18.1284 59.9452 18.0229C60.7705 17.6044 63.3915 16.3553 63.3915 16.3553C63.6677 16.2169 63.8052 16.2081 63.8052 15.939C63.8052 15.6435 63.7463 15.3282 63.695 15.003C63.5967 14.3834 63.5825 14.2703 63.529 13.9956C63.3642 13.1355 63.2026 12.9191 62.8293 12.9586L60.9364 13.2695L57.6298 13.8133L56.9093 13.9319L56.191 14.0495C56.1506 14.0539 56.1113 14.0627 56.0731 14.0747C55.8559 14.1406 55.6856 14.3186 55.6365 14.5471C55.4858 15.248 55.3559 15.9269 55.2467 16.5849C55.0022 18.0493 54.8603 19.4049 54.821 20.6528C54.821 20.6419 54.821 20.6309 54.821 20.621C54.7937 22.1502 54.7108 23.4399 54.3778 25.0921C54.0056 26.9398 53.034 28.6865 51.6323 29.9861C49.2362 32.2041 45.6763 33.5366 42.027 33.5586C37.0458 33.5882 27.0813 33.5882 22.1001 33.5586C18.4508 33.5366 14.8909 32.2041 12.4948 29.9861C11.0931 28.6876 10.1205 26.9398 9.74932 25.0921C9.41636 23.4388 9.3334 22.1491 9.30611 20.621C9.30611 20.632 9.30611 20.643 9.30611 20.6528C9.26572 19.4049 9.1249 18.0493 8.88037 16.5849C8.77011 15.9269 8.6413 15.2491 8.49065 14.5471C8.44153 14.3186 8.27123 14.1406 8.054 14.0747C8.01579 14.0627 7.97758 14.0539 7.9361 14.0495L7.2178 13.9319L6.49732 13.8133L3.19073 13.2695L1.29783 12.9586C0.923394 12.9191 0.762922 13.1355 0.598085 13.9956C0.545686 14.2703 0.530403 14.3834 0.432155 15.003C0.380848 15.3282 0.321899 15.6435 0.321899 15.939C0.321899 16.2081 0.459446 16.2169 0.735632 16.3553C0.735632 16.3553 3.35666 17.6044 4.18194 18.0229C4.39045 18.1284 4.53236 18.2393 4.64152 18.369C4.73759 18.4821 4.80855 18.6095 4.87295 18.76C5.05853 19.1929 5.1022 19.8212 5.11202 20.6089C5.11421 20.7704 5.11421 20.9385 5.1153 21.1131C5.1153 21.1516 5.11421 21.1911 5.11421 21.2274C5.11421 21.2493 5.11421 21.2702 5.11421 21.2911C5.11421 21.2988 5.11421 21.3054 5.11421 21.3131C5.11421 21.3339 5.11311 21.3559 5.11311 21.3768C5.11311 21.3933 5.11311 21.4086 5.11311 21.4251C5.1153 22.6094 5.21136 23.7409 5.39912 24.8207C5.92966 27.8648 7.19597 30.4925 9.20022 32.7028C9.28646 32.7973 9.37379 32.8918 9.46221 32.9851C10.8104 34.3968 12.3562 35.5096 14.0984 36.3247C16.3636 37.443 19.2335 38 22.122 38H42.0859Z" fill="#369B3F"/>
<path d="M116.006 24.7253L114.636 24.722C114.253 24.7211 113.971 25.0828 114.064 25.4572L114.278 26.3181C114.306 26.4336 114.273 26.5559 114.188 26.6393L113.041 27.6899C112.914 27.8063 112.937 28.0137 113.086 28.0989L113.982 28.6124C114.076 28.6579 114.187 28.6588 114.28 28.6124C114.809 28.3476 115.277 28.0129 115.684 27.6082C115.923 27.3738 116.13 27.1107 116.303 26.8181C116.476 26.5264 116.58 26.2186 116.616 25.8957C116.638 25.695 116.628 25.4682 116.586 25.2161C116.538 24.9328 116.291 24.7262 116.006 24.7253Z" fill="#369B3F"/>
<path d="M101.567 7.28253C99.5807 7.28253 97.9468 7.97141 96.6674 9.34832C96.0055 10.0372 95.4868 10.8812 95.1115 11.8804C94.7361 12.8795 94.5484 14.0237 94.5484 15.3121C94.5484 17.8442 95.2103 19.8543 96.535 21.3425C97.8371 22.8535 99.5145 23.6081 101.567 23.6081C103.531 23.6081 105.164 22.8973 106.467 21.4757C107.88 19.9875 108.586 17.9555 108.586 15.3787C108.586 12.9133 107.924 10.9478 106.6 9.48154C105.276 8.0161 103.598 7.28253 101.567 7.28253ZM104.348 19.7599C103.62 20.6596 102.682 21.109 101.534 21.109C100.386 21.109 99.4592 20.6486 98.7529 19.7262C98.0465 18.8046 97.6938 17.4496 97.6938 15.6612C97.6938 13.8737 98.0139 12.4571 98.654 11.4133C99.3377 10.3256 100.31 9.78087 101.567 9.78087C102.759 9.78087 103.703 10.2969 104.398 11.3298C105.093 12.3627 105.441 13.8011 105.441 15.6443C105.441 17.4892 105.077 18.8602 104.348 19.7599Z" fill="#369B3F"/>
<path d="M118.539 15.4108C118.02 15.0558 117.275 14.678 116.304 14.2784C115.333 13.8787 114.571 13.4951 114.02 13.1291C113.468 12.7623 113.192 12.291 113.192 11.7134C113.192 11.1358 113.401 10.6974 113.821 10.3972C114.24 10.097 114.541 9.96888 115.04 9.87276C115.429 9.79772 116.084 9.9478 116.422 10.183C116.597 10.3053 116.865 10.554 117.003 10.7185C117.302 11.0793 117.376 11.0009 117.937 10.9065C118.537 10.8062 119.152 10.7185 119.805 10.624C120.39 10.5397 120.34 10.092 120.137 9.78507C119.715 9.14762 119.463 8.89046 118.821 8.44779C118.379 8.13665 117.861 7.88117 117.265 7.68134C116.669 7.48151 116.017 7.38116 115.312 7.38116C113.899 7.38116 112.685 7.75891 111.67 8.51356C110.589 9.33565 110.048 10.4242 110.048 11.7783C110.048 13.1561 110.545 14.2666 111.538 15.1097C112.023 15.5094 112.625 15.8872 113.342 16.2421C114.059 16.598 114.92 16.9917 115.924 17.4251C116.928 17.8585 117.431 18.4858 117.431 19.3071C117.431 19.9513 117.177 20.4395 116.669 20.7734C116.448 20.9066 116.206 21.0069 115.941 21.0735C115.676 21.1402 115.329 21.2675 114.898 21.2675C114.535 21.2675 113.892 21.2262 113.259 20.9361C112.705 20.6823 112.536 20.3231 112.331 20.0246C112.034 19.5895 112.008 19.458 111.49 19.5541C110.977 19.6494 109.474 19.8804 109.474 19.8804C109.37 19.9007 109.27 19.9437 109.193 20.0162C109.008 20.1907 108.953 20.5719 109.082 20.8122C109.468 21.528 110.274 22.3366 111.124 22.8602C112.294 23.5491 113.804 23.6908 115.04 23.6908C116.519 23.6908 117.75 23.3501 118.787 22.6393C119.317 22.2616 119.748 21.7843 120.079 21.2068C120.409 20.6292 120.575 19.8906 120.575 18.9909C120.575 18.0912 120.299 17.275 119.748 16.5423C119.46 16.1435 119.057 15.7657 118.539 15.4108Z" fill="#369B3F"/>
<path d="M145.766 21.6975L144.462 21.3594C144.241 21.3021 144.086 21.1014 144.086 20.8712V1.53966C144.086 1.41066 144.038 1.28671 143.95 1.19312L143.207 0.401371C143.093 0.27911 142.925 0.222617 142.76 0.250442L139.366 0.822118C139.092 0.868492 138.909 1.12819 138.954 1.40222L139.129 2.45198C139.171 2.70831 139.4 2.88959 139.658 2.87188L140.561 2.80865C140.851 2.78841 141.098 3.01944 141.098 3.31202V20.9226C141.098 21.1587 140.934 21.3636 140.705 21.4151L139.495 21.6849C139.224 21.7447 139.054 22.0146 139.114 22.2869L139.316 23.1984C139.367 23.4286 139.571 23.593 139.806 23.593H145.642C145.919 23.593 146.143 23.367 146.143 23.0888V22.1849C146.142 21.9555 145.988 21.7549 145.766 21.6975Z" fill="#369B3F"/>
<path d="M136.161 21.2683C135.945 21.2481 135.825 21.055 135.795 20.7396C135.795 20.4665 135.796 20.1511 135.796 20.1511V19.2295V8.59452C135.762 8.46298 135.715 8.33482 135.63 8.23448L135.005 7.49923C134.955 7.44021 134.894 7.39383 134.826 7.36095C134.723 7.3112 134.605 7.29349 134.488 7.31542L131.857 7.81373L131.278 7.92335C130.986 7.979 130.79 8.25725 130.836 8.55236L130.981 9.48913C130.985 9.51864 130.994 9.54731 131.002 9.57513C131.004 9.58103 131.006 9.58778 131.008 9.59368C131.017 9.61898 131.028 9.64259 131.04 9.66619C131.045 9.67378 131.05 9.68137 131.054 9.68896C131.064 9.70583 131.075 9.721 131.087 9.73618C131.097 9.74883 131.107 9.76148 131.118 9.77328C131.128 9.78424 131.138 9.79436 131.148 9.80448C131.159 9.8146 131.169 9.82387 131.18 9.83314C131.195 9.84495 131.21 9.85591 131.226 9.86603C131.226 9.86687 131.227 9.86687 131.227 9.86772C131.24 9.87615 131.253 9.88289 131.267 9.88964C131.27 9.89132 131.273 9.89217 131.277 9.89385C131.306 9.90819 131.336 9.92168 131.368 9.93095C131.373 9.93264 131.378 9.93348 131.383 9.93517C131.428 9.94697 131.473 9.95456 131.521 9.95456H131.588H132.017H132.255C132.56 9.95456 132.806 10.2025 132.806 10.5085V10.7286V10.8922V18.2017V19.2042C132.806 19.2852 132.788 19.3661 132.754 19.4395C132.707 19.539 132.65 19.6351 132.586 19.7278C132.47 19.8965 132.325 20.0558 132.151 20.2042C131.976 20.356 131.771 20.4968 131.536 20.6275C131.249 20.7835 130.958 20.8998 130.659 20.9774C130.468 21.028 130.276 21.0592 130.085 21.0778C130.081 21.0778 130.077 21.0786 130.073 21.0786C130.071 21.0786 130.069 21.0786 130.069 21.0794C130.024 21.0837 129.981 21.087 129.936 21.0887C129.883 21.0921 129.829 21.0938 129.774 21.0938C129.73 21.0896 129.686 21.0845 129.642 21.0786C129.638 21.0786 129.634 21.0786 129.629 21.0778C129.376 21.066 129.111 21.0246 128.834 20.9496C128.795 20.9412 128.756 20.931 128.717 20.9201C128.705 20.9167 128.694 20.9125 128.682 20.9091C128.656 20.9015 128.629 20.8931 128.604 20.8847C128.591 20.8805 128.578 20.8754 128.565 20.8703C128.541 20.8619 128.517 20.8526 128.493 20.8434C128.48 20.8383 128.467 20.8324 128.455 20.8265C128.432 20.8164 128.41 20.8063 128.387 20.7961C128.374 20.7902 128.363 20.7843 128.35 20.7776C128.327 20.7658 128.306 20.7548 128.284 20.7422C128.273 20.7363 128.261 20.7295 128.25 20.7228C128.228 20.7093 128.206 20.6958 128.183 20.6815C128.173 20.6756 128.164 20.6688 128.154 20.6621C128.131 20.6469 128.108 20.6309 128.086 20.614C128.078 20.6081 128.07 20.6022 128.062 20.5963C128.038 20.5778 128.014 20.5584 127.991 20.539C127.985 20.5339 127.98 20.5297 127.974 20.5246C127.947 20.5019 127.921 20.4774 127.896 20.453C127.893 20.4513 127.892 20.4488 127.889 20.4471C127.69 20.2514 127.524 20.0052 127.393 19.7076C127.345 19.5971 127.302 19.4783 127.262 19.3543C127.253 19.3265 127.243 19.2995 127.235 19.2708C127.216 19.2084 127.2 19.1444 127.184 19.0786C127.183 19.0752 127.182 19.0718 127.181 19.0685C127.167 19.0086 127.154 18.9479 127.141 18.8855C127.139 18.8771 127.138 18.8678 127.136 18.8594C127.11 18.7278 127.089 18.5895 127.071 18.4462C127.07 18.4319 127.068 18.4175 127.066 18.404C127.059 18.3425 127.053 18.2793 127.047 18.2152C127.046 18.2042 127.045 18.1932 127.044 18.1823C127.038 18.1089 127.032 18.0339 127.028 17.9572C127.027 17.942 127.026 17.9268 127.025 17.9116C127.022 17.8501 127.019 17.7868 127.018 17.7236C127.017 17.7025 127.016 17.6806 127.016 17.6595C127.014 17.5811 127.013 17.501 127.013 17.4201V12.0768V11.7826V8.60969C127.013 8.46888 126.959 8.33313 126.864 8.23111L126.722 8.07934L126.191 7.51019C126.063 7.3736 125.877 7.3112 125.694 7.34409L122.422 7.92841C122.124 7.98153 121.924 8.26736 121.976 8.56753L122.135 9.49756C122.181 9.76316 122.409 9.95709 122.678 9.95709H123.474C123.778 9.95709 124.024 10.205 124.024 10.5111V10.8584V18.1435C124.024 19.1241 124.167 19.9589 124.451 20.6494C124.483 20.7278 124.516 20.8037 124.55 20.8788C124.56 20.9007 124.57 20.9218 124.58 20.9429C124.606 21.0002 124.634 21.0567 124.663 21.1115C124.672 21.13 124.682 21.1494 124.691 21.168C124.726 21.2354 124.762 21.3012 124.8 21.3653C124.815 21.3914 124.831 21.4167 124.846 21.4429C124.868 21.48 124.89 21.5162 124.914 21.5516C124.926 21.5702 124.937 21.5896 124.949 21.6081C124.959 21.6233 124.969 21.6368 124.979 21.6511C125.002 21.6848 125.025 21.7177 125.049 21.7506C125.097 21.8181 125.147 21.8847 125.198 21.9488C125.205 21.9572 125.211 21.9656 125.218 21.9732C125.858 22.7675 126.72 23.2801 127.817 23.5112C127.82 23.512 127.822 23.512 127.825 23.5129C127.924 23.5339 128.025 23.5516 128.128 23.5685C128.177 23.5761 128.225 23.5837 128.275 23.5904C128.31 23.5955 128.345 23.5997 128.381 23.6039C128.475 23.6149 128.57 23.6242 128.666 23.6317C128.672 23.6326 128.678 23.6326 128.684 23.6326C128.8 23.641 128.918 23.6444 129.038 23.6511C129.039 23.6511 129.04 23.6511 129.04 23.6511C129.207 23.6604 129.379 23.6714 129.555 23.6781C129.58 23.679 129.605 23.679 129.629 23.6798C129.686 23.6815 129.743 23.6832 129.802 23.6832C129.806 23.6832 129.811 23.6832 129.815 23.6832C129.819 23.6832 129.821 23.6832 129.825 23.6832C130.028 23.6832 130.229 23.6672 130.429 23.6427C130.85 23.6005 131.26 23.5171 131.666 23.372C131.667 23.3712 131.669 23.3712 131.67 23.3704C131.724 23.351 131.779 23.3299 131.834 23.3088C132.12 23.195 132.403 23.0559 132.681 22.8906C132.711 22.8729 132.743 22.8577 132.776 22.8459C132.824 22.8257 132.875 22.813 132.926 22.8063C132.93 22.8063 132.934 22.8063 132.938 22.8063C132.964 22.8071 132.99 22.8105 133.015 22.8147C133.022 22.8155 133.03 22.8155 133.036 22.8172C133.154 22.8408 133.266 22.9007 133.35 22.9994C133.498 23.1747 133.675 23.3147 133.877 23.4235C133.893 23.4328 133.91 23.4412 133.928 23.4496C133.974 23.4724 134.021 23.4943 134.07 23.5137C134.1 23.5263 134.131 23.5382 134.162 23.5491C134.196 23.5609 134.229 23.5719 134.264 23.582C134.303 23.5938 134.344 23.6039 134.384 23.6149C134.403 23.6199 134.421 23.6242 134.44 23.6284C134.495 23.6402 134.551 23.6503 134.609 23.6596C134.63 23.6629 134.652 23.6655 134.674 23.6688C134.741 23.6773 134.81 23.6849 134.881 23.6891C134.885 23.6891 134.888 23.6891 134.891 23.6899C134.952 23.6933 135.014 23.6958 135.077 23.6958C135.081 23.6958 135.084 23.6958 135.087 23.6958C135.179 23.6958 135.268 23.6925 135.356 23.6874C135.384 23.6857 135.412 23.6832 135.44 23.6807C135.443 23.6807 135.444 23.6798 135.447 23.6798C136.131 23.6427 136.741 23.4555 137.277 23.1166C137.518 22.9631 137.616 22.6579 137.506 22.3923L137.313 21.5685C137.267 21.3956 137.172 21.297 137.057 21.2439C136.981 21.2093 136.896 21.195 136.811 21.1941C136.784 21.1941 136.756 21.195 136.73 21.1966C136.546 21.2127 136.559 21.2236 136.454 21.2515C136.445 21.254 136.409 21.2624 136.4 21.2649C136.399 21.2649 136.361 21.2725 136.359 21.2725C136.31 21.2776 136.21 21.2725 136.161 21.2683Z" fill="#369B3F"/>
<path d="M91.3544 23.1461C91.5261 23.093 92.3288 22.792 92.4931 22.7203C92.9748 22.5086 93.4332 22.2152 93.7381 21.9977C93.9526 21.8442 94.1386 21.6697 94.0482 21.4209L94.0088 21.34L93.9552 21.2312L93.7205 20.754H93.7214L93.2455 19.7835L93.2396 19.77L93.1885 19.6604L93.1508 19.5786C93.0142 19.3526 92.7377 19.3712 92.5157 19.5128C92.0733 19.7953 91.1156 20.2405 90.6187 20.4066C89.8169 20.6739 89.196 20.743 88.2475 20.743C85.687 20.743 83.6342 19.899 82.09 18.211C80.5667 16.5448 79.8059 14.4352 79.8059 11.8812C79.8059 9.52707 80.5013 7.5279 81.8914 5.88454C82.1243 5.61051 82.3773 5.35756 82.648 5.12147C83.1448 4.68892 83.7029 4.32045 84.3246 4.01859C85.2848 3.55231 86.2827 3.31875 87.3208 3.31875C88.1922 3.31875 88.8692 3.30442 89.2815 3.48317C89.3829 3.52702 89.4683 3.57592 89.5446 3.64085C89.6317 3.71589 89.7063 3.81285 89.7775 3.95451C90.059 4.51691 90.9002 6.3036 90.9002 6.3036C90.9941 6.49163 90.9991 6.58607 91.1809 6.58607C91.3795 6.58607 91.5923 6.5456 91.811 6.51103C92.2283 6.44442 92.3045 6.4343 92.4889 6.39804C93.0678 6.2859 93.2136 6.17628 93.1868 5.9208L92.4528 1.39631C92.4336 1.21081 92.2987 1.05819 92.1177 1.01856C90.3883 0.641661 88.8558 0.452789 87.5202 0.452789C84.4603 0.452789 81.9199 1.38197 79.8972 3.23949C79.8336 3.29852 79.7699 3.35754 79.707 3.41825C77.4557 5.59533 76.3304 8.52706 76.3304 12.2143C76.3304 15.7017 77.511 18.5229 79.8729 20.6764C82.0204 22.6174 84.4913 23.6141 87.6216 23.6082C88.5961 23.6065 90.0557 23.55 91.3544 23.1461Z" fill="#369B3F"/>
<path d="M166.728 22.3543L166.535 21.5306C166.489 21.3577 166.394 21.2591 166.279 21.2059C166.101 21.1241 165.873 21.1553 165.699 21.2051C165.698 21.2051 165.697 21.2059 165.695 21.2059C165.611 21.2304 165.537 21.2422 165.476 21.2422C165.166 21.2422 165.011 21.0078 165.011 20.5398V20.3569V19.8872V1.50506C165.011 1.35835 164.957 1.21754 164.859 1.10877L164.196 0.376891C164.062 0.229335 163.864 0.160195 163.668 0.193079L160.396 0.746204C160.081 0.799324 159.868 1.09612 159.915 1.41316L160.049 2.31114C160.094 2.61469 160.363 2.83138 160.667 2.8103L161.398 2.75887C161.735 2.73526 162.023 3.00424 162.023 3.34488V6.97392C162.023 7.36178 161.654 7.64846 161.284 7.54054C160.667 7.3601 160.028 7.26988 159.366 7.26988C158.076 7.26988 156.929 7.5456 155.923 8.09366C155.495 8.32722 155.092 8.60884 154.715 8.94106C154.104 9.48153 153.607 10.1316 153.224 10.8913C152.579 12.1696 152.256 13.7598 152.256 15.6603C152.256 18.0676 152.866 20.0061 154.084 21.4774C154.087 21.4817 154.091 21.485 154.095 21.4892C154.668 22.1739 155.352 22.7051 156.143 23.082C156.383 23.1958 156.64 23.2903 156.913 23.3704C157.548 23.5559 158.269 23.6503 159.083 23.6503C159.703 23.6503 160.306 23.5458 160.891 23.3366C160.892 23.3358 160.894 23.3358 160.895 23.335C160.949 23.3156 161.005 23.2945 161.059 23.2734C161.346 23.1596 161.628 23.0205 161.906 22.8552C161.936 22.8375 161.968 22.8223 162.001 22.8105C162.228 22.7144 162.495 22.7658 162.66 22.9564C163.056 23.4193 163.641 23.6503 164.414 23.6503C165.204 23.6503 165.9 23.4597 166.5 23.0795C166.741 22.9252 166.838 22.6191 166.728 22.3543ZM162.021 19.7641C162.021 19.8063 162.017 19.8476 162.008 19.888C161.984 20.0044 161.926 20.1115 161.838 20.1933C161.199 20.7827 160.377 21.0761 159.373 21.0761C159.366 21.0761 159.359 21.0752 159.352 21.0752C158.386 21.0702 157.572 20.7312 156.911 20.0584C156.824 19.9698 156.739 19.8762 156.658 19.7759C156.627 19.738 156.597 19.6992 156.566 19.6595C155.812 18.6857 155.433 17.2818 155.433 15.4445C155.433 13.9504 155.693 12.7421 156.212 11.818C156.395 11.4925 156.609 11.2016 156.856 10.947C157.254 10.5026 157.684 10.1974 158.148 10.0304C158.611 9.86349 159.085 9.78086 159.571 9.78086C159.869 9.78086 160.165 9.81459 160.459 9.88204C160.567 9.9065 160.675 9.93601 160.784 9.97058C160.86 9.99419 160.936 10.0195 161.011 10.0481C161.313 10.1611 161.559 10.2783 161.749 10.4006C161.879 10.4841 161.968 10.6131 162.004 10.7598C162.015 10.8045 162.021 10.8509 162.021 10.8981V19.7641Z" fill="#369B3F"/>
<path d="M171.091 17.3281C174.145 17.2151 176.372 16.5979 177.773 15.479C178.435 14.9462 178.883 14.3517 179.114 13.6966C179.346 13.0414 179.462 12.3694 179.462 11.6814C179.462 10.3483 178.954 9.27157 177.938 8.44947C176.945 7.67206 175.72 7.28336 174.263 7.28336C172.277 7.28336 170.622 7.99415 169.297 9.41575C168.635 10.1046 168.106 10.9647 167.708 11.9976C167.311 13.0305 167.112 14.2185 167.112 15.5625C167.112 16.9065 167.3 18.0777 167.675 19.0777C168.403 21.0769 169.728 22.4209 171.648 23.109C173.767 23.8636 175.93 23.786 178.138 22.8754C178.506 22.7186 178.805 22.5626 179.038 22.4058C179.237 22.2708 179.325 22.0221 179.254 21.7911L178.96 20.4909C178.866 20.0204 178.367 20.0541 178.067 20.2371C177.872 20.3568 177.642 20.4808 177.377 20.6089C177.068 20.7422 176.703 20.8585 176.284 20.9589C175.865 21.0592 175.358 21.1089 174.761 21.1089C174.165 21.1089 173.613 21.0094 173.105 20.8088C171.866 20.329 171.03 19.4024 170.598 18.0271C170.491 17.6899 170.738 17.3408 171.091 17.3281ZM170.324 14.2564C170.511 12.8888 170.941 11.8078 171.615 11.0136C171.968 10.6139 172.36 10.3137 172.79 10.1139C173.221 9.91407 173.751 9.81373 174.38 9.81373C175.009 9.81373 175.489 10.0136 175.82 10.4132C176.151 10.8129 176.317 11.3247 176.317 11.9461C176.317 12.5684 176.107 13.0844 175.688 13.495C175.268 13.9065 174.661 14.2396 173.867 14.4942C173.177 14.716 172.178 14.8416 170.871 14.8711C170.54 14.8795 170.28 14.587 170.324 14.2564Z" fill="#369B3F"/>
<path d="M192.274 21.754L191.084 21.4142C190.883 21.3568 190.744 21.1722 190.744 20.9622V8.71843C190.744 8.59364 190.695 8.47391 190.607 8.38622L189.854 7.63073C189.746 7.52281 189.592 7.4739 189.442 7.50088L186.05 8.10966C185.798 8.15519 185.629 8.3955 185.671 8.64929L185.857 9.76819C185.896 10.0077 186.111 10.1763 186.351 10.1594L187.254 10.0937C187.524 10.0743 187.754 10.2893 187.754 10.5616V21.0086C187.754 21.2278 187.602 21.4184 187.39 21.4664L186.14 21.7489C185.892 21.8054 185.735 22.0508 185.786 22.3012L185.984 23.2734C186.028 23.4918 186.219 23.6486 186.441 23.6486H192.146C192.404 23.6486 192.613 23.4386 192.613 23.1789V22.2042C192.613 21.9951 192.474 21.8105 192.274 21.754Z" fill="#369B3F"/>
<path d="M189.139 5.92247C189.705 5.92247 190.183 5.71589 190.574 5.30189C190.966 4.88873 191.162 4.39462 191.162 3.82042C191.162 3.24621 190.966 2.74115 190.574 2.30438C190.183 1.86846 189.705 1.64923 189.139 1.64923C188.573 1.64923 188.095 1.85581 187.704 2.26981C187.312 2.68297 187.116 3.18888 187.116 3.78585C187.116 4.38366 187.312 4.88873 187.704 5.30189C188.095 5.71589 188.573 5.92247 189.139 5.92247Z" fill="#369B3F"/>
<path d="M228.63 21.6975L227.44 21.3577C227.239 21.3004 227.101 21.1157 227.101 20.9058V8.66283C227.101 8.53804 227.051 8.41831 226.963 8.33062L226.21 7.57513C226.102 7.4672 225.949 7.4183 225.799 7.44528L222.406 8.05406C222.154 8.09959 221.986 8.33989 222.027 8.59369L222.213 9.71259C222.253 9.95205 222.467 10.1207 222.708 10.1038L223.61 10.0381C223.881 10.0187 224.11 10.2337 224.11 10.506V20.953C224.11 21.1722 223.959 21.3628 223.746 21.4108L222.497 21.6933C222.249 21.7498 222.091 21.9951 222.142 22.2456L222.34 23.2178C222.384 23.4361 222.575 23.593 222.797 23.593H228.503C228.761 23.593 228.969 23.383 228.969 23.1233V22.1486C228.969 21.9395 228.831 21.7548 228.63 21.6975Z" fill="#369B3F"/>
<path d="M225.52 5.86684C226.085 5.86684 226.564 5.66026 226.955 5.24626C227.346 4.8331 227.542 4.33899 227.542 3.76479C227.542 3.19058 227.346 2.68552 226.955 2.24875C226.564 1.81282 226.085 1.5936 225.52 1.5936C224.954 1.5936 224.476 1.80018 224.084 2.21418C223.693 2.62734 223.497 3.13324 223.497 3.73022C223.497 4.32803 223.692 4.8331 224.084 5.24626C224.476 5.66026 224.954 5.86684 225.52 5.86684Z" fill="#369B3F"/>
<path d="M207.685 22.3543L207.492 21.5306C207.446 21.3577 207.351 21.2591 207.236 21.2059C207.058 21.1241 206.83 21.1553 206.657 21.2051C206.655 21.2051 206.654 21.2059 206.652 21.2059C206.568 21.2304 206.494 21.2422 206.434 21.2422C206.124 21.2422 205.969 21.0078 205.969 20.5398V20.3569V19.8872V1.50506C205.969 1.35835 205.914 1.21754 205.816 1.10877L205.153 0.376891C205.02 0.229335 204.821 0.160195 204.626 0.193079L201.353 0.746204C201.039 0.799324 200.825 1.09612 200.872 1.41316L201.006 2.31114C201.051 2.61469 201.32 2.83138 201.624 2.8103L202.355 2.75887C202.693 2.73526 202.98 3.00424 202.98 3.34488V6.97392C202.98 7.36178 202.611 7.64846 202.241 7.54054C201.624 7.3601 200.985 7.26988 200.323 7.26988C199.034 7.26988 197.886 7.5456 196.88 8.09366C196.452 8.32722 196.049 8.60884 195.672 8.94106C195.061 9.48153 194.564 10.1316 194.181 10.8913C193.536 12.1696 193.214 13.7598 193.214 15.6603C193.214 18.0676 193.823 20.0061 195.041 21.4774C195.044 21.4817 195.049 21.485 195.052 21.4892C195.625 22.1739 196.309 22.7051 197.101 23.082C197.34 23.1958 197.597 23.2903 197.87 23.3704C198.504 23.5559 199.226 23.6503 200.04 23.6503C200.66 23.6503 201.263 23.5458 201.848 23.3366C201.85 23.3358 201.851 23.3358 201.852 23.335C201.907 23.3156 201.962 23.2945 202.016 23.2734C202.303 23.1596 202.585 23.0205 202.863 22.8552C202.894 22.8375 202.925 22.8223 202.958 22.8105C203.185 22.7144 203.452 22.7658 203.617 22.9564C204.013 23.4193 204.598 23.6503 205.371 23.6503C206.161 23.6503 206.857 23.4597 207.458 23.0795C207.697 22.9252 207.794 22.6191 207.685 22.3543ZM202.978 19.7641C202.978 19.8063 202.974 19.8476 202.966 19.888C202.941 20.0044 202.883 20.1115 202.795 20.1933C202.156 20.7827 201.334 21.0761 200.33 21.0761C200.323 21.0761 200.316 21.0752 200.31 21.0752C199.343 21.0702 198.529 20.7312 197.868 20.0584C197.781 19.9698 197.696 19.8762 197.615 19.7759C197.584 19.738 197.554 19.6992 197.524 19.6595C196.769 18.6857 196.39 17.2818 196.39 15.4445C196.39 13.9504 196.65 12.7421 197.169 11.818C197.352 11.4925 197.566 11.2016 197.814 10.947C198.211 10.5026 198.641 10.1974 199.105 10.0304C199.568 9.86349 200.042 9.78086 200.528 9.78086C200.827 9.78086 201.122 9.81459 201.416 9.88204C201.525 9.9065 201.633 9.93601 201.741 9.97058C201.817 9.99419 201.893 10.0195 201.969 10.0481C202.27 10.1611 202.516 10.2783 202.706 10.4006C202.836 10.4841 202.925 10.6131 202.961 10.7598C202.972 10.8045 202.978 10.8509 202.978 10.8981V19.7641Z" fill="#369B3F"/>
<path d="M212.047 17.3281C215.101 17.2151 217.329 16.5979 218.729 15.479C219.391 14.9462 219.839 14.3517 220.07 13.6966C220.302 13.0414 220.418 12.3694 220.418 11.6814C220.418 10.3483 219.91 9.27157 218.895 8.44947C217.902 7.67206 216.677 7.28336 215.22 7.28336C213.233 7.28336 211.578 7.99415 210.253 9.41575C209.592 10.1046 209.062 10.9647 208.664 11.9976C208.267 13.0305 208.068 14.2185 208.068 15.5625C208.068 16.9065 208.256 18.0777 208.631 19.0777C209.359 21.0769 210.684 22.4209 212.605 23.109C214.724 23.8636 216.886 23.786 219.094 22.8754C219.462 22.7186 219.762 22.5626 219.994 22.4058C220.193 22.2708 220.281 22.0221 220.21 21.7911L219.916 20.4909C219.823 20.0204 219.324 20.0541 219.024 20.2371C218.828 20.3568 218.598 20.4808 218.333 20.6089C218.024 20.7422 217.659 20.8585 217.241 20.9589C216.821 21.0592 216.314 21.1089 215.717 21.1089C215.122 21.1089 214.569 21.0094 214.062 20.8088C212.822 20.329 211.986 19.4024 211.554 18.0271C211.448 17.6899 211.695 17.3408 212.047 17.3281ZM211.282 14.2564C211.468 12.8888 211.898 11.8078 212.572 11.0136C212.925 10.6139 213.317 10.3137 213.747 10.1139C214.178 9.91407 214.708 9.81373 215.337 9.81373C215.966 9.81373 216.446 10.0136 216.777 10.4132C217.108 10.8129 217.274 11.3247 217.274 11.9461C217.274 12.5684 217.064 13.0844 216.645 13.495C216.225 13.9065 215.618 14.2396 214.824 14.4942C214.134 14.716 213.135 14.8416 211.828 14.8711C211.497 14.8795 211.236 14.587 211.282 14.2564Z" fill="#369B3F"/>
<path d="M78.196 29.849C78.0053 29.849 77.91 29.7537 77.91 29.563V29.069C77.91 28.9823 77.936 28.913 77.988 28.861C78.04 28.8003 78.1093 28.77 78.196 28.77H78.69C78.7767 28.77 78.846 28.8003 78.898 28.861C78.9587 28.913 78.989 28.9823 78.989 29.069V29.563C78.989 29.6497 78.9587 29.719 78.898 29.771C78.846 29.823 78.7767 29.849 78.69 29.849H78.196ZM78.339 38C78.1483 38 78.053 37.9047 78.053 37.714V31.526C78.053 31.3353 78.1483 31.24 78.339 31.24H78.56C78.7507 31.24 78.846 31.3353 78.846 31.526V37.714C78.846 37.9047 78.7507 38 78.56 38H78.339ZM81.8835 38C81.6929 38 81.5975 37.9047 81.5975 37.714V31.526C81.5975 31.3353 81.6929 31.24 81.8835 31.24H82.1045C82.2952 31.24 82.3905 31.3353 82.3905 31.526V32.137C82.6245 31.8337 82.9062 31.5867 83.2355 31.396C83.5735 31.2053 84.0199 31.11 84.5745 31.11C85.1639 31.11 85.6535 31.24 86.0435 31.5C86.4422 31.7513 86.7369 32.098 86.9275 32.54C87.1269 32.9733 87.2265 33.4673 87.2265 34.022V37.714C87.2265 37.9047 87.1312 38 86.9405 38H86.7195C86.5289 38 86.4335 37.9047 86.4335 37.714V34.087C86.4335 33.3937 86.2645 32.852 85.9265 32.462C85.5885 32.0633 85.0945 31.864 84.4445 31.864C83.8292 31.864 83.3309 32.0633 82.9495 32.462C82.5769 32.852 82.3905 33.3937 82.3905 34.087V37.714C82.3905 37.9047 82.2952 38 82.1045 38H81.8835ZM92.4895 38.13C91.8655 38.13 91.3412 38 90.9165 37.74C90.5005 37.48 90.1798 37.1247 89.9545 36.674C89.7378 36.2233 89.6208 35.7207 89.6035 35.166C89.5948 35.036 89.5905 34.854 89.5905 34.62C89.5905 34.386 89.5948 34.204 89.6035 34.074C89.6208 33.5107 89.7378 33.008 89.9545 32.566C90.1798 32.1153 90.5005 31.76 90.9165 31.5C91.3412 31.24 91.8655 31.11 92.4895 31.11C93.1135 31.11 93.6335 31.24 94.0495 31.5C94.4742 31.76 94.7948 32.1153 95.0115 32.566C95.2368 33.008 95.3582 33.5107 95.3755 34.074C95.3842 34.204 95.3885 34.386 95.3885 34.62C95.3885 34.854 95.3842 35.036 95.3755 35.166C95.3582 35.7207 95.2368 36.2233 95.0115 36.674C94.7948 37.1247 94.4742 37.48 94.0495 37.74C93.6335 38 93.1135 38.13 92.4895 38.13ZM92.4895 37.376C93.0962 37.376 93.5902 37.181 93.9715 36.791C94.3528 36.401 94.5565 35.8377 94.5825 35.101C94.5912 34.971 94.5955 34.8107 94.5955 34.62C94.5955 34.4293 94.5912 34.269 94.5825 34.139C94.5565 33.3937 94.3528 32.8303 93.9715 32.449C93.5902 32.059 93.0962 31.864 92.4895 31.864C91.8828 31.864 91.3888 32.059 91.0075 32.449C90.6262 32.8303 90.4225 33.3937 90.3965 34.139C90.3878 34.269 90.3835 34.4293 90.3835 34.62C90.3835 34.8107 90.3878 34.971 90.3965 35.101C90.4225 35.8377 90.6262 36.401 91.0075 36.791C91.3888 37.181 91.8828 37.376 92.4895 37.376ZM99.913 38C99.7743 38 99.666 37.9697 99.588 37.909C99.5187 37.8483 99.4623 37.7703 99.419 37.675L97.027 31.643C97.0097 31.591 97.001 31.5433 97.001 31.5C97.001 31.4307 97.027 31.37 97.079 31.318C97.131 31.266 97.1917 31.24 97.261 31.24H97.534C97.6207 31.24 97.6857 31.266 97.729 31.318C97.781 31.3613 97.8113 31.4003 97.82 31.435L100.017 37.051L102.214 31.435C102.231 31.4003 102.262 31.3613 102.305 31.318C102.348 31.266 102.413 31.24 102.5 31.24H102.773C102.842 31.24 102.903 31.266 102.955 31.318C103.007 31.37 103.033 31.4307 103.033 31.5C103.033 31.5433 103.024 31.591 103.007 31.643L100.615 37.675C100.58 37.7703 100.524 37.8483 100.446 37.909C100.368 37.9697 100.26 38 100.121 38H99.913ZM106.785 38.13C106.369 38.13 105.983 38.0433 105.628 37.87C105.281 37.6967 104.999 37.467 104.783 37.181C104.566 36.8863 104.458 36.557 104.458 36.193C104.458 35.6037 104.696 35.1313 105.173 34.776C105.649 34.4207 106.269 34.191 107.032 34.087L109.086 33.801V33.346C109.086 32.8867 108.943 32.527 108.657 32.267C108.379 31.9983 107.933 31.864 107.318 31.864C106.841 31.864 106.468 31.9593 106.2 32.15C105.931 32.332 105.762 32.5313 105.693 32.748C105.632 32.93 105.528 33.021 105.381 33.021H105.199C105.121 33.021 105.051 32.995 104.991 32.943C104.939 32.8823 104.913 32.813 104.913 32.735C104.913 32.6137 104.956 32.462 105.043 32.28C105.138 32.098 105.281 31.9203 105.472 31.747C105.662 31.565 105.909 31.4133 106.213 31.292C106.516 31.1707 106.884 31.11 107.318 31.11C107.829 31.11 108.249 31.1793 108.579 31.318C108.917 31.4567 109.177 31.6387 109.359 31.864C109.549 32.0807 109.684 32.3233 109.762 32.592C109.84 32.8607 109.879 33.125 109.879 33.385V37.714C109.879 37.9047 109.783 38 109.593 38H109.372C109.181 38 109.086 37.9047 109.086 37.714V37.103C108.982 37.259 108.834 37.415 108.644 37.571C108.453 37.727 108.206 37.8613 107.903 37.974C107.608 38.078 107.235 38.13 106.785 38.13ZM106.915 37.376C107.313 37.376 107.677 37.2893 108.007 37.116C108.336 36.9427 108.596 36.6783 108.787 36.323C108.986 35.959 109.086 35.504 109.086 34.958V34.516L107.409 34.75C105.97 34.9493 105.251 35.4087 105.251 36.128C105.251 36.414 105.333 36.648 105.498 36.83C105.662 37.012 105.87 37.1507 106.122 37.246C106.382 37.3327 106.646 37.376 106.915 37.376ZM112.87 38C112.68 38 112.584 37.9047 112.584 37.714V31.539C112.584 31.4523 112.61 31.383 112.662 31.331C112.714 31.2703 112.784 31.24 112.87 31.24H113.078C113.165 31.24 113.234 31.2703 113.286 31.331C113.347 31.383 113.377 31.4523 113.377 31.539V32.137C113.689 31.539 114.279 31.24 115.145 31.24H115.626C115.817 31.24 115.912 31.3353 115.912 31.526V31.708C115.912 31.8987 115.817 31.994 115.626 31.994H115.067C114.547 31.994 114.136 32.1457 113.832 32.449C113.529 32.7523 113.377 33.164 113.377 33.684V37.714C113.377 37.8007 113.347 37.87 113.286 37.922C113.234 37.974 113.165 38 113.078 38H112.87ZM120.11 38.13C119.27 38.13 118.602 37.857 118.108 37.311C117.614 36.7563 117.333 36.0327 117.263 35.14C117.255 35.01 117.25 34.8367 117.25 34.62C117.25 34.4033 117.255 34.23 117.263 34.1C117.307 33.5107 117.445 32.9907 117.679 32.54C117.913 32.0893 118.234 31.7383 118.641 31.487C119.057 31.2357 119.547 31.11 120.11 31.11C121.012 31.11 121.714 31.409 122.216 32.007C122.728 32.605 122.983 33.424 122.983 34.464V34.659C122.983 34.7457 122.953 34.815 122.892 34.867C122.84 34.919 122.771 34.945 122.684 34.945H118.056V35.075C118.074 35.465 118.165 35.8377 118.329 36.193C118.494 36.5397 118.728 36.8257 119.031 37.051C119.335 37.2677 119.694 37.376 120.11 37.376C120.483 37.376 120.791 37.3197 121.033 37.207C121.285 37.0943 121.484 36.973 121.631 36.843C121.779 36.7043 121.874 36.6003 121.917 36.531C121.995 36.4183 122.056 36.3533 122.099 36.336C122.143 36.31 122.212 36.297 122.307 36.297H122.515C122.593 36.297 122.658 36.323 122.71 36.375C122.771 36.4183 122.797 36.479 122.788 36.557C122.78 36.6783 122.71 36.83 122.58 37.012C122.459 37.1853 122.281 37.3587 122.047 37.532C121.822 37.7053 121.545 37.8483 121.215 37.961C120.886 38.0737 120.518 38.13 120.11 38.13ZM118.056 34.217H122.19V34.165C122.19 33.7317 122.108 33.3417 121.943 32.995C121.779 32.6483 121.54 32.3753 121.228 32.176C120.916 31.968 120.544 31.864 120.11 31.864C119.677 31.864 119.304 31.968 118.992 32.176C118.689 32.3753 118.455 32.6483 118.29 32.995C118.134 33.3417 118.056 33.7317 118.056 34.165V34.217ZM129.649 40.47C129.458 40.47 129.363 40.3747 129.363 40.184V31.526C129.363 31.3353 129.458 31.24 129.649 31.24H129.87C130.06 31.24 130.156 31.3353 130.156 31.526V32.137C130.372 31.8423 130.654 31.5997 131.001 31.409C131.356 31.2097 131.802 31.11 132.34 31.11C132.851 31.11 133.28 31.201 133.627 31.383C133.973 31.5563 134.255 31.7903 134.472 32.085C134.688 32.3797 134.849 32.709 134.953 33.073C135.057 33.437 135.113 33.8097 135.122 34.191C135.139 34.477 135.139 34.763 135.122 35.049C135.113 35.4303 135.057 35.803 134.953 36.167C134.849 36.531 134.688 36.8603 134.472 37.155C134.255 37.4497 133.973 37.688 133.627 37.87C133.28 38.0433 132.851 38.13 132.34 38.13C131.802 38.13 131.356 38.0303 131.001 37.831C130.654 37.6317 130.372 37.389 130.156 37.103V40.184C130.156 40.3747 130.06 40.47 129.87 40.47H129.649ZM132.262 37.376C132.773 37.376 133.176 37.2633 133.471 37.038C133.765 36.8127 133.978 36.518 134.108 36.154C134.238 35.79 134.311 35.4 134.329 34.984C134.337 34.7413 134.337 34.4987 134.329 34.256C134.311 33.84 134.238 33.45 134.108 33.086C133.978 32.722 133.765 32.4273 133.471 32.202C133.176 31.9767 132.773 31.864 132.262 31.864C131.768 31.864 131.369 31.981 131.066 32.215C130.762 32.449 130.537 32.7437 130.39 33.099C130.251 33.4457 130.173 33.7967 130.156 34.152C130.147 34.282 130.143 34.451 130.143 34.659C130.143 34.867 130.147 35.036 130.156 35.166C130.164 35.5127 130.242 35.855 130.39 36.193C130.546 36.531 130.775 36.8127 131.079 37.038C131.391 37.2633 131.785 37.376 132.262 37.376ZM137.839 38C137.649 38 137.553 37.9047 137.553 37.714V31.539C137.553 31.4523 137.579 31.383 137.631 31.331C137.683 31.2703 137.753 31.24 137.839 31.24H138.047C138.134 31.24 138.203 31.2703 138.255 31.331C138.316 31.383 138.346 31.4523 138.346 31.539V32.137C138.658 31.539 139.248 31.24 140.114 31.24H140.595C140.786 31.24 140.881 31.3353 140.881 31.526V31.708C140.881 31.8987 140.786 31.994 140.595 31.994H140.036C139.516 31.994 139.105 32.1457 138.801 32.449C138.498 32.7523 138.346 33.164 138.346 33.684V37.714C138.346 37.8007 138.316 37.87 138.255 37.922C138.203 37.974 138.134 38 138.047 38H137.839ZM142.866 29.849C142.675 29.849 142.58 29.7537 142.58 29.563V29.069C142.58 28.9823 142.606 28.913 142.658 28.861C142.71 28.8003 142.779 28.77 142.866 28.77H143.36C143.447 28.77 143.516 28.8003 143.568 28.861C143.629 28.913 143.659 28.9823 143.659 29.069V29.563C143.659 29.6497 143.629 29.719 143.568 29.771C143.516 29.823 143.447 29.849 143.36 29.849H142.866ZM143.009 38C142.818 38 142.723 37.9047 142.723 37.714V31.526C142.723 31.3353 142.818 31.24 143.009 31.24H143.23C143.421 31.24 143.516 31.3353 143.516 31.526V37.714C143.516 37.9047 143.421 38 143.23 38H143.009ZM146.553 38C146.363 38 146.267 37.9047 146.267 37.714V31.526C146.267 31.3353 146.363 31.24 146.553 31.24H146.774C146.965 31.24 147.06 31.3353 147.06 31.526V32.137C147.294 31.8337 147.576 31.5867 147.905 31.396C148.243 31.2053 148.69 31.11 149.244 31.11C149.834 31.11 150.323 31.24 150.713 31.5C151.112 31.7513 151.407 32.098 151.597 32.54C151.797 32.9733 151.896 33.4673 151.896 34.022V37.714C151.896 37.9047 151.801 38 151.61 38H151.389C151.199 38 151.103 37.9047 151.103 37.714V34.087C151.103 33.3937 150.934 32.852 150.596 32.462C150.258 32.0633 149.764 31.864 149.114 31.864C148.499 31.864 148.001 32.0633 147.619 32.462C147.247 32.852 147.06 33.3937 147.06 34.087V37.714C147.06 37.9047 146.965 38 146.774 38H146.553ZM161.096 38.13C160.255 38.13 159.588 37.857 159.094 37.311C158.6 36.7563 158.318 36.0327 158.249 35.14C158.24 35.01 158.236 34.8367 158.236 34.62C158.236 34.4033 158.24 34.23 158.249 34.1C158.292 33.5107 158.431 32.9907 158.665 32.54C158.899 32.0893 159.22 31.7383 159.627 31.487C160.043 31.2357 160.533 31.11 161.096 31.11C161.997 31.11 162.699 31.409 163.202 32.007C163.713 32.605 163.969 33.424 163.969 34.464V34.659C163.969 34.7457 163.939 34.815 163.878 34.867C163.826 34.919 163.757 34.945 163.67 34.945H159.042V35.075C159.059 35.465 159.15 35.8377 159.315 36.193C159.48 36.5397 159.714 36.8257 160.017 37.051C160.32 37.2677 160.68 37.376 161.096 37.376C161.469 37.376 161.776 37.3197 162.019 37.207C162.27 37.0943 162.47 36.973 162.617 36.843C162.764 36.7043 162.86 36.6003 162.903 36.531C162.981 36.4183 163.042 36.3533 163.085 36.336C163.128 36.31 163.198 36.297 163.293 36.297H163.501C163.579 36.297 163.644 36.323 163.696 36.375C163.757 36.4183 163.783 36.479 163.774 36.557C163.765 36.6783 163.696 36.83 163.566 37.012C163.445 37.1853 163.267 37.3587 163.033 37.532C162.808 37.7053 162.53 37.8483 162.201 37.961C161.872 38.0737 161.503 38.13 161.096 38.13ZM159.042 34.217H163.176V34.165C163.176 33.7317 163.094 33.3417 162.929 32.995C162.764 32.6483 162.526 32.3753 162.214 32.176C161.902 31.968 161.529 31.864 161.096 31.864C160.663 31.864 160.29 31.968 159.978 32.176C159.675 32.3753 159.441 32.6483 159.276 32.995C159.12 33.3417 159.042 33.7317 159.042 34.165V34.217ZM166.62 38C166.429 38 166.334 37.9047 166.334 37.714V31.526C166.334 31.3353 166.429 31.24 166.62 31.24H166.841C167.031 31.24 167.127 31.3353 167.127 31.526V31.981C167.343 31.7037 167.599 31.4913 167.894 31.344C168.197 31.188 168.561 31.11 168.986 31.11C169.956 31.11 170.65 31.5173 171.066 32.332C171.265 31.9593 171.555 31.6647 171.937 31.448C172.327 31.2227 172.773 31.11 173.276 31.11C173.735 31.11 174.147 31.2183 174.511 31.435C174.883 31.643 175.174 31.955 175.382 32.371C175.598 32.787 175.707 33.307 175.707 33.931V37.714C175.707 37.9047 175.611 38 175.421 38H175.2C175.009 38 174.914 37.9047 174.914 37.714V34.061C174.914 33.489 174.831 33.047 174.667 32.735C174.502 32.4143 174.285 32.189 174.017 32.059C173.748 31.929 173.458 31.864 173.146 31.864C172.886 31.864 172.621 31.929 172.353 32.059C172.084 32.189 171.859 32.4143 171.677 32.735C171.503 33.047 171.417 33.489 171.417 34.061V37.714C171.417 37.9047 171.321 38 171.131 38H170.91C170.719 38 170.624 37.9047 170.624 37.714V34.061C170.624 33.489 170.537 33.047 170.364 32.735C170.19 32.4143 169.969 32.189 169.701 32.059C169.432 31.929 169.15 31.864 168.856 31.864C168.596 31.864 168.331 31.929 168.063 32.059C167.794 32.189 167.569 32.4143 167.387 32.735C167.213 33.047 167.127 33.4847 167.127 34.048V37.714C167.127 37.9047 167.031 38 166.841 38H166.62ZM178.696 40.47C178.505 40.47 178.41 40.3747 178.41 40.184V31.526C178.41 31.3353 178.505 31.24 178.696 31.24H178.917C179.107 31.24 179.203 31.3353 179.203 31.526V32.137C179.419 31.8423 179.701 31.5997 180.048 31.409C180.403 31.2097 180.849 31.11 181.387 31.11C181.898 31.11 182.327 31.201 182.674 31.383C183.02 31.5563 183.302 31.7903 183.519 32.085C183.735 32.3797 183.896 32.709 184 33.073C184.104 33.437 184.16 33.8097 184.169 34.191C184.186 34.477 184.186 34.763 184.169 35.049C184.16 35.4303 184.104 35.803 184 36.167C183.896 36.531 183.735 36.8603 183.519 37.155C183.302 37.4497 183.02 37.688 182.674 37.87C182.327 38.0433 181.898 38.13 181.387 38.13C180.849 38.13 180.403 38.0303 180.048 37.831C179.701 37.6317 179.419 37.389 179.203 37.103V40.184C179.203 40.3747 179.107 40.47 178.917 40.47H178.696ZM181.309 37.376C181.82 37.376 182.223 37.2633 182.518 37.038C182.812 36.8127 183.025 36.518 183.155 36.154C183.285 35.79 183.358 35.4 183.376 34.984C183.384 34.7413 183.384 34.4987 183.376 34.256C183.358 33.84 183.285 33.45 183.155 33.086C183.025 32.722 182.812 32.4273 182.518 32.202C182.223 31.9767 181.82 31.864 181.309 31.864C180.815 31.864 180.416 31.981 180.113 32.215C179.809 32.449 179.584 32.7437 179.437 33.099C179.298 33.4457 179.22 33.7967 179.203 34.152C179.194 34.282 179.19 34.451 179.19 34.659C179.19 34.867 179.194 35.036 179.203 35.166C179.211 35.5127 179.289 35.855 179.437 36.193C179.593 36.531 179.822 36.8127 180.126 37.038C180.438 37.2633 180.832 37.376 181.309 37.376ZM188.42 38.13C188.004 38.13 187.619 38.0433 187.263 37.87C186.917 37.6967 186.635 37.467 186.418 37.181C186.202 36.8863 186.093 36.557 186.093 36.193C186.093 35.6037 186.332 35.1313 186.808 34.776C187.285 34.4207 187.905 34.191 188.667 34.087L190.721 33.801V33.346C190.721 32.8867 190.578 32.527 190.292 32.267C190.015 31.9983 189.569 31.864 188.953 31.864C188.477 31.864 188.104 31.9593 187.835 32.15C187.567 32.332 187.398 32.5313 187.328 32.748C187.268 32.93 187.164 33.021 187.016 33.021H186.834C186.756 33.021 186.687 32.995 186.626 32.943C186.574 32.8823 186.548 32.813 186.548 32.735C186.548 32.6137 186.592 32.462 186.678 32.28C186.774 32.098 186.917 31.9203 187.107 31.747C187.298 31.565 187.545 31.4133 187.848 31.292C188.152 31.1707 188.52 31.11 188.953 31.11C189.465 31.11 189.885 31.1793 190.214 31.318C190.552 31.4567 190.812 31.6387 190.994 31.864C191.185 32.0807 191.319 32.3233 191.397 32.592C191.475 32.8607 191.514 33.125 191.514 33.385V37.714C191.514 37.9047 191.419 38 191.228 38H191.007C190.817 38 190.721 37.9047 190.721 37.714V37.103C190.617 37.259 190.47 37.415 190.279 37.571C190.089 37.727 189.842 37.8613 189.538 37.974C189.244 38.078 188.871 38.13 188.42 38.13ZM188.55 37.376C188.949 37.376 189.313 37.2893 189.642 37.116C189.972 36.9427 190.232 36.6783 190.422 36.323C190.622 35.959 190.721 35.504 190.721 34.958V34.516L189.044 34.75C187.606 34.9493 186.886 35.4087 186.886 36.128C186.886 36.414 186.969 36.648 187.133 36.83C187.298 37.012 187.506 37.1507 187.757 37.246C188.017 37.3327 188.282 37.376 188.55 37.376ZM196.432 38C195.981 38 195.626 37.9047 195.366 37.714C195.106 37.5233 194.924 37.2633 194.82 36.934C194.716 36.6047 194.664 36.2363 194.664 35.829V31.994H193.65C193.459 31.994 193.364 31.8987 193.364 31.708V31.526C193.364 31.3353 193.459 31.24 193.65 31.24H194.664V29.056C194.664 28.8653 194.759 28.77 194.95 28.77H195.171C195.361 28.77 195.457 28.8653 195.457 29.056V31.24H197.069C197.259 31.24 197.355 31.3353 197.355 31.526V31.708C197.355 31.8987 197.259 31.994 197.069 31.994H195.457V35.777C195.457 36.2363 195.53 36.596 195.678 36.856C195.834 37.116 196.107 37.246 196.497 37.246H197.199C197.389 37.246 197.485 37.3413 197.485 37.532V37.714C197.485 37.9047 197.389 38 197.199 38H196.432ZM199.622 29.849C199.431 29.849 199.336 29.7537 199.336 29.563V29.069C199.336 28.9823 199.362 28.913 199.414 28.861C199.466 28.8003 199.535 28.77 199.622 28.77H200.116C200.202 28.77 200.272 28.8003 200.324 28.861C200.384 28.913 200.415 28.9823 200.415 29.069V29.563C200.415 29.6497 200.384 29.719 200.324 29.771C200.272 29.823 200.202 29.849 200.116 29.849H199.622ZM199.765 38C199.574 38 199.479 37.9047 199.479 37.714V31.526C199.479 31.3353 199.574 31.24 199.765 31.24H199.986C200.176 31.24 200.272 31.3353 200.272 31.526V37.714C200.272 37.9047 200.176 38 199.986 38H199.765ZM202.802 38C202.611 38 202.516 37.9047 202.516 37.714V37.493C202.516 37.4237 202.533 37.3543 202.568 37.285C202.611 37.2157 202.655 37.1507 202.698 37.09L206.52 31.994H202.932C202.741 31.994 202.646 31.8987 202.646 31.708V31.526C202.646 31.3353 202.741 31.24 202.932 31.24H207.3C207.491 31.24 207.586 31.3353 207.586 31.526V31.747C207.586 31.8163 207.564 31.8857 207.521 31.955C207.486 32.0157 207.447 32.0807 207.404 32.15L203.608 37.246H207.56C207.751 37.246 207.846 37.3413 207.846 37.532V37.714C207.846 37.9047 207.751 38 207.56 38H202.802ZM211.866 38.13C211.45 38.13 211.064 38.0433 210.709 37.87C210.362 37.6967 210.081 37.467 209.864 37.181C209.647 36.8863 209.539 36.557 209.539 36.193C209.539 35.6037 209.777 35.1313 210.254 34.776C210.731 34.4207 211.35 34.191 212.113 34.087L214.167 33.801V33.346C214.167 32.8867 214.024 32.527 213.738 32.267C213.461 31.9983 213.014 31.864 212.399 31.864C211.922 31.864 211.55 31.9593 211.281 32.15C211.012 32.332 210.843 32.5313 210.774 32.748C210.713 32.93 210.609 33.021 210.462 33.021H210.28C210.202 33.021 210.133 32.995 210.072 32.943C210.02 32.8823 209.994 32.813 209.994 32.735C209.994 32.6137 210.037 32.462 210.124 32.28C210.219 32.098 210.362 31.9203 210.553 31.747C210.744 31.565 210.991 31.4133 211.294 31.292C211.597 31.1707 211.966 31.11 212.399 31.11C212.91 31.11 213.331 31.1793 213.66 31.318C213.998 31.4567 214.258 31.6387 214.44 31.864C214.631 32.0807 214.765 32.3233 214.843 32.592C214.921 32.8607 214.96 33.125 214.96 33.385V37.714C214.96 37.9047 214.865 38 214.674 38H214.453C214.262 38 214.167 37.9047 214.167 37.714V37.103C214.063 37.259 213.916 37.415 213.725 37.571C213.534 37.727 213.287 37.8613 212.984 37.974C212.689 38.078 212.317 38.13 211.866 38.13ZM211.996 37.376C212.395 37.376 212.759 37.2893 213.088 37.116C213.417 36.9427 213.677 36.6783 213.868 36.323C214.067 35.959 214.167 35.504 214.167 34.958V34.516L212.49 34.75C211.051 34.9493 210.332 35.4087 210.332 36.128C210.332 36.414 210.414 36.648 210.579 36.83C210.744 37.012 210.952 37.1507 211.203 37.246C211.463 37.3327 211.727 37.376 211.996 37.376ZM217.952 38C217.761 38 217.666 37.9047 217.666 37.714V31.539C217.666 31.4523 217.692 31.383 217.744 31.331C217.796 31.2703 217.865 31.24 217.952 31.24H218.16C218.247 31.24 218.316 31.2703 218.368 31.331C218.429 31.383 218.459 31.4523 218.459 31.539V32.137C218.771 31.539 219.36 31.24 220.227 31.24H220.708C220.899 31.24 220.994 31.3353 220.994 31.526V31.708C220.994 31.8987 220.899 31.994 220.708 31.994H220.149C219.629 31.994 219.217 32.1457 218.914 32.449C218.611 32.7523 218.459 33.164 218.459 33.684V37.714C218.459 37.8007 218.429 37.87 218.368 37.922C218.316 37.974 218.247 38 218.16 38H217.952ZM225.192 38.13C224.351 38.13 223.684 37.857 223.19 37.311C222.696 36.7563 222.414 36.0327 222.345 35.14C222.336 35.01 222.332 34.8367 222.332 34.62C222.332 34.4033 222.336 34.23 222.345 34.1C222.388 33.5107 222.527 32.9907 222.761 32.54C222.995 32.0893 223.316 31.7383 223.723 31.487C224.139 31.2357 224.629 31.11 225.192 31.11C226.093 31.11 226.795 31.409 227.298 32.007C227.809 32.605 228.065 33.424 228.065 34.464V34.659C228.065 34.7457 228.035 34.815 227.974 34.867C227.922 34.919 227.853 34.945 227.766 34.945H223.138V35.075C223.155 35.465 223.246 35.8377 223.411 36.193C223.576 36.5397 223.81 36.8257 224.113 37.051C224.416 37.2677 224.776 37.376 225.192 37.376C225.565 37.376 225.872 37.3197 226.115 37.207C226.366 37.0943 226.566 36.973 226.713 36.843C226.86 36.7043 226.956 36.6003 226.999 36.531C227.077 36.4183 227.138 36.3533 227.181 36.336C227.224 36.31 227.294 36.297 227.389 36.297H227.597C227.675 36.297 227.74 36.323 227.792 36.375C227.853 36.4183 227.879 36.479 227.87 36.557C227.861 36.6783 227.792 36.83 227.662 37.012C227.541 37.1853 227.363 37.3587 227.129 37.532C226.904 37.7053 226.626 37.8483 226.297 37.961C225.968 38.0737 225.599 38.13 225.192 38.13ZM223.138 34.217H227.272V34.165C227.272 33.7317 227.19 33.3417 227.025 32.995C226.86 32.6483 226.622 32.3753 226.31 32.176C225.998 31.968 225.625 31.864 225.192 31.864C224.759 31.864 224.386 31.968 224.074 32.176C223.771 32.3753 223.537 32.6483 223.372 32.995C223.216 33.3417 223.138 33.7317 223.138 34.165V34.217Z" fill="#1F5924"/>
</svg>
