<svg width="17" height="18" viewBox="0 0 17 18" fill="none" xmlns="http://www.w3.org/2000/svg">
<path d="M7.34 17.01C7.14 17.01 6.97 16.94 6.83 16.8C6.69 16.66 6.62 16.49 6.62 16.29V10.44H0.86C0.66 10.44 0.49 10.37 0.35 10.23C0.21 10.09 0.14 9.91 0.14 9.69V8.13C0.14 7.91 0.21 7.74 0.35 7.62C0.49 7.48 0.66 7.41 0.86 7.41H6.62V1.71C6.62 1.49 6.69 1.32 6.83 1.2C6.97 1.06 7.14 0.989999 7.34 0.989999H9.08C9.3 0.989999 9.47 1.06 9.59 1.2C9.73 1.32 9.8 1.49 9.8 1.71V7.41H15.56C15.78 7.41 15.95 7.48 16.07 7.62C16.21 7.74 16.28 7.91 16.28 8.13V9.69C16.28 9.91 16.21 10.09 16.07 10.23C15.93 10.37 15.76 10.44 15.56 10.44H9.8V16.29C9.8 16.49 9.73 16.66 9.59 16.8C9.47 16.94 9.3 17.01 9.08 17.01H7.34Z" fill="#D95736"/>
</svg>
