<svg width="521" height="589" viewBox="0 0 521 589" fill="none" xmlns="http://www.w3.org/2000/svg">
<path d="M464.587 0H20.6021V237.736H464.587V0Z" fill="#263238"/>
<path d="M452.912 12.6858H32.6567V226.12H452.912V12.6858Z" fill="#EAFFEC"/>
<path d="M271.762 589C409.216 589 520.645 573.812 520.645 555.077C520.645 536.343 409.216 521.155 271.762 521.155C134.308 521.155 22.8799 536.343 22.8799 555.077C22.8799 573.812 134.308 589 271.762 589Z" fill="#99E9A0"/>
<path opacity="0.5" d="M271.762 589C409.216 589 520.645 573.812 520.645 555.077C520.645 536.343 409.216 521.155 271.762 521.155C134.308 521.155 22.8799 536.343 22.8799 555.077C22.8799 573.812 134.308 589 271.762 589Z" fill="white"/>
<path d="M267.771 542.526C267.771 544.442 257.417 546.032 244.65 546.032C231.883 546.032 221.53 544.461 221.53 542.526C221.53 540.592 231.883 539.021 244.65 539.021C257.417 539.021 267.771 540.592 267.771 542.526Z" fill="#263238"/>
<path d="M221.53 542.527L214.912 513.401H274.39L267.772 542.527H221.53Z" fill="#263238"/>
<path d="M274.389 513.401C274.389 515.891 261.076 517.912 244.698 517.912C228.32 517.912 214.959 515.891 214.959 513.401C214.959 510.911 228.272 508.89 244.698 508.89C261.124 508.89 274.389 510.911 274.389 513.401Z" fill="#263238"/>
<path d="M268.663 513.209C268.663 513.832 266.747 514.397 263.433 514.847C257.198 515.551 250.926 515.871 244.651 515.805C238.377 515.877 232.104 515.557 225.87 514.847C222.604 514.406 220.64 513.841 220.64 513.219C220.64 511.782 231.396 510.614 244.651 510.614C257.907 510.614 268.663 511.773 268.663 513.209Z" fill="white"/>
<path d="M263.432 514.847C257.197 515.551 250.925 515.871 244.651 515.805C238.376 515.876 232.103 515.557 225.869 514.847C227.784 513.889 235.446 513.219 244.651 513.219C253.855 513.219 261.507 513.899 263.432 514.847Z" fill="#99E9A0"/>
<path d="M265.329 522.902C267.733 522.48 270.166 521.944 272.579 521.36" stroke="white" stroke-linecap="round" stroke-linejoin="round"/>
<path d="M227.094 523.525C236.703 524.709 246.408 524.905 256.057 524.109" stroke="white" stroke-linecap="round" stroke-linejoin="round"/>
<path d="M216.837 521.858C216.837 521.858 219.557 522.48 224.126 523.141" stroke="white" stroke-linecap="round" stroke-linejoin="round"/>
<path d="M231.26 354.66C236.691 350.677 241.779 346.246 246.47 341.414C252.848 334.489 249.41 323.216 249.41 323.216C249.41 323.216 244.995 327.143 238.127 334.001C231.26 340.858 231.26 345.772 231.26 345.772V354.66Z" fill="#99E9A0"/>
<path d="M241.232 385.251C246.667 381.273 251.755 376.842 256.441 372.005C262.811 365.137 259.382 353.864 259.382 353.864C259.382 353.864 254.966 357.782 248.099 364.649C241.232 371.516 241.232 376.42 241.232 376.42V385.251Z" fill="#99E9A0"/>
<path d="M232.621 362.887C226.803 359.494 221.277 355.624 216.099 351.317C209.031 345.149 211.253 333.569 211.253 333.569C211.253 333.569 216.042 337.046 223.618 343.147C231.194 349.248 231.692 354.142 231.692 354.142L232.621 362.887Z" fill="#99E9A0"/>
<path d="M245.599 398.957C239.458 396.197 233.557 392.932 227.957 389.197C220.294 383.805 221.252 372.062 221.252 372.062C221.252 372.062 226.386 374.936 234.546 380.251C242.706 385.567 243.731 390.318 243.731 390.318L245.599 398.957Z" fill="#99E9A0"/>
<path d="M241.47 438.647C236.044 434.662 230.956 430.235 226.261 425.41C219.882 418.495 223.33 407.213 223.33 407.213C223.33 407.213 227.745 411.13 234.612 417.997C241.48 424.864 241.48 429.787 241.48 429.787L241.47 438.647Z" fill="#99E9A0"/>
<path d="M242.831 448.148C247.648 443.42 252.056 438.294 256.01 432.824C261.345 425.161 256.345 414.434 256.345 414.434C256.345 414.434 252.514 418.955 246.71 426.732C240.906 434.509 241.586 439.356 241.586 439.356L242.831 448.148Z" fill="#99E9A0"/>
<path d="M248.356 476.775C242.93 472.788 237.842 468.357 233.147 463.529C226.768 456.662 230.207 445.332 230.207 445.332C230.207 445.332 234.622 449.239 241.489 456.116C248.356 462.993 248.356 467.906 248.356 467.906V476.775Z" fill="#99E9A0"/>
<path d="M241.528 502.319C237.293 497.097 233.5 491.533 230.188 485.683C225.753 477.436 231.931 467.389 231.931 467.389C231.931 467.389 235.216 472.283 240.12 480.673C245.024 489.064 243.778 493.814 243.778 493.814L241.528 502.319Z" fill="#99E9A0"/>
<path d="M237.084 517.222C237.084 517.222 246.585 487.819 248.395 476.996C250.205 466.173 243.875 457.074 241.787 440.802C239.699 424.529 247.533 408.237 244.775 395.537C242.017 382.837 235.274 373.825 232.554 359.784C231.642 354.749 231.003 349.668 230.638 344.565" stroke="#263238" stroke-linecap="round" stroke-linejoin="round"/>
<path d="M224.355 351.72L231.759 357.39" stroke="#263238" stroke-linecap="round" stroke-linejoin="round"/>
<path d="M234.517 345.341L231.414 350.848" stroke="#263238" stroke-linecap="round" stroke-linejoin="round"/>
<path d="M231.758 385.634C238.127 390.27 244.324 394.915 244.324 394.915" stroke="#263238" stroke-linecap="round" stroke-linejoin="round"/>
<path d="M252.246 368.404C246.394 375.108 241.232 385.241 241.232 385.241" stroke="#263238" stroke-linecap="round" stroke-linejoin="round"/>
<path d="M227.976 418.994C233.229 424.235 237.691 430.214 241.222 436.741" stroke="#263238" stroke-linecap="round" stroke-linejoin="round"/>
<path d="M253.27 424.864C253.27 424.864 252.753 425.564 249.132 430.898C246.556 434.953 244.314 439.21 242.428 443.627" stroke="#263238" stroke-linecap="round" stroke-linejoin="round"/>
<path d="M235.542 456.203C238.211 459.141 240.63 462.297 242.774 465.637C244.928 469.249 246.795 473.025 248.357 476.929" stroke="#263238" stroke-linecap="round" stroke-linejoin="round"/>
<path d="M232.976 477.34C234.173 479.955 237.094 486.458 239.68 491.448C241.256 494.842 241.895 498.595 241.528 502.319" stroke="#263238" stroke-linecap="round" stroke-linejoin="round"/>
<path d="M275.28 416.867C272.309 413.776 269.599 410.444 267.177 406.906C263.921 401.916 267.301 395.212 267.301 395.212C267.301 395.212 269.658 398.162 273.211 403.209C276.764 408.257 276.237 411.331 276.237 411.331L275.28 416.867Z" fill="#99E9A0"/>
<path d="M265.702 434.988C262.729 431.899 260.019 428.567 257.599 425.027C254.343 420.037 257.724 413.333 257.724 413.333C257.724 413.333 260.07 416.283 263.633 421.33C267.196 426.378 266.66 429.452 266.66 429.452L265.702 434.988Z" fill="#99E9A0"/>
<path d="M273.479 421.915C277.511 420.429 281.41 418.606 285.136 416.465C290.24 413.362 290.097 405.853 290.097 405.853C290.097 405.853 286.716 407.5 281.314 410.498C275.912 413.496 275.06 416.523 275.06 416.523L273.479 421.915Z" fill="#99E9A0"/>
<path d="M261.479 443.11C265.631 442.048 269.688 440.638 273.604 438.896C279.006 436.358 279.657 428.887 279.657 428.887C279.657 428.887 276.123 430.132 270.434 432.584C264.745 435.036 263.557 437.861 263.557 437.861L261.479 443.11Z" fill="#99E9A0"/>
<path d="M259.725 468.424C263.565 466.5 267.236 464.258 270.701 461.719C275.49 458.109 274.532 450.667 274.532 450.667C274.532 450.667 271.323 452.649 266.276 456.203C261.228 459.756 260.692 462.85 260.692 462.85L259.725 468.424Z" fill="#99E9A0"/>
<path d="M257.858 474.257C255.36 470.772 253.153 467.089 251.259 463.242C248.749 457.831 253.05 451.672 253.05 451.672C253.05 451.672 254.965 454.929 257.752 460.436C260.54 465.943 259.601 468.912 259.601 468.912L257.858 474.257Z" fill="#99E9A0"/>
<path d="M251.623 499.283C247.9 497.154 244.36 494.719 241.04 492.004C236.509 488.173 237.86 480.741 237.86 480.741C237.86 480.741 240.944 482.905 245.781 486.755C250.617 490.606 250.981 493.699 250.981 493.699L251.623 499.283Z" fill="#99E9A0"/>
<path d="M251.278 491.573C255.112 489.658 258.783 487.432 262.254 484.917C267.043 481.296 266.085 473.854 266.085 473.854C266.085 473.854 262.896 475.846 257.839 479.39C252.782 482.934 252.255 486.037 252.255 486.037L251.278 491.573Z" fill="#99E9A0"/>
<path d="M252.791 508.392C256.027 505.577 259.016 502.492 261.727 499.168C265.405 494.466 262.618 487.503 262.618 487.503C262.618 487.503 260.022 490.232 256.038 494.954C252.053 499.676 252.322 502.798 252.322 502.798L252.791 508.392Z" fill="#99E9A0"/>
<path d="M253.979 518.209C253.979 518.209 251.221 498.737 251.259 491.726C251.297 484.715 256.297 479.754 259.333 469.755C262.369 459.756 259.333 448.684 262.369 441.022C265.405 433.36 270.635 428.446 273.863 419.951C274.996 416.889 275.956 413.764 276.736 410.594" stroke="#263238" stroke-linecap="round" stroke-linejoin="round"/>
<path d="M279.915 415.784L274.657 418.543" stroke="#263238" stroke-linecap="round" stroke-linejoin="round"/>
<path d="M274.246 410.699L275.587 414.482" stroke="#263238" stroke-linecap="round" stroke-linejoin="round"/>
<path d="M271.563 436.233C267.1 438.484 262.704 440.725 262.704 440.725" stroke="#263238" stroke-linecap="round" stroke-linejoin="round"/>
<path d="M260.616 423.236C262.713 426.967 264.417 430.906 265.702 434.988" stroke="#263238" stroke-linecap="round" stroke-linejoin="round"/>
<path d="M270.308 457.601C266.448 460.32 262.999 463.581 260.07 467.284" stroke="#263238" stroke-linecap="round" stroke-linejoin="round"/>
<path d="M253.816 458.53C253.816 458.53 254.046 459.009 255.732 462.763C256.937 465.578 257.898 468.49 258.605 471.469" stroke="#263238" stroke-linecap="round" stroke-linejoin="round"/>
<path d="M242.189 487.982C243.33 489.135 244.556 490.202 245.857 491.171C247.916 492.952 249.81 494.913 251.518 497.033" stroke="#263238" stroke-linecap="round" stroke-linejoin="round"/>
<path d="M261.564 480.09C259.574 481.659 257.713 483.385 256 485.252C254.262 487.286 252.684 489.451 251.278 491.727" stroke="#263238" stroke-linecap="round" stroke-linejoin="round"/>
<path d="M260.886 493.651C259.851 495.146 257.304 498.91 255.139 501.783C253.789 503.741 252.98 506.021 252.792 508.392" stroke="#263238" stroke-linecap="round" stroke-linejoin="round"/>
<path opacity="0.2" d="M231.26 354.66C236.691 350.677 241.779 346.246 246.47 341.414C252.848 334.489 249.41 323.216 249.41 323.216C249.41 323.216 244.995 327.143 238.127 334.001C231.26 340.858 231.26 345.772 231.26 345.772V354.66Z" fill="black"/>
<path opacity="0.2" d="M241.232 385.251C246.667 381.273 251.755 376.842 256.441 372.005C262.811 365.137 259.382 353.864 259.382 353.864C259.382 353.864 254.966 357.782 248.099 364.649C241.232 371.516 241.232 376.42 241.232 376.42V385.251Z" fill="black"/>
<path opacity="0.2" d="M232.621 362.887C226.803 359.494 221.277 355.624 216.099 351.317C209.031 345.149 211.253 333.569 211.253 333.569C211.253 333.569 216.042 337.046 223.618 343.147C231.194 349.248 231.692 354.142 231.692 354.142L232.621 362.887Z" fill="black"/>
<path opacity="0.2" d="M245.599 398.957C239.458 396.197 233.557 392.932 227.957 389.197C220.294 383.805 221.252 372.062 221.252 372.062C221.252 372.062 226.386 374.936 234.546 380.251C242.706 385.567 243.731 390.318 243.731 390.318L245.599 398.957Z" fill="black"/>
<path opacity="0.2" d="M241.47 438.647C236.044 434.662 230.956 430.235 226.261 425.41C219.882 418.495 223.33 407.213 223.33 407.213C223.33 407.213 227.745 411.13 234.612 417.997C241.48 424.864 241.48 429.787 241.48 429.787L241.47 438.647Z" fill="black"/>
<path opacity="0.2" d="M248.356 476.775C242.93 472.788 237.842 468.357 233.147 463.529C226.768 456.662 230.207 445.332 230.207 445.332C230.207 445.332 234.622 449.239 241.489 456.116C248.356 462.993 248.356 467.906 248.356 467.906V476.775Z" fill="black"/>
<path opacity="0.2" d="M275.28 416.867C272.309 413.776 269.599 410.444 267.177 406.906C263.921 401.916 267.301 395.212 267.301 395.212C267.301 395.212 269.658 398.162 273.211 403.209C276.764 408.257 276.237 411.331 276.237 411.331L275.28 416.867Z" fill="black"/>
<path opacity="0.2" d="M263.634 421.33C260.071 416.283 257.724 413.333 257.724 413.333C257.365 414.092 257.07 414.88 256.843 415.689C256.556 414.923 256.345 414.473 256.345 414.473C256.345 414.473 252.514 418.993 246.71 426.771C240.906 434.548 241.586 439.394 241.586 439.394L242.831 448.148C247.648 443.42 252.056 438.294 256.01 432.824C257.365 430.83 258.183 428.521 258.385 426.119C260.598 429.252 263.044 432.214 265.703 434.979L266.661 429.443C266.661 429.443 267.197 426.368 263.634 421.33Z" fill="black"/>
<path opacity="0.2" d="M273.479 421.915C277.511 420.429 281.41 418.606 285.136 416.465C290.24 413.362 290.097 405.853 290.097 405.853C290.097 405.853 286.716 407.5 281.314 410.498C275.912 413.496 275.06 416.523 275.06 416.523L273.479 421.915Z" fill="black"/>
<path opacity="0.2" d="M261.479 443.11C265.631 442.048 269.688 440.638 273.604 438.896C279.006 436.358 279.657 428.887 279.657 428.887C279.657 428.887 276.123 430.132 270.434 432.584C264.745 435.036 263.557 437.861 263.557 437.861L261.479 443.11Z" fill="black"/>
<path opacity="0.2" d="M259.725 468.424C263.565 466.5 267.236 464.258 270.701 461.719C275.49 458.109 274.532 450.667 274.532 450.667C274.532 450.667 271.323 452.649 266.276 456.203C261.228 459.756 260.692 462.85 260.692 462.85L259.725 468.424Z" fill="black"/>
<path opacity="0.2" d="M257.858 474.257C255.36 470.772 253.153 467.089 251.259 463.242C248.749 457.831 253.05 451.672 253.05 451.672C253.05 451.672 254.965 454.929 257.752 460.436C260.54 465.943 259.601 468.912 259.601 468.912L257.858 474.257Z" fill="black"/>
<path opacity="0.2" d="M251.623 499.283L250.981 493.699C250.981 493.699 250.617 490.596 245.781 486.755C244.2 485.491 242.802 484.409 241.643 483.528C241.212 482.637 240.685 481.679 240.13 480.654C235.226 472.341 231.95 467.389 231.95 467.389C231.95 467.389 225.773 477.436 230.207 485.683C233.514 491.532 237.3 497.097 241.528 502.319L243.712 494.092C246.241 495.982 248.883 497.715 251.623 499.283Z" fill="black"/>
<path opacity="0.2" d="M251.278 491.573C255.112 489.658 258.783 487.432 262.254 484.917C267.043 481.296 266.085 473.854 266.085 473.854C266.085 473.854 262.896 475.846 257.839 479.39C252.782 482.934 252.255 486.037 252.255 486.037L251.278 491.573Z" fill="black"/>
<path opacity="0.2" d="M252.791 508.392C256.027 505.577 259.016 502.492 261.727 499.168C265.405 494.466 262.618 487.503 262.618 487.503C262.618 487.503 260.022 490.232 256.038 494.954C252.053 499.676 252.322 502.798 252.322 502.798L252.791 508.392Z" fill="black"/>
<path d="M244.571 7.00231V231.076" stroke="#23353C" stroke-width="1.15053" stroke-linecap="round" stroke-linejoin="round"/>
<path d="M27.0093 111.036H459.151" stroke="#23353C" stroke-linecap="round" stroke-linejoin="round"/>
<path d="M133.044 28.7335L149.866 27.6482C149.756 33.7487 150.724 39.8208 152.726 45.5847L136.065 47.5206C136.065 47.5206 133.044 42.9595 133.044 28.7335Z" fill="white" stroke="#263238" stroke-miterlimit="10"/>
<path d="M135.536 26.0788L152.358 25.0082C152.272 31.1131 153.265 37.1853 155.291 42.9447L138.631 44.8806C138.631 44.8806 135.536 40.2608 135.536 26.0788Z" fill="#99E9A0" stroke="#263238" stroke-miterlimit="10"/>
<path d="M148.794 29.8776C148.796 30.0052 148.772 30.132 148.724 30.2503C148.676 30.3687 148.605 30.4762 148.515 30.5665C148.424 30.6567 148.317 30.728 148.199 30.7759C148.08 30.8238 147.954 30.8475 147.826 30.8455C147.698 30.8475 147.57 30.8239 147.451 30.7761C147.332 30.7283 147.223 30.6574 147.132 30.5673C147.04 30.4772 146.968 30.3698 146.918 30.2514C146.869 30.133 146.843 30.0059 146.843 29.8776C146.843 29.617 146.947 29.3671 147.131 29.1828C147.315 28.9985 147.565 28.895 147.826 28.895C147.954 28.895 148.081 28.9205 148.2 28.97C148.318 29.0196 148.425 29.0922 148.516 29.1836C148.606 29.2751 148.677 29.3835 148.724 29.5027C148.772 29.6218 148.796 29.7492 148.794 29.8776Z" fill="#263238"/>
<path d="M54.3823 36.1231C54.3823 36.1231 50.3052 44.8347 56.2449 55.4969L71.8056 53.7076C71.8056 53.7076 69.2684 39.3789 69.4004 34.0112L54.3823 36.1231Z" fill="#99E9A0" stroke="#263238" stroke-miterlimit="10"/>
<path d="M54.3818 35.2138L69.3998 34.0112C70.0606 39.2291 71.3255 44.3526 73.169 49.2785L57.9603 51.1851C56.1023 46.0325 54.9 40.6666 54.3818 35.2138Z" fill="white" stroke="#263238" stroke-miterlimit="10"/>
<path d="M66.4228 38.1915C66.4247 38.3191 66.4011 38.4459 66.3531 38.5642C66.3052 38.6825 66.2339 38.79 66.1436 38.8803C66.0534 38.9706 65.9459 39.0418 65.8275 39.0898C65.7092 39.1377 65.5824 39.1614 65.4548 39.1594C65.3264 39.1614 65.199 39.1378 65.0799 39.09C64.9607 39.0422 64.8523 38.9712 64.7609 38.8812C64.6694 38.7911 64.5968 38.6837 64.5472 38.5653C64.4977 38.4469 64.4722 38.3198 64.4722 38.1915C64.4722 37.9309 64.5757 37.6809 64.76 37.4966C64.9443 37.3124 65.1942 37.2088 65.4548 37.2088C65.5831 37.2088 65.7102 37.2343 65.8286 37.2839C65.947 37.3335 66.0544 37.4061 66.1445 37.4975C66.2346 37.589 66.3056 37.6974 66.3533 37.8165C66.4011 37.9357 66.4247 38.0631 66.4228 38.1915Z" fill="#263238"/>
<path d="M375.487 76.1361C375.487 76.1361 371.41 84.8478 377.35 95.51L392.911 93.7207C392.911 93.7207 390.373 79.392 390.505 74.0242L375.487 76.1361Z" fill="#99E9A0" stroke="#263238" stroke-miterlimit="10"/>
<path d="M375.488 75.2268L390.506 74.0242C391.167 79.2421 392.431 84.3656 394.275 89.2915L379.066 91.1981C377.208 86.0455 376.006 80.6796 375.488 75.2268Z" fill="white" stroke="#263238" stroke-miterlimit="10"/>
<path d="M387.528 78.2044C387.53 78.3321 387.507 78.4589 387.459 78.5772C387.411 78.6955 387.339 78.803 387.249 78.8933C387.159 78.9836 387.051 79.0548 386.933 79.1028C386.815 79.1507 386.688 79.1744 386.56 79.1724C386.432 79.1744 386.304 79.1508 386.185 79.103C386.066 79.0552 385.958 78.9842 385.866 78.8941C385.775 78.8041 385.702 78.6967 385.653 78.5783C385.603 78.4599 385.578 78.3328 385.578 78.2044C385.578 77.9438 385.681 77.6939 385.865 77.5096C386.05 77.3253 386.3 77.2218 386.56 77.2218C386.689 77.2218 386.816 77.2473 386.934 77.2969C387.053 77.3464 387.16 77.4191 387.25 77.5105C387.34 77.6019 387.411 77.7104 387.459 77.8295C387.507 77.9487 387.53 78.0761 387.528 78.2044Z" fill="#263238"/>
<path d="M102.77 78.7882C102.77 78.7882 96.0526 90.609 103.664 102.65L118.961 100.861C118.961 100.861 115.016 86.9572 117.274 78.0256L102.77 78.7882Z" fill="white" stroke="#263238" stroke-miterlimit="10"/>
<path d="M102.77 78.7882L117.275 78.0255C117.294 84.1174 118.077 90.1828 119.607 96.0794L105.014 98.0593C105.014 98.0593 101.26 93.4835 102.77 78.7882Z" fill="#99E9A0" stroke="#263238" stroke-miterlimit="10"/>
<path d="M112.215 81.3993C112.218 81.5949 112.162 81.7869 112.056 81.9507C111.949 82.1145 111.796 82.2427 111.615 82.3189C111.435 82.3951 111.236 82.4158 111.044 82.3783C110.853 82.3409 110.676 82.247 110.538 82.1087C110.399 81.9704 110.306 81.794 110.268 81.602C110.231 81.4101 110.251 81.2113 110.328 81.0311C110.404 80.851 110.532 80.6977 110.696 80.5908C110.86 80.484 111.052 80.4285 111.247 80.4314C111.504 80.4314 111.75 80.5334 111.932 80.7149C112.113 80.8964 112.215 81.1426 112.215 81.3993Z" fill="#263238"/>
<path d="M339.111 34.7354L355.933 33.6502C355.823 39.7507 356.792 45.8228 358.793 51.5867L342.191 53.5226C342.191 53.5226 339.111 48.9615 339.111 34.7354Z" fill="white" stroke="#263238" stroke-miterlimit="10"/>
<path d="M341.604 32.0808L358.426 31.0101C358.313 37.0893 359.272 43.1409 361.256 48.888L344.596 50.8239C344.596 50.8239 341.604 46.2628 341.604 32.0808Z" fill="#99E9A0" stroke="#263238" stroke-miterlimit="10"/>
<path d="M354.932 35.8796C354.932 36.1402 354.829 36.3901 354.644 36.5744C354.46 36.7587 354.21 36.8622 353.949 36.8622C353.689 36.8622 353.439 36.7587 353.255 36.5744C353.07 36.3901 352.967 36.1402 352.967 35.8796C352.967 35.619 353.07 35.369 353.255 35.1848C353.439 35.0005 353.689 34.8969 353.949 34.8969C354.21 34.8969 354.46 35.0005 354.644 35.1848C354.829 35.369 354.932 35.619 354.932 35.8796Z" fill="#263238"/>
<path d="M149.048 196.789L165.87 195.703C165.76 201.804 166.729 207.876 168.73 213.64L152.128 215.576C152.128 215.576 149.048 211.015 149.048 196.789Z" fill="white" stroke="#263238" stroke-miterlimit="10"/>
<path d="M151.541 194.134L168.363 193.063C168.251 199.143 169.209 205.194 171.193 210.941L154.533 212.877C154.533 212.877 151.541 208.316 151.541 194.134Z" fill="#99E9A0" stroke="#263238" stroke-miterlimit="10"/>
<path d="M164.869 197.933C164.869 198.193 164.766 198.443 164.581 198.628C164.397 198.812 164.147 198.915 163.886 198.915C163.626 198.915 163.376 198.812 163.192 198.628C163.007 198.443 162.904 198.193 162.904 197.933C162.904 197.672 163.007 197.422 163.192 197.238C163.376 197.054 163.626 196.95 163.886 196.95C164.147 196.95 164.397 197.054 164.581 197.238C164.766 197.422 164.869 197.672 164.869 197.933Z" fill="#263238"/>
<path d="M410.135 41.2157L425.153 40.0131C425.813 45.231 427.078 50.3545 428.922 55.2804L413.713 57.187C411.855 52.0344 410.653 46.6685 410.135 41.2157Z" fill="#99E9A0" stroke="#263238" stroke-miterlimit="10"/>
<path d="M422.16 44.1934C422.16 44.454 422.057 44.7039 421.872 44.8882C421.688 45.0725 421.438 45.176 421.177 45.176C420.917 45.176 420.667 45.0725 420.483 44.8882C420.298 44.7039 420.195 44.454 420.195 44.1934C420.195 43.9327 420.298 43.6828 420.483 43.4985C420.667 43.3143 420.917 43.2107 421.177 43.2107C421.438 43.2107 421.688 43.3143 421.872 43.4985C422.057 43.6828 422.16 43.9327 422.16 44.1934Z" fill="#263238"/>
<path d="M133.043 146.25L148.061 145.048C148.722 150.266 149.987 155.389 151.831 160.315L136.622 162.222C134.764 157.069 133.562 151.703 133.043 146.25Z" fill="#99E9A0" stroke="#263238" stroke-miterlimit="10"/>
<path d="M145.069 149.228C145.069 149.489 144.965 149.738 144.781 149.923C144.597 150.107 144.347 150.211 144.086 150.211C143.826 150.211 143.576 150.107 143.391 149.923C143.207 149.738 143.104 149.489 143.104 149.228C143.104 148.967 143.207 148.717 143.391 148.533C143.576 148.349 143.826 148.245 144.086 148.245C144.347 148.245 144.597 148.349 144.781 148.533C144.965 148.717 145.069 148.967 145.069 149.228Z" fill="#263238"/>
<path opacity="0.2" d="M20.6021 1.24636L32.6722 12.6859V226.12L20.6021 237.736V1.24636Z" fill="black"/>
<path opacity="0.2" d="M464.601 0V236.651L452.927 226.121V12.6861L464.601 0Z" fill="#1B414C"/>
<path d="M309.101 163.204C310.568 157.924 315.378 154.126 320.497 152.161C331.027 148.113 341.645 152.366 345.429 163.233C348.186 171.153 347.555 181.507 340.237 186.699C337.095 188.792 333.527 190.162 329.791 190.71C326.056 191.258 322.245 190.97 318.634 189.867C313.208 188.078 308.617 182.783 309.204 177.093" stroke="#263238" stroke-linecap="round" stroke-linejoin="round"/>
<path d="M342.75 130.043C340.667 135.314 338.687 140.593 336.812 145.878" stroke="#263238" stroke-linecap="round" stroke-linejoin="round"/>
<path d="M332.854 137.96C333.872 141.121 335.313 144.131 337.136 146.906C340.188 145.738 342.791 143.633 344.572 140.893" stroke="#263238" stroke-linecap="round" stroke-linejoin="round"/>
<path d="M318.605 164.671L333.623 163.483C334.285 168.696 335.549 173.814 337.392 178.735L322.183 180.656C320.326 175.499 319.124 170.128 318.605 164.671Z" fill="#99E9A0" stroke="#263238" stroke-miterlimit="10"/>
<path d="M326.95 167.266C326.95 167.395 326.924 167.522 326.875 167.64C326.825 167.758 326.753 167.866 326.661 167.956C326.57 168.046 326.461 168.117 326.342 168.165C326.223 168.212 326.095 168.236 325.967 168.234C325.839 168.236 325.713 168.212 325.594 168.164C325.476 168.117 325.369 168.045 325.278 167.955C325.188 167.865 325.117 167.757 325.069 167.639C325.021 167.521 324.997 167.394 324.999 167.266C324.997 167.138 325.021 167.01 325.069 166.891C325.116 166.772 325.187 166.664 325.277 166.572C325.367 166.481 325.475 166.408 325.593 166.359C325.712 166.309 325.839 166.284 325.967 166.284C326.228 166.284 326.478 166.387 326.662 166.571C326.846 166.756 326.95 167.006 326.95 167.266Z" fill="#263238"/>
<path d="M94.0494 570.492C94.2536 571.403 94.6495 572.26 95.211 573.006C95.7724 573.752 96.4863 574.37 97.3053 574.818C103.172 577.326 113.731 573.351 121.226 571.489C128.72 569.626 144.926 564.009 146.392 557.761C146.651 556.839 146.61 555.858 146.275 554.96C144.897 551.675 138.649 551.954 134.748 551.954C129.952 551.954 118.307 550.692 114.978 549.24C111.649 547.789 93.1548 556.735 93.1548 556.735C93.1548 556.735 92.2602 565.036 94.0494 570.492Z" fill="#99E9A0"/>
<path d="M52.2673 553.479C52.5512 554.388 53.052 555.214 53.7266 555.886C54.4012 556.558 55.2292 557.056 56.1391 557.336C61.5362 559.008 64.4547 555.679 67.3586 552.144C70.2625 548.61 73.3864 547.744 77.9768 544.445C82.5673 541.145 82.9193 534.721 80.7194 533.166C80.6382 533.102 80.5496 533.048 80.4554 533.005C77.9768 531.759 68.6052 535.088 68.6052 535.088L54.2619 532.726C54.2619 532.726 53.2206 538.006 52.1793 542.993C51.5193 546.161 51.1233 550.37 52.2673 553.479Z" fill="#99E9A0"/>
<path d="M52.2666 553.494C52.5505 554.403 53.0513 555.229 53.7259 555.901C54.4005 556.573 55.2285 557.07 56.1384 557.351C61.5355 559.023 64.4541 555.694 67.3579 552.159C70.2618 548.625 73.3857 547.759 77.9761 544.459C82.5666 541.16 82.9186 534.736 80.7187 533.181C81.1229 535.758 80.5016 538.39 78.9881 540.514C77.2555 542.827 75.125 544.814 72.6964 546.381C70.2738 547.955 68.0226 549.779 65.9793 551.822C65.0554 552.863 63.5008 553.171 62.3568 553.963C60.6556 555.136 59.145 556.236 57.1357 555.782C55.3738 555.359 53.7169 554.58 52.2666 553.494Z" fill="#FDFEFF"/>
<path d="M94.0498 570.492C94.2539 571.403 94.6499 572.26 95.2113 573.006C95.7728 573.752 96.4867 574.37 97.3057 574.818C103.172 577.326 113.306 575.625 121.226 571.489C128.706 569.626 144.926 564.009 146.393 557.762C146.652 556.839 146.611 555.858 146.276 554.96C145.454 556.75 143.21 559.36 137.564 562.293C126.374 568.321 111.018 571.973 105.607 572.853C101.999 573.498 96.983 571.738 94.0498 570.492Z" fill="#FDFEFF"/>
<path d="M56.5487 311.812C55.8594 311.416 40.5334 351.586 40.1374 353.273C38.6037 359.818 38.1087 366.564 38.6708 373.263C39.8838 385.67 44.6502 397.463 52.3982 407.229C59.7312 416.586 75.1745 430.695 69.9974 444.1C66.8442 452.313 45.3732 489.564 51.0636 534.354C51.0636 534.354 57.8246 545.721 70.54 534.354L82.6102 509.745L92.0844 555.209C92.0844 555.209 104.712 569.098 115.433 555.209C114.55 531.096 116.888 506.973 122.384 483.478C128.251 459.093 132.988 434.479 136.596 409.635C138.253 398.283 140.996 386.286 139.529 374.861C138.062 362.835 124.863 328.502 120.463 317.209C120.581 317.209 106.413 340.22 56.5487 311.812Z" fill="#263238"/>
<path d="M78.6938 472.112C77.7552 479.357 79.1044 487.232 80.3364 494.375" stroke="#FDFEFF" stroke-linecap="round" stroke-linejoin="round"/>
<path d="M70.291 380.288L84.0477 385.641C84.0477 385.641 89.1515 423.949 89.1515 431.238C89.1515 436.18 83.9304 449.878 80.7626 462.036" stroke="#FDFEFF" stroke-linecap="round" stroke-linejoin="round"/>
<path d="M94.0492 554.036C94.0492 554.036 91.8346 564.112 94.0492 570.491C96.2638 576.871 101.133 576.358 106.779 576.358C112.426 576.358 134.205 567.324 140.027 564.83C145.85 562.337 148.196 556.808 146.275 554.916C144.354 553.024 143.224 552.482 134.747 551.91C126.27 551.338 117.515 551.323 115.051 549.226" stroke="#263238" stroke-miterlimit="10"/>
<path d="M94.0498 570.492C98.5262 572.763 103.649 573.421 108.555 572.354C116.328 570.462 143.372 562.308 146.276 554.96" stroke="#263238" stroke-miterlimit="10"/>
<path d="M53.8061 536.261C53.8061 536.261 51.0195 545.589 51.5475 549.24C52.0755 552.892 51.4009 556.94 57.6926 557.703C63.9843 558.465 67.2988 551.836 68.7507 550.678C70.2027 549.519 78.6797 545.501 80.9382 540.881C81.9037 539.083 82.145 536.984 81.6129 535.014C80.8062 532.595 79.0463 532.697 76.8464 533.064C74.0558 533.575 71.3023 534.27 68.6041 535.146" stroke="#263238" stroke-miterlimit="10"/>
<path d="M51.9004 553.904C54.6429 554.887 57.6495 555.884 60.4213 554.989C63.6625 553.948 65.5691 550.678 68.253 548.595C69.2356 547.847 70.3209 547.246 71.3769 546.586C73.8961 545.112 76.1151 543.176 77.9179 540.881C79.6485 538.534 80.7778 536.598 80.6458 533.694" stroke="#263238" stroke-miterlimit="10"/>
<path d="M194.321 225.84C194.321 225.84 195.7 219.783 200.188 218.507C204.675 217.231 206.303 220.179 208.415 218.668C210.527 217.158 212.566 211.335 214.282 209.986C215.998 208.637 218.564 206.188 220.148 206.349C221.732 206.51 218.344 210.851 218.344 210.851C218.344 210.851 221.732 210.661 221.395 212.025C221.087 213.05 220.659 214.034 220.119 214.958C221.837 214.188 223.387 213.086 224.68 211.717C226.675 209.517 229.314 206.657 232.644 208.622C232.644 208.622 234.638 209.605 233.7 210.895C232.761 212.186 229.96 220.956 226.367 223.097C222.773 225.239 217.435 225.4 214.37 225.796C211.305 226.192 199.425 234.288 199.425 234.288L194.409 228.421L194.321 225.84Z" fill="white"/>
<path d="M199.616 234.332C203.223 230.651 206.949 229.037 211.348 226.852C214.282 225.385 217.875 225.987 221.131 225.591C225.354 225.092 227.334 222.394 229.314 218.844C230.869 216.014 232.115 212.186 234.374 210.177C233.168 209.895 231.91 209.931 230.722 210.279C228.508 211.042 226.85 213.447 225.252 215.486C223.721 217.504 221.557 218.951 219.107 219.592C218.899 219.674 218.669 219.674 218.461 219.592C217.889 219.27 218.183 218.228 218.549 217.598L221.013 213.433C221.166 213.241 221.274 213.018 221.333 212.78C221.391 212.542 221.397 212.295 221.351 212.054C221.16 211.467 220.485 211.438 219.884 211.555C217.357 212.114 215.029 213.351 213.152 215.134C211.48 216.601 209.867 218.727 207.77 218.771C206.766 218.673 205.779 218.441 204.837 218.082C203.521 217.783 202.15 217.838 200.863 218.239C199.575 218.641 198.416 219.376 197.504 220.37C195.509 222.438 194.028 224.462 194.145 227.703" stroke="#263238" stroke-linecap="round" stroke-linejoin="round"/>
<path d="M233.084 209.737C233.084 208.93 232.409 208.431 231.778 208.27C231.116 208.05 230.415 207.972 229.72 208.04C229.025 208.108 228.352 208.321 227.745 208.666C226.863 209.303 226.078 210.063 225.413 210.924C223.62 212.956 221.62 214.794 219.444 216.41" stroke="#263238" stroke-linecap="round" stroke-linejoin="round"/>
<path d="M210.498 217.172C212.845 213.961 214.165 209.839 217.332 207.508C218.12 206.862 219.078 206.46 220.09 206.349C220.141 206.327 220.196 206.316 220.251 206.316C220.306 206.316 220.361 206.327 220.412 206.349C220.515 206.466 220.412 206.657 220.412 206.804C219.488 208.608 218.55 210.382 217.582 212.171L217.714 211.907" stroke="#263238" stroke-linecap="round" stroke-linejoin="round"/>
<path d="M200.115 235.989C199.147 237.705 168.246 292.79 162.908 295.958C157.569 299.126 157.202 297.909 153.507 296.076C149.811 294.242 124.805 268.02 124.805 268.02L122.385 279.122L116.71 304.714L133.326 347.524C116.959 359.125 89.2255 361.266 89.2255 361.266L83.0511 336.906L71.6409 359.037C64.571 357.788 57.7382 355.448 51.3871 352.1C46.4744 349.641 41.7447 346.833 37.2344 343.696L53.1617 305.565C48.4533 308.632 42.9413 310.234 37.3224 310.17C31.1197 310.012 25.1128 307.966 20.1045 304.303C20.3131 292.496 21.4755 280.725 23.5804 269.105C26.5136 251.96 30.3561 237.192 31.5733 234.493C33.6119 229.976 45.5794 216.424 45.5794 216.424C51.2845 213.022 63.6773 211.101 63.6773 211.101L61.5213 199.368C64.2539 198.158 67.1498 197.358 70.1156 196.992C72.8621 196.647 75.6408 196.647 78.3873 196.992C78.8713 196.992 79.3552 197.109 79.8539 197.197C86.6385 198.361 93.0977 200.956 98.8024 204.809V213.271C109.817 215.295 126.741 225.283 130.804 228.597C134.866 231.912 155.531 263.238 155.531 263.238L192.357 225.884L200.115 235.989Z" fill="#99E9A0"/>
<path opacity="0.2" d="M201.023 237.001C200.055 238.717 169.154 293.788 163.83 296.956C158.506 300.123 158.11 298.906 154.429 297.073C150.748 295.24 125.728 269.105 125.728 269.105L133.515 235.373C133.515 235.373 154.444 267.506 158.946 280.075L201.023 237.001Z" fill="black"/>
<path opacity="0.2" d="M79.8531 197.036V211.482C79.8531 211.482 60.9339 222.731 57.7514 229.301C54.5689 235.872 58.4407 285.296 75.556 303.218L68.2229 302.529L51.3277 352.1C46.415 349.641 41.6852 346.833 37.175 343.696L53.1023 305.564C48.4105 308.62 42.9206 310.222 37.3216 310.17C38.2309 306.664 45.9893 274.458 23.5942 269.105C26.5274 251.96 30.3699 237.191 31.5872 234.493C33.6258 229.976 45.5933 216.424 45.5933 216.424C51.2984 213.022 63.6911 211.101 63.6911 211.101L61.5352 199.368C64.2678 198.158 67.1636 197.358 70.1295 196.992L79.8531 197.036Z" fill="black"/>
<path d="M98.5677 141.965C98.5677 141.965 105.431 144.898 106.531 150.442C107.631 155.986 108.467 161.808 111.547 164.111C114.627 166.413 116.211 167.264 115.111 169.2C114.649 170.082 114.109 170.922 113.498 171.708C113.498 171.708 116.328 190.774 113.028 193.105C109.729 195.437 100.944 190.48 100.944 190.48C99.4076 191.19 98.0786 192.281 97.0826 193.649C96.0867 195.017 95.457 196.617 95.2532 198.297C94.5053 204.164 95.1506 202.301 95.1506 202.301C95.1506 202.301 81.7605 195.775 68.1211 198.033L68.6197 180.947C68.6197 180.947 77.9473 136.92 98.5677 141.965Z" fill="white"/>
<path d="M104.99 162.864C105.166 164.184 104.829 165.328 104.242 165.401C103.656 165.475 103.025 164.477 102.849 163.143C102.673 161.808 103.01 160.694 103.597 160.606C104.184 160.518 104.785 161.544 104.99 162.864Z" fill="#263238"/>
<path d="M92.5538 137.257C92.5538 137.257 106.179 144.957 107.132 152.656C108.085 160.356 109.449 163.069 113.497 165.474C117.545 167.88 113.497 171.708 113.497 171.708C113.497 171.708 115.345 190.993 113.028 193.105C110.71 195.217 98.3615 191.565 92.4951 182.839" stroke="#263238" stroke-linecap="round" stroke-linejoin="round"/>
<path opacity="0.6" d="M90.4131 199.896L90.7357 211.79C90.7357 211.79 113.732 228.392 120.713 234.918L118.073 297.249L133.209 231.765C133.209 231.765 119.672 216.307 98.8021 213.374V204.912C96.1925 202.945 93.3802 201.264 90.4131 199.896Z" fill="white"/>
<path d="M100.033 189.908C98.079 191.449 96.6204 193.529 95.8386 195.892C95.2931 197.721 94.9488 199.605 94.812 201.509" stroke="#263238" stroke-linecap="round" stroke-linejoin="round"/>
<path d="M91.3221 169.786C91.3221 169.786 85.9397 164.111 83.1678 165.475C80.3959 166.838 78.9147 172.118 81.2026 178.777C83.4905 185.435 89.2836 186.242 92.5541 183.308" stroke="#263238" stroke-linecap="round" stroke-linejoin="round"/>
<path d="M68.6779 188.339C68.5899 191.551 68.4432 194.367 68.1792 197.329" stroke="#263238" stroke-linecap="round" stroke-linejoin="round"/>
<path d="M91.3217 169.786C91.3217 169.786 104.521 160.048 103.421 145.5C103.421 145.5 96.1909 133.195 78.8556 133.195C61.5204 133.195 53.9234 139.266 51.2982 151.879C48.6729 164.492 47.3383 182.033 57.9272 188.339C68.5161 194.645 79.3396 189.806 82.0235 180.859C82.0235 180.859 76.8757 170.593 81.9208 166.457C85.7193 163.348 91.3217 169.786 91.3217 169.786Z" fill="#263238"/>
<path d="M63.4274 210.206L60.8901 199.412C60.8901 199.412 82.3905 191.566 98.7724 204.853V212.817" stroke="#263238" stroke-linecap="round" stroke-linejoin="round"/>
<path d="M116.694 303.232L133.325 347.524C133.325 347.524 111.326 360.723 89.2094 361.266L83.0497 336.906L71.6249 359.022C60.904 356.323 47.9832 354.358 37.2184 343.696L54.363 304.831L30.1787 236.282L45.578 216.424C45.578 216.424 59.6427 207.141 90.7347 211.79C121.827 216.439 133.266 231.252 133.266 231.252L116.694 303.232Z" stroke="#263238" stroke-linecap="round" stroke-linejoin="round"/>
<path d="M116.694 303.233C116.694 303.233 109.801 306.576 98.5371 303.233" stroke="#263238" stroke-linecap="round" stroke-linejoin="round"/>
<path d="M97.7607 308.703C103.761 309.369 109.796 307.803 114.715 304.303" stroke="#263238" stroke-linecap="round" stroke-linejoin="round"/>
<g opacity="0.3">
<path opacity="0.3" d="M56.124 147.479C58.5293 144.825 62.1224 143.622 65.6129 142.772C70.0648 141.511 74.733 141.206 79.311 141.877C81.5945 142.23 83.773 143.078 85.6935 144.363C87.6141 145.647 89.23 147.337 90.4278 149.313" stroke="white" stroke-linecap="round" stroke-linejoin="round"/>
<path opacity="0.3" d="M55.4932 152.187C56.652 157.116 59.2272 161.599 62.9014 165.083C66.5757 168.567 71.1886 170.9 76.1723 171.796" stroke="white" stroke-linecap="round" stroke-linejoin="round"/>
</g>
<path d="M133.326 231.252L155.53 263.239C155.53 263.239 159.681 274.311 157.378 284.915" stroke="#263238" stroke-linecap="round" stroke-linejoin="round"/>
<path d="M155.53 263.238L192.342 225.884L200.159 236.033C200.159 236.033 180.873 277.098 162.922 296.032C162.314 296.66 161.588 297.163 160.786 297.509C159.983 297.856 159.12 298.04 158.246 298.051C157.371 298.062 156.504 297.9 155.693 297.573C154.882 297.247 154.143 296.762 153.521 296.149L124.819 268.093" stroke="#263238" stroke-linecap="round" stroke-linejoin="round"/>
<path d="M30.1794 236.282C30.1794 236.282 19.2679 280.911 20.1186 304.245C20.1186 304.245 35.0779 317.928 54.3637 304.831" stroke="#263238" stroke-linecap="round" stroke-linejoin="round"/>
<path d="M46.9278 283.771C46.0965 288.759 44.2872 293.534 41.604 297.821" stroke="#263238" stroke-linecap="round" stroke-linejoin="round"/>
<path d="M48.3652 157.907C46.8906 161.902 46.1455 166.129 46.1653 170.388C45.388 189.952 48.2625 209.502 47.8079 229.052C47.6466 235.783 47.0453 242.691 44.1707 248.778C41.2962 254.864 35.7818 260.085 29.094 260.906C25.9079 261.195 22.6973 260.774 19.6931 259.674C15.0697 258.19 10.9074 255.538 7.60834 251.975C4.0311 247.766 1.65937 242.668 0.744629 237.221C-0.574576 230.291 -0.135892 223.141 2.02058 216.424C6.20039 203.416 16.3346 193.311 23.0957 181.431C26.4179 175.564 28.9151 169.267 30.5167 162.717C31.7926 157.452 32.7752 151.556 37.0137 148.169C39.9109 146.082 43.4845 145.156 47.0306 145.573C49.4505 145.763 55.5369 145.998 54.8916 149.577C54.4223 152.143 49.5825 155.047 48.3652 157.907Z" fill="#263238"/>
<g opacity="0.3">
<path opacity="0.3" d="M51.5334 151.043C47.3249 151.875 43.5793 154.25 41.0325 157.702C39.026 160.688 37.6028 164.027 36.838 167.543C30.7076 191.008 34.5061 215.941 30.3557 239.729C29.0944 246.945 26.8358 254.498 21.2334 259.205" stroke="white" stroke-linecap="round" stroke-linejoin="round"/>
<path opacity="0.3" d="M21.2627 205.117C22.2453 203.65 23.2719 202.184 24.2985 200.717C24.9292 199.837 25.5892 198.928 26.2051 198.004" stroke="white" stroke-linecap="round" stroke-linejoin="round"/>
<path opacity="0.3" d="M12.3895 253.09C8.3417 244.613 8.44435 234.566 11.0989 225.561C12.3853 221.282 14.1258 217.152 16.2907 213.242" stroke="white" stroke-linecap="round" stroke-linejoin="round"/>
</g>
<path d="M114.037 183.56C113.204 184.227 110.836 186.861 110.036 184.06" stroke="#263238"/>
<path d="M345.508 260.146C346.508 256.021 346.211 251.688 344.658 247.738C342.737 243.664 340.603 239.693 338.263 235.844C338.263 235.844 338.806 226.604 336.445 223.437C334.084 220.269 326.736 208.77 325.005 208.697C323.275 208.624 323.539 216.543 326.472 221.809L325.988 225.387C325.988 225.387 314.856 219.653 311.513 218.318C308.169 216.983 299.78 213.244 297.976 214.916C296.172 216.587 309.21 221.119 311.513 224.8C311.513 224.8 290.804 222.63 291.185 225.387C291.567 228.144 298.592 228.57 298.592 228.57C298.592 228.57 296.421 228.966 297.022 230.682C297.624 232.397 312.803 235.844 312.803 235.844C316.837 242 322.641 246.791 329.449 249.586C341.065 254.455 345.508 260.146 345.508 260.146Z" fill="white"/>
<path d="M347.064 258.899C346.844 247.328 338.264 235.844 338.264 235.844C338.264 235.844 338.983 225.578 335.067 221.383C334.388 220.659 333.746 219.9 333.146 219.11C332.544 218.348 331.943 217.526 331.342 216.69C328.57 212.862 326.018 208.844 325.006 208.697C323.701 208.507 324.097 215.737 325.446 219.081C325.589 219.454 325.776 219.808 326.003 220.137C326.34 220.629 326.519 221.212 326.516 221.809C326.619 224.346 324.698 227.88 326.678 231.136" stroke="#263238" stroke-linecap="round" stroke-linejoin="round"/>
<path d="M326.032 225.387C326.032 225.387 301.335 211.616 297.067 215.649C297.067 215.649 310.266 221.97 311.557 224.8" stroke="#263238" stroke-linecap="round" stroke-linejoin="round"/>
<path d="M316.133 231.356C316.133 231.356 301.1 226.648 297.067 229.112C293.034 231.576 312.848 235.844 312.848 235.844C312.848 235.844 319.961 246.492 325.006 245.89" stroke="#263238" stroke-linecap="round" stroke-linejoin="round"/>
<path d="M297.067 229.171C297.067 229.171 291.01 228.218 291.2 225.446C291.391 222.674 310.266 222.513 317.672 227.308" stroke="#263238" stroke-linecap="round" stroke-linejoin="round"/>
<path d="M326.003 220.137C326.34 220.629 326.519 221.212 326.517 221.809L310.252 228.452C309.892 228.6 309.488 228.599 309.129 228.449C308.771 228.299 308.486 228.013 308.338 227.653C308.19 227.293 308.191 226.889 308.341 226.531C308.491 226.172 308.778 225.887 309.137 225.739L325.446 219.081C325.589 219.454 325.776 219.808 326.003 220.137Z" fill="#263238"/>
<path d="M341.988 215.502L333.189 219.11C332.587 218.347 331.986 217.526 331.385 216.69L340.932 212.789C341.286 212.67 341.672 212.691 342.012 212.847C342.351 213.003 342.618 213.282 342.758 213.628C342.899 213.974 342.902 214.361 342.767 214.709C342.632 215.057 342.369 215.341 342.032 215.502H341.988Z" fill="#263238"/>
<path d="M340.639 244.027L296.128 249.322L282.092 261.509L315.736 326.451L364.471 323.151L367.918 307.077L340.639 244.027Z" fill="white"/>
<path d="M340.639 244.027L335.066 255.159L364.472 323.151L367.918 307.077L340.639 244.027Z" fill="#263238"/>
<path opacity="0.9" d="M340.639 244.027L335.066 255.159L364.472 323.151L367.918 307.077L340.639 244.027Z" fill="white"/>
<path d="M282.092 261.51L335.066 255.159L364.471 323.151L315.736 326.451L282.092 261.51Z" fill="#263238"/>
<path opacity="0.6" d="M282.092 261.51L335.066 255.159L364.471 323.151L315.736 326.451L282.092 261.51Z" fill="white"/>
<path d="M335.066 255.159L282.092 261.51L315.736 326.451L364.471 323.151L335.066 255.159Z" stroke="#263238" stroke-linecap="round" stroke-linejoin="round"/>
<path d="M335.066 255.159L340.639 244.027" stroke="#263238" stroke-linecap="round" stroke-linejoin="round"/>
<path d="M364.471 323.151L367.918 307.077L340.639 244.027L296.128 249.322L282.092 261.509" stroke="#263238" stroke-linecap="round" stroke-linejoin="round"/>
<path d="M316.249 299.964C316.249 299.964 314.328 290.446 309.063 288.231C303.798 286.016 287.665 287.659 287.064 290.93C286.463 294.2 292.593 297.793 292.593 297.793C292.593 297.793 291.698 308.602 297.58 312.591C303.461 316.58 313.712 314.747 313.712 314.747L319.051 316.111L321.984 300.668L316.249 299.964Z" fill="white"/>
<path d="M318.273 299.568L316.191 299.949C316.191 299.949 314.02 288.715 308.11 287.732C302.199 286.75 286.419 288.128 287.02 292.059C287.621 295.989 292.535 297.779 292.535 297.779C292.535 297.779 292.329 310.787 298.65 313.149C304.971 315.51 313.624 314.733 313.624 314.733C312.642 314.293 314.431 314.953 316.484 315.466" stroke="#263238" stroke-linecap="round" stroke-linejoin="round"/>
<path d="M448.933 543.669L449.71 561.87C449.71 561.87 436.833 569.745 430.849 567.736C424.866 565.727 405.536 555.505 405.536 555.505C405.536 555.505 404.656 545.048 416.447 545.239C428.239 545.429 444.489 551.765 444.489 551.765L448.933 543.669Z" fill="#99E9A0"/>
<path opacity="0.2" d="M448.933 543.669L449.71 561.87C449.71 561.87 436.833 569.745 430.849 567.736C424.866 565.727 405.536 555.505 405.536 555.505C405.536 555.505 404.656 545.048 416.447 545.239C428.239 545.429 444.489 551.765 444.489 551.765L448.933 543.669Z" fill="black"/>
<path d="M410.977 547.79C414.878 549.964 418.938 551.842 423.121 553.407C425.259 554.219 427.538 554.593 429.823 554.507L431.656 553.231L434.208 551.955L435.088 549.139L427.623 547.556C427.623 547.556 416.433 545.546 410.977 547.79Z" fill="white"/>
<path d="M406.637 551.251L405.537 555.505C405.537 555.505 420.349 566.005 428.797 567.237C437.245 568.469 449.711 561.884 449.711 561.884L449.593 559.142C449.593 559.142 441.996 563.468 434.927 563.776C427.858 564.084 406.637 551.251 406.637 551.251Z" fill="white"/>
<path d="M435.323 548.524C435.323 548.524 417.387 546.104 411.359 547.673C405.331 549.242 405.493 555.505 405.493 555.505C405.493 555.505 426.025 569.437 434.429 567.883C439.819 566.779 444.975 564.745 449.667 561.87V542.599" stroke="#263238" stroke-linecap="round" stroke-linejoin="round"/>
<path d="M406.636 551.251C406.636 551.251 427.843 564.025 434.971 563.762C442.099 563.498 449.71 558.086 449.71 558.086" stroke="#263238" stroke-linecap="round" stroke-linejoin="round"/>
<path d="M410.509 548.421C416.977 549.462 420.511 554.536 427.037 554.83C428.796 554.887 430.537 554.46 432.071 553.597C433.604 552.733 434.871 551.465 435.734 549.931" stroke="#263238" stroke-linecap="round" stroke-linejoin="round"/>
<path d="M374.561 552.791L374.004 578.677C374.004 578.677 359.719 582.226 351.8 579.249C343.88 576.272 327.586 555.299 327.586 555.299C327.586 555.299 332.455 545.81 342.839 549.785C353.222 553.759 367.36 560.623 367.36 560.623L374.561 552.791Z" fill="#99E9A0"/>
<path opacity="0.2" d="M374.561 552.791L374.004 578.677C374.004 578.677 359.719 582.226 351.8 579.249C343.88 576.272 327.586 555.299 327.586 555.299C327.586 555.299 332.455 545.81 342.839 549.785C353.222 553.759 367.36 560.623 367.36 560.623L374.561 552.791Z" fill="black"/>
<path d="M327.601 555.299L329.332 551.955C329.332 551.955 339.217 562.441 341.475 564.627C343.734 566.812 350.275 573.162 355.907 575.128C361.538 577.093 373.271 575.025 373.271 575.025L374.019 578.677C374.019 578.677 356.669 581.434 352.621 579.557C348.574 577.679 332.089 562.705 327.601 555.299Z" fill="white"/>
<path d="M336.181 548.524C336.181 548.524 342.78 553.935 344.98 555.857C347.18 557.778 350.949 560.755 354.601 560.667C357.297 560.379 359.886 559.454 362.154 557.968L353.179 553.95C353.179 553.95 340.668 547.262 336.181 548.524Z" fill="white"/>
<path d="M355.1 555.299C355.1 555.299 343.88 548.802 336.679 548.538C329.478 548.274 327.601 555.299 327.601 555.299C327.601 555.299 345.2 579.205 355.1 580.232C361.451 580.81 367.855 580.269 374.019 578.633L374.562 557.294" stroke="#263238" stroke-linecap="round" stroke-linejoin="round"/>
<path d="M329.508 551.735C329.508 551.735 347.503 572.898 354.909 574.893C362.316 576.888 374.122 574.893 374.122 574.893" stroke="#263238" stroke-linecap="round" stroke-linejoin="round"/>
<path d="M334.406 548.758C337.477 549.456 340.267 551.06 342.414 553.363C344.538 555.656 346.943 557.671 349.571 559.362C352.313 560.828 355.907 561.312 358.473 559.538" stroke="#263238" stroke-linecap="round" stroke-linejoin="round"/>
<path d="M372.142 154.594C372.142 154.594 361.876 163.687 360.922 169.876C359.969 176.065 363.269 183.31 362.99 186.009C362.712 188.707 357.447 194.119 358.356 195.762C359.555 197.444 360.932 198.993 362.462 200.382C362.462 200.382 361.832 213.669 369.795 218.435L373.491 219.301L390.137 210.237L392.748 213.17L416.683 208.77C414.897 205.103 413.869 201.112 413.661 197.038C413.324 190.247 416.683 177.165 416.683 177.165L409.951 163.174L372.142 154.594Z" fill="white"/>
<path d="M431.73 326.451L440.353 360.813C440.353 360.813 433.651 364.274 424.529 368.63C408.176 376.447 384.036 387.168 376.659 386.229C365.175 384.645 338.263 356.677 338.263 356.677L354.66 321.009C354.66 321.009 320.327 322.065 313.712 319.851C313.712 319.851 311.894 306.651 316.572 295.359L358.194 297.427L358.605 293.892C358.605 293.892 367.214 263.431 372.435 251.61C377.656 239.789 383.522 229.171 383.522 229.171L394.023 221.442L391.09 213.522C391.09 213.522 403.336 204.547 416.492 204.84C420.902 204.88 425.215 206.149 428.943 208.506L426.494 216.837C426.494 216.837 449.036 243.236 452.482 252.153C455.929 261.069 439.649 307.913 431.73 326.451Z" fill="#99E9A0"/>
<path opacity="0.2" d="M351.375 328.079L381.573 333.3C381.573 333.3 400.917 316.595 407.708 274.636C407.708 274.636 393.276 310.362 381.734 319.675L354.661 320.834L351.375 328.079Z" fill="black"/>
<path opacity="0.2" d="M431.73 326.451L440.354 360.813C440.354 360.813 433.49 363.468 424.368 367.823C422.428 357.865 419.911 348.027 416.83 338.359C416.498 337.053 415.926 335.819 415.143 334.722C414.256 333.301 413.112 332.058 411.77 331.056C407.986 328.929 402.794 324.764 400.55 321.039C407.253 322.403 415.216 325.6 422.036 325.248C422.894 325.293 423.741 325.033 424.427 324.515C424.881 323.991 425.181 323.351 425.292 322.667C428.147 311.667 430.997 300.678 433.842 289.698C435 285.982 435.622 282.12 435.69 278.229C435.543 273.33 433.666 268.666 431.804 264.12C427.091 252.622 422.334 241.143 417.534 229.684C416.983 227.974 415.967 226.45 414.6 225.284C413.346 224.517 411.93 224.055 410.465 223.935C405.449 223.172 399.084 221.603 394.009 221.413C399.758 216.631 408.177 214.622 415.583 213.654C416.342 210.787 416.619 207.813 416.404 204.855C420.815 204.894 425.127 206.164 428.856 208.521L426.407 216.851C426.407 216.851 448.948 243.25 452.395 252.167C455.841 261.084 439.65 307.913 431.73 326.451Z" fill="black"/>
<path d="M371.233 180.128C371.423 181.477 371.071 182.636 370.47 182.709C369.869 182.782 369.223 181.77 369.003 180.421C368.783 179.072 369.179 177.913 369.781 177.84C370.382 177.766 371.071 178.778 371.233 180.128Z" fill="#263238"/>
<path d="M398.217 193.386L406.445 191.127C406.445 191.127 408.513 182.328 407.589 177.092C406.665 171.856 399.64 171.416 397.528 171.577C395.416 171.739 395.797 179.585 395.797 179.585" stroke="#263238" stroke-linecap="round" stroke-linejoin="round"/>
<path d="M368.754 157.014L360.922 169.876C360.309 170.876 360.099 172.071 360.335 173.22L362.99 186.068C363.12 186.713 363.112 187.379 362.965 188.022C362.818 188.664 362.537 189.267 362.139 189.793C360.673 191.699 358.502 194.735 358.355 195.82C358.209 196.906 359.675 197.947 360.922 198.754C361.458 199.101 361.916 199.558 362.264 200.093C362.613 200.629 362.845 201.232 362.946 201.863C363.65 206.043 363.958 210.281 366.906 214.901C370.763 220.958 375.603 219.066 375.603 219.066L390.269 210.266C391.427 209.518 394.859 197.302 394.859 197.302" stroke="#263238" stroke-linecap="round" stroke-linejoin="round"/>
<path d="M365.601 172.912C365.601 172.912 370.279 167.266 374.767 173.279" stroke="#263238" stroke-linecap="round" stroke-linejoin="round"/>
<path d="M371.328 206.372C371.328 206.372 369.515 212.24 364.517 208.368" stroke="#263238" stroke-linecap="round" stroke-linejoin="round"/>
<path d="M415.186 204.84C415.186 204.84 412.062 194.706 413.88 187.945" stroke="#263238" stroke-linecap="round" stroke-linejoin="round"/>
<path d="M343.367 361.708C343.367 361.708 342.869 406.219 346.564 462.185C350.26 518.15 355.54 558.804 355.54 558.804C355.54 558.804 367.684 568.836 377.187 558.804L393.554 413.611L430.513 548.773C430.513 548.773 437.846 555.241 444.152 552.073C448.028 550.059 451.188 546.899 453.201 543.024C453.201 543.024 436.467 396.906 436.467 362.632C436.467 362.632 383.508 387.315 376.644 386.259C369.781 385.203 343.367 361.708 343.367 361.708Z" fill="#263238"/>
<path d="M393.554 413.611V404.034L406.826 397.522" stroke="white" stroke-linecap="round" stroke-linejoin="round"/>
<path d="M406.827 323.151C406.827 323.151 414.497 328.65 429.53 329.75" stroke="#263238" stroke-linecap="round" stroke-linejoin="round"/>
<path d="M406.827 329.75C413.175 331.51 419.882 331.51 426.23 329.75" stroke="#263238" stroke-linecap="round" stroke-linejoin="round"/>
<path d="M395.666 176.696C394.654 175.904 396.751 184.704 391.002 185.114C390.405 185.253 389.785 185.253 389.188 185.116C388.59 184.979 388.032 184.707 387.556 184.322C386.761 183.317 386.195 182.151 385.898 180.905C384.901 177.679 383.889 174.452 382.892 171.226C382.232 169.143 381.425 166.826 379.68 165.638C378.355 164.917 376.932 164.393 375.456 164.083C372.156 163.042 369.033 160.387 368.798 156.941C368.798 156.941 355.862 158.085 353.882 153.084C350.861 145.457 355.701 142.113 362.33 142.172C368.959 142.231 375.06 145.369 382.203 142.949C389.345 140.53 404.715 134.516 407.941 141.893C407.941 141.893 413.515 139.43 416.844 148.684C420.173 157.938 427.829 176.549 420.862 182.284C413.896 188.018 415.524 191.538 412.224 191.083C408.924 190.629 407.941 185.642 407.941 185.642C407.941 185.642 409.701 173.909 402.251 172.061C394.801 170.214 395.666 176.696 395.666 176.696Z" fill="#263238"/>
<path d="M403.718 135.044C405.132 135.732 406.25 136.908 406.865 138.356C407.479 139.804 407.549 141.425 407.062 142.92" stroke="#263238" stroke-linecap="round" stroke-linejoin="round"/>
<path opacity="0.6" d="M394.023 221.09L391.618 213.361L399.479 209.152L401.473 217.453L394.023 221.09Z" fill="white"/>
<path d="M407.941 141.893C409.622 140.799 411.639 140.345 413.626 140.615C415.613 140.884 417.437 141.858 418.765 143.36" stroke="#263238" stroke-linecap="round" stroke-linejoin="round"/>
<path d="M393.774 220.723L391.017 213.39C391.017 213.39 402.749 206.057 414.629 204.855C419.777 204.312 423.942 206.761 428.899 208.389L426.45 216.719" stroke="#263238" stroke-linecap="round" stroke-linejoin="round"/>
<path d="M354.66 320.936L338.263 356.604C346.051 366.445 372.992 384.733 376.659 386.156C380.325 387.579 440.353 360.813 440.353 360.813L431.744 326.451C431.744 326.451 457.161 265.176 453.201 253.971C449.241 242.766 427.213 215.986 422.71 213.522C418.208 211.058 406.812 215.165 406.812 215.165C406.812 215.165 390.753 221.486 385.077 227.162C379.401 232.837 366.011 265.088 363.313 279.065" stroke="#263238" stroke-linecap="round" stroke-linejoin="round"/>
<path d="M358.194 297.353L316.572 295.285C310.456 309.952 313.727 319.778 313.727 319.778C325.973 322.711 381.733 319.778 381.733 319.778C394.61 306.696 409.951 269.517 409.951 269.517C410.782 261.388 409.104 253.198 405.14 246.052" stroke="#263238" stroke-linecap="round" stroke-linejoin="round"/>
<path opacity="0.6" d="M394.023 234.891L391.09 244.028C391.09 244.028 357.652 292.25 358.488 301.665C358.488 301.665 357.901 297.06 363.87 277.54C368.076 264.691 374.075 252.5 381.689 241.329L394.023 234.891Z" fill="white"/>
<path d="M361.406 309.145C358.848 305.004 357.767 300.119 358.34 295.285C359.367 287.307 370.909 257.667 381.733 241.329L395.768 233.996" stroke="#263238" stroke-linecap="round" stroke-linejoin="round"/>
<path d="M392.058 212.745L390.196 210.237" stroke="#263238" stroke-linecap="round" stroke-linejoin="round"/>
<circle cx="243.582" cy="112.411" r="38.5105" fill="white"/>
<path d="M235.843 107.129C236.429 107.129 236.928 107.334 237.338 107.744C237.748 108.155 237.953 108.653 237.953 109.239V112.052C237.953 112.639 237.748 113.137 237.338 113.547C236.928 113.957 236.429 114.163 235.843 114.163C235.257 114.163 234.759 113.957 234.349 113.547C233.938 113.137 233.733 112.639 233.733 112.052V109.239C233.733 108.653 233.938 108.155 234.349 107.744C234.759 107.334 235.257 107.129 235.843 107.129ZM251.317 107.129C251.903 107.129 252.401 107.334 252.812 107.744C253.222 108.155 253.427 108.653 253.427 109.239V112.052C253.427 112.639 253.222 113.137 252.812 113.547C252.401 113.957 251.903 114.163 251.317 114.163C250.731 114.163 250.233 113.957 249.822 113.547C249.412 113.137 249.207 112.639 249.207 112.052V109.239C249.207 108.653 249.412 108.155 249.822 107.744C250.233 107.334 250.731 107.129 251.317 107.129ZM243.58 116.976C243.184 116.976 242.818 116.903 242.481 116.756C242.144 116.61 241.847 116.408 241.591 116.152C241.335 115.895 241.133 115.599 240.987 115.262C240.84 114.925 240.767 114.558 240.767 114.163H246.394C246.394 114.558 246.32 114.925 246.174 115.262C246.027 115.599 245.826 115.895 245.569 116.152C245.313 116.408 245.016 116.61 244.679 116.756C244.342 116.903 243.976 116.976 243.58 116.976ZM243.58 121.196C244.137 121.196 244.632 121.123 245.064 120.976C245.496 120.83 245.881 120.669 246.218 120.493C246.555 120.317 246.851 120.156 247.108 120.009C247.364 119.863 247.595 119.789 247.8 119.789C248.196 119.789 248.529 119.929 248.8 120.207C249.071 120.485 249.207 120.822 249.207 121.218C249.207 121.687 248.984 122.097 248.537 122.449C248.09 122.801 247.558 123.09 246.943 123.317C246.328 123.544 245.705 123.716 245.075 123.834C244.445 123.951 243.946 124.01 243.58 124.01C243.214 124.01 242.716 123.951 242.086 123.834C241.455 123.716 240.833 123.544 240.217 123.317C239.602 123.09 239.071 122.801 238.624 122.449C238.177 122.097 237.953 121.687 237.953 121.218C237.953 120.822 238.089 120.485 238.36 120.207C238.631 119.929 238.957 119.789 239.338 119.789C239.558 119.789 239.796 119.863 240.052 120.009C240.309 120.156 240.606 120.317 240.943 120.493C241.28 120.669 241.664 120.83 242.096 120.976C242.529 121.123 243.023 121.196 243.58 121.196ZM243.58 86.0283C245.646 86.0283 247.639 86.2958 249.559 86.8306C251.478 87.3654 253.273 88.1201 254.944 89.0945C256.614 90.069 258.134 91.2412 259.505 92.6113C260.875 93.9814 262.047 95.5017 263.021 97.1721C263.996 98.8426 264.75 100.638 265.285 102.557C265.82 104.477 266.088 106.47 266.088 108.536V131.043H259.054C257.867 131.043 256.731 130.805 255.647 130.329C254.563 129.853 253.618 129.175 252.812 128.296C251.434 129.189 249.962 129.871 248.394 130.34C246.826 130.809 245.221 131.043 243.58 131.043C241.939 131.043 240.334 130.809 238.767 130.34C237.199 129.871 235.726 129.189 234.349 128.296C233.543 129.175 232.598 129.853 231.513 130.329C230.429 130.805 229.293 131.043 228.106 131.043H221.073V108.536C221.073 106.47 221.34 104.477 221.875 102.557C222.41 100.638 223.165 98.8426 224.139 97.1721C225.113 95.5017 226.286 93.9814 227.656 92.6113C229.026 91.2412 230.546 90.069 232.217 89.0945C233.887 88.1201 235.678 87.3654 237.591 86.8306C239.503 86.2958 241.499 86.0283 243.58 86.0283ZM229.513 114.163C229.513 115.452 229.682 116.698 230.019 117.899C230.356 119.101 230.828 120.222 231.436 121.262C232.044 122.302 232.777 123.251 233.634 124.108C234.491 124.966 235.44 125.698 236.481 126.306C237.521 126.915 238.642 127.387 239.844 127.724C241.045 128.061 242.291 128.23 243.58 128.23C244.87 128.23 246.115 128.061 247.317 127.724C248.518 127.387 249.639 126.915 250.68 126.306C251.72 125.698 252.669 124.966 253.526 124.108C254.383 123.251 255.116 122.302 255.724 121.262C256.332 120.222 256.805 119.101 257.142 117.899C257.479 116.698 257.647 115.452 257.647 114.163V105.656C256.065 105.495 254.548 105.085 253.097 104.425C251.647 103.766 250.35 102.872 249.207 101.744V104.316H247.8C246.13 104.316 244.555 103.946 243.075 103.206C241.595 102.466 240.356 101.429 239.36 100.095C238.789 100.901 238.136 101.627 237.404 102.271C236.671 102.916 235.884 103.473 235.041 103.942C234.198 104.411 233.312 104.792 232.381 105.085C231.451 105.378 230.495 105.568 229.513 105.656V114.163ZM263.274 108.536C263.274 106.733 263.04 104.993 262.571 103.316C262.102 101.638 261.439 100.07 260.582 98.6118C259.724 97.1538 258.695 95.824 257.493 94.6225C256.292 93.4209 254.962 92.3915 253.504 91.5343C252.046 90.6771 250.478 90.014 248.8 89.5451C247.123 89.0762 245.382 88.8418 243.58 88.8418C241.778 88.8418 240.038 89.0762 238.36 89.5451C236.682 90.014 235.114 90.6771 233.656 91.5343C232.198 92.3915 230.868 93.4209 229.667 94.6225C228.465 95.824 227.436 97.1538 226.579 98.6118C225.721 100.07 225.058 101.638 224.59 103.316C224.121 104.993 223.886 106.733 223.886 108.536V128.23H228.106C228.868 128.23 229.597 128.083 230.293 127.79C230.989 127.497 231.601 127.079 232.129 126.537C231.264 125.746 230.495 124.874 229.821 123.922C229.147 122.969 228.579 121.965 228.117 120.91C227.656 119.855 227.304 118.76 227.062 117.624C226.82 116.489 226.7 115.335 226.7 114.163V102.909H228.106C229.308 102.909 230.436 102.748 231.491 102.425C232.546 102.103 233.513 101.638 234.393 101.03C235.272 100.421 236.056 99.6852 236.744 98.8206C237.433 97.9561 238.005 96.9743 238.459 95.8753H240.305C240.833 97.3113 241.591 98.5166 242.58 99.491C243.569 100.465 244.84 101.092 246.394 101.37V95.8753H248.701C249.156 96.9743 249.727 97.9561 250.416 98.8206C251.105 99.6852 251.889 100.421 252.768 101.03C253.647 101.638 254.614 102.103 255.669 102.425C256.724 102.748 257.852 102.909 259.054 102.909H260.461V114.163C260.461 115.335 260.34 116.489 260.098 117.624C259.856 118.76 259.505 119.855 259.043 120.91C258.581 121.965 258.014 122.969 257.34 123.922C256.665 124.874 255.896 125.746 255.032 126.537C255.559 127.079 256.171 127.497 256.867 127.79C257.563 128.083 258.292 128.23 259.054 128.23H263.274V108.536Z" fill="#23353C"/>
<path d="M275.709 79.3687C275.581 78.9838 275.324 78.663 275.068 78.4064C274.811 78.1499 274.491 77.8933 274.106 77.765C273.721 77.6367 273.336 77.5084 272.887 77.5084C272.438 77.5084 272.053 77.5725 271.668 77.765C271.283 77.8933 270.962 78.1499 270.706 78.4064C270.449 78.663 270.193 78.9838 270.064 79.3687C269.936 79.7536 269.808 80.1385 269.808 80.5875C269.808 81.0366 269.872 81.4215 270.064 81.8064C270.257 82.1913 270.449 82.512 270.706 82.7686C270.962 83.0252 271.283 83.2818 271.668 83.4101C272.053 83.5384 272.438 83.6667 272.887 83.6667C273.336 83.6667 273.721 83.6025 274.106 83.4101C274.491 83.2818 274.811 83.0252 275.068 82.7686C275.324 82.512 275.581 82.1913 275.709 81.8064C275.838 81.4215 275.966 81.0366 275.966 80.5875C275.966 80.1385 275.902 79.7536 275.709 79.3687ZM274.426 82.063C273.977 82.512 273.464 82.7044 272.887 82.7044C272.309 82.7044 271.796 82.512 271.347 82.063C270.898 81.6139 270.706 81.1007 270.706 80.5234C270.706 79.946 270.898 79.4328 271.347 78.9838C271.796 78.5347 272.309 78.3423 272.887 78.3423C273.464 78.3423 273.977 78.5347 274.426 78.9838C274.875 79.4328 275.068 79.946 275.068 80.5234C275.068 81.1007 274.875 81.6139 274.426 82.063Z" fill="#D95736"/>
<path d="M269.936 85.2704C269.808 85.0138 269.68 84.8214 269.487 84.6289C269.295 84.4365 269.102 84.3082 268.846 84.1799C268.589 84.0516 268.333 84.0516 268.076 84.0516C267.819 84.0516 267.499 84.1157 267.306 84.1799C267.05 84.3082 266.857 84.4365 266.665 84.6289C266.472 84.8214 266.344 85.0138 266.216 85.2704C266.087 85.527 266.087 85.7836 266.087 86.0402C266.087 86.2968 266.152 86.6176 266.216 86.81C266.344 87.0666 266.472 87.2591 266.665 87.4515C266.857 87.644 267.05 87.7723 267.306 87.9006C267.563 88.0289 267.819 88.0289 268.076 88.0289C268.333 88.0289 268.653 87.9647 268.846 87.9006C269.102 87.7723 269.295 87.644 269.487 87.4515C269.68 87.2591 269.808 87.0666 269.936 86.81C270.065 86.5534 270.065 86.2968 270.065 86.0402C270.065 85.7836 270.001 85.527 269.936 85.2704ZM269.359 86.6176C269.295 86.81 269.167 86.9383 269.038 87.0666C268.91 87.1949 268.782 87.3232 268.589 87.3874C268.397 87.4515 268.204 87.5157 268.012 87.5157C267.819 87.5157 267.627 87.4515 267.435 87.3874C267.242 87.3232 267.114 87.1949 266.985 87.0666C266.857 86.9383 266.729 86.81 266.665 86.6176C266.601 86.4251 266.536 86.2327 266.536 86.0402C266.536 85.8478 266.601 85.6553 266.665 85.4629C266.729 85.2704 266.857 85.1421 266.985 85.0138C267.114 84.8855 267.242 84.7572 267.435 84.6931C267.627 84.6289 267.819 84.5648 268.012 84.5648C268.204 84.5648 268.397 84.6289 268.589 84.6931C268.782 84.7572 268.91 84.8855 269.038 85.0138C269.167 85.1421 269.295 85.2704 269.359 85.4629C269.423 85.6553 269.487 85.8478 269.487 86.0402C269.487 86.2327 269.423 86.4251 269.359 86.6176Z" fill="#D95736"/>
<path d="M296.494 63.6521C295.981 62.5615 295.339 61.5993 294.505 60.7654C293.671 59.9314 292.709 59.2899 291.618 58.7767C290.528 58.2635 289.309 58.0711 288.026 58.0711H287.32C286.615 57.4296 285.781 56.9164 284.819 56.5315C283.921 56.2108 282.958 56.0183 281.932 56.0183C281.226 56.0183 280.521 56.0825 279.815 56.2749C279.109 56.4674 278.468 56.724 277.89 57.1089C277.313 57.4296 276.736 57.8786 276.223 58.3918C275.709 58.905 275.26 59.4824 274.94 60.0597H273.849C272.887 60.0597 271.925 60.2522 271.091 60.6371C270.257 61.022 269.487 61.5352 268.845 62.1767C268.204 62.8181 267.691 63.5879 267.306 64.4219C266.921 65.2558 266.729 66.2181 266.729 67.1803C266.729 68.1425 266.921 69.1048 267.306 69.9387C267.691 70.7727 268.204 71.5425 268.845 72.1839C269.487 72.8254 270.257 73.3386 271.091 73.7235C271.925 74.1084 272.887 74.3009 273.849 74.3009H274.362C274.811 74.9424 275.26 75.5197 275.838 76.0329C276.415 76.5461 276.992 76.931 277.634 77.3159C278.275 77.7008 278.981 77.9574 279.687 78.1498C280.392 78.3423 281.162 78.4064 281.932 78.4064C282.958 78.4064 283.985 78.214 285.011 77.8932C286.037 77.5725 286.871 77.0593 287.705 76.3536H288.09C289.373 76.3536 290.528 76.0971 291.618 75.648C292.709 75.199 293.671 74.4933 294.505 73.6594C295.339 72.8254 295.981 71.8632 296.494 70.7727C297.007 69.6821 297.199 68.4633 297.199 67.2444C297.199 66.0256 296.943 64.7426 296.494 63.6521ZM295.275 70.1312C294.89 71.0293 294.313 71.799 293.671 72.5047C292.966 73.2103 292.196 73.7235 291.298 74.1084C290.4 74.4933 289.437 74.6858 288.411 74.6858H287.256C286.551 75.3914 285.717 75.9046 284.819 76.2895C283.921 76.6744 283.022 76.8668 281.996 76.8668C281.226 76.8668 280.521 76.7385 279.879 76.5461C279.238 76.3536 278.596 76.0329 278.019 75.7122C277.441 75.3273 276.928 74.8782 276.479 74.365C276.03 73.8518 275.581 73.2745 275.26 72.633H273.464C272.759 72.633 272.053 72.5047 271.411 72.1839C270.77 71.9273 270.193 71.5425 269.679 71.0293C269.166 70.5161 268.781 70.0029 268.525 69.2972C268.268 68.6557 268.076 67.9501 268.076 67.2444C268.076 66.5388 268.204 65.8332 268.525 65.1917C268.781 64.5502 269.166 63.9728 269.679 63.5238C270.193 63.0106 270.706 62.6257 271.411 62.3691C272.053 62.1125 272.759 61.9201 273.464 61.9201H275.966C276.287 61.2786 276.608 60.7012 276.992 60.188C277.377 59.6748 277.826 59.2258 278.34 58.8409C278.853 58.456 279.43 58.1994 280.007 57.9428C280.649 57.7503 281.29 57.6221 282.06 57.6221C283.022 57.6221 283.921 57.8145 284.69 58.1994C285.46 58.5843 286.166 59.0975 286.871 59.8031H288.475C289.502 59.8031 290.464 59.9956 291.362 60.3805C292.26 60.7654 293.03 61.3427 293.735 61.9842C294.441 62.6898 294.954 63.4596 295.339 64.3577C295.724 65.2558 295.916 66.2181 295.916 67.2444C295.852 68.2708 295.66 69.2331 295.275 70.1312Z" fill="#D95736"/>
<path d="M201.066 62.6525C200.554 62.6525 200.105 62.7165 199.657 62.9086C199.849 63.2927 199.977 63.6768 199.977 64.125C199.977 64.4451 199.913 64.7652 199.785 65.0853C199.657 65.4054 199.465 65.6615 199.209 65.9176C198.953 66.1737 198.697 66.3657 198.377 66.4938C198.057 66.6218 197.737 66.6858 197.417 66.6858C196.968 66.6858 196.584 66.5578 196.2 66.3657C195.88 67.3901 195.944 68.4784 196.328 69.5028C196.712 70.5271 197.353 71.3594 198.249 71.9996C199.145 72.5758 200.17 72.8959 201.258 72.8959C202.346 72.8959 203.371 72.5117 204.203 71.8715C205.035 71.2313 205.675 70.335 205.995 69.3107C206.316 68.2864 206.316 67.198 205.931 66.1737C205.611 65.1493 204.971 64.3171 204.075 63.6768C203.178 62.9726 202.154 62.6525 201.066 62.6525ZM216.879 66.8779C213.87 60.988 207.916 57.0187 201.066 57.0187C194.216 57.0187 188.262 61.052 185.253 66.8779C185.125 67.134 185.061 67.4541 185.061 67.7102C185.061 67.9663 185.125 68.2864 185.253 68.5424C188.262 74.4324 194.216 78.4017 201.066 78.4017C207.916 78.4017 213.87 74.4324 216.879 68.5424C217.007 68.2864 217.071 68.0303 217.071 67.7102C217.071 67.4541 217.007 67.134 216.879 66.8779ZM201.066 76.6731C194.92 76.6731 189.35 73.28 186.277 67.7102C189.35 62.2044 194.92 58.7472 201.066 58.7472C207.212 58.7472 212.782 62.1403 215.855 67.7102C212.846 73.216 207.212 76.6731 201.066 76.6731Z" fill="#D95736"/>
<path d="M214.188 148.003C212.46 146.275 210.219 145.251 207.851 145.059C205.803 144.867 203.754 149.027 201.962 151.076C201.514 151.588 200.682 151.588 200.234 151.076C198.378 148.963 196.201 144.803 194.025 145.059C191.529 145.315 189.161 146.531 187.496 148.515C185.832 150.436 185 152.932 185.064 155.428C185.192 157.989 186.216 160.357 188.008 162.149L197.93 172.135C198.762 172.967 199.914 173.415 201.066 173.415C202.218 173.415 203.37 172.967 204.203 172.135L214.124 162.149C215.98 160.293 217.068 157.733 217.068 155.044C217.132 152.42 216.108 149.924 214.188 148.003ZM213.548 160.037L202.154 171.43C202.026 171.558 201.898 171.686 201.706 171.75C201.514 171.814 201.322 171.878 201.194 171.878C201.002 171.878 200.81 171.814 200.682 171.75C200.49 171.686 200.362 171.558 200.234 171.43L188.776 159.973C187.368 158.501 186.536 156.516 186.536 154.468C186.536 152.42 187.368 150.436 188.776 148.963C190.249 147.491 192.233 146.723 194.281 146.723C196.329 146.723 198.314 151.396 199.786 152.804C199.978 152.996 200.17 153.124 200.362 153.188C200.554 153.252 200.81 153.316 201.066 153.316C201.322 153.316 201.578 153.252 201.77 153.188C201.962 153.124 202.218 152.932 202.346 152.804C203.818 151.332 205.803 146.723 207.851 146.723C209.899 146.723 211.884 147.555 213.356 148.963C214.828 150.436 215.66 152.356 215.66 154.468C215.724 156.516 214.956 158.501 213.548 160.037Z" fill="#D95736"/>
<path d="M282.847 157.341L291.063 149.57C291.418 149.235 292.009 149.235 292.363 149.57C292.718 149.905 292.718 150.465 292.363 150.8L282.847 159.801C282.492 160.136 281.901 160.136 281.547 159.801L278.059 156.502C277.705 156.167 277.705 155.608 278.059 155.272C278.414 154.937 279.005 154.937 279.36 155.272L281.547 157.341C281.901 157.676 282.492 157.676 282.847 157.341ZM291.95 153.931C292.304 154.043 292.245 154.21 292.304 154.602C292.363 154.993 292.363 155.328 292.363 155.664C292.363 157.006 292.127 158.236 291.595 159.354C291.063 160.472 290.295 161.478 289.349 162.429C288.521 163.211 287.93 164.05 287.517 164.944C287.103 165.839 286.866 166.845 286.866 167.907V171.429C286.866 171.821 286.807 172.156 286.63 172.436C286.453 172.715 286.275 173.051 286.039 173.274C285.802 173.498 285.507 173.722 285.152 173.833C284.798 173.945 284.443 174.057 284.088 174.057H280.364C279.951 174.057 279.596 174.001 279.301 173.833C279.005 173.666 278.65 173.498 278.414 173.274C278.177 173.051 277.941 172.771 277.823 172.436C277.705 172.1 277.586 171.765 277.586 171.429V167.907C277.586 166.845 277.35 165.839 276.936 164.944C276.522 164.05 275.872 163.211 275.104 162.429C274.099 161.478 273.331 160.472 272.858 159.354C272.326 158.236 272.089 157.006 272.089 155.664C272.089 154.769 272.208 153.931 272.444 153.092C272.68 152.254 273.035 151.527 273.449 150.8C273.863 150.073 274.395 149.458 275.045 148.843C275.695 148.228 276.345 147.781 277.114 147.334C277.882 146.887 278.65 146.607 279.537 146.383C280.424 146.16 281.31 146.048 282.256 146.048C283.556 146.048 284.857 146.272 286.039 146.719C286.925 147.054 287.753 147.501 288.521 148.116C288.935 148.452 288.994 149.067 288.581 149.402C288.226 149.738 287.753 149.738 287.339 149.458C286.748 149.011 286.039 148.62 285.33 148.34C284.325 147.949 283.32 147.781 282.256 147.781C281.133 147.781 280.01 148.005 279.005 148.396C278 148.787 277.114 149.346 276.345 150.073C275.577 150.8 274.986 151.639 274.572 152.589C274.158 153.539 273.922 154.546 273.922 155.664C273.922 156.782 274.158 157.732 274.572 158.627C274.986 159.521 275.636 160.36 276.404 161.143C277.291 161.981 277.941 162.876 278.473 163.826C278.887 164.609 279.123 165.392 279.301 166.286C279.36 166.677 279.773 167.013 280.187 167.013H284.325C284.798 167.013 285.152 166.733 285.211 166.286C285.389 165.392 285.625 164.553 286.039 163.826C286.512 162.876 287.221 161.981 288.108 161.143C288.935 160.36 289.526 159.521 289.94 158.627C290.354 157.732 290.59 156.726 290.59 155.664C290.59 155.552 290.59 155.44 290.59 155.384C290.59 155.328 290.531 155.161 290.649 155.049L291.595 154.154C291.477 154.154 291.713 153.875 291.95 153.931ZM284.029 172.268C284.266 172.268 284.502 172.156 284.679 171.989C284.857 171.821 284.975 171.597 284.975 171.374V169.64C284.975 169.137 284.561 168.746 284.029 168.746H280.305C279.773 168.746 279.36 169.137 279.36 169.64V171.374C279.36 171.597 279.478 171.821 279.655 171.989C279.833 172.156 280.069 172.268 280.305 172.268H284.029Z" fill="#D95736"/>
</svg>
