<svg width="252" height="42" viewBox="0 0 252 42" fill="none" xmlns="http://www.w3.org/2000/svg">
<path d="M122.992 36.8458L121.438 36.8419C121.004 36.841 120.685 37.256 120.79 37.6855L121.032 38.6732C121.065 38.8057 121.027 38.946 120.931 39.0417L119.63 40.2471C119.486 40.3806 119.512 40.6185 119.681 40.7163L120.697 41.3054C120.803 41.3576 120.93 41.3586 121.035 41.3054C121.635 41.0016 122.166 40.6176 122.627 40.1532C122.899 39.8843 123.133 39.5825 123.329 39.2468C123.525 38.9121 123.643 38.559 123.683 38.1885C123.709 37.9583 123.698 37.698 123.65 37.4088C123.596 37.0838 123.316 36.8468 122.992 36.8458Z" fill="#41BA4B"/>
<path d="M106.619 16.8339C104.366 16.8339 102.513 17.6242 101.062 19.2039C100.312 19.9943 99.7236 20.9626 99.2979 22.1089C98.8723 23.2553 98.6594 24.568 98.6594 26.0462C98.6594 28.9512 99.41 31.2574 100.912 32.9648C102.389 34.6983 104.291 35.5641 106.619 35.5641C108.846 35.5641 110.698 34.7486 112.175 33.1177C113.777 31.4102 114.578 29.0789 114.578 26.1226C114.578 23.294 113.828 21.039 112.325 19.3568C110.824 17.6755 108.922 16.8339 106.619 16.8339ZM109.772 31.1491C108.947 32.1812 107.883 32.6968 106.581 32.6968C105.279 32.6968 104.228 32.1687 103.427 31.1104C102.626 30.053 102.226 28.4984 102.226 26.4466C102.226 24.3958 102.589 22.7706 103.315 21.573C104.09 20.3251 105.193 19.7002 106.619 19.7002C107.97 19.7002 109.041 20.2922 109.828 21.4773C110.617 22.6623 111.011 24.3126 111.011 26.4273C111.011 28.5439 110.599 30.1169 109.772 31.1491Z" fill="#41BA4B"/>
<path d="M125.864 26.1593C125.276 25.7521 124.431 25.3187 123.33 24.8601C122.229 24.4016 121.365 23.9614 120.74 23.5416C120.114 23.1208 119.801 22.58 119.801 21.9174C119.801 21.2547 120.039 20.7517 120.515 20.4073C120.99 20.0629 121.331 19.9159 121.897 19.8056C122.338 19.7195 123.081 19.8917 123.464 20.1616C123.662 20.3019 123.967 20.5872 124.122 20.7759C124.462 21.1899 124.546 21.1 125.182 20.9916C125.862 20.8765 126.56 20.7759 127.301 20.6675C127.964 20.5708 127.907 20.0571 127.677 19.705C127.198 18.9737 126.912 18.6786 126.184 18.1708C125.683 17.8138 125.095 17.5207 124.42 17.2914C123.744 17.0621 123.005 16.947 122.205 16.947C120.603 16.947 119.226 17.3804 118.076 18.2462C116.849 19.1894 116.236 20.4383 116.236 21.9919C116.236 23.5726 116.8 24.8466 117.925 25.814C118.476 26.2725 119.158 26.7059 119.971 27.1132C120.784 27.5214 121.76 27.9731 122.9 28.4704C124.038 28.9676 124.608 29.6873 124.608 30.6296C124.608 31.3686 124.32 31.9287 123.744 32.3118C123.493 32.4647 123.219 32.5798 122.919 32.6562C122.618 32.7326 122.224 32.8787 121.736 32.8787C121.324 32.8787 120.594 32.8313 119.877 32.4985C119.249 32.2073 119.057 31.7952 118.825 31.4528C118.488 30.9536 118.458 30.8027 117.871 30.913C117.29 31.0223 115.585 31.2874 115.585 31.2874C115.467 31.3106 115.353 31.3599 115.266 31.4431C115.056 31.6434 114.994 32.0806 115.141 32.3563C115.579 33.1776 116.492 34.1053 117.456 34.7061C118.782 35.4964 120.495 35.6589 121.897 35.6589C123.574 35.6589 124.97 35.2681 126.146 34.4526C126.747 34.0192 127.235 33.4717 127.61 32.809C127.986 32.1464 128.174 31.299 128.174 30.2668C128.174 29.2346 127.86 28.2982 127.235 27.4575C126.909 27 126.452 26.5666 125.864 26.1593Z" fill="#41BA4B"/>
<path d="M156.74 33.372L155.262 32.9841C155.011 32.9183 154.835 32.6881 154.835 32.424V10.245C154.835 10.097 154.78 9.95484 154.68 9.84746L153.838 8.93909C153.708 8.79883 153.518 8.73401 153.331 8.76593L149.482 9.42181C149.172 9.47502 148.964 9.77297 149.015 10.0874L149.213 11.2917C149.262 11.5858 149.521 11.7938 149.814 11.7735L150.838 11.7009C151.167 11.6777 151.446 11.9428 151.446 12.2785V32.483C151.446 32.7539 151.261 32.989 151 33.048L149.628 33.3575C149.321 33.4262 149.129 33.7358 149.197 34.0482L149.426 35.094C149.484 35.3581 149.715 35.5467 149.981 35.5467H156.6C156.913 35.5467 157.168 35.2874 157.168 34.9682V33.9312C157.167 33.6681 156.992 33.4378 156.74 33.372Z" fill="#41BA4B"/>
<path d="M145.848 32.8797C145.603 32.8565 145.467 32.6349 145.433 32.2731C145.433 31.9597 145.434 31.5979 145.434 31.5979V30.5406V18.3391C145.395 18.1882 145.342 18.0411 145.245 17.926L144.537 17.0825C144.48 17.0148 144.411 16.9616 144.334 16.9238C144.217 16.8668 144.083 16.8464 143.951 16.8716L140.968 17.4433L140.31 17.5691C139.979 17.6329 139.757 17.9521 139.809 18.2907L139.974 19.3655C139.978 19.3993 139.988 19.4322 139.997 19.4641C139.999 19.4709 140.002 19.4787 140.004 19.4854C140.015 19.5145 140.027 19.5415 140.041 19.5686C140.046 19.5773 140.052 19.586 140.056 19.5947C140.068 19.6141 140.08 19.6315 140.093 19.6489C140.105 19.6634 140.116 19.6779 140.129 19.6915C140.14 19.7041 140.151 19.7157 140.163 19.7273C140.175 19.7389 140.187 19.7495 140.199 19.7602C140.216 19.7737 140.233 19.7863 140.251 19.7979C140.252 19.7989 140.253 19.7989 140.253 19.7998C140.267 19.8095 140.282 19.8172 140.298 19.825C140.301 19.8269 140.305 19.8279 140.309 19.8298C140.342 19.8463 140.377 19.8617 140.413 19.8724C140.418 19.8743 140.424 19.8753 140.43 19.8772C140.48 19.8908 140.531 19.8995 140.586 19.8995H140.662H141.148H141.419C141.764 19.8995 142.043 20.1839 142.043 20.535V20.7875V20.9752V29.3613V30.5115C142.043 30.6044 142.023 30.6973 141.984 30.7814C141.931 30.8956 141.866 31.0059 141.794 31.1123C141.662 31.3058 141.498 31.4886 141.3 31.6588C141.102 31.833 140.87 31.9945 140.604 32.1445C140.278 32.3234 139.947 32.4569 139.609 32.5459C139.392 32.604 139.175 32.6398 138.958 32.661C138.953 32.661 138.948 32.662 138.944 32.662C138.942 32.662 138.94 32.662 138.939 32.663C138.889 32.6678 138.839 32.6717 138.789 32.6736C138.728 32.6775 138.667 32.6794 138.605 32.6794C138.555 32.6746 138.505 32.6688 138.455 32.662C138.451 32.662 138.446 32.662 138.441 32.661C138.153 32.6475 137.853 32.6001 137.539 32.514C137.495 32.5043 137.45 32.4927 137.406 32.4801C137.393 32.4763 137.38 32.4714 137.366 32.4676C137.337 32.4589 137.307 32.4492 137.278 32.4395C137.263 32.4347 137.249 32.4289 137.233 32.4231C137.207 32.4134 137.179 32.4028 137.153 32.3921C137.137 32.3863 137.123 32.3795 137.109 32.3728C137.083 32.3612 137.058 32.3495 137.032 32.3379C137.018 32.3312 137.004 32.3244 136.99 32.3167C136.965 32.3031 136.94 32.2905 136.915 32.276C136.903 32.2693 136.889 32.2615 136.877 32.2538C136.851 32.2383 136.827 32.2228 136.801 32.2064C136.79 32.1996 136.779 32.1919 136.768 32.1841C136.742 32.1667 136.716 32.1483 136.691 32.129C136.681 32.1222 136.673 32.1154 136.663 32.1087C136.636 32.0874 136.609 32.0651 136.583 32.0429C136.576 32.0371 136.57 32.0322 136.564 32.0264C136.533 32.0003 136.504 31.9723 136.475 31.9442C136.472 31.9423 136.47 31.9394 136.468 31.9374C136.241 31.713 136.053 31.4305 135.905 31.0891C135.85 30.9623 135.802 30.8259 135.757 30.6837C135.746 30.6518 135.735 30.6209 135.726 30.588C135.705 30.5164 135.686 30.4429 135.668 30.3674C135.667 30.3635 135.666 30.3597 135.665 30.3558C135.649 30.2871 135.633 30.2175 135.619 30.1459C135.617 30.1362 135.615 30.1256 135.613 30.1159C135.584 29.965 135.56 29.8063 135.54 29.6419C135.538 29.6254 135.536 29.609 135.535 29.5935C135.526 29.5229 135.519 29.4503 135.513 29.3768C135.512 29.3642 135.51 29.3517 135.509 29.3391C135.502 29.2549 135.496 29.1688 135.491 29.0808C135.49 29.0634 135.489 29.046 135.488 29.0286C135.484 28.9579 135.481 28.8854 135.479 28.8128C135.478 28.7887 135.478 28.7635 135.478 28.7393C135.476 28.6494 135.474 28.5575 135.474 28.4646V22.3343V21.9967V18.3565C135.474 18.195 135.413 18.0392 135.305 17.9222L135.144 17.748L134.542 17.0951C134.397 16.9383 134.185 16.8668 133.978 16.9045L130.268 17.5749C129.93 17.6358 129.703 17.9638 129.762 18.3081L129.943 19.3751C129.994 19.6799 130.254 19.9024 130.558 19.9024H131.46C131.805 19.9024 132.085 20.1868 132.085 20.5379V20.9365V29.2946C132.085 30.4196 132.246 31.3773 132.569 32.1696C132.605 32.2596 132.642 32.3466 132.681 32.4327C132.693 32.4579 132.704 32.4821 132.715 32.5063C132.745 32.572 132.776 32.6369 132.809 32.6997C132.819 32.721 132.83 32.7433 132.841 32.7646C132.881 32.8419 132.922 32.9174 132.964 32.9909C132.981 33.0209 133 33.0499 133.017 33.0799C133.041 33.1225 133.067 33.1641 133.094 33.2047C133.107 33.226 133.119 33.2482 133.134 33.2695C133.145 33.2869 133.156 33.3024 133.168 33.3189C133.193 33.3576 133.22 33.3953 133.247 33.433C133.302 33.5104 133.358 33.5868 133.416 33.6603C133.423 33.67 133.431 33.6797 133.439 33.6884C134.164 34.5997 135.142 35.1878 136.386 35.4529C136.389 35.4538 136.392 35.4538 136.394 35.4548C136.507 35.479 136.622 35.4993 136.738 35.5187C136.794 35.5274 136.849 35.5361 136.905 35.5438C136.945 35.5496 136.984 35.5545 137.025 35.5593C137.132 35.5719 137.239 35.5825 137.348 35.5912C137.355 35.5922 137.362 35.5922 137.368 35.5922C137.5 35.6019 137.634 35.6057 137.77 35.6135C137.771 35.6135 137.772 35.6135 137.772 35.6135C137.962 35.6241 138.157 35.6367 138.357 35.6444C138.385 35.6454 138.414 35.6454 138.441 35.6464C138.506 35.6483 138.57 35.6502 138.637 35.6502C138.642 35.6502 138.647 35.6502 138.652 35.6502C138.656 35.6502 138.659 35.6502 138.662 35.6502C138.893 35.6502 139.121 35.6318 139.348 35.6038C139.825 35.5554 140.29 35.4597 140.75 35.2933C140.752 35.2923 140.754 35.2923 140.755 35.2913C140.816 35.2691 140.879 35.2449 140.941 35.2207C141.266 35.0901 141.586 34.9305 141.902 34.7409C141.936 34.7206 141.972 34.7032 142.009 34.6896C142.064 34.6664 142.121 34.6519 142.179 34.6442C142.184 34.6442 142.188 34.6442 142.193 34.6442C142.223 34.6451 142.252 34.649 142.281 34.6538C142.288 34.6548 142.297 34.6548 142.304 34.6567C142.438 34.6838 142.565 34.7525 142.66 34.8657C142.828 35.0669 143.028 35.2275 143.257 35.3523C143.276 35.3629 143.295 35.3726 143.315 35.3823C143.368 35.4084 143.421 35.4335 143.477 35.4558C143.511 35.4703 143.545 35.4838 143.581 35.4964C143.619 35.51 143.657 35.5225 143.696 35.5341C143.741 35.5477 143.788 35.5593 143.833 35.5719C143.854 35.5777 143.875 35.5825 143.896 35.5873C143.959 35.6009 144.022 35.6125 144.088 35.6231C144.112 35.627 144.136 35.6299 144.161 35.6338C144.238 35.6435 144.316 35.6522 144.397 35.657C144.4 35.657 144.404 35.657 144.408 35.658C144.476 35.6618 144.547 35.6647 144.619 35.6647C144.623 35.6647 144.627 35.6647 144.63 35.6647C144.734 35.6647 144.836 35.6609 144.935 35.6551C144.967 35.6531 144.998 35.6502 145.03 35.6473C145.033 35.6473 145.035 35.6464 145.038 35.6464C145.814 35.6038 146.506 35.389 147.113 35.0002C147.387 34.8241 147.498 34.4739 147.373 34.1692L147.154 33.2241C147.102 33.0257 146.994 32.9126 146.864 32.8516C146.778 32.812 146.682 32.7955 146.585 32.7945C146.554 32.7945 146.523 32.7955 146.493 32.7974C146.285 32.8158 146.299 32.8284 146.18 32.8603C146.17 32.8632 146.129 32.8729 146.119 32.8758C146.117 32.8758 146.075 32.8845 146.073 32.8845C146.017 32.8903 145.904 32.8845 145.848 32.8797Z" fill="#41BA4B"/>
<path d="M95.0372 35.0341C95.232 34.9731 96.1422 34.6278 96.3285 34.5455C96.8748 34.3027 97.3945 33.9661 97.7404 33.7165C97.9836 33.5404 98.1946 33.3402 98.092 33.0548L98.0473 32.9619L97.9865 32.8371L97.7204 32.2896H97.7214L97.1817 31.1762L97.1751 31.1607L97.1171 31.0349L97.0743 30.9411C96.9195 30.6818 96.6059 30.7031 96.3541 30.8656C95.8524 31.1897 94.7664 31.7005 94.203 31.8911C93.2937 32.1977 92.5896 32.277 91.514 32.277C88.6104 32.277 86.2825 31.3087 84.5314 29.372C82.804 27.4605 81.9412 25.0401 81.9412 22.1099C81.9412 19.409 82.7299 17.1154 84.3062 15.23C84.5703 14.9156 84.8573 14.6254 85.1642 14.3545C85.7276 13.8583 86.3604 13.4355 87.0654 13.0892C88.1543 12.5542 89.2859 12.2863 90.4632 12.2863C91.4513 12.2863 92.2191 12.2698 92.6865 12.4749C92.8015 12.5252 92.8984 12.5813 92.9849 12.6558C93.0837 12.7419 93.1683 12.8532 93.249 13.0157C93.5683 13.6609 94.5222 15.7108 94.5222 15.7108C94.6286 15.9265 94.6343 16.0348 94.8405 16.0348C95.0657 16.0348 95.3071 15.9884 95.555 15.9487C96.0282 15.8723 96.1147 15.8607 96.3237 15.8191C96.9803 15.6905 97.1456 15.5647 97.1152 15.2716L96.2829 10.0807C96.261 9.86784 96.108 9.69274 95.9028 9.64728C93.9417 9.21486 92.2039 8.99817 90.6893 8.99817C87.2193 8.99817 84.3385 10.0642 82.0448 12.1953C81.9726 12.2631 81.9004 12.3308 81.8291 12.4004C79.2761 14.8982 78 18.2617 78 22.4921C78 26.4931 79.3388 29.7299 82.0172 32.2006C84.4525 34.4275 87.2545 35.5709 90.8043 35.5642C91.9093 35.5622 93.5645 35.4974 95.0372 35.0341Z" fill="#41BA4B"/>
<path d="M180.511 34.1256L180.292 33.1805C180.239 32.9822 180.132 32.869 180.002 32.8081C179.799 32.7142 179.541 32.75 179.344 32.8071C179.342 32.8071 179.341 32.8081 179.34 32.8081C179.244 32.8361 179.16 32.8497 179.092 32.8497C178.74 32.8497 178.564 32.5807 178.564 32.0439V31.8339V31.2951V10.2054C178.564 10.0371 178.502 9.87551 178.391 9.75072L177.64 8.91104C177.488 8.74175 177.262 8.66243 177.041 8.70015L173.33 9.33475C172.973 9.3957 172.731 9.73621 172.784 10.0999L172.936 11.1302C172.988 11.4785 173.293 11.7271 173.638 11.7029L174.466 11.6439C174.849 11.6168 175.175 11.9254 175.175 12.3162V16.4798C175.175 16.9248 174.757 17.2537 174.337 17.1298C173.638 16.9228 172.913 16.8193 172.162 16.8193C170.7 16.8193 169.399 17.1357 168.258 17.7644C167.772 18.0324 167.315 18.3555 166.888 18.7367C166.195 19.3567 165.632 20.1026 165.197 20.9742C164.466 22.4407 164.1 24.2652 164.1 26.4457C164.1 29.2075 164.791 31.4315 166.172 33.1196C166.176 33.1244 166.181 33.1283 166.185 33.1331C166.835 33.9186 167.61 34.5281 168.508 34.9605C168.779 35.0911 169.071 35.1994 169.38 35.2913C170.1 35.5041 170.918 35.6125 171.841 35.6125C172.544 35.6125 173.228 35.4925 173.891 35.2526C173.893 35.2517 173.895 35.2517 173.896 35.2507C173.958 35.2284 174.021 35.2043 174.082 35.1801C174.407 35.0495 174.727 34.8899 175.043 34.7003C175.077 34.6799 175.113 34.6625 175.15 34.649C175.408 34.5387 175.711 34.5977 175.897 34.8163C176.347 35.3474 177.01 35.6125 177.887 35.6125C178.783 35.6125 179.571 35.3939 180.253 34.9576C180.525 34.7806 180.636 34.4294 180.511 34.1256ZM175.173 31.1539C175.173 31.2022 175.168 31.2496 175.159 31.2961C175.131 31.4296 175.065 31.5524 174.965 31.6463C174.241 32.3225 173.309 32.6591 172.17 32.6591C172.162 32.6591 172.154 32.6581 172.147 32.6581C171.05 32.6523 170.128 32.2634 169.378 31.4915C169.279 31.3899 169.183 31.2825 169.091 31.1674C169.056 31.1239 169.022 31.0794 168.988 31.0339C168.131 29.9166 167.702 28.3059 167.702 26.198C167.702 24.4838 167.997 23.0976 168.586 22.0373C168.793 21.6639 169.036 21.3302 169.316 21.038C169.767 20.5282 170.255 20.178 170.781 19.9865C171.306 19.795 171.844 19.7002 172.395 19.7002C172.733 19.7002 173.068 19.7389 173.402 19.8162C173.525 19.8443 173.647 19.8782 173.77 19.9178C173.856 19.9449 173.943 19.9739 174.028 20.0068C174.37 20.1364 174.649 20.2709 174.864 20.4112C175.012 20.507 175.113 20.655 175.154 20.8233C175.166 20.8746 175.173 20.9278 175.173 20.9819V31.1539Z" fill="#41BA4B"/>
<path d="M185.459 28.359C188.922 28.2294 191.447 27.5213 193.036 26.2376C193.787 25.6262 194.294 24.9442 194.556 24.1926C194.819 23.4409 194.951 22.6699 194.951 21.8805C194.951 20.3511 194.375 19.1158 193.223 18.1726C192.097 17.2807 190.708 16.8347 189.056 16.8347C186.803 16.8347 184.926 17.6502 183.424 19.2812C182.674 20.0715 182.073 21.0583 181.622 22.2433C181.171 23.4283 180.946 24.7914 180.946 26.3334C180.946 27.8753 181.159 29.219 181.585 30.3663C182.41 32.66 183.913 34.202 186.09 34.9913C188.493 35.8571 190.946 35.7681 193.449 34.7234C193.866 34.5434 194.207 34.3645 194.47 34.1845C194.696 34.0298 194.796 33.7444 194.715 33.4793L194.381 31.9876C194.275 31.4479 193.71 31.4865 193.37 31.6965C193.148 31.8338 192.887 31.976 192.587 32.1231C192.236 32.2759 191.823 32.4094 191.348 32.5245C190.872 32.6397 190.297 32.6967 189.62 32.6967C188.945 32.6967 188.319 32.5826 187.743 32.3523C186.337 31.8019 185.389 30.7388 184.899 29.161C184.778 28.774 185.059 28.3735 185.459 28.359ZM184.589 24.8349C184.801 23.2658 185.288 22.0256 186.052 21.1144C186.452 20.6558 186.897 20.3115 187.385 20.0822C187.874 19.8529 188.474 19.7378 189.188 19.7378C189.901 19.7378 190.446 19.9671 190.821 20.4256C191.197 20.8841 191.385 21.4713 191.385 22.1843C191.385 22.8982 191.146 23.4902 190.671 23.9614C190.195 24.4334 189.507 24.8155 188.606 25.1077C187.823 25.3621 186.691 25.5062 185.209 25.5401C184.833 25.5498 184.539 25.2141 184.589 24.8349Z" fill="#41BA4B"/>
<path d="M209.48 33.4368L208.13 33.0469C207.902 32.9811 207.746 32.7693 207.746 32.5284V18.4812C207.746 18.338 207.689 18.2006 207.59 18.1L206.736 17.2333C206.613 17.1094 206.439 17.0533 206.269 17.0843L202.422 17.7827C202.136 17.835 201.945 18.1107 201.992 18.4019L202.203 19.6856C202.248 19.9603 202.491 20.1538 202.764 20.1344L203.787 20.059C204.094 20.0367 204.354 20.2834 204.354 20.5959V32.5816C204.354 32.8331 204.182 33.0518 203.941 33.1069L202.524 33.431C202.243 33.4958 202.065 33.7773 202.123 34.0646L202.347 35.18C202.397 35.4305 202.614 35.6105 202.866 35.6105H209.335C209.628 35.6105 209.864 35.3696 209.864 35.0716V33.9534C209.864 33.7134 209.707 33.5016 209.48 33.4368Z" fill="#41BA4B"/>
<path d="M205.925 15.2734C206.567 15.2734 207.109 15.0364 207.553 14.5614C207.997 14.0874 208.219 13.5205 208.219 12.8617C208.219 12.2029 207.997 11.6235 207.553 11.1224C207.109 10.6222 206.567 10.3707 205.925 10.3707C205.284 10.3707 204.741 10.6077 204.298 11.0827C203.854 11.5567 203.632 12.1372 203.632 12.8221C203.632 13.5079 203.853 14.0874 204.298 14.5614C204.741 15.0364 205.284 15.2734 205.925 15.2734Z" fill="#41BA4B"/>
<path d="M250.707 33.3721L249.358 32.9822C249.13 32.9164 248.973 32.7046 248.973 32.4637V18.4175C248.973 18.2743 248.917 18.1369 248.818 18.0363L247.963 17.1696C247.841 17.0457 247.667 16.9896 247.497 17.0206L243.65 17.719C243.364 17.7713 243.173 18.047 243.22 18.3381L243.431 19.6218C243.476 19.8966 243.719 20.09 243.992 20.0707L245.015 19.9952C245.322 19.973 245.582 20.2197 245.582 20.5321V32.5179C245.582 32.7694 245.41 32.988 245.169 33.0432L243.752 33.3672C243.471 33.432 243.292 33.7136 243.35 34.0009L243.575 35.1162C243.625 35.3668 243.842 35.5467 244.093 35.5467H250.563C250.856 35.5467 251.092 35.3058 251.092 35.0079V33.8896C251.092 33.6497 250.936 33.4378 250.707 33.3721Z" fill="#41BA4B"/>
<path d="M247.181 15.2097C247.822 15.2097 248.365 14.9727 248.808 14.4977C249.252 14.0237 249.474 13.4568 249.474 12.798C249.474 12.1392 249.252 11.5598 248.808 11.0587C248.365 10.5585 247.822 10.307 247.181 10.307C246.539 10.307 245.997 10.544 245.553 11.019C245.109 11.493 244.887 12.0734 244.887 12.7583C244.887 13.4442 245.108 14.0237 245.553 14.4977C245.997 14.9727 246.539 15.2097 247.181 15.2097Z" fill="#41BA4B"/>
<path d="M226.957 34.1256L226.737 33.1805C226.685 32.9822 226.577 32.869 226.447 32.8081C226.245 32.7142 225.986 32.75 225.79 32.8071C225.788 32.8071 225.787 32.8081 225.785 32.8081C225.689 32.8361 225.605 32.8497 225.537 32.8497C225.185 32.8497 225.01 32.5807 225.01 32.0439V31.8339V31.2951V10.2054C225.01 10.0371 224.948 9.87551 224.837 9.75072L224.085 8.91104C223.934 8.74175 223.708 8.66243 223.487 8.70015L219.775 9.33475C219.419 9.3957 219.177 9.73621 219.23 10.0999L219.382 11.1302C219.433 11.4785 219.738 11.7271 220.083 11.7029L220.912 11.6439C221.295 11.6168 221.621 11.9254 221.621 12.3162V16.4798C221.621 16.9248 221.202 17.2537 220.782 17.1298C220.083 16.9228 219.358 16.8193 218.608 16.8193C217.145 16.8193 215.845 17.1357 214.703 17.7644C214.218 18.0324 213.761 18.3555 213.333 18.7367C212.641 19.3567 212.077 20.1026 211.643 20.9742C210.911 22.4407 210.546 24.2652 210.546 26.4457C210.546 29.2075 211.236 31.4315 212.618 33.1196C212.622 33.1244 212.626 33.1283 212.63 33.1331C213.28 33.9186 214.055 34.5281 214.953 34.9605C215.225 35.0911 215.517 35.1994 215.826 35.2913C216.545 35.5041 217.364 35.6125 218.286 35.6125C218.99 35.6125 219.674 35.4925 220.337 35.2526C220.339 35.2517 220.341 35.2517 220.342 35.2507C220.403 35.2284 220.466 35.2043 220.528 35.1801C220.853 35.0495 221.173 34.8899 221.488 34.7003C221.523 34.6799 221.559 34.6625 221.596 34.649C221.853 34.5387 222.156 34.5977 222.343 34.8163C222.792 35.3474 223.455 35.6125 224.332 35.6125C225.228 35.6125 226.017 35.3939 226.698 34.9576C226.97 34.7806 227.08 34.4294 226.957 34.1256ZM221.619 31.1539C221.619 31.2022 221.614 31.2496 221.604 31.2961C221.577 31.4296 221.51 31.5524 221.411 31.6463C220.687 32.3225 219.754 32.6591 218.615 32.6591C218.608 32.6591 218.6 32.6581 218.592 32.6581C217.496 32.6523 216.573 32.2634 215.824 31.4915C215.725 31.3899 215.629 31.2825 215.537 31.1674C215.502 31.1239 215.467 31.0794 215.433 31.0339C214.577 29.9166 214.148 28.3059 214.148 26.198C214.148 24.4838 214.442 23.0976 215.031 22.0373C215.238 21.6639 215.482 21.3302 215.762 21.038C216.212 20.5282 216.701 20.178 217.226 19.9865C217.751 19.795 218.289 19.7002 218.84 19.7002C219.179 19.7002 219.514 19.7389 219.848 19.8162C219.97 19.8443 220.093 19.8782 220.215 19.9178C220.302 19.9449 220.388 19.9739 220.474 20.0068C220.816 20.1364 221.094 20.2709 221.31 20.4112C221.457 20.507 221.559 20.655 221.6 20.8233C221.612 20.8746 221.619 20.9278 221.619 20.9819V31.1539Z" fill="#41BA4B"/>
<path d="M231.903 28.359C235.366 28.2294 237.892 27.5213 239.481 26.2376C240.231 25.6262 240.739 24.9442 241.001 24.1926C241.264 23.4409 241.395 22.6699 241.395 21.8805C241.395 20.3511 240.819 19.1158 239.668 18.1726C238.542 17.2807 237.153 16.8347 235.5 16.8347C233.247 16.8347 231.371 17.6502 229.869 19.2812C229.118 20.0715 228.518 21.0583 228.066 22.2433C227.616 23.4283 227.391 24.7914 227.391 26.3334C227.391 27.8753 227.604 29.219 228.029 30.3663C228.855 32.66 230.357 34.202 232.535 34.9913C234.938 35.8571 237.39 35.7681 239.894 34.7234C240.311 34.5434 240.651 34.3645 240.914 34.1845C241.14 34.0298 241.24 33.7444 241.159 33.4793L240.826 31.9876C240.72 31.4479 240.154 31.4865 239.814 31.6965C239.593 31.8338 239.331 31.976 239.031 32.1231C238.68 32.2759 238.267 32.4094 237.792 32.5245C237.316 32.6397 236.741 32.6967 236.065 32.6967C235.389 32.6967 234.763 32.5826 234.187 32.3523C232.782 31.8019 231.834 30.7388 231.343 29.161C231.224 28.774 231.504 28.3735 231.903 28.359ZM231.035 24.8349C231.246 23.2658 231.734 22.0256 232.498 21.1144C232.898 20.6558 233.343 20.3115 233.831 20.0822C234.319 19.8529 234.92 19.7378 235.633 19.7378C236.347 19.7378 236.891 19.9671 237.267 20.4256C237.642 20.8841 237.83 21.4713 237.83 22.1843C237.83 22.8982 237.592 23.4902 237.117 23.9614C236.64 24.4334 235.953 24.8155 235.052 25.1077C234.269 25.3621 233.136 25.5062 231.654 25.5401C231.279 25.5498 230.983 25.2141 231.035 24.8349Z" fill="#41BA4B"/>
<path d="M26.4769 29.4508C32.4338 34.9545 40.7061 33.1453 46.8719 27.6963C47.0632 27.5273 47.0833 27.2333 46.9203 27.0357L44.4419 24.0434C44.2849 23.8542 44.011 23.8173 43.8102 23.9577C39.5572 26.9322 35.303 29.7567 30.0676 26.1716C29.894 26.0526 29.6637 26.0669 29.5032 26.2014L26.4958 28.733C26.275 28.9187 26.2667 29.2568 26.4769 29.4508Z" fill="#41BA4B"/>
<path d="M46.4527 6.63577C45.7006 5.49669 44.9756 4.40046 44.2541 3.30899C44.116 3.09951 44.175 2.81622 44.3852 2.67934C49.4978 -0.646246 56.5858 -0.636724 61.1954 2.67934C61.3914 2.82099 61.4422 3.09355 61.3088 3.29709C60.6062 4.36118 59.8966 5.43718 59.1303 6.59768C59.0016 6.79289 58.7454 6.85716 58.5435 6.7429C54.7214 4.579 50.9029 4.79801 47.0242 6.79051C46.8234 6.89287 46.5778 6.82383 46.4527 6.63577Z" fill="#41BA4B"/>
<path d="M26.9008 3.25307C26.1675 4.3612 25.4567 5.43601 24.7034 6.57509C24.5747 6.7691 24.3197 6.83337 24.1178 6.71911C20.2862 4.53974 16.4748 4.79208 12.5795 6.74887C12.38 6.84885 12.1367 6.77981 12.0139 6.59294C11.2701 5.46338 10.5475 4.36596 9.82721 3.2733C9.69261 3.06858 9.74692 2.79244 9.94883 2.65437C14.7592 -0.637897 21.761 -0.662892 26.7721 2.62818C26.9799 2.76387 27.0377 3.04477 26.9008 3.25307Z" fill="#41BA4B"/>
<path d="M19.5165 17.4279C17.455 17.3851 15.822 15.6426 15.8822 13.5477C15.9424 11.4612 17.6817 9.82574 19.755 9.90787C21.7304 9.98524 23.3646 11.7171 23.3398 13.7072C23.3126 15.764 21.5604 17.4696 19.5165 17.4279Z" fill="#41BA4B"/>
<path d="M52.8394 17.4231C50.7542 17.4469 49.0728 15.7853 49.0622 13.6881C49.0516 11.592 50.727 9.89591 52.7969 9.90544C54.7876 9.91496 56.4513 11.5551 56.515 13.5691C56.5788 15.6282 54.8903 17.3993 52.8394 17.4231Z" fill="#41BA4B"/>
<path d="M45.9249 41.3449C49.0491 41.3449 52.0659 40.7415 54.5148 39.5298C56.3992 38.6454 58.0723 37.4409 59.5294 35.9114C59.625 35.8102 59.7195 35.7079 59.8127 35.6055C61.9806 33.2107 63.3502 30.3636 63.9241 27.0654C64.1272 25.8953 64.2311 24.6694 64.2334 23.3863C64.2334 23.3684 64.2334 23.3517 64.2334 23.3339C64.2334 23.3113 64.2334 23.2887 64.2323 23.2649C64.2323 23.2565 64.2323 23.2494 64.2323 23.2411C64.2323 23.2172 64.2334 23.1946 64.2334 23.172C64.2334 23.1315 64.2334 23.0887 64.2323 23.0482C64.2323 22.859 64.2334 22.6769 64.2358 22.5019C64.2464 21.6485 64.2937 20.9677 64.4944 20.4987C64.564 20.3356 64.6408 20.1976 64.7447 20.075C64.8628 19.9357 65.0174 19.8143 65.2418 19.7C66.1344 19.2465 68.9694 17.8932 68.9694 17.8932C69.2681 17.7432 69.4169 17.7337 69.4169 17.4421C69.4169 17.1219 69.3531 16.7803 69.2976 16.428C69.1914 15.7567 69.176 15.6341 69.1182 15.3365C68.9399 14.4045 68.7651 14.1701 68.3613 14.2129L66.3139 14.5498L62.7374 15.1389L61.9581 15.2675L61.1812 15.3948C61.1375 15.3996 61.095 15.4091 61.0537 15.4222C60.8187 15.4936 60.6345 15.6865 60.5814 15.934C60.4185 16.6934 60.278 17.429 60.1599 18.142C59.8954 19.7286 59.7419 21.1974 59.6994 22.5495C59.6994 22.5376 59.6994 22.5257 59.6994 22.515C59.6699 24.1718 59.5801 25.5692 59.22 27.3594C58.8174 29.3614 57.7665 31.2539 56.2505 32.662C53.6587 35.0651 49.8083 36.5089 45.8611 36.5327C40.4734 36.5648 29.6956 36.5648 24.3079 36.5327C20.3606 36.5089 16.5102 35.0651 13.9185 32.662C12.4024 31.2551 11.3504 29.3614 10.949 27.3594C10.5888 25.568 10.4991 24.1706 10.4696 22.515C10.4696 22.5269 10.4696 22.5388 10.4696 22.5495C10.4259 21.1974 10.2736 19.7286 10.0091 18.142C9.88983 17.429 9.7505 16.6946 9.58756 15.934C9.53443 15.6865 9.35023 15.4936 9.11526 15.4222C9.07394 15.4091 9.03261 15.3996 8.98774 15.3948L8.21082 15.2675L7.43153 15.1389L3.85506 14.5498L1.80766 14.2129C1.40266 14.1701 1.22909 14.4045 1.0508 15.3365C0.994127 15.6341 0.977597 15.7567 0.87133 16.428C0.815835 16.7803 0.752075 17.1219 0.752075 17.4421C0.752075 17.7337 0.900849 17.7432 1.19958 17.8932C1.19958 17.8932 4.03454 19.2465 4.92718 19.7C5.1527 19.8143 5.30619 19.9345 5.42427 20.075C5.52817 20.1976 5.60492 20.3356 5.67458 20.4987C5.87531 20.9677 5.92254 21.6485 5.93317 22.5019C5.93553 22.6769 5.93553 22.859 5.93671 23.0482C5.93671 23.0899 5.93553 23.1327 5.93553 23.172C5.93553 23.1958 5.93553 23.2184 5.93553 23.2411C5.93553 23.2494 5.93553 23.2565 5.93553 23.2649C5.93553 23.2875 5.93435 23.3113 5.93435 23.3339C5.93435 23.3517 5.93435 23.3684 5.93435 23.3863C5.93671 24.6694 6.04061 25.8953 6.2437 27.0654C6.81754 30.3636 8.1872 33.2107 10.355 35.6055C10.4483 35.7079 10.5428 35.8102 10.6384 35.9114C12.0966 37.4409 13.7686 38.6466 15.653 39.5298C18.1031 40.7415 21.2072 41.3449 24.3315 41.3449H45.9249Z" fill="#41BA4B"/>
</svg>
