<svg width="507" height="451" viewBox="0 0 507 451" fill="none" xmlns="http://www.w3.org/2000/svg">
<path d="M253.338 451C392.943 451 506.116 438.778 506.116 423.701C506.116 408.625 392.943 396.403 253.338 396.403C113.733 396.403 0.560547 408.625 0.560547 423.701C0.560547 438.778 113.733 451 253.338 451Z" fill="#99E9A0"/>
<path opacity="0.5" d="M253.338 451C392.943 451 506.116 438.778 506.116 423.701C506.116 408.625 392.943 396.403 253.338 396.403C113.733 396.403 0.560547 408.625 0.560547 423.701C0.560547 438.778 113.733 451 253.338 451Z" fill="white"/>
<path d="M377.061 1.40778H126.957V188.023H377.061V1.40778Z" fill="#263238" stroke="#263238" stroke-linecap="round" stroke-linejoin="round"/>
<path d="M369.973 7.37885H134.077V182.038H369.973V7.37885Z" fill="white" stroke="#263238" stroke-linecap="round" stroke-linejoin="round"/>
<path d="M157.556 32.3821L155.609 54.4505L174.976 56.3828L176.908 31.2198L157.556 32.3821Z" fill="white" stroke="#263238" stroke-linecap="round" stroke-linejoin="round"/>
<path d="M217.949 70.3157V86.5874L236.531 88.1274L237.301 72.2625L217.949 70.3157Z" fill="white" stroke="#263238" stroke-linecap="round" stroke-linejoin="round"/>
<path d="M212.573 43.4383V59.6954L231.155 61.25L231.925 45.3706L212.573 43.4383Z" fill="white" stroke="#263238" stroke-linecap="round" stroke-linejoin="round"/>
<path d="M191.057 104.733V120.99L209.638 122.545L210.423 106.665L191.057 104.733Z" fill="white" stroke="#263238" stroke-linecap="round" stroke-linejoin="round"/>
<path d="M183.096 30.0579L239.247 22.7066L239.625 31.6124L185.812 38.9638L183.096 30.0579Z" fill="#99E9A0" stroke="#263238" stroke-linecap="round" stroke-linejoin="round"/>
<path d="M246.716 147.272L302.766 155.189L300.761 163.877L246.948 156.584L246.716 147.272Z" fill="white" stroke="#263238" stroke-linecap="round" stroke-linejoin="round"/>
<path d="M179.229 63.7344V85.4251H198.203L197.419 63.3566L179.229 63.7344Z" fill="#99E9A0" stroke="#263238" stroke-linecap="round" stroke-linejoin="round"/>
<path d="M334.089 90.6259V112.302H353.063L352.278 90.2336L334.089 90.6259Z" fill="#99E9A0" stroke="#263238" stroke-linecap="round" stroke-linejoin="round"/>
<path d="M272.923 23.0841V51.3561L291.505 53.6661V22.3141L272.923 23.0841Z" fill="#99E9A0" stroke="#263238" stroke-linecap="round" stroke-linejoin="round"/>
<path d="M326.344 52.1259L305.83 49.0314L303.506 70.3153L322.858 73.4244L326.344 52.1259Z" fill="white" stroke="#263238" stroke-linecap="round" stroke-linejoin="round"/>
<path d="M284.531 96.2631L293.829 120.264L316.29 109.426L304.667 88.5195L284.531 96.2631Z" fill="#99E9A0" stroke="#263238" stroke-linecap="round" stroke-linejoin="round"/>
<path d="M240.788 52.5184L246.207 104.007L270.6 102.074L265.951 49.4093L240.788 52.5184Z" fill="white" stroke="#263238" stroke-linecap="round" stroke-linejoin="round"/>
<path d="M166.068 101.29L162.189 130.332L180.001 131.886L184.258 102.452L166.068 101.29Z" fill="#99E9A0" stroke="#263238" stroke-linecap="round" stroke-linejoin="round"/>
<path d="M238.68 102.147L218.937 104.864L223.963 133.513L244.87 130.027L238.68 102.147Z" fill="#99E9A0" stroke="#263238" stroke-linecap="round" stroke-linejoin="round"/>
<path d="M345.116 78.6983C344.563 75.242 343.229 71.9574 341.215 69.0948C339.201 66.2322 336.56 63.867 333.493 62.1796" stroke="#263238" stroke-linecap="round" stroke-linejoin="round"/>
<path d="M332.257 66.4652L331.037 60.3343L340.829 60.959" stroke="#263238" stroke-linecap="round" stroke-linejoin="round"/>
<path d="M288.223 29.7668L277.211 44.4404" stroke="#263238" stroke-linecap="round" stroke-linejoin="round"/>
<path d="M277.211 30.9874L288.223 41.9998" stroke="#263238" stroke-linecap="round" stroke-linejoin="round"/>
<path d="M159.777 62.7896C160.114 66.7944 161.818 70.5615 164.604 73.4583C167.389 76.3551 171.087 78.2052 175.076 78.6981" stroke="#263238" stroke-linecap="round" stroke-linejoin="round"/>
<path d="M173.231 73.8021L178.127 79.9185L168.96 82.3592" stroke="#263238" stroke-linecap="round" stroke-linejoin="round"/>
<path d="M266.824 36.4938C266.824 36.4938 246.629 32.1353 237.462 45.0509" stroke="#263238" stroke-linecap="round" stroke-linejoin="round"/>
<path d="M235.018 41.3752L234.394 49.3367L243.575 45.661" stroke="#263238" stroke-linecap="round" stroke-linejoin="round"/>
<path d="M278.875 335.37C278.875 335.37 264.683 346.64 257.85 358.383C251.016 370.125 251.269 378.094 251.269 378.094C251.269 378.094 271.243 363.765 275.827 354.093C278.563 348.257 279.618 341.773 278.875 335.37Z" fill="#99E9A0"/>
<path d="M218.954 319.653C218.954 319.653 215.8 339.891 223.295 352.348C230.791 364.806 251.228 377.768 251.228 377.768C251.228 377.768 254.182 368.675 243.438 354.861C232.694 341.047 218.954 319.653 218.954 319.653Z" fill="#99E9A0"/>
<path d="M252.288 355.334C251.598 344.152 248.215 333.303 242.427 323.711C232.756 307.658 221.181 291.395 218.458 284.477C216.648 279.682 215.183 274.764 214.074 269.76C214.074 269.76 210.048 283.111 217.586 300.867C225.123 318.623 252.288 355.334 252.288 355.334Z" fill="#99E9A0"/>
<path d="M251.542 348.932C258.971 339.214 265.436 328.796 270.844 317.824C278.718 301.224 277.467 283.994 277.467 283.994C277.467 283.994 262.665 303.18 257.955 318.15C254.943 328.209 252.798 338.507 251.542 348.932Z" fill="#99E9A0"/>
<path d="M249.305 316.174C249.305 316.174 246.614 292.331 240.19 279.095C233.767 265.859 220.605 245.454 220.605 245.454C220.605 245.454 218.954 268.256 229.331 286.527C235.131 296.961 241.814 306.879 249.305 316.174Z" fill="#99E9A0"/>
<path d="M248.766 302.423C248.766 302.423 262.138 282.501 265.796 268.256C269.455 254.011 272.64 229.895 272.64 229.895C272.64 229.895 256.598 246.316 252.666 266.932C250.359 278.63 249.054 290.503 248.766 302.423Z" fill="#99E9A0"/>
<path d="M255.411 216.428C255.411 216.428 242.796 225.7 244.835 245.139C246.875 264.577 248.725 271.137 248.725 271.137C246.749 257.838 255.411 216.428 255.411 216.428Z" fill="#99E9A0"/>
<g opacity="0.5">
<path opacity="0.5" d="M278.875 335.37C278.875 335.37 264.683 346.64 257.85 358.383C251.016 370.126 251.269 378.094 251.269 378.094C251.269 378.094 271.243 363.765 275.827 354.093C278.563 348.257 279.618 341.773 278.875 335.37Z" fill="#99E9A0"/>
<path opacity="0.5" d="M218.954 319.653C218.954 319.653 215.8 339.891 223.295 352.348C230.791 364.806 251.228 377.768 251.228 377.768C251.228 377.768 254.182 368.675 243.438 354.861C232.694 341.047 218.954 319.653 218.954 319.653Z" fill="#99E9A0"/>
<path opacity="0.5" d="M252.288 355.334C251.598 344.152 248.215 333.303 242.427 323.711C232.756 307.658 221.181 291.395 218.458 284.477C216.648 279.682 215.183 274.764 214.074 269.76C214.074 269.76 210.048 283.111 217.586 300.867C225.123 318.623 252.288 355.334 252.288 355.334Z" fill="#99E9A0"/>
<path opacity="0.5" d="M251.541 348.932C258.97 339.214 265.435 328.796 270.843 317.824C278.717 301.224 277.466 283.994 277.466 283.994C277.466 283.994 262.664 303.18 257.954 318.15C254.942 328.209 252.797 338.507 251.541 348.932Z" fill="#99E9A0"/>
<path opacity="0.5" d="M249.304 316.174C249.304 316.174 246.613 292.331 240.189 279.095C233.766 265.859 220.604 245.454 220.604 245.454C220.604 245.454 218.953 268.256 229.33 286.527C235.13 296.961 241.813 306.879 249.304 316.174Z" fill="#99E9A0"/>
<path opacity="0.5" d="M248.766 302.423C248.766 302.423 262.138 282.501 265.796 268.256C269.455 254.011 272.64 229.895 272.64 229.895C272.64 229.895 256.598 246.316 252.666 266.932C250.359 278.63 249.054 290.503 248.766 302.423Z" fill="#99E9A0"/>
<path opacity="0.5" d="M255.411 216.428C255.411 216.428 242.796 225.7 244.835 245.139C246.875 264.577 248.725 271.137 248.725 271.137C246.749 257.838 255.411 216.428 255.411 216.428Z" fill="#99E9A0"/>
</g>
<path d="M250.974 384.276C250.974 384.276 252.131 381.196 252.131 357.741C252.131 334.287 249.061 325.057 249.061 302.023C249.061 278.99 247.516 257.417 247.516 257.417" stroke="#99E9A0" stroke-width="0.75" stroke-miterlimit="10"/>
<path d="M249.219 313.85C249.219 313.85 240.809 295.842 237.318 289.082C234.049 282.774 230.243 272.682 230.243 272.682" stroke="#99E9A0" stroke-width="0.75" stroke-miterlimit="10"/>
<path d="M230.896 316.741C230.896 316.741 249.566 351.434 252.289 355.334" stroke="#99E9A0" stroke-width="0.75" stroke-miterlimit="10"/>
<path d="M252.12 346.009L267.227 309.992" stroke="#99E9A0" stroke-width="0.75" stroke-miterlimit="10"/>
<path d="M234.111 355.334C237.644 361.116 252.12 376.233 252.12 376.233C252.12 376.233 261.76 365.941 267.889 356.616" stroke="#99E9A0" stroke-width="0.75" stroke-miterlimit="10"/>
<path d="M249.219 299.059L258.544 267.541" stroke="#99E9A0" stroke-width="0.75" stroke-miterlimit="10"/>
<path d="M261.267 380.207H240.221V387.724H242.208L244.762 404.261H256.715L259.28 387.724H261.267V380.207Z" fill="#99E9A0"/>
<path d="M261.267 380.207H240.221V387.724H242.208L244.762 404.261H256.715L259.28 387.724H261.267V380.207Z" fill="#99E9A0"/>
<path d="M368.582 409.644C368.582 409.644 350.697 419.203 350.494 421.266C350.291 423.329 361.506 423.344 369.817 422.298C378.127 421.252 385.405 420.017 384.156 416.486C382.906 412.956 369.628 409.222 369.628 409.222L368.582 409.644Z" fill="#99E9A0" stroke="#263238" stroke-linecap="round" stroke-linejoin="round"/>
<path d="M436.122 418.375C436.122 418.375 443.59 427.717 444.432 432.496C445.275 437.276 441.105 436.855 432.374 432.714C427.283 430.367 422.855 426.793 419.487 422.312L436.122 418.375Z" fill="#99E9A0" stroke="#263238" stroke-linecap="round" stroke-linejoin="round"/>
<path d="M365.037 216.577C365.037 216.577 362.756 234.65 365.459 261.252C368.161 287.853 371.895 321.733 371.895 345.21C371.895 368.688 368.786 392.805 367.957 400.491C367.645 404.294 366.949 408.057 365.88 411.721C365.88 411.721 372.941 414.627 379.595 416.501C386.249 418.375 399.121 419.406 399.121 419.406C399.121 419.406 400.573 402.989 400.573 374.107C400.573 345.225 398.496 320.905 398.496 320.905C398.496 320.905 405.353 362.252 407.431 383.042C408.688 395.751 408.829 408.547 407.852 421.281C407.852 421.281 408.477 423.561 421.363 422.937C428.757 422.66 436.058 421.188 442.981 418.578C442.981 418.578 437.025 376.185 436.531 358.286C436.037 340.387 428.642 322.328 423.455 310.343C418.269 298.357 417.426 294.129 419.097 287.49C420.768 280.85 430.516 248.626 430.516 233.662C430.516 218.698 429.688 214.776 429.688 214.776C429.688 214.776 427.611 211.652 402.259 210.824C376.907 209.996 365.037 216.577 365.037 216.577Z" fill="#263238" stroke="#263238" stroke-linecap="round" stroke-linejoin="round"/>
<path d="M396.737 315.413C397.769 319.06 398.495 320.905 398.495 320.905" stroke="white" stroke-linecap="round" stroke-linejoin="round"/>
<path d="M389.982 227.531C389.982 227.531 389.154 267.426 391.638 288.637C392.488 296.119 393.793 303.542 395.546 310.866" stroke="white" stroke-linecap="round" stroke-linejoin="round"/>
<path d="M428.074 327.355C428.864 329.179 429.506 331.064 429.992 332.992" stroke="white" stroke-linecap="round" stroke-linejoin="round"/>
<path d="M426.928 232.34C426.084 241.848 424.604 251.288 422.496 260.598C417.47 282.71 412.937 296.294 413.445 301.277C413.838 305.156 421.756 314.469 426.71 324.304" stroke="white" stroke-linecap="round" stroke-linejoin="round"/>
<path d="M407.474 34.8866C407.474 34.8866 403.116 26.3149 412.937 18.9055C422.758 11.4961 438.885 19.69 440.25 27.4917C441.616 35.2934 436.342 41.1483 438.492 45.2453C440.642 49.3423 450.391 50.8968 455.461 56.8679C460.532 62.839 462.478 72.849 459.558 78.9073C456.638 84.9656 450.972 89.8326 454.488 93.5373C458.004 97.242 466.968 104.855 466.968 113.238C466.968 121.62 459.355 130.396 452.919 133.722C446.483 137.049 434.788 132.546 428.729 129.233C422.671 125.921 417.615 116.158 419.373 106.99C421.131 97.8231 427.756 97.0531 424.647 91.9827C421.538 86.9124 415.668 83.2658 418.4 78.3262C421.131 73.3866 425.025 69.74 424.443 65.4541C423.862 61.1683 417.819 57.4636 417.819 57.4636C417.819 57.4636 411.179 42.6302 409.813 39.71C408.448 36.7898 407.474 34.8866 407.474 34.8866Z" fill="#263238" stroke="#263238" stroke-linecap="round" stroke-linejoin="round"/>
<path d="M417.019 35.5402C417.019 35.5402 419.837 25.167 429.28 26.5762C438.724 27.9855 430.733 38.8381 432.578 46.9158C434.423 54.9936 453.339 54.4706 454.284 68.1562C455.228 81.8418 438.709 88.4958 441.542 98.8254C444.375 109.155 461.359 108.734 457.596 120.051C453.833 131.369 449.562 132.328 445.799 128.085" stroke="white" stroke-width="0.75" stroke-linecap="round" stroke-linejoin="round"/>
<path d="M428.307 61.9092C428.307 61.9092 441.992 67.0958 441.513 74.6505C441.033 82.2053 427.362 84.5588 432.549 95.8764" stroke="white" stroke-width="0.75" stroke-linecap="round" stroke-linejoin="round"/>
<path d="M398.916 92.5055C398.916 92.5055 369.409 98.9415 367.535 101.222C365.661 103.503 337.607 144.023 337.607 144.023L301.286 123.451L296.928 131.775L334.905 165.06L366.707 146.987L370.441 163.81C370.441 163.81 364.629 199.143 363.801 207.25C362.973 215.357 362.755 219.308 362.755 219.308C373.44 222.231 384.536 223.355 395.589 222.635C407.319 221.974 418.848 219.301 429.673 214.732C429.673 214.732 421.566 190.412 418.239 181.898C414.912 173.384 411.381 163.403 411.381 163.403L421.987 139.708L435.063 170.363L453.572 163.709C453.572 163.709 439.392 105.595 437.939 103.344C436.486 101.092 414.868 93.5661 414.868 93.5661L398.916 92.5055Z" fill="#99E9A0" stroke="#263238" stroke-linecap="round" stroke-linejoin="round"/>
<path d="M371.066 123.683L367.652 112.279" stroke="#263238" stroke-linecap="round" stroke-linejoin="round"/>
<path d="M394.296 111.77C391.131 120.173 388.444 128.749 386.248 137.456C382.732 151.534 385.245 157.069 385.245 166.12C385.245 175.171 387.265 220.412 387.265 220.412" stroke="#263238" stroke-linecap="round" stroke-linejoin="round"/>
<path d="M366.707 146.957C366.707 146.957 362.552 134.696 363.584 131.369C364.615 128.042 370.659 124.308 371.066 123.683C371.472 123.058 374.189 116.419 374.189 116.419" stroke="#263238" stroke-linecap="round" stroke-linejoin="round"/>
<path d="M414.912 123.335L421.987 139.679L413.909 130.875" stroke="#263238" stroke-linecap="round" stroke-linejoin="round"/>
<path d="M400.368 88.5542C400.368 88.5542 394.339 89.6002 392.886 91.8812C391.433 94.1621 383.951 110.579 383.951 110.579L397.869 104.564L406.586 116.405C406.586 116.405 418.02 95.4115 418.209 93.7553C418.398 92.0991 411.148 87.5227 410.523 87.5227C409.899 87.5227 400.368 88.5542 400.368 88.5542Z" fill="white" stroke="#263238" stroke-linecap="round" stroke-linejoin="round"/>
<path d="M396.635 87.3045C396.971 91.4576 396.971 95.6311 396.635 99.7843C396.01 104.143 393.933 110.375 394.964 110.172C395.996 109.969 408.679 95.8326 410.35 92.9269C412.02 90.0213 412.209 82.3213 412.209 82.3213C412.209 82.3213 402.04 88.3505 396.635 87.3045Z" fill="white" stroke="#263238" stroke-linecap="round" stroke-linejoin="round"/>
<path d="M421.711 61.9962C421.711 61.9962 423.076 44.0538 417.614 38.751C412.151 33.4481 398.887 31.9227 391.085 38.9398C383.283 45.957 386.407 68.9843 387.584 75.4204C388.76 81.8564 394.993 90.0358 399.875 89.8469C404.756 89.6581 411.178 83.5998 412.95 81.653C414.722 79.7062 415.856 74.2436 415.856 74.2436C415.856 74.2436 421.522 72.0934 422.495 68.7809C422.988 66.4947 422.712 64.1097 421.711 61.9962Z" fill="white" stroke="#263238" stroke-linecap="round" stroke-linejoin="round"/>
<path d="M395.416 58.6404C395.568 60.4526 395.189 62.2699 394.326 63.8706C392.946 65.7884 391.29 66.0644 391.566 67.1685C391.842 68.2727 394.602 69.1734 394.602 69.1734" stroke="#263238" stroke-linecap="round" stroke-linejoin="round"/>
<path d="M395.705 76.3358C395.705 76.3358 396.664 79.4013 398.771 79.4013C400.877 79.4013 399.729 75.5658 399.729 75.5658C398.449 76.075 397.083 76.3363 395.705 76.3358Z" fill="#263238"/>
<path d="M393.948 75.4495C393.948 75.4495 398.074 77.3672 400.82 74.6214" stroke="#263238" stroke-linecap="round" stroke-linejoin="round"/>
<path d="M390.636 62.6355C391.093 62.6355 391.464 61.7118 391.464 60.5725C391.464 59.4331 391.093 58.5095 390.636 58.5095C390.178 58.5095 389.808 59.4331 389.808 60.5725C389.808 61.7118 390.178 62.6355 390.636 62.6355Z" fill="#263238"/>
<path d="M401.371 61.4008C401.371 62.5485 401.008 63.4638 400.558 63.4638C400.107 63.4638 399.729 62.5485 399.729 61.4008C399.729 60.253 400.093 59.3378 400.558 59.3378C401.023 59.3378 401.371 60.2676 401.371 61.4008Z" fill="#263238"/>
<path d="M387.628 56.4468C387.786 56.0325 388.024 55.6535 388.329 55.3317C388.634 55.01 388.999 54.7518 389.404 54.5722C389.81 54.3925 390.246 54.2949 390.69 54.285C391.133 54.2751 391.574 54.3531 391.986 54.5145" stroke="#263238" stroke-linecap="round" stroke-linejoin="round"/>
<path d="M397.797 54.2383C398.464 53.973 399.181 53.8576 399.897 53.9002C400.613 53.9428 401.312 54.1424 401.942 54.4847C402.573 54.8271 403.121 55.3039 403.547 55.8815C403.973 56.459 404.266 57.1231 404.407 57.8268" stroke="#263238" stroke-linecap="round" stroke-linejoin="round"/>
<path d="M417.615 38.7947C412.152 33.5209 398.888 31.9664 391.086 38.9835C389.582 40.4594 388.46 42.2795 387.817 44.2863C390.762 42.7112 394.003 41.7708 397.333 41.526C404.162 40.9303 410.99 45.6229 412.937 50.2429C414.884 54.8629 415.232 65.5122 415.232 65.5122C415.232 65.5122 417.775 61.4152 419.329 61.0229C419.772 60.9143 420.238 60.9502 420.659 61.1253C421.08 61.3005 421.433 61.6057 421.668 61.9963C421.668 61.9963 423.078 44.0539 417.615 38.7947Z" fill="#263238" stroke="#263238" stroke-linecap="round" stroke-linejoin="round"/>
<path d="M440.105 159.525L393.353 180.881L395.009 186.91C395.009 186.91 456.638 173.835 456.638 172.106C456.638 170.377 451.553 156.822 451.553 156.822" fill="#99E9A0"/>
<path d="M440.105 159.525L393.353 180.881L395.009 186.91C395.009 186.91 456.638 173.835 456.638 172.106C456.638 170.377 451.553 156.822 451.553 156.822" stroke="#263238" stroke-linecap="round" stroke-linejoin="round"/>
<path d="M381.046 153.437C382.104 155.047 382.853 156.841 383.254 158.725C384.344 162.677 385.666 174.779 386.16 177.859C386.654 180.939 391.87 195.889 391.87 195.889L388.136 196.775L375.147 158.275C375.147 158.275 376.876 152.115 381.046 153.437Z" fill="white" stroke="#263238" stroke-linecap="round" stroke-linejoin="round"/>
<path d="M350.739 164.043L362.798 205.405L389.806 198.751L379.215 158.231L350.739 164.043Z" fill="white" stroke="#263238" stroke-linecap="round" stroke-linejoin="round"/>
<path d="M350.74 164.043C350.74 164.043 348.271 165.321 348.271 162.895C348.271 160.469 349.375 159.597 352.019 159.379C354.663 159.161 372.475 155.646 376.644 153.873C380.814 152.101 381.003 153.437 381.003 153.437C380.253 153.962 379.678 154.699 379.352 155.554C379.026 156.408 378.963 157.341 379.172 158.232L350.74 164.043Z" fill="white" stroke="#263238" stroke-linecap="round" stroke-linejoin="round"/>
<path d="M393.351 180.881C393.351 180.881 383.574 178.804 382.949 178.804C382.324 178.804 370.28 187.332 370.28 187.332L371.312 190.862C372.064 191.034 372.836 191.102 373.607 191.066C375.263 191.066 381.293 190.644 381.293 190.644L373.186 192.664L373.811 194.117C373.811 194.117 385.026 192.039 386.494 191.821C387.961 191.603 395.007 186.838 395.007 186.838L393.351 180.881Z" fill="white" stroke="#263238" stroke-linecap="round" stroke-linejoin="round"/>
<path d="M298.744 115.577L289.809 112.409L279.828 105.392L279 107.266L286.991 116.114L283.576 123.887L290.434 129.088L296.666 132.4L301.243 123.465L298.744 115.577Z" fill="white" stroke="#263238" stroke-linecap="round" stroke-linejoin="round"/>
<path d="M300.821 122.637C300.821 122.637 299.789 115.373 298.336 113.702C296.584 112.033 294.704 110.503 292.714 109.126L290.433 105.392C290.433 105.392 289.184 105.596 289.184 106.642C289.677 108.846 290.373 111.001 291.261 113.078C291.802 114.513 292.578 115.849 293.557 117.029C293.557 117.029 292.104 120.356 292.932 122.434C293.637 123.926 294.623 125.268 295.838 126.386" fill="white"/>
<path d="M300.821 122.637C300.821 122.637 299.789 115.373 298.336 113.702C296.584 112.033 294.704 110.503 292.714 109.126L290.433 105.392C290.433 105.392 289.184 105.596 289.184 106.642C289.677 108.846 290.373 111.001 291.261 113.078C291.802 114.513 292.578 115.849 293.557 117.029C293.557 117.029 292.104 120.356 292.932 122.434C293.637 123.926 294.623 125.268 295.838 126.386" stroke="#263238" stroke-linecap="round" stroke-linejoin="round"/>
<path d="M284.478 112.25C284.478 112.25 280.323 123.465 280.948 124.308C281.572 125.151 287.18 126.792 287.805 126.168C288.43 125.543 291.757 117.451 291.757 117.451L284.478 112.25Z" fill="white" stroke="#263238" stroke-linecap="round" stroke-linejoin="round"/>
<path d="M427.478 222.388C427.478 222.388 427.478 223.987 427.318 226.878" stroke="white" stroke-linecap="round" stroke-linejoin="round"/>
<path d="M137.549 102.685C137.549 102.685 150.174 139.209 153.109 148.449C156.044 157.689 158.92 173.932 158.281 176.416C157.642 178.9 145.656 166.711 140.702 168.527C135.748 170.343 136.198 173.714 136.198 173.714L130.532 159.273L137.549 102.685Z" fill="#99E9A0" stroke="#263238" stroke-linecap="round" stroke-linejoin="round"/>
<path d="M135.009 160.914C135.009 160.914 141.532 153.65 148.941 155.234" stroke="#263238" stroke-linecap="round" stroke-linejoin="round"/>
<path d="M134.644 158.401C134.644 158.401 138.348 148.87 146.818 148.87" stroke="#263238" stroke-linecap="round" stroke-linejoin="round"/>
<path d="M142.285 180.919C142.285 180.919 137.317 178.435 136.198 175.965C135.079 173.495 135.283 165.36 138.217 162.89C141.152 160.42 150.174 160.856 152.426 161.757C154.678 162.657 157.83 168.294 159.196 171.679C160.562 175.064 160.547 179.568 158.731 181.37C158.023 182.185 157.115 182.802 156.096 183.159C155.076 183.515 153.982 183.6 152.92 183.404C150.871 182.953 142.285 180.919 142.285 180.919Z" fill="#99E9A0" stroke="#263238" stroke-linecap="round" stroke-linejoin="round"/>
<path d="M82.0818 90.51C82.0818 90.51 53.0253 106.491 51.4127 110.85C49.8 115.208 70.2994 199.908 70.2994 199.908C70.6533 200.821 71.2703 201.607 72.0722 202.169C72.8741 202.73 73.8246 203.04 74.8032 203.061C78.1883 203.061 126.219 202.16 127.788 201.709C129.357 201.259 130.054 198.804 130.054 197.656C130.054 196.508 138.611 104.98 137.493 102.728C136.374 100.476 101.477 86.2678 101.477 86.2678L89.07 86.7181L82.0818 90.51Z" fill="#99E9A0" stroke="#263238" stroke-linecap="round" stroke-linejoin="round"/>
<path d="M86.8172 78.3354C84.1697 80.5836 81.7378 83.0739 79.5531 85.7739C76.6474 89.6094 78.2019 95.4643 80.0035 99.7501C81.805 104.036 87.4419 115.993 87.4419 115.993C87.4419 115.993 100.299 104.268 100.982 103.818C101.665 103.368 120.813 107.421 120.813 107.421C120.813 107.421 118.561 95.4643 112.024 86.4568C105.486 77.4492 98.2655 75.4007 95.3453 75.1828C92.4251 74.9649 86.8172 78.3354 86.8172 78.3354Z" fill="#99E9A0" stroke="#263238" stroke-linecap="round" stroke-linejoin="round"/>
<path d="M81.8488 69.3134C81.8488 69.3134 84.7545 79.6866 85.4664 82.3888C86.1782 85.0911 90.4205 92.762 93.3552 96.5975C96.2899 100.433 102.828 106.07 103.278 104.036C103.728 102.002 107.782 71.3473 105.748 66.6111C103.714 61.8749 86.3671 48.1166 82.0813 50.63C77.7954 53.1434 81.8488 69.3134 81.8488 69.3134Z" fill="white" stroke="#263238" stroke-linecap="round" stroke-linejoin="round"/>
<path d="M121.815 68.6452C121.815 68.6452 119.346 73.5993 110.324 69.9963C101.302 66.3933 97.4661 61.2067 96.3474 57.8216L94.4297 52.0103C96.2457 49.8601 98.7882 47.5646 98.5993 45.6614C98.4556 44.4336 97.9894 43.2657 97.2481 42.2763L109.873 36.465C109.873 36.465 113.476 34.896 111.907 30.3777C110.338 25.8594 100.633 20.2079 88.0082 24.5664C75.3831 28.9248 69.5137 39.3271 72.1578 48.3491C74.802 57.3712 82.9814 71.5944 82.9814 71.5944C82.9814 71.5944 86.134 72.7276 87.7176 71.144C89.3012 69.5604 87.2672 63.4876 87.2672 63.4876L87.9791 62.9065C89.4319 66.0155 92.9768 73.207 94.0374 75.6623C95.3885 78.815 95.8389 81.0668 101.476 81.7497C107.113 82.4325 121.539 86.0355 122.891 81.0668C124.242 76.0982 121.815 68.6452 121.815 68.6452Z" fill="#263238" stroke="#263238" stroke-linecap="round" stroke-linejoin="round"/>
<path d="M91.307 40.9832C87.6176 41.4188 84.1091 42.8222 81.1372 45.0511C75.66 48.9011 75.0498 52.3153 75.0498 52.3153L86.0187 46.8381C86.0187 46.8381 78.2896 53.5356 77.3017 55.3662C76.3138 57.1968 85.4375 51.5017 85.4375 51.5017L80.556 57.6036L86.4545 55.3662" stroke="white" stroke-width="0.5" stroke-linecap="round" stroke-linejoin="round"/>
<path d="M89.7529 40.9109C89.7529 40.9109 95.1575 44.0636 94.0388 46.9983C92.9201 49.933 89.9709 53.3036 90.2033 54.2624C90.4358 55.2213 96.741 70.0547 99.2108 72.5245C101.681 74.9943 118.606 77.0428 121.09 74.5584C123.575 72.0741 119.289 58.6645 116.122 49.9475C112.955 41.2306 110.717 33.9664 110.717 33.9664L89.7529 40.9109Z" fill="white" stroke="#263238" stroke-linecap="round" stroke-linejoin="round"/>
<path d="M113.812 45.2837L111.356 48.0441L116.267 58.766L111.662 61.2212" stroke="#263238" stroke-linecap="round" stroke-linejoin="round"/>
<path d="M106.285 52.591C106.663 53.5353 106.532 54.4651 106.009 54.6685C105.486 54.8719 104.774 54.2763 104.397 53.3464C104.019 52.4166 104.15 51.4723 104.673 51.2689C105.196 51.0655 105.922 51.6612 106.285 52.591Z" fill="#263238"/>
<path d="M114.406 49.1483C114.784 50.0781 114.668 51.0079 114.145 51.2113C113.622 51.4147 112.895 50.8336 112.518 49.8893C112.14 48.9449 112.271 48.0296 112.794 47.8117C113.317 47.5938 114.043 48.204 114.406 49.1483Z" fill="#263238"/>
<path d="M106.561 64.955L112.256 65.5651" stroke="#263238" stroke-linecap="round" stroke-linejoin="round"/>
<path d="M106.358 49.1045H99.2539" stroke="#263238" stroke-linecap="round" stroke-linejoin="round"/>
<path d="M89.4468 66.2046C88.7785 65.3038 85.8438 59.2165 82.9091 60.3933C79.9744 61.57 81.3401 66.4806 83.8099 69.6332C86.2797 72.7859 91.2629 69.8512 91.2629 69.8512" fill="white"/>
<path d="M89.4468 66.2046C88.7785 65.3038 85.8438 59.2165 82.9091 60.3933C79.9744 61.57 81.3401 66.4806 83.8099 69.6332C86.2797 72.7859 91.2629 69.8512 91.2629 69.8512" stroke="#263238" stroke-linecap="round" stroke-linejoin="round"/>
<path d="M57.7329 108.772C57.7329 108.772 51.9216 111.678 50.0619 115.092C48.2023 118.506 48.0425 125.683 48.7108 128.618C49.3791 131.552 79.38 168.745 79.38 168.745L92.0051 156.12L77.1281 119.145" fill="#99E9A0"/>
<path d="M57.7329 108.772C57.7329 108.772 51.9216 111.678 50.0619 115.092C48.2023 118.506 48.0425 125.683 48.7108 128.618C49.3791 131.552 79.38 168.745 79.38 168.745L92.0051 156.12L77.1281 119.145" stroke="#263238" stroke-linecap="round" stroke-linejoin="round"/>
<path d="M93.3562 145.078C93.3562 145.078 84.3341 146.88 82.0822 149.815C79.8303 152.749 74.1934 164.91 74.1934 170.547C74.1934 176.183 87.2688 180.469 92.4554 180.469C97.642 180.469 104.848 177.767 105.749 171.898C106.65 166.028 102.843 155.917 101.695 154.318C100.548 152.72 93.3562 145.078 93.3562 145.078Z" fill="#99E9A0" stroke="#263238" stroke-linecap="round" stroke-linejoin="round"/>
<path d="M104.382 83.9722L106.416 69.0953L116.106 69.3132C116.106 69.3132 117.239 70.214 116.339 70.8968C115.438 71.5796 110.251 72.2479 110.251 72.2479L110.019 74.9502L117.007 74.0494C117.797 75.1839 118.478 76.3902 119.041 77.6525C119.273 78.5532 117.472 84.4226 117.472 84.4226L115.656 84.873L114.988 81.7204L111.835 83.0715C111.835 83.0715 111.152 90.7424 110.469 91.4107C109.175 92.3946 107.822 93.2971 106.416 94.113C106.416 94.113 103.932 157.921 103.932 160.856C103.932 168.745 99.1954 171.679 93.7618 172.348C88.3282 173.016 85.1901 168.076 84.5218 164.009C83.8535 159.941 104.382 83.9722 104.382 83.9722Z" fill="white" stroke="#263238" stroke-linecap="round" stroke-linejoin="round"/>
<path d="M45.1069 414.505C45.1069 414.505 25.4938 430.733 23.4598 433.901C21.4259 437.068 26.6125 437.053 29.7796 436.152C32.9468 435.252 38.4966 434.351 42.4047 431.634C44.8734 429.871 47.2091 427.929 49.3928 425.823L49.6107 428.975C49.6107 428.975 53.2283 427.842 53.4462 427.174C53.6641 426.506 54.623 419.285 54.623 419.285L45.1069 414.505Z" fill="#99E9A0" stroke="#263238" stroke-linecap="round" stroke-linejoin="round"/>
<path d="M154.912 414.505C154.912 414.505 174.525 430.733 176.544 433.901C178.564 437.068 173.392 437.053 170.239 436.152C167.086 435.252 161.449 434.351 157.614 431.634C155.142 429.875 152.806 427.933 150.626 425.823L150.393 428.975C150.393 428.975 146.79 427.842 146.558 427.174C146.325 426.506 145.396 419.285 145.396 419.285L154.912 414.505Z" fill="#99E9A0" stroke="#263238" stroke-linecap="round" stroke-linejoin="round"/>
<path d="M153.196 363.104C152.978 353.399 146.019 338.522 146.019 337.839C146.019 337.157 136.009 248.331 136.009 248.331L129.689 199.864L99.5577 200.286L69.4115 199.864L63.1062 248.331C63.1062 248.331 53.0962 337.171 53.0962 337.839C53.0962 338.508 46.1227 353.399 45.8321 363.104C45.5415 372.809 43.3623 415.856 43.3623 415.856L54.6798 419.241C54.6798 419.241 74.9177 349.796 78.1721 336.43C81.4264 323.064 87.7462 290.666 90.1433 278.491C92.5405 266.317 99.0637 246.704 99.0637 246.704L99.6158 246.573L100.153 246.704C100.153 246.704 106.691 266.317 109.074 278.491C111.456 290.666 117.791 323.137 121.045 336.43C124.299 349.724 144.552 419.241 144.552 419.241L155.869 415.856C155.869 415.856 153.414 372.794 153.196 363.104Z" fill="#263238" stroke="#263238" stroke-linecap="round" stroke-linejoin="round"/>
<path d="M112.955 228.776L102.901 242.011" stroke="white" stroke-linecap="round" stroke-linejoin="round"/>
<path d="M75.9072 212.373L91.2636 225.609" stroke="white" stroke-linecap="round" stroke-linejoin="round"/>
<path d="M73.2617 216.078L84.3759 223.487" stroke="white" stroke-linecap="round" stroke-linejoin="round"/>
<path d="M104.484 203.903L98.6582 218.199L103.961 222.427L101.317 230.897" stroke="white" stroke-linecap="round" stroke-linejoin="round"/>
<path d="M152.646 187.457C152.646 187.457 157.164 180.193 156.031 175.515C154.898 170.837 147.924 166.943 142.505 168.745C137.086 170.546 136.868 177.767 136.868 182.053C136.868 186.338 134.834 205.051 134.834 205.051L126.945 218.577L133.033 225.565C133.033 225.565 139.352 213.608 144.089 205.719C147.419 199.867 150.28 193.761 152.646 187.457Z" fill="white" stroke="#263238" stroke-linecap="round" stroke-linejoin="round"/>
<path d="M133.932 207.521L124.721 212.257L118.416 221.279L119.535 222.412C121.048 221.398 122.631 220.49 124.271 219.695C126.305 218.795 129.908 217.444 129.908 217.444" fill="white"/>
<path d="M133.932 207.521L124.721 212.257L118.416 221.279L119.535 222.412C121.048 221.398 122.631 220.49 124.271 219.695C126.305 218.795 129.908 217.444 129.908 217.444" stroke="#263238" stroke-linecap="round" stroke-linejoin="round"/>
</svg>
