<svg width="500" height="547" viewBox="0 0 500 547" fill="none" xmlns="http://www.w3.org/2000/svg">
<path d="M333.106 520.724C333.106 520.724 306.988 514.975 302.035 501.808C297.083 488.642 306.583 455.131 308.642 422.12H201.359C203.419 455.131 212.918 488.63 207.966 501.808C203.014 514.986 176.895 520.724 176.895 520.724C176.895 520.724 231.227 546.093 250.786 546.402C272.345 546.748 333.106 520.724 333.106 520.724Z" fill="white"/>
<path opacity="0.4" d="M187.383 517.486C191.513 518.57 196.43 519.76 201.263 520.724C209.037 522.284 216.596 523.224 220.31 522.153C221.331 521.864 222.285 521.379 223.12 520.724C229.453 515.832 228.191 502.594 228.191 502.594C277.404 498.939 298.356 454.893 298.999 453.524C293.916 472.916 281.809 504.713 285.214 517.463C285.506 518.722 286.179 519.861 287.142 520.724C289.69 522.927 293.999 522.32 298.368 520.724C303.469 518.677 308.315 516.045 312.808 512.879C307.975 510.034 303.725 506.356 302.011 501.796C297.058 488.63 306.558 455.131 308.618 422.12H201.358C203.418 455.131 212.918 488.63 207.965 501.796C205.108 509.379 195.24 514.534 187.383 517.486Z" fill="#99E9A0"/>
<path d="M333.106 520.724C333.106 520.724 306.988 514.975 302.035 501.808C297.083 488.642 306.583 455.131 308.642 422.12H201.359C203.419 455.131 212.918 488.63 207.966 501.808C203.014 514.986 176.895 520.724 176.895 520.724" stroke="#263238" stroke-miterlimit="10"/>
<path d="M304.392 442.19C304.392 442.19 277.107 476.439 269.607 481.201C259.762 487.499 238.429 487.153 233.429 481.832C228.429 476.511 204.442 446.559 204.656 439.536C205.061 426.726 304.392 442.19 304.392 442.19Z" fill="#263238"/>
<path d="M194.859 374.18C194.859 374.18 186.526 362.526 182.133 361.585C179.514 361.026 173.871 364.68 173.467 367.883C173.062 371.085 177.181 388.823 175.943 392.537C174.705 396.251 181.383 406.667 186.24 412.286C191.097 417.905 192.431 421.191 195.764 416.655" fill="white"/>
<path opacity="0.4" d="M175.943 392.537C174.752 396.251 181.395 406.667 186.24 412.274C191.085 417.881 192.43 421.191 195.764 416.655C192.192 418 189.431 410.56 191.073 409.12C192.716 407.679 191.466 389.787 189.133 387.013C186.8 384.239 184.062 365.585 179.931 364.395C178.288 363.895 175.955 365.228 173.752 367.014C173.627 367.307 173.539 367.615 173.49 367.93C173.05 371.085 177.169 388.823 175.943 392.537Z" fill="#99E9A0"/>
<path d="M194.859 374.18C194.859 374.18 186.526 362.526 182.133 361.585C179.514 361.026 173.871 364.68 173.467 367.883C173.062 371.085 177.181 388.823 175.943 392.537C174.705 396.251 181.383 406.667 186.24 412.286C191.097 417.905 192.431 421.191 195.764 416.655" stroke="#263238" stroke-linecap="round" stroke-linejoin="round"/>
<path d="M177.181 377.061C177.181 377.061 175.991 371.764 178.622 370.395C181.253 369.025 184.717 385.811 186.883 387.382C189.05 388.954 187.502 392.953 186.883 395.227C186.264 397.501 188.74 398.108 188.943 399.763C189.145 401.418 189.36 403.334 188.121 403.679C186.883 404.025 182.55 401.001 181.312 398.525C180.074 396.049 179.443 388.62 179.443 388.62" stroke="#263238" stroke-linecap="round" stroke-linejoin="round"/>
<path d="M184.764 383.192C184.378 383.018 183.953 382.947 183.531 382.984C183.109 383.021 182.703 383.166 182.353 383.405C182.003 383.644 181.721 383.969 181.532 384.349C181.343 384.728 181.255 385.15 181.276 385.573" stroke="#263238" stroke-linecap="round" stroke-linejoin="round"/>
<path d="M315.142 374.18C315.142 374.18 323.475 362.526 327.868 361.585C330.487 361.026 336.129 364.68 336.534 367.883C336.939 371.085 332.82 388.823 334.058 392.537C335.296 396.251 328.618 406.667 323.761 412.286C318.904 417.905 317.57 421.191 314.237 416.655" fill="white"/>
<path opacity="0.4" d="M314.285 416.655C317.57 421.179 318.904 417.905 323.808 412.275C328.713 406.644 335.344 396.251 334.106 392.537C332.868 388.823 336.998 371.109 336.594 367.883C336.548 367.576 336.464 367.276 336.344 366.99C334.129 365.192 331.784 363.847 330.13 364.347C325.999 365.538 323.261 384.251 320.927 386.966C318.594 389.68 317.356 407.632 318.975 409.072C320.594 410.513 317.832 417.929 314.285 416.655Z" fill="#99E9A0"/>
<path d="M315.142 374.18C315.142 374.18 323.475 362.526 327.868 361.585C330.487 361.026 336.129 364.68 336.534 367.883C336.939 371.085 332.82 388.823 334.058 392.537C335.296 396.251 328.618 406.667 323.761 412.286C318.904 417.905 317.57 421.191 314.237 416.655" stroke="#263238" stroke-linecap="round" stroke-linejoin="round"/>
<path d="M332.821 377.061C332.821 377.061 334.011 371.764 331.38 370.395C328.749 369.025 325.285 385.811 323.118 387.382C320.952 388.954 322.499 392.953 323.118 395.227C323.737 397.501 321.261 398.108 321.059 399.763C320.857 401.418 320.642 403.334 321.88 403.679C323.118 404.025 327.452 401.001 328.69 398.525C329.928 396.049 330.559 388.62 330.559 388.62" stroke="#263238" stroke-linecap="round" stroke-linejoin="round"/>
<path d="M325.237 383.192C325.624 383.018 326.049 382.947 326.471 382.984C326.893 383.021 327.298 383.166 327.648 383.405C327.998 383.644 328.281 383.969 328.47 384.349C328.658 384.728 328.746 385.15 328.725 385.573" stroke="#263238" stroke-linecap="round" stroke-linejoin="round"/>
<path d="M322.713 326.848C321.249 308.646 309.368 270.385 255.191 270.147H254.81C200.633 270.385 188.752 308.646 187.288 326.848C185.824 345.05 193.55 412.691 196.288 425.477C199.216 439.179 213.061 449.286 227.477 464.333C237.894 475.237 239.513 476.63 254.858 476.797H255.239C270.536 476.63 272.155 475.237 282.619 464.333C297.035 449.25 310.88 439.179 313.809 425.477C316.451 412.691 324.177 345.086 322.713 326.848Z" fill="white"/>
<path opacity="0.4" d="M255.097 410.036C249.002 410.036 246.395 406.025 244.466 406.025C242.706 406.128 240.958 406.379 239.24 406.774C239.24 406.774 239.835 400.906 243.311 398.525C243.311 398.525 232.907 403.87 231.788 406.774C230.669 409.679 231.788 422.119 231.788 422.119C231.788 422.119 236.407 413.012 237.478 413.965C241.086 416.931 245.572 418.625 250.24 418.786L249.049 422.119L254.394 424.5C254.394 424.5 253.204 419.738 255.001 418.834C256.799 417.929 259.763 419.822 259.763 419.822C259.763 419.822 269.608 417.441 272.525 414.012C274.001 412.286 276.572 422.167 276.572 422.167C276.572 422.167 277.953 409.703 276.572 405.501C275.191 401.298 267.644 398.62 267.644 398.62C267.644 398.62 272.287 403.572 270.763 406.87C270.763 406.87 268.549 405.608 264.275 406.429C263.966 406.394 258.989 410.036 255.097 410.036Z" fill="#99E9A0"/>
<path opacity="0.4" d="M275.726 432.191C275.726 432.191 277.226 429.893 261.441 427.345L255.001 429.274L248.525 427.345C248.525 427.345 235.013 429.25 233.049 432.191C239.115 432.63 245.207 432.562 251.263 431.988L255.001 433.345L258.739 431.988C258.739 431.988 273.119 432.56 275.726 432.191Z" fill="#99E9A0"/>
<path opacity="0.4" d="M272.525 437.881C272.525 437.881 271.12 442.345 267.096 443.833C263.073 445.321 247.18 446.309 243.561 443.833C241.242 442.171 239.191 440.163 237.478 437.881C243.198 439.371 249.167 439.651 255.001 438.703C265.12 437.155 266.906 441.048 272.525 437.881Z" fill="#99E9A0"/>
<path opacity="0.4" d="M285.262 357.05C284.524 355.264 271.81 355.859 270.655 357.05C269.5 358.24 263.179 366.24 261.667 371.918C260.336 377.62 259.763 383.472 259.965 389.323C260.227 392.477 265.738 386.394 268.012 383.001C270.286 379.609 268.726 374.549 269.607 371.918C270.488 369.287 275.762 375.597 275.762 375.597C275.762 375.597 271.155 369.287 272.572 366.192C273.988 363.097 285.262 357.05 285.262 357.05Z" fill="#99E9A0"/>
<path opacity="0.4" d="M245.93 368.883C245.93 368.883 239.382 357.597 237.477 356.597C235.573 355.597 230.454 355.466 229.216 356.597C227.978 357.728 226.216 361.811 228.24 361.526C230.263 361.24 246.144 374.859 245.93 368.883Z" fill="#99E9A0"/>
<path opacity="0.4" d="M313.714 425.476C311.762 434.619 304.952 442.143 296.357 450.619C298.738 440.488 299.583 427.572 299.595 417.167C299.595 400.239 307.405 389.918 310.166 383.335C312.928 376.751 305.071 373.061 305.071 373.061C305.071 373.061 297.929 364.347 299.976 363.097C302.024 361.847 305.607 351.954 305.607 351.954L310.166 351.74C307.524 346.431 304.107 335.86 305.607 331.348C307.107 326.836 302.869 311.515 302.869 311.515L321.916 320.705C322.291 322.738 322.561 324.788 322.726 326.848C324.178 345.086 316.452 412.691 313.714 425.476Z" fill="#99E9A0"/>
<path opacity="0.4" d="M213.644 450.619C205.049 442.143 198.24 434.619 196.288 425.476C193.55 412.691 185.824 345.086 187.3 326.848C187.464 324.788 187.734 322.738 188.109 320.705L207.156 311.515C207.156 311.515 202.918 326.824 204.418 331.348C205.918 335.871 202.502 346.431 199.859 351.74L204.418 351.954C204.418 351.954 207.99 361.859 210.049 363.097C212.109 364.335 204.954 373.061 204.954 373.061C204.954 373.061 197.085 376.728 199.859 383.335C202.633 389.942 210.382 400.239 210.43 417.167C210.418 427.631 211.216 440.488 213.644 450.619Z" fill="#99E9A0"/>
<path d="M322.713 326.848C321.249 308.646 309.368 270.385 255.191 270.147H254.81C200.633 270.385 188.752 308.646 187.288 326.848C185.824 345.05 193.55 412.691 196.288 425.477C199.216 439.179 213.061 449.286 227.477 464.333C237.894 475.237 239.513 476.63 254.858 476.797H255.239C270.536 476.63 272.155 475.237 282.619 464.333C297.035 449.25 310.88 439.179 313.809 425.477C316.451 412.691 324.177 345.086 322.713 326.848Z" stroke="#263238" stroke-linecap="round" stroke-linejoin="round"/>
<path d="M271.048 352.883C271.357 351.727 271.991 350.684 272.875 349.878C273.76 349.072 274.857 348.537 276.036 348.336C282.369 347.074 291 345.193 298.774 347.55C309.666 350.859 309.261 357.073 309.261 357.073C308.187 355.298 306.632 353.864 304.775 352.937C302.919 352.01 300.838 351.628 298.774 351.835C291.512 352.526 270.655 354.597 270.655 354.597L271.048 352.883Z" fill="#263238"/>
<path d="M298.821 372.763C298.821 372.763 295.059 378.132 285.785 378.049C276.512 377.966 273.702 372.728 273.702 372.728L277.678 374.121C280.451 375.217 283.419 375.735 286.4 375.643C289.381 375.551 292.311 374.851 295.011 373.585L298.821 372.763Z" fill="#263238"/>
<path d="M275.75 368.276C275.75 368.276 280.286 363.395 284.083 363.24" stroke="#263238" stroke-linecap="round" stroke-linejoin="round"/>
<path d="M260.953 374.18C258.275 381.609 260.953 398.525 260.953 398.525" stroke="#263238" stroke-linecap="round" stroke-linejoin="round"/>
<path d="M276.535 371.811C276.535 371.811 286.428 375.93 294.678 371.811" stroke="#263238" stroke-linecap="round" stroke-linejoin="round"/>
<path d="M268.476 361.585C268.476 361.585 271.691 356.085 274.429 355.633" stroke="#263238" stroke-linecap="round" stroke-linejoin="round"/>
<path d="M238.954 352.883C238.645 351.727 238.011 350.684 237.126 349.878C236.242 349.072 235.145 348.537 233.966 348.336C227.633 347.074 219.002 345.193 211.228 347.55C200.336 350.859 200.74 357.073 200.74 357.073C201.815 355.298 203.37 353.864 205.226 352.937C207.083 352.01 209.164 351.628 211.228 351.835C218.49 352.526 239.347 354.597 239.347 354.597L238.954 352.883Z" fill="#263238"/>
<path d="M212.371 372.763C212.371 372.763 216.133 378.132 225.406 378.049C234.68 377.966 237.489 372.728 237.489 372.728L233.573 374.121C230.8 375.217 227.832 375.735 224.851 375.643C221.87 375.551 218.94 374.851 216.24 373.585L212.371 372.763Z" fill="#263238"/>
<path d="M235.442 368.276C235.442 368.276 230.906 363.395 227.109 363.24" stroke="#263238" stroke-linecap="round" stroke-linejoin="round"/>
<path d="M234.656 371.811C234.656 371.811 224.763 375.93 216.513 371.811" stroke="#263238" stroke-linecap="round" stroke-linejoin="round"/>
<path d="M235.584 355.609C244.405 357.05 249.048 374.18 249.048 374.18C251.727 381.609 249.048 398.525 249.048 398.525" stroke="#263238" stroke-linecap="round" stroke-linejoin="round"/>
<path d="M246.822 406.941C249.096 409.01 252.082 410.12 255.155 410.037C256.641 410.086 258.121 409.837 259.509 409.306C260.897 408.774 262.165 407.97 263.238 406.941" stroke="#263238" stroke-linecap="round" stroke-linejoin="round"/>
<path d="M259.299 415.929C260.374 414.626 261.633 413.487 263.037 412.548C264.917 411.429 266.179 413.489 266.179 413.489C266.179 413.489 263.798 415.762 261.929 415.393L259.299 415.929Z" fill="#263238"/>
<path d="M250.703 415.929C249.628 414.626 248.368 413.487 246.965 412.548C245.084 411.429 243.822 413.489 243.822 413.489C243.822 413.489 246.203 415.762 248.072 415.393L250.703 415.929Z" fill="#263238"/>
<path d="M243.31 415.417C243.31 415.417 237.703 413.798 237.501 411.108C237.452 410.302 237.583 409.496 237.884 408.746C238.184 407.997 238.647 407.324 239.239 406.775" stroke="#263238" stroke-linecap="round" stroke-linejoin="round"/>
<path d="M266.691 415.417C266.691 415.417 272.298 413.798 272.501 411.108C272.549 410.302 272.418 409.496 272.118 408.746C271.817 407.997 271.355 407.324 270.763 406.775" stroke="#263238" stroke-linecap="round" stroke-linejoin="round"/>
<path d="M278.214 433.774C278.214 433.774 277.083 431.274 275.726 432.191C274.369 433.107 259.417 431.56 258.738 431.988C258.405 432.203 255 433.345 255 433.345C255 433.345 251.596 432.155 251.262 431.988C250.584 431.56 235.632 433.095 234.275 432.191C232.918 431.286 231.787 433.774 231.787 433.774" stroke="#263238" stroke-linecap="round" stroke-linejoin="round"/>
<path d="M274.274 436.226C274.274 436.226 271.524 439.536 268.488 439.536C265.453 439.536 262.143 438.702 255.001 438.702C247.858 438.702 244.536 439.536 241.513 439.536C238.489 439.536 235.727 436.226 235.727 436.226" stroke="#263238" stroke-linecap="round" stroke-linejoin="round"/>
<path d="M274.274 429.822C274.274 429.822 264.096 427.441 261.477 427.346L255.001 429.274L248.524 427.346C245.905 427.489 235.727 429.822 235.727 429.822" stroke="#263238" stroke-linecap="round" stroke-linejoin="round"/>
<path d="M320.904 286.111C309.464 271.897 279.06 260.754 250.108 265.088C250.108 265.088 258.274 261.981 262.822 261.981C262.822 261.981 241.025 261.242 234.251 267.766L241.037 261.242C241.037 261.242 217.537 267.802 212.466 276.718L217.514 267.861C217.514 267.861 214.049 269.302 209.585 271.683C200.573 275.552 193.217 280.623 188.764 286.17C177.324 300.384 182.657 331.407 182.657 331.407C180.8 366.514 191.943 392.989 191.943 392.989C190.871 379.99 194.026 346.49 194.026 346.49C194.026 346.49 199.978 342.919 199.978 337.205C199.978 331.491 203.55 314.051 210.109 313.634C216.668 313.217 253.81 320.896 253.81 320.896L254.798 320.515L255.786 320.896C255.786 320.896 292.928 313.158 299.523 313.575C306.119 313.991 309.726 331.431 309.666 337.145C309.607 342.86 315.618 346.431 315.618 346.431C315.618 346.431 318.785 379.93 317.714 392.93C317.714 392.93 328.844 366.454 326.999 331.348C327.011 331.348 332.38 300.325 320.904 286.111Z" fill="#263238"/>
<path opacity="0.3" d="M256.191 313.348C256.191 313.348 244.573 297.218 253.299 282.159" stroke="white" stroke-linecap="round" stroke-linejoin="round"/>
<path opacity="0.3" d="M247.179 313.348C247.179 313.348 230.846 301.301 231.072 288.123" stroke="white" stroke-linecap="round" stroke-linejoin="round"/>
<path opacity="0.3" d="M235.585 311.753C235.585 311.753 213.407 306.146 210.883 295.277" stroke="white" stroke-linecap="round" stroke-linejoin="round"/>
<path opacity="0.3" d="M268.476 313.348C268.476 313.348 268.476 298.254 279.262 290.313" stroke="white" stroke-linecap="round" stroke-linejoin="round"/>
<path opacity="0.3" d="M279.262 311.753C280.814 309.023 282.943 306.665 285.501 304.843C288.059 303.021 290.984 301.78 294.071 301.206" stroke="white" stroke-linecap="round" stroke-linejoin="round"/>
<path d="M415.234 98.8297V91.5084L409.746 91.0323C409.429 89.8862 408.973 88.7829 408.389 87.7466L411.961 83.5443L406.782 78.3778L402.58 81.9491C401.542 81.3684 400.439 80.9129 399.294 80.592L398.818 75.116H391.509L391.033 80.592C389.887 80.9129 388.785 81.3684 387.747 81.9491L383.545 78.3778L378.342 83.592L381.914 87.7942C381.33 88.8305 380.874 89.9338 380.557 91.0799L375.069 91.5561V98.8773L380.557 99.3416C380.872 100.488 381.328 101.592 381.914 102.627L378.342 106.829L383.521 112.008L387.723 108.437C388.761 109.013 389.864 109.465 391.009 109.782L391.485 115.27H398.794L399.27 109.782C400.415 109.465 401.518 109.013 402.556 108.437L406.758 112.008L411.937 106.829L408.365 102.627C408.951 101.592 409.407 100.488 409.723 99.3416L415.234 98.8297ZM395.14 103.663C393.458 103.663 391.815 103.164 390.417 102.23C389.02 101.296 387.93 99.969 387.287 98.4158C386.643 96.8627 386.475 95.1537 386.803 93.5049C387.131 91.8561 387.941 90.3416 389.129 89.1528C390.318 87.9641 391.833 87.1546 393.481 86.8266C395.13 86.4987 396.839 86.667 398.392 87.3103C399.945 87.9536 401.273 89.0431 402.207 90.4409C403.141 91.8387 403.639 93.482 403.639 95.1631C403.639 97.4174 402.744 99.5794 401.15 101.173C399.556 102.767 397.394 103.663 395.14 103.663V103.663Z" stroke="#263238" stroke-linecap="round" stroke-linejoin="round"/>
<path d="M443.006 115.151V109.949L439.102 109.615C438.884 108.784 438.559 107.983 438.137 107.234L440.661 104.234L436.983 100.556L433.983 103.068C433.229 102.656 432.43 102.332 431.602 102.103L431.269 98.2107H426.054L425.721 102.103C424.893 102.332 424.094 102.656 423.34 103.068L420.471 100.603L416.781 104.282L419.281 107.282C418.859 108.031 418.535 108.831 418.317 109.663L414.412 109.996V115.198L418.317 115.544C418.537 116.374 418.861 117.174 419.281 117.925L416.757 120.913L420.447 124.591L423.435 122.079C424.189 122.491 424.988 122.814 425.816 123.043L426.15 126.948H431.364L431.697 123.043C432.525 122.814 433.324 122.491 434.078 122.079L437.078 124.591L440.756 120.913L438.233 117.925C438.653 117.174 438.977 116.374 439.197 115.544L443.006 115.151ZM428.721 118.603C427.525 118.603 426.356 118.248 425.361 117.584C424.367 116.919 423.592 115.975 423.134 114.87C422.676 113.765 422.556 112.549 422.79 111.376C423.023 110.203 423.599 109.125 424.445 108.279C425.291 107.434 426.368 106.858 427.541 106.624C428.714 106.391 429.93 106.511 431.035 106.968C432.14 107.426 433.085 108.201 433.749 109.196C434.414 110.19 434.769 111.36 434.769 112.556C434.769 113.351 434.612 114.138 434.307 114.873C434.002 115.607 433.556 116.274 432.993 116.836C432.43 117.398 431.762 117.843 431.027 118.146C430.292 118.449 429.504 118.605 428.709 118.603H428.721Z" stroke="#263238" stroke-linecap="round" stroke-linejoin="round"/>
<path d="M413.971 130.853V127.15L411.198 126.912C411.032 126.332 410.8 125.773 410.507 125.246L412.293 123.115L409.674 120.496L407.555 122.293C407.029 121.998 406.469 121.766 405.888 121.603L405.65 118.829H401.948L401.71 121.603C401.128 121.764 400.568 121.996 400.043 122.293L397.912 120.496L395.293 123.115L397.079 125.246C396.79 125.773 396.562 126.333 396.4 126.912L393.627 127.15V130.853L396.4 131.091C396.564 131.67 396.792 132.229 397.079 132.757L395.293 134.888L397.912 137.507L400.043 135.71C400.568 136.007 401.128 136.239 401.71 136.4L401.948 139.174H405.65L405.888 136.4C406.469 136.237 407.029 136.005 407.555 135.71L409.674 137.507L412.293 134.888L410.507 132.757C410.798 132.229 411.03 131.67 411.198 131.091L413.971 130.853ZM403.805 133.305C402.953 133.305 402.12 133.052 401.411 132.579C400.702 132.105 400.15 131.432 399.824 130.645C399.497 129.857 399.412 128.991 399.578 128.155C399.745 127.319 400.155 126.551 400.758 125.948C401.36 125.346 402.128 124.935 402.964 124.769C403.8 124.603 404.667 124.688 405.454 125.014C406.242 125.34 406.915 125.893 407.388 126.601C407.862 127.31 408.114 128.143 408.114 128.996C408.114 130.138 407.66 131.235 406.852 132.043C406.044 132.851 404.948 133.305 403.805 133.305Z" stroke="#263238" stroke-linecap="round" stroke-linejoin="round"/>
<path d="M356.474 107.127C356.472 100.225 357.831 93.3895 360.471 87.0121C363.112 80.6347 366.984 74.8401 371.864 69.9593C376.745 65.0785 382.54 61.2072 388.917 58.5664C395.295 55.9257 402.13 54.5673 409.032 54.5688" stroke="#263238" stroke-linecap="round" stroke-linejoin="round"/>
<path d="M425.722 156.971C418.593 159.351 411.036 160.176 403.562 159.388C396.087 158.601 388.869 156.221 382.392 152.408C375.915 148.594 370.331 143.437 366.016 137.283C361.701 131.13 358.756 124.122 357.378 116.734" stroke="#263238" stroke-linecap="round" stroke-linejoin="round"/>
<path d="M440.328 149.352C437.956 151.106 435.443 152.663 432.817 154.007" stroke="#263238" stroke-linecap="round" stroke-linejoin="round"/>
<path d="M461.59 107.127C461.598 114.032 460.242 120.871 457.6 127.251C454.959 133.631 451.084 139.426 446.197 144.305" stroke="#263238" stroke-linecap="round" stroke-linejoin="round"/>
<path d="M419.615 55.6284C433.142 58.4147 445.03 66.4111 452.71 77.8898" stroke="#263238" stroke-linecap="round" stroke-linejoin="round"/>
<path d="M85.5519 87.5681L82.6472 91.5561" stroke="#263238" stroke-linecap="round" stroke-linejoin="round"/>
<path d="M79.5994 89.33L82.5041 85.342" stroke="#263238" stroke-linecap="round" stroke-linejoin="round"/>
<path d="M99.1613 89.9152C109.85 87.9515 116.924 77.6944 114.96 67.0053C112.996 56.3163 102.739 49.2431 92.05 51.2068C81.361 53.1705 74.2877 63.4276 76.2515 74.1166C78.2152 84.8057 88.4723 91.8789 99.1613 89.9152Z" stroke="#263238" stroke-linecap="round" stroke-linejoin="round"/>
<path d="M60.2547 119.103C59.9316 118.869 59.6579 118.574 59.4494 118.234C59.2409 117.895 59.1016 117.517 59.0397 117.123C58.9777 116.729 58.9943 116.327 59.0884 115.939C59.1825 115.552 59.3523 115.187 59.5881 114.865L77.2781 90.5681C77.7521 89.9182 78.4646 89.4829 79.2592 89.3579C80.0538 89.2329 80.8656 89.4284 81.5161 89.9015V89.9015C81.8392 90.1351 82.1129 90.4304 82.3215 90.7703C82.53 91.1101 82.6693 91.4879 82.7312 91.8818C82.7932 92.2757 82.7766 92.6779 82.6825 93.0654C82.5884 93.4529 82.4186 93.8179 82.1828 94.1395L64.5285 118.437C64.2946 118.765 63.9975 119.043 63.6547 119.255C63.3118 119.466 62.9301 119.607 62.5319 119.669C62.1338 119.732 61.7272 119.713 61.3362 119.616C60.9451 119.519 60.5774 119.345 60.2547 119.103V119.103Z" stroke="#263238" stroke-linecap="round" stroke-linejoin="round"/>
<path d="M109.407 80.6042C107.424 83.3391 104.673 85.4239 101.503 86.5945C98.3339 87.7651 94.8883 87.9689 91.603 87.18C88.3177 86.3911 85.3403 84.645 83.048 82.1629C80.7556 79.6808 79.2514 76.5743 78.7257 73.2367C78.2 69.8992 78.6766 66.4807 80.095 63.4141C81.5135 60.3476 83.81 57.7709 86.6938 56.0104C89.5776 54.2498 92.9189 53.3847 96.2947 53.5244C99.6706 53.6641 102.929 54.8024 105.657 56.7952C109.306 59.4598 111.749 63.462 112.452 67.9248C113.155 72.3877 112.06 76.9471 109.407 80.6042V80.6042Z" stroke="#263238" stroke-linecap="round" stroke-linejoin="round"/>
<path d="M65.0036 132.615C52.3674 126.733 42.5848 116.074 37.8074 102.98C33.0299 89.8869 33.6488 75.432 39.528 62.7949" stroke="#263238" stroke-linecap="round" stroke-linejoin="round"/>
<path d="M139.407 90.8418C138.562 98.3172 136.124 105.525 132.256 111.977C128.389 118.43 123.182 123.978 116.987 128.246C110.792 132.515 103.754 135.405 96.3472 136.721C88.9402 138.037 81.3371 137.749 74.051 135.876" stroke="#263238" stroke-linecap="round" stroke-linejoin="round"/>
<path d="M138.645 74.3899C139.243 77.2796 139.598 80.2145 139.705 83.1635" stroke="#263238" stroke-linecap="round" stroke-linejoin="round"/>
<path d="M109.324 37.3074C115.586 40.2089 121.212 44.3192 125.881 49.4021C130.549 54.485 134.166 60.4403 136.526 66.9257" stroke="#263238" stroke-linecap="round" stroke-linejoin="round"/>
<path d="M44.9452 53.6403C51.1735 45.244 59.7663 38.8978 69.6232 35.4146C72.6951 34.3358 75.8589 33.5389 79.0753 33.0337" stroke="#263238" stroke-linecap="round" stroke-linejoin="round"/>
<path d="M0.505617 216.148C0.504053 210.971 1.52241 205.844 3.50254 201.061C5.48266 196.277 8.38576 191.931 12.046 188.27C15.7062 184.608 20.0519 181.704 24.8348 179.722C29.6178 177.741 34.7442 176.721 39.9213 176.721" stroke="#263238" stroke-linecap="round" stroke-linejoin="round"/>
<path d="M52.4448 253.528C47.0964 255.316 41.427 255.935 35.8188 255.346C30.2106 254.757 24.7939 252.972 19.9339 250.112C15.0738 247.252 10.8833 243.384 7.6448 238.767C4.40632 234.151 2.19513 228.894 1.16028 223.351" stroke="#263238" stroke-linecap="round" stroke-linejoin="round"/>
<path d="M63.3976 247.874C61.6189 249.194 59.7312 250.361 57.7549 251.362" stroke="#263238" stroke-linecap="round" stroke-linejoin="round"/>
<path d="M79.3379 216.148C79.3443 221.325 78.3274 226.453 76.3457 231.235C74.364 236.018 71.4566 240.362 67.7905 244.017" stroke="#263238" stroke-linecap="round" stroke-linejoin="round"/>
<path d="M47.8621 177.53C58.0023 179.613 66.9171 185.599 72.6829 194.197" stroke="#263238" stroke-linecap="round" stroke-linejoin="round"/>
<path d="M55.7545 208.101C55.7573 205.312 55.0236 202.572 53.6275 200.158C52.2314 197.744 50.2225 195.742 47.804 194.354C45.3855 192.965 42.6432 192.24 39.8546 192.252C37.0659 192.264 34.3299 193.012 31.9232 194.421C29.5166 195.83 27.5247 197.849 26.1491 200.275C24.7734 202.7 24.0629 205.446 24.0893 208.235C24.1158 211.023 24.8782 213.756 26.2996 216.155C27.7209 218.554 29.7507 220.535 32.1837 221.898L32.7075 223.922H47.1357L47.6476 221.898C50.1042 220.528 52.1507 218.526 53.5758 216.101C55.0008 213.676 55.753 210.914 55.7545 208.101V208.101Z" stroke="#263238" stroke-linecap="round" stroke-linejoin="round"/>
<path d="M44.2906 237.029H35.4813C34.9215 237.026 34.3823 236.817 33.9671 236.441C33.552 236.065 33.29 235.55 33.2314 234.993L32.1481 223.922H47.6239L46.5406 234.993C46.4871 235.552 46.2267 236.071 45.8104 236.447C45.3941 236.824 44.852 237.031 44.2906 237.029V237.029Z" stroke="#263238" stroke-linecap="round" stroke-linejoin="round"/>
<path d="M44.4929 237.231C44.4929 238.767 42.4453 240.017 39.9215 240.017C37.3978 240.017 35.3502 238.767 35.3502 237.231" stroke="#263238" stroke-linecap="round" stroke-linejoin="round"/>
<path d="M32.1832 211.91H35.8617L38.1474 207.089L40.814 216.351L43.5996 208.101L44.9924 211.72H47.6471" stroke="#263238" stroke-linecap="round" stroke-linejoin="round"/>
<path d="M243.524 3.04632C249.29 0.487843 255.835 0.322013 261.723 2.58524C267.611 4.84846 272.36 9.35575 274.928 15.1175" stroke="#263238" stroke-linecap="round" stroke-linejoin="round"/>
<path d="M235.643 40.8667C233.341 38.3548 231.604 35.378 230.551 32.1373C229.498 28.8966 229.153 25.4676 229.539 22.082C229.925 18.6965 231.033 15.4332 232.788 12.5127C234.544 9.59219 236.906 7.08254 239.715 5.15332" stroke="#263238" stroke-linecap="round" stroke-linejoin="round"/>
<path d="M241.475 45.4977C240.313 44.839 239.206 44.0866 238.166 43.2478" stroke="#263238" stroke-linecap="round" stroke-linejoin="round"/>
<path d="M262.856 46.5334C260.003 47.8069 256.926 48.5035 253.802 48.5831C250.678 48.6628 247.569 48.124 244.655 46.9977" stroke="#263238" stroke-linecap="round" stroke-linejoin="round"/>
<path d="M276.428 19.7007C277.743 25.8091 276.624 32.1896 273.309 37.486" stroke="#263238" stroke-linecap="round" stroke-linejoin="round"/>
<path d="M255.19 30.7362H251.19L248.809 11.1057H257.571L255.19 30.7362Z" stroke="#263238" stroke-linecap="round" stroke-linejoin="round"/>
<path d="M255.19 34.3076H251.19L250 38.4742H256.38L255.19 34.3076Z" stroke="#263238" stroke-linecap="round" stroke-linejoin="round"/>
<path d="M481.077 263.588C474.942 265.06 468.472 264.037 463.09 260.742C457.709 257.447 453.855 252.151 452.376 246.017" stroke="#263238" stroke-linecap="round" stroke-linejoin="round"/>
<path d="M495.684 227.815C497.486 230.7 498.65 233.938 499.095 237.311C499.54 240.684 499.258 244.113 498.266 247.368C497.275 250.622 495.597 253.626 493.347 256.178C491.096 258.729 488.325 260.769 485.22 262.159" stroke="#263238" stroke-linecap="round" stroke-linejoin="round"/>
<path d="M490.779 222.196C491.806 223.054 492.758 223.998 493.624 225.017" stroke="#263238" stroke-linecap="round" stroke-linejoin="round"/>
<path d="M469.946 217.315C472.984 216.581 476.137 216.455 479.224 216.943C482.311 217.431 485.271 218.525 487.934 220.16" stroke="#263238" stroke-linecap="round" stroke-linejoin="round"/>
<path d="M451.721 241.243C451.552 236.515 452.796 231.845 455.293 227.827C456.076 226.576 456.972 225.4 457.971 224.315" stroke="#263238" stroke-linecap="round" stroke-linejoin="round"/>
<path d="M482.994 230.922C481.614 230.479 480.124 230.515 478.767 231.025C477.41 231.535 476.265 232.489 475.518 233.732C474.767 232.487 473.618 231.532 472.257 231.022C470.896 230.512 469.402 230.477 468.018 230.922C463.697 232.255 462.197 237.767 465.84 242.827C468.273 245.841 471.342 248.28 474.828 249.969L475.518 250.303L476.197 249.969C479.684 248.282 482.754 245.843 485.185 242.827C488.827 237.767 487.315 232.255 482.994 230.922Z" stroke="#263238" stroke-linecap="round" stroke-linejoin="round"/>
<path d="M385.246 289.932C389.171 287.903 393.458 286.667 397.861 286.295C402.264 285.923 406.697 286.422 410.907 287.764C415.117 289.106 419.021 291.265 422.397 294.117C425.772 296.969 428.552 300.458 430.578 304.384" stroke="#263238" stroke-linecap="round" stroke-linejoin="round"/>
<path d="M377.234 343.967C373.783 340.611 371.091 336.555 369.341 332.071C367.59 327.587 366.821 322.78 367.087 317.973C367.352 313.167 368.644 308.473 370.878 304.209C373.111 299.945 376.232 296.209 380.032 293.254" stroke="#263238" stroke-linecap="round" stroke-linejoin="round"/>
<path d="M385.865 350.038C384.17 349.2 382.545 348.224 381.008 347.121" stroke="#263238" stroke-linecap="round" stroke-linejoin="round"/>
<path d="M416.126 349.717C412.204 351.751 407.918 352.989 403.515 353.361C399.113 353.733 394.68 353.231 390.472 351.883" stroke="#263238" stroke-linecap="round" stroke-linejoin="round"/>
<path d="M433.091 310.718C434.898 317.164 434.741 324.003 432.638 330.36C431.992 332.343 431.159 334.26 430.15 336.086" stroke="#263238" stroke-linecap="round" stroke-linejoin="round"/>
<path d="M401.472 334.824C410.223 334.824 417.317 327.73 417.317 318.979C417.317 310.228 410.223 303.134 401.472 303.134C392.721 303.134 385.627 310.228 385.627 318.979C385.627 327.73 392.721 334.824 401.472 334.824Z" stroke="#263238" stroke-linecap="round" stroke-linejoin="round"/>
<path d="M404.746 322.384C404.069 323.043 403.211 323.486 402.281 323.656C401.352 323.826 400.393 323.716 399.526 323.339C398.659 322.962 397.924 322.336 397.415 321.541C396.905 320.745 396.643 319.815 396.664 318.87C396.684 317.926 396.985 317.008 397.528 316.235C398.071 315.462 398.832 314.867 399.714 314.528C400.596 314.189 401.559 314.119 402.481 314.329C403.402 314.539 404.241 315.018 404.889 315.706C405.746 316.615 406.212 317.825 406.185 319.074C406.158 320.323 405.642 321.512 404.746 322.384Z" stroke="#263238" stroke-linecap="round" stroke-linejoin="round"/>
<path d="M408.376 326.181C406.951 327.545 405.153 328.456 403.21 328.798C401.267 329.14 399.266 328.899 397.46 328.104C395.655 327.309 394.125 325.996 393.065 324.332C392.006 322.668 391.463 320.727 391.506 318.754C391.55 316.782 392.177 314.867 393.309 313.251C394.44 311.635 396.026 310.39 397.865 309.675C399.703 308.96 401.713 308.807 403.639 309.234C405.565 309.661 407.322 310.649 408.686 312.075C409.592 313.021 410.303 314.137 410.778 315.358C411.253 316.579 411.482 317.882 411.453 319.192C411.425 320.502 411.138 321.794 410.61 322.993C410.082 324.192 409.323 325.276 408.376 326.181Z" stroke="#263238" stroke-linecap="round" stroke-linejoin="round"/>
<path d="M401.472 318.979L418.721 302.468" stroke="#263238" stroke-linecap="round" stroke-linejoin="round"/>
<path d="M418.853 298.301L418.77 302.42L422.888 302.504" stroke="#263238" stroke-linecap="round" stroke-linejoin="round"/>
<path d="M416.282 300.765L416.186 304.884L420.305 304.98" stroke="#263238" stroke-linecap="round" stroke-linejoin="round"/>
<path d="M413.698 303.241L413.615 307.36L417.734 307.444" stroke="#263238" stroke-linecap="round" stroke-linejoin="round"/>
<path d="M95.861 360.335C89.7251 361.808 83.2555 360.784 77.8738 357.49C72.4921 354.195 68.6383 348.899 67.1593 342.764" stroke="#263238" stroke-linecap="round" stroke-linejoin="round"/>
<path d="M110.467 324.563C112.274 327.449 113.441 330.689 113.888 334.065C114.336 337.44 114.054 340.873 113.063 344.13C112.071 347.387 110.392 350.394 108.139 352.948C105.886 355.501 103.112 357.541 100.003 358.931" stroke="#263238" stroke-linecap="round" stroke-linejoin="round"/>
<path d="M105.563 318.944C106.589 319.802 107.541 320.745 108.408 321.765" stroke="#263238" stroke-linecap="round" stroke-linejoin="round"/>
<path d="M84.766 314.063C87.7991 313.335 90.9461 313.212 94.0266 313.703C97.1071 314.193 100.061 315.286 102.718 316.92" stroke="#263238" stroke-linecap="round" stroke-linejoin="round"/>
<path d="M66.5042 337.991C66.3146 331.732 68.5985 325.65 72.8612 321.062" stroke="#263238" stroke-linecap="round" stroke-linejoin="round"/>
<path d="M80.0271 328.479V345.907H100.562" stroke="#263238" stroke-linecap="round" stroke-linejoin="round"/>
<path d="M87.3261 333.372H84.2666V345.907H87.3261V333.372Z" stroke="#263238" stroke-linecap="round" stroke-linejoin="round"/>
<path d="M93.2778 336.943H90.2184V345.907H93.2778V336.943Z" stroke="#263238" stroke-linecap="round" stroke-linejoin="round"/>
<path d="M99.2296 329.8H96.1702V345.907H99.2296V329.8Z" stroke="#263238" stroke-linecap="round" stroke-linejoin="round"/>
<path d="M114.098 318.979L255 185.875L81.5156 208.41" stroke="#263238" stroke-linecap="round" stroke-linejoin="round"/>
<path d="M136.539 118.603L255 185.875L252.774 52.1167" stroke="#263238" stroke-linecap="round" stroke-linejoin="round"/>
<path d="M360.64 138.21L255 185.875L446.198 232.779" stroke="#263238" stroke-linecap="round" stroke-linejoin="round"/>
<path d="M255 185.875L373.533 293.254" stroke="#263238" stroke-linecap="round" stroke-linejoin="round"/>
<path d="M332.569 182.125C332.571 167.009 328.156 152.221 319.867 139.58C311.578 126.939 299.775 116.995 285.911 110.972C272.047 104.948 256.724 103.106 241.827 105.673C226.93 108.24 213.108 115.104 202.059 125.421C191.011 135.738 183.217 149.058 179.637 163.744C176.057 178.431 176.846 193.843 181.907 208.087C186.968 222.332 196.081 234.786 208.126 243.921C220.17 253.056 234.621 258.472 249.702 259.505L255 279.742L260.297 259.505C279.906 258.165 298.276 249.43 311.692 235.066C325.108 220.702 332.57 201.78 332.569 182.125V182.125Z" fill="white"/>
<path d="M332.569 182.125C332.571 167.009 328.156 152.221 319.867 139.58C311.578 126.939 299.775 116.995 285.911 110.972C272.047 104.948 256.724 103.106 241.827 105.673C226.93 108.24 213.108 115.104 202.059 125.421C191.011 135.738 183.217 149.058 179.637 163.744C176.057 178.431 176.846 193.843 181.907 208.087C186.968 222.332 196.081 234.786 208.126 243.921C220.17 253.056 234.621 258.472 249.702 259.505L255 279.742L260.297 259.505C279.906 258.165 298.276 249.43 311.692 235.066C325.108 220.702 332.57 201.78 332.569 182.125V182.125Z" stroke="#263238" stroke-linecap="round" stroke-linejoin="round"/>
<path d="M301.427 190.268C301.023 192.161 300.713 194.363 300.403 196.494C300.077 199.519 299.492 202.51 298.654 205.434C298.119 206.665 297.304 207.754 296.273 208.613C296.273 209.946 295.63 217.732 290.178 220.22C290.104 220.979 289.85 221.709 289.435 222.349C289.021 222.989 288.459 223.52 287.797 223.898C287.594 224.017 268.654 234.291 261.916 234.291C261.49 234.297 261.065 234.241 260.654 234.124C257.416 233.053 255.893 231.041 256.012 227.779C256.08 226.35 256.341 224.936 256.785 223.577C255.5 221.803 255.786 219.541 256.047 217.541C256.292 216.41 256.32 215.242 256.131 214.101C255.488 211.648 256.405 207.672 256.655 206.696C255.845 205.434 256.083 201.839 256.524 196.958C256.678 195.292 256.821 193.708 256.821 192.744C256.883 191.674 257.347 190.667 258.119 189.923C257.82 187.209 257.82 184.47 258.119 181.756C256.774 176.673 257.916 169.28 258.119 168.173C256.447 163.684 256.354 158.758 257.857 154.209C255.631 149.876 256.774 141.531 256.905 140.638C256.809 139.948 256.226 134.9 258.619 132.591C259.186 132.083 259.869 131.724 260.609 131.546C261.348 131.367 262.121 131.374 262.857 131.567C266.988 132.329 269.583 132.853 271.464 133.365C272.525 133.641 273.56 134.008 274.559 134.46C276.239 135.512 277.501 137.116 278.13 138.995C279.281 138.666 280.492 138.61 281.668 138.831C282.844 139.052 283.952 139.545 284.904 140.269C287.582 142.341 287.69 144.233 287.594 145.031C293.427 148.602 295.63 163.269 295.927 165.078C296.853 166.079 297.504 167.302 297.819 168.628C298.134 169.954 298.101 171.339 297.725 172.649C298.614 173.564 299.237 174.703 299.528 175.944C299.82 177.185 299.768 178.482 299.38 179.697C299.2 180.285 298.957 180.852 298.654 181.387C298.689 181.542 302.463 185.292 301.427 190.268Z" fill="#D95736"/>
<path opacity="0.2" d="M301.427 190.268C301.022 192.161 300.713 194.363 300.403 196.494C300.077 199.519 299.492 202.51 298.653 205.434C298.119 206.665 297.303 207.754 296.272 208.613C296.272 209.946 295.629 217.731 290.177 220.219C290.104 220.978 289.849 221.709 289.435 222.349C289.021 222.989 288.459 223.52 287.796 223.898C287.594 224.017 268.654 234.291 261.916 234.291C261.489 234.297 261.064 234.241 260.654 234.124C257.416 233.052 255.892 231.041 256.011 227.779C256.268 227.931 256.466 228.166 256.571 228.445C258.285 231.874 261.535 232.231 264.273 231.695C267.011 231.16 267.69 227.898 267.69 227.898L262.928 224.946C262.928 224.946 268.332 223.219 271.678 221.969C272.097 221.858 272.483 221.644 272.8 221.348C273.117 221.051 273.356 220.681 273.495 220.269C273.634 219.858 273.669 219.418 273.597 218.99C273.525 218.562 273.348 218.158 273.082 217.815C272.223 218.022 271.329 218.047 270.46 217.887C269.59 217.727 268.764 217.386 268.035 216.886C268.162 216.307 268.414 215.763 268.774 215.292C269.134 214.821 269.593 214.435 270.118 214.16C271.725 213.565 277.344 210.255 275.177 208.529C273.011 206.803 270.118 208.41 270.118 208.41C265.773 209.101 264.225 206.601 264.225 206.601C264.225 206.601 276.427 203.029 276.249 198.851C276.29 196.754 275.885 194.672 275.058 192.744C275.058 192.744 279.951 191.339 280.868 187.911C281.784 184.482 277.904 180.423 277.904 180.423C279.88 180.923 281.177 178.042 280.868 176.923C280.558 175.804 284.784 172.423 284.594 170.078C284.403 167.733 280.868 167.447 280.868 167.447C283.07 162.828 279.332 153.054 279.332 153.054C280.368 147.924 275.761 143.531 275.761 143.531C276.058 139.662 273.594 135.936 271.368 133.388C272.429 133.665 273.464 134.031 274.463 134.483C276.143 135.536 277.405 137.139 278.035 139.019C279.185 138.69 280.396 138.633 281.572 138.855C282.748 139.076 283.856 139.568 284.808 140.293C287.487 142.364 287.594 144.257 287.499 145.055C293.332 148.626 295.534 163.292 295.832 165.102C296.757 166.103 297.408 167.325 297.723 168.652C298.038 169.978 298.006 171.363 297.629 172.673C298.518 173.587 299.141 174.726 299.433 175.968C299.724 177.209 299.673 178.506 299.284 179.72C299.104 180.309 298.861 180.876 298.558 181.411C298.689 181.542 302.462 185.292 301.427 190.268Z" fill="black"/>
<path opacity="0.2" d="M253.274 223.577C255.059 229.41 253.857 232.66 249.405 234.124C248.995 234.241 248.569 234.297 248.143 234.291C245.583 234.291 241.262 232.803 236.869 230.957C238.7 231.398 240.623 231.257 242.369 230.553C247.405 227.66 243.917 224.946 243.917 224.946C250.5 225.6 249.107 217.803 249.631 214.16C250.155 210.517 245.786 207.196 245.786 207.196C249.191 207.72 248.393 200.053 249.869 197.208C251.345 194.363 248.786 188.101 248.786 188.101C248.238 183.125 246.226 181.542 248.786 178.161C251.345 174.78 248.786 166.507 248.786 166.507C248.786 166.507 250.548 162.816 249.869 159.864C249.191 156.912 249.869 151.126 249.869 151.126C247.488 148.055 249.869 137.948 249.869 137.948C249.882 136.006 250.372 134.096 251.298 132.388L251.524 132.591C253.905 134.9 253.333 139.948 253.238 140.638C253.369 141.531 254.512 149.876 252.286 154.209C253.788 158.758 253.696 163.684 252.024 168.173C252.202 169.28 253.345 176.673 252.024 181.756C252.322 184.47 252.322 187.209 252.024 189.923C252.796 190.667 253.259 191.674 253.321 192.744C253.321 193.708 253.464 195.292 253.607 196.958C254.059 201.839 254.298 205.434 253.488 206.696C253.738 207.672 254.678 211.648 254.012 214.101C253.822 215.243 253.85 216.41 254.095 217.541C254.274 219.541 254.559 221.803 253.274 223.577Z" fill="black"/>
<path d="M267.821 143.519C267.821 143.519 266.631 150.269 270.202 153.043C270.202 153.043 269.476 161.376 271.642 165.197C271.642 165.197 268.071 172.887 271.642 177.697C271.642 177.697 267.321 189.22 271.642 192.101C275.964 194.982 287.487 187.066 292.059 186.149C296.63 185.232 302.142 177.983 297.07 172.804" stroke="#263238" stroke-linecap="round" stroke-linejoin="round"/>
<path d="M283.38 166.923C283.38 166.923 283.38 164.542 283.38 161.15C283.38 157.757 280.784 153.078 280.784 153.078C281.975 150.055 277.427 143.555 277.427 143.555C279.344 140.591 276.237 135.853 274.225 134.9C272.213 133.948 269.463 133.305 262.63 132.055C255.797 130.805 257.213 140.674 257.213 140.674C257.213 140.674 255.809 149.876 258.213 154.197C256.675 158.739 256.759 163.674 258.452 168.161C258.452 168.161 257.011 176.399 258.452 181.756C258.452 181.756 257.928 187.78 258.547 190.089" stroke="#263238" stroke-linecap="round" stroke-linejoin="round"/>
<path d="M278.605 168.114C282.08 166.713 285.963 166.713 289.438 168.114" stroke="#263238" stroke-linecap="round" stroke-linejoin="round"/>
<path d="M263.011 187.22C263.011 187.22 257.214 189.53 257.214 192.744C257.214 195.958 255.726 205.232 257.083 206.601C258.44 207.97 270.428 207.244 278.606 201.72C278.606 201.72 288.951 202.684 291.118 200.042C293.284 197.399 296.939 196.72 297.391 195.018" stroke="#263238" stroke-linecap="round" stroke-linejoin="round"/>
<path d="M298.213 181.72C298.213 181.72 301.987 185.387 300.963 190.173C299.939 194.958 299.523 201.577 298.213 205.291C296.904 209.006 288.368 214.041 283.38 212.565C283.38 212.565 269.024 218.184 265.417 216.684" stroke="#263238" stroke-linecap="round" stroke-linejoin="round"/>
<path d="M257.082 206.601C257.082 206.601 255.809 211.363 256.511 213.97C257.213 216.577 255.023 220.779 257.213 223.494C259.404 226.208 277.189 224.767 279.832 221.886" stroke="#263238" stroke-linecap="round" stroke-linejoin="round"/>
<path d="M289.44 216.922C289.44 216.922 290.928 221.553 287.511 223.493C284.095 225.434 265.202 235.136 260.75 233.672C256.298 232.207 255.512 228.91 257.179 223.493" stroke="#263238" stroke-linecap="round" stroke-linejoin="round"/>
<path d="M295.797 208.41C295.797 208.41 295.606 217.434 289.761 219.91" stroke="#263238" stroke-linecap="round" stroke-linejoin="round"/>
<path d="M277.749 139.543C278.88 139.152 280.089 139.045 281.27 139.232C282.451 139.419 283.569 139.894 284.523 140.615C287.761 143.091 286.987 145.222 286.987 145.222C293.177 148.567 295.32 165.269 295.32 165.269C296.258 166.242 296.914 167.451 297.22 168.767C297.526 170.083 297.47 171.458 297.058 172.745C295.868 177.661 288.916 176.483 283.344 179.53C277.773 182.578 271.63 177.685 271.63 177.685" stroke="#263238" stroke-linecap="round" stroke-linejoin="round"/>
<path d="M271.665 192.113C270.868 193.454 269.789 194.604 268.502 195.484C267.214 196.364 265.751 196.953 264.213 197.208" stroke="#263238" stroke-linecap="round" stroke-linejoin="round"/>
<path d="M270.106 174.34C267.339 173.955 264.521 174.459 262.059 175.78" stroke="#263238" stroke-linecap="round" stroke-linejoin="round"/>
<path d="M258.452 168.114C258.452 168.114 263.5 164.245 265.416 164.959" stroke="#263238" stroke-linecap="round" stroke-linejoin="round"/>
<path d="M270.106 156.328C270.106 156.328 263.737 155.602 262.059 158.245" stroke="#263238" stroke-linecap="round" stroke-linejoin="round"/>
<path d="M258.213 154.162C258.213 154.162 258.928 150.805 262.059 150.329" stroke="#263238" stroke-linecap="round" stroke-linejoin="round"/>
<path d="M257.214 140.638C257.214 140.638 259.178 137.186 262.059 137.745" stroke="#263238" stroke-linecap="round" stroke-linejoin="round"/>
<path d="M283.38 212.565C283.38 212.565 283.916 208.827 281.75 207.196" stroke="#263238" stroke-linecap="round" stroke-linejoin="round"/>
<path d="M278.605 201.72C278.605 201.72 280.308 196.566 279.796 195.304" stroke="#263238" stroke-linecap="round" stroke-linejoin="round"/>
<path d="M267.631 206.672C268.279 206.958 268.846 207.402 269.278 207.964C269.711 208.525 269.996 209.186 270.107 209.887" stroke="#263238" stroke-linecap="round" stroke-linejoin="round"/>
<path d="M286.784 178.161C286.784 178.161 288.713 181.304 287.76 183.471" stroke="#263238" stroke-linecap="round" stroke-linejoin="round"/>
<path d="M295.357 165.292C295.357 165.292 291.595 162.328 289.404 161.852" stroke="#263238" stroke-linecap="round" stroke-linejoin="round"/>
<path d="M280.785 153.055C282.639 152.183 284.717 151.9 286.737 152.245" stroke="#263238" stroke-linecap="round" stroke-linejoin="round"/>
<path d="M242.178 143.519C242.178 143.519 243.369 150.269 239.797 153.043C239.797 153.043 240.524 161.376 238.357 165.197C238.357 165.197 241.928 172.887 238.357 177.697C238.357 177.697 242.678 189.22 238.357 192.101C234.036 194.982 222.512 187.066 217.941 186.149C213.369 185.232 207.858 177.983 212.929 172.804" stroke="#263238" stroke-linecap="round" stroke-linejoin="round"/>
<path d="M226.619 166.923C226.619 166.923 226.619 164.542 226.619 161.15C226.619 157.757 229.214 153.078 229.214 153.078C228.024 150.055 232.571 143.555 232.571 143.555C230.655 140.591 233.762 135.853 235.773 134.9C237.785 133.948 240.535 133.305 247.368 132.055C254.202 130.805 252.785 140.674 252.785 140.674C252.785 140.674 254.19 149.876 251.785 154.197C253.323 158.739 253.239 163.674 251.547 168.161C251.547 168.161 252.987 176.399 251.547 181.756C251.547 181.756 252.071 187.78 251.452 190.089" stroke="#263238" stroke-linecap="round" stroke-linejoin="round"/>
<path d="M231.393 168.114C227.917 166.713 224.035 166.713 220.56 168.114" stroke="#263238" stroke-linecap="round" stroke-linejoin="round"/>
<path d="M246.988 187.22C246.988 187.22 252.785 189.53 252.785 192.744C252.785 195.958 254.273 205.232 252.904 206.601C251.535 207.97 239.571 207.244 231.393 201.72C231.393 201.72 221.048 202.684 218.881 200.042C216.715 197.399 213.06 196.72 212.608 195.018" stroke="#263238" stroke-linecap="round" stroke-linejoin="round"/>
<path d="M211.787 181.72C211.787 181.72 208.013 185.387 209.037 190.173C210.06 194.958 210.477 201.577 211.787 205.291C213.096 209.006 221.632 214.041 226.62 212.565C226.62 212.565 240.976 218.184 244.583 216.684" stroke="#263238" stroke-linecap="round" stroke-linejoin="round"/>
<path d="M252.904 206.601C252.904 206.601 254.189 211.363 253.487 213.97C252.785 216.577 254.975 220.779 252.785 223.494C250.594 226.208 232.809 224.767 230.166 221.886" stroke="#263238" stroke-linecap="round" stroke-linejoin="round"/>
<path d="M220.56 216.922C220.56 216.922 219.072 221.553 222.488 223.493C225.905 225.434 244.797 235.136 249.25 233.672C253.702 232.207 254.488 228.91 252.821 223.493" stroke="#263238" stroke-linecap="round" stroke-linejoin="round"/>
<path d="M214.203 208.41C214.203 208.41 214.393 217.434 220.238 219.91" stroke="#263238" stroke-linecap="round" stroke-linejoin="round"/>
<path d="M232.25 139.543C231.12 139.152 229.911 139.045 228.729 139.232C227.548 139.419 226.431 139.894 225.477 140.615C222.239 143.091 223.012 145.222 223.012 145.222C216.822 148.567 214.679 165.269 214.679 165.269C213.742 166.242 213.085 167.451 212.779 168.767C212.473 170.083 212.529 171.458 212.941 172.745C214.132 177.661 221.084 176.483 226.655 179.53C232.226 182.578 238.369 177.685 238.369 177.685" stroke="#263238" stroke-linecap="round" stroke-linejoin="round"/>
<path d="M238.333 192.113C239.13 193.454 240.209 194.604 241.497 195.484C242.784 196.364 244.247 196.953 245.785 197.208" stroke="#263238" stroke-linecap="round" stroke-linejoin="round"/>
<path d="M239.892 174.34C242.66 173.955 245.478 174.459 247.94 175.78" stroke="#263238" stroke-linecap="round" stroke-linejoin="round"/>
<path d="M251.547 168.114C251.547 168.114 246.499 164.245 244.582 164.959" stroke="#263238" stroke-linecap="round" stroke-linejoin="round"/>
<path d="M239.892 156.328C239.892 156.328 246.261 155.602 247.94 158.245" stroke="#263238" stroke-linecap="round" stroke-linejoin="round"/>
<path d="M251.785 154.162C251.785 154.162 251.071 150.805 247.94 150.329" stroke="#263238" stroke-linecap="round" stroke-linejoin="round"/>
<path d="M252.785 140.638C252.785 140.638 250.821 137.186 247.94 137.745" stroke="#263238" stroke-linecap="round" stroke-linejoin="round"/>
<path d="M226.619 212.565C226.619 212.565 226.083 208.827 228.25 207.196" stroke="#263238" stroke-linecap="round" stroke-linejoin="round"/>
<path d="M231.394 201.72C231.394 201.72 229.691 196.566 230.203 195.304" stroke="#263238" stroke-linecap="round" stroke-linejoin="round"/>
<path d="M242.369 206.672C241.72 206.958 241.153 207.402 240.721 207.964C240.288 208.525 240.003 209.186 239.892 209.887" stroke="#263238" stroke-linecap="round" stroke-linejoin="round"/>
<path d="M223.214 178.161C223.214 178.161 221.285 181.304 222.238 183.471" stroke="#263238" stroke-linecap="round" stroke-linejoin="round"/>
<path d="M214.643 165.292C214.643 165.292 218.404 162.328 220.595 161.852" stroke="#263238" stroke-linecap="round" stroke-linejoin="round"/>
<path d="M229.214 153.055C227.36 152.183 225.282 151.9 223.262 152.245" stroke="#263238" stroke-linecap="round" stroke-linejoin="round"/>
</svg>
