<svg width="175" height="58" viewBox="0 0 175 58" fill="none" xmlns="http://www.w3.org/2000/svg">
<path d="M85.4513 54.8311L84.3654 54.8284C84.0618 54.8277 83.8387 55.12 83.9124 55.4225L84.0818 56.1182C84.1043 56.2116 84.0778 56.3104 84.0107 56.3778L83.1014 57.2268C83.0004 57.3208 83.019 57.4885 83.1372 57.5573L83.8473 57.9722C83.9217 58.009 84.01 58.0097 84.0837 57.9722C84.5029 57.7583 84.8741 57.4878 85.1963 57.1607C85.3863 56.9713 85.5503 56.7587 85.6871 56.5223C85.824 56.2865 85.9063 56.0378 85.9349 55.7768C85.9528 55.6147 85.9448 55.4314 85.9116 55.2277C85.8738 54.9987 85.6778 54.8318 85.4513 54.8311Z" fill="#41BA4B"/>
<path d="M74.0059 40.7356C72.4311 40.7356 71.1359 41.2923 70.1217 42.405C69.5969 42.9616 69.1858 43.6437 68.8882 44.4511C68.5907 45.2585 68.4419 46.1832 68.4419 47.2243C68.4419 49.2705 68.9666 50.8949 70.0167 52.0975C71.0489 53.3185 72.3786 53.9283 74.0059 53.9283C75.5628 53.9283 76.8573 53.3539 77.8902 52.2051C79.01 51.0025 79.5699 49.3604 79.5699 47.2781C79.5699 45.2858 79.0452 43.6975 77.9951 42.5126C76.9457 41.3284 75.6159 40.7356 74.0059 40.7356ZM76.2104 50.8185C75.6332 51.5456 74.8893 51.9087 73.9793 51.9087C73.0694 51.9087 72.3348 51.5367 71.7749 50.7913C71.2149 50.0466 70.9353 48.9516 70.9353 47.5064C70.9353 46.0619 71.189 44.9172 71.6965 44.0736C72.2385 43.1947 73.009 42.7545 74.0059 42.7545C74.9504 42.7545 75.699 43.1715 76.2496 44.0062C76.8009 44.8409 77.0765 46.0033 77.0765 47.4928C77.0765 48.9836 76.7883 50.0915 76.2104 50.8185Z" fill="#41BA4B"/>
<path d="M87.4592 47.3039C87.0481 47.017 86.4576 46.7118 85.6878 46.3888C84.918 46.0658 84.3142 45.7558 83.8772 45.4601C83.4395 45.1637 83.2209 44.7828 83.2209 44.3161C83.2209 43.8493 83.387 43.495 83.7198 43.2525C84.0519 43.0099 84.2903 42.9063 84.6862 42.8286C84.9944 42.768 85.5138 42.8893 85.7815 43.0794C85.9203 43.1782 86.1328 43.3792 86.2417 43.5121C86.4789 43.8037 86.538 43.7403 86.9823 43.664C87.4579 43.5829 87.9454 43.5121 88.4635 43.4357C88.9271 43.3676 88.8873 43.0058 88.7265 42.7578C88.3918 42.2427 88.1919 42.0348 87.6831 41.6771C87.333 41.4257 86.9219 41.2192 86.4496 41.0578C85.9774 40.8963 85.4606 40.8152 84.9014 40.8152C83.7815 40.8152 82.8191 41.1204 82.0148 41.7303C81.1573 42.3946 80.7288 43.2743 80.7288 44.3685C80.7288 45.4819 81.1227 46.3793 81.9098 47.0607C82.2944 47.3836 82.7713 47.6889 83.3398 47.9757C83.9084 48.2633 84.5905 48.5815 85.3869 48.9317C86.1826 49.2819 86.5812 49.7889 86.5812 50.4525C86.5812 50.9731 86.3799 51.3676 85.9774 51.6374C85.802 51.7451 85.6101 51.8262 85.4002 51.88C85.1903 51.9338 84.9147 52.0367 84.5733 52.0367C84.2857 52.0367 83.7756 52.0033 83.2741 51.7689C82.835 51.5638 82.7009 51.2736 82.5388 51.0324C82.303 50.6808 82.2824 50.5745 81.8719 50.6522C81.4655 50.7292 80.2739 50.9159 80.2739 50.9159C80.1915 50.9322 80.1118 50.967 80.0507 51.0256C79.9039 51.1666 79.8607 51.4746 79.963 51.6688C80.2692 52.2473 80.9075 52.9007 81.5817 53.3238C82.5089 53.8805 83.7058 53.995 84.6862 53.995C85.8585 53.995 86.8342 53.7197 87.6565 53.1453C88.0763 52.8401 88.4177 52.4544 88.68 51.9877C88.9424 51.5209 89.0739 50.924 89.0739 50.197C89.0739 49.47 88.8547 48.8104 88.4177 48.2183C88.1899 47.896 87.8704 47.5908 87.4592 47.3039Z" fill="#41BA4B"/>
<path d="M109.043 52.3842L108.01 52.1109C107.834 52.0646 107.711 51.9024 107.711 51.7164V36.0946C107.711 35.9903 107.673 35.8902 107.603 35.8145L107.015 35.1747C106.924 35.0759 106.791 35.0303 106.66 35.0528L103.969 35.5147C103.753 35.5522 103.607 35.7621 103.643 35.9835L103.781 36.8318C103.815 37.039 103.997 37.1855 104.201 37.1711L104.917 37.12C105.147 37.1037 105.342 37.2904 105.342 37.5268V51.758C105.342 51.9488 105.213 52.1143 105.031 52.1559L104.072 52.3739C103.857 52.4223 103.722 52.6403 103.77 52.8604L103.93 53.597C103.971 53.783 104.132 53.9159 104.318 53.9159H108.945C109.164 53.9159 109.342 53.7333 109.342 53.5084V52.778C109.341 52.5927 109.219 52.4305 109.043 52.3842Z" fill="#41BA4B"/>
<path d="M101.429 52.0375C101.258 52.0211 101.162 51.8651 101.139 51.6103C101.139 51.3895 101.14 51.1347 101.14 51.1347V50.3899V41.7958C101.113 41.6895 101.075 41.5859 101.008 41.5048L100.513 40.9107C100.473 40.863 100.424 40.8255 100.371 40.7989C100.289 40.7587 100.195 40.7444 100.103 40.7621L98.0174 41.1648L97.5577 41.2534C97.3266 41.2984 97.1712 41.5232 97.2077 41.7617L97.3226 42.5187C97.3259 42.5425 97.3326 42.5657 97.3392 42.5882C97.3405 42.593 97.3425 42.5984 97.3439 42.6032C97.3512 42.6236 97.3598 42.6427 97.3698 42.6618C97.3731 42.6679 97.3771 42.6741 97.3804 42.6802C97.3884 42.6938 97.397 42.7061 97.4063 42.7183C97.4143 42.7286 97.4222 42.7388 97.4309 42.7483C97.4388 42.7572 97.4468 42.7654 97.4548 42.7735C97.4634 42.7817 97.4714 42.7892 97.48 42.7967C97.492 42.8062 97.5039 42.8151 97.5166 42.8233C97.5172 42.824 97.5179 42.824 97.5179 42.8246C97.5278 42.8315 97.5385 42.8369 97.5491 42.8424C97.5518 42.8437 97.5544 42.8444 97.5571 42.8458C97.5803 42.8573 97.6042 42.8682 97.6295 42.8757C97.6335 42.8771 97.6374 42.8778 97.6414 42.8791C97.6766 42.8887 97.7125 42.8948 97.7504 42.8948H97.8035H98.1436H98.3329C98.574 42.8948 98.7692 43.0951 98.7692 43.3425V43.5203V43.6525V49.5593V50.3695C98.7692 50.4349 98.7553 50.5003 98.7281 50.5596C98.6909 50.64 98.6457 50.7177 98.5952 50.7926C98.5029 50.9289 98.388 51.0577 98.2498 51.1776C98.111 51.3002 97.949 51.414 97.763 51.5196C97.5352 51.6457 97.304 51.7397 97.0676 51.8024C96.9161 51.8433 96.764 51.8685 96.6126 51.8835C96.6093 51.8835 96.6059 51.8842 96.6026 51.8842C96.6013 51.8842 96.6 51.8842 96.5993 51.8848C96.5641 51.8883 96.5296 51.891 96.4944 51.8923C96.4518 51.8951 96.4093 51.8964 96.3662 51.8964C96.331 51.893 96.2958 51.8889 96.2612 51.8842C96.2579 51.8842 96.2546 51.8842 96.2513 51.8835C96.05 51.8739 95.8401 51.8406 95.6209 51.7799C95.5897 51.7731 95.5585 51.7649 95.5279 51.7561C95.5186 51.7533 95.5093 51.7499 95.5 51.7472C95.4794 51.7411 95.4582 51.7343 95.4383 51.7274C95.4276 51.724 95.4177 51.72 95.4071 51.7159C95.3885 51.709 95.3692 51.7016 95.3506 51.6941C95.34 51.69 95.33 51.6852 95.32 51.6804C95.3021 51.6723 95.2842 51.6641 95.2662 51.6559C95.2563 51.6511 95.247 51.6464 95.237 51.6409C95.2191 51.6314 95.2018 51.6225 95.1845 51.6123C95.1759 51.6075 95.1666 51.6021 95.158 51.5966C95.14 51.5857 95.1228 51.5748 95.1048 51.5632C95.0969 51.5585 95.0896 51.553 95.0816 51.5476C95.0637 51.5353 95.0451 51.5224 95.0278 51.5087C95.0211 51.504 95.0152 51.4992 95.0085 51.4944C94.9893 51.4794 94.9707 51.4638 94.9521 51.4481C94.9474 51.444 94.9434 51.4406 94.9388 51.4365C94.9175 51.4181 94.8969 51.3983 94.877 51.3786C94.875 51.3772 94.8737 51.3752 94.8717 51.3738C94.7136 51.2157 94.5821 51.0168 94.4785 50.7762C94.44 50.687 94.4061 50.5909 94.3749 50.4908C94.3676 50.4683 94.3596 50.4465 94.353 50.4233C94.3384 50.3729 94.3251 50.3211 94.3124 50.2679C94.3118 50.2652 94.3111 50.2625 94.3105 50.2598C94.2992 50.2114 94.2885 50.1623 94.2786 50.1119C94.2772 50.1051 94.2759 50.0976 94.2746 50.0908C94.254 49.9845 94.2374 49.8728 94.2234 49.7569C94.2221 49.7453 94.2208 49.7338 94.2195 49.7228C94.2135 49.6731 94.2088 49.622 94.2042 49.5702C94.2035 49.5614 94.2022 49.5525 94.2015 49.5436C94.1969 49.4844 94.1922 49.4237 94.1889 49.3617C94.1882 49.3495 94.1876 49.3372 94.1869 49.3249C94.1843 49.2752 94.1823 49.2241 94.1809 49.173C94.1803 49.1559 94.1796 49.1382 94.1796 49.1212C94.1783 49.0578 94.1769 48.9931 94.1769 48.9277V44.6098V44.372V41.808C94.1769 41.6942 94.1344 41.5845 94.0587 41.5021L93.9465 41.3794L93.5254 40.9195C93.4244 40.8091 93.2763 40.7587 93.1315 40.7853L90.5378 41.2575C90.3013 41.3004 90.1432 41.5314 90.1844 41.774L90.3106 42.5255C90.3465 42.7401 90.5278 42.8969 90.7404 42.8969H91.3714C91.6125 42.8969 91.8077 43.0972 91.8077 43.3445V43.6253V49.5123C91.8077 50.3047 91.9206 50.9793 92.1465 51.5373C92.1717 51.6007 92.1976 51.662 92.2249 51.7227C92.2328 51.7404 92.2408 51.7574 92.2481 51.7745C92.2694 51.8208 92.2913 51.8664 92.3139 51.9107C92.3212 51.9257 92.3291 51.9414 92.3364 51.9564C92.3643 52.0109 92.3929 52.064 92.4228 52.1158C92.4347 52.137 92.4474 52.1574 92.4593 52.1785C92.4766 52.2085 92.4945 52.2378 92.5131 52.2664C92.5224 52.2814 92.5311 52.2971 92.541 52.3121C92.549 52.3243 92.557 52.3352 92.5649 52.3468C92.5829 52.3741 92.6015 52.4006 92.6201 52.4272C92.6586 52.4817 92.6978 52.5356 92.7383 52.5873C92.7436 52.5942 92.7489 52.601 92.7542 52.6071C93.2617 53.249 93.9451 53.6632 94.8146 53.8499C94.8166 53.8506 94.8186 53.8506 94.8206 53.8513C94.8989 53.8683 94.9793 53.8826 95.061 53.8963C95.0995 53.9024 95.138 53.9085 95.1772 53.914C95.2051 53.9181 95.233 53.9215 95.2616 53.9249C95.336 53.9337 95.411 53.9412 95.4874 53.9474C95.4921 53.948 95.4967 53.948 95.5014 53.948C95.5937 53.9549 95.6873 53.9576 95.7823 53.963C95.783 53.963 95.7837 53.963 95.7837 53.963C95.9165 53.9705 96.0527 53.9794 96.1921 53.9848C96.2121 53.9855 96.232 53.9855 96.2513 53.9862C96.2964 53.9876 96.3416 53.9889 96.3881 53.9889C96.3914 53.9889 96.3954 53.9889 96.3987 53.9889C96.4014 53.9889 96.4034 53.9889 96.406 53.9889C96.5674 53.9889 96.7268 53.976 96.8849 53.9562C97.219 53.9221 97.5438 53.8547 97.8653 53.7375C97.8666 53.7368 97.8679 53.7368 97.8686 53.7361C97.9118 53.7205 97.9556 53.7034 97.9988 53.6864C98.2259 53.5944 98.4498 53.482 98.6703 53.3484C98.6942 53.3341 98.7194 53.3219 98.7453 53.3123C98.7839 53.296 98.8237 53.2857 98.8642 53.2803C98.8675 53.2803 98.8709 53.2803 98.8742 53.2803C98.8948 53.281 98.9154 53.2837 98.9353 53.2871C98.9406 53.2878 98.9466 53.2878 98.9519 53.2892C99.0456 53.3082 99.1339 53.3566 99.2003 53.4363C99.3179 53.5781 99.458 53.6912 99.6181 53.7791C99.6314 53.7866 99.6447 53.7934 99.6586 53.8002C99.6951 53.8186 99.7323 53.8363 99.7715 53.852C99.7954 53.8622 99.8193 53.8717 99.8446 53.8806C99.8712 53.8901 99.8977 53.899 99.925 53.9072C99.9562 53.9167 99.9887 53.9249 100.021 53.9337C100.035 53.9378 100.05 53.9412 100.064 53.9446C100.108 53.9542 100.153 53.9623 100.199 53.9698C100.215 53.9726 100.232 53.9746 100.25 53.9773C100.304 53.9842 100.358 53.9903 100.414 53.9937C100.417 53.9937 100.42 53.9937 100.422 53.9944C100.47 53.9971 100.519 53.9991 100.57 53.9991C100.573 53.9991 100.575 53.9991 100.578 53.9991C100.65 53.9991 100.721 53.9964 100.791 53.9923C100.813 53.991 100.835 53.9889 100.857 53.9869C100.859 53.9869 100.861 53.9862 100.863 53.9862C101.405 53.9562 101.889 53.805 102.313 53.531C102.505 53.407 102.582 53.1604 102.495 52.9457L102.342 52.28C102.305 52.1404 102.23 52.0606 102.139 52.0177C102.079 51.9898 102.012 51.9782 101.944 51.9775C101.923 51.9775 101.901 51.9782 101.88 51.9796C101.734 51.9925 101.744 52.0014 101.661 52.0238C101.654 52.0259 101.625 52.0327 101.619 52.0347C101.617 52.0347 101.587 52.0409 101.586 52.0409C101.547 52.045 101.468 52.0409 101.429 52.0375Z" fill="#41BA4B"/>
<path d="M65.9098 53.5548C66.046 53.5119 66.6823 53.2686 66.8125 53.2107C67.1944 53.0397 67.5577 52.8025 67.7995 52.6267C67.9695 52.5027 68.117 52.3617 68.0452 52.1607L68.014 52.0953L67.9715 52.0074L67.7855 51.6217H67.7862L67.4089 50.8375L67.4043 50.8266L67.3638 50.738L67.3339 50.6719C67.2256 50.4893 67.0064 50.5043 66.8304 50.6187C66.4797 50.847 65.7205 51.2068 65.3267 51.341C64.691 51.557 64.1988 51.6129 63.447 51.6129C61.4172 51.6129 59.7899 50.9308 58.5657 49.5667C57.3582 48.2203 56.7551 46.5155 56.7551 44.4516C56.7551 42.5492 57.3064 40.9337 58.4083 39.6057C58.593 39.3843 58.7936 39.1799 59.0081 38.9891C59.402 38.6395 59.8443 38.3418 60.3372 38.0978C61.0983 37.721 61.8894 37.5323 62.7124 37.5323C63.4031 37.5323 63.9398 37.5207 64.2666 37.6652C64.347 37.7006 64.4147 37.7401 64.4751 37.7926C64.5442 37.8532 64.6033 37.9316 64.6598 38.0461C64.883 38.5005 65.5498 39.9444 65.5498 39.9444C65.6242 40.0963 65.6282 40.1726 65.7723 40.1726C65.9298 40.1726 66.0985 40.1399 66.2718 40.112C66.6026 40.0581 66.663 40.05 66.8092 40.0207C67.2681 39.93 67.3837 39.8415 67.3624 39.635L66.7806 35.9788C66.7653 35.8289 66.6584 35.7055 66.5149 35.6735C65.144 35.3689 63.9292 35.2163 62.8704 35.2163C60.4448 35.2163 58.4309 35.9672 56.8275 37.4682C56.777 37.5159 56.7266 37.5636 56.6767 37.6127C54.892 39.372 54 41.7411 54 44.7208C54 47.5389 54.9359 49.8188 56.8082 51.559C58.5106 53.1276 60.4693 53.9329 62.9508 53.9282C63.7233 53.9268 64.8803 53.8812 65.9098 53.5548Z" fill="#41BA4B"/>
<path d="M125.66 52.915L125.507 52.2493C125.47 52.1097 125.395 52.0299 125.304 51.987C125.163 51.9209 124.982 51.9461 124.844 51.9863C124.843 51.9863 124.842 51.987 124.841 51.987C124.774 52.0068 124.716 52.0163 124.668 52.0163C124.422 52.0163 124.299 51.8269 124.299 51.4487V51.3009V50.9213V36.0667C124.299 35.9482 124.256 35.8344 124.178 35.7465L123.653 35.155C123.547 35.0358 123.389 34.9799 123.234 35.0065L120.64 35.4535C120.391 35.4964 120.222 35.7363 120.259 35.9925L120.365 36.7181C120.401 36.9634 120.614 37.1385 120.855 37.1215L121.434 37.0799C121.702 37.0608 121.93 37.2782 121.93 37.5535V40.4861C121.93 40.7995 121.638 41.0312 121.344 40.944C120.855 40.7982 120.348 40.7253 119.824 40.7253C118.802 40.7253 117.892 40.9481 117.095 41.391C116.755 41.5797 116.436 41.8073 116.137 42.0758C115.653 42.5125 115.259 43.0378 114.955 43.6518C114.444 44.6847 114.188 45.9698 114.188 47.5056C114.188 49.4509 114.671 51.0174 115.637 52.2064C115.639 52.2098 115.643 52.2125 115.645 52.2159C116.1 52.7692 116.642 53.1985 117.269 53.5031C117.459 53.595 117.663 53.6714 117.879 53.7361C118.382 53.886 118.954 53.9623 119.599 53.9623C120.091 53.9623 120.569 53.8778 121.033 53.7088C121.034 53.7082 121.035 53.7082 121.036 53.7075C121.079 53.6918 121.123 53.6748 121.166 53.6577C121.393 53.5657 121.617 53.4533 121.838 53.3198C121.862 53.3055 121.887 53.2932 121.913 53.2837C122.093 53.206 122.305 53.2475 122.435 53.4015C122.749 53.7756 123.213 53.9623 123.826 53.9623C124.452 53.9623 125.003 53.8083 125.479 53.501C125.67 53.3763 125.747 53.129 125.66 52.915ZM121.929 50.8219C121.929 50.8559 121.925 50.8893 121.919 50.922C121.899 51.016 121.853 51.1026 121.783 51.1687C121.277 51.645 120.625 51.8821 119.829 51.8821C119.824 51.8821 119.818 51.8814 119.813 51.8814C119.047 51.8773 118.402 51.6034 117.878 51.0597C117.809 50.9881 117.741 50.9125 117.677 50.8314C117.652 50.8007 117.629 50.7694 117.605 50.7374C117.006 49.9504 116.706 48.8159 116.706 47.3312C116.706 46.1238 116.912 45.1474 117.324 44.4006C117.468 44.1376 117.639 43.9025 117.834 43.6967C118.149 43.3377 118.491 43.091 118.858 42.9561C119.225 42.8212 119.601 42.7544 119.986 42.7544C120.223 42.7544 120.457 42.7817 120.691 42.8362C120.776 42.8559 120.862 42.8798 120.948 42.9077C121.008 42.9268 121.068 42.9472 121.128 42.9704C121.367 43.0617 121.562 43.1564 121.713 43.2552C121.816 43.3227 121.887 43.4269 121.915 43.5455C121.924 43.5816 121.929 43.6191 121.929 43.6572V50.8219V50.8219Z" fill="#41BA4B"/>
<path d="M129.119 48.8533C131.54 48.762 133.305 48.2632 134.416 47.359C134.94 46.9284 135.295 46.448 135.478 45.9186C135.662 45.3892 135.754 44.8461 135.754 44.2901C135.754 43.2129 135.352 42.3428 134.547 41.6784C133.759 41.0502 132.788 40.7361 131.633 40.7361C130.059 40.7361 128.747 41.3105 127.697 42.4593C127.172 43.016 126.752 43.711 126.437 44.5456C126.122 45.3803 125.964 46.3404 125.964 47.4265C125.964 48.5126 126.113 49.459 126.411 50.2671C126.988 51.8827 128.038 52.9688 129.56 53.5248C131.24 54.1346 132.954 54.0719 134.705 53.336C134.996 53.2093 135.234 53.0832 135.418 52.9565C135.576 52.8475 135.646 52.6465 135.589 52.4598L135.356 51.4091C135.282 51.0289 134.887 51.0562 134.649 51.204C134.494 51.3008 134.311 51.4009 134.102 51.5045C133.856 51.6122 133.568 51.7062 133.235 51.7873C132.903 51.8683 132.501 51.9085 132.028 51.9085C131.556 51.9085 131.118 51.8281 130.715 51.666C129.733 51.2783 129.07 50.5294 128.727 49.4181C128.643 49.1456 128.839 48.8635 129.119 48.8533ZM128.511 46.371C128.659 45.2658 129 44.3923 129.534 43.7505C129.813 43.4275 130.124 43.1849 130.466 43.0234C130.807 42.862 131.227 42.7809 131.726 42.7809C132.225 42.7809 132.605 42.9424 132.867 43.2653C133.13 43.5883 133.261 44.0019 133.261 44.5041C133.261 45.0069 133.095 45.4239 132.763 45.7558C132.43 46.0883 131.949 46.3574 131.319 46.5632C130.772 46.7424 129.98 46.8439 128.944 46.8678C128.682 46.8746 128.476 46.6381 128.511 46.371Z" fill="#41BA4B"/>
<path d="M145.911 52.4298L144.967 52.1552C144.808 52.1089 144.698 51.9597 144.698 51.79V41.8958C144.698 41.795 144.659 41.6982 144.589 41.6273L143.992 41.0168C143.907 40.9296 143.785 40.8901 143.666 40.9119L140.977 41.4039C140.777 41.4406 140.643 41.6348 140.677 41.8399L140.824 42.7441C140.855 42.9376 141.025 43.0739 141.216 43.0603L141.931 43.0071C142.146 42.9914 142.328 43.1652 142.328 43.3853V51.8275C142.328 52.0046 142.208 52.1586 142.039 52.1975L141.049 52.4257C140.852 52.4714 140.727 52.6697 140.768 52.872L140.924 53.6577C140.96 53.8341 141.111 53.9609 141.287 53.9609H145.81C146.014 53.9609 146.18 53.7912 146.18 53.5813V52.7937C146.18 52.6247 146.069 52.4755 145.911 52.4298Z" fill="#41BA4B"/>
<path d="M143.426 39.6363C143.874 39.6363 144.254 39.4694 144.564 39.1348C144.874 38.8009 145.029 38.4017 145.029 37.9376C145.029 37.4736 144.874 37.0655 144.564 36.7125C144.254 36.3603 143.874 36.1831 143.426 36.1831C142.978 36.1831 142.598 36.35 142.288 36.6846C141.978 37.0185 141.823 37.4273 141.823 37.9097C141.823 38.3928 141.977 38.8009 142.288 39.1348C142.598 39.4694 142.978 39.6363 143.426 39.6363Z" fill="#41BA4B"/>
<path d="M174.731 52.3842L173.788 52.1096C173.628 52.0633 173.519 51.9141 173.519 51.7444V41.8509C173.519 41.75 173.479 41.6533 173.41 41.5824L172.813 40.9719C172.727 40.8847 172.605 40.8452 172.486 40.867L169.797 41.3589C169.597 41.3957 169.464 41.5899 169.497 41.795L169.644 42.6992C169.676 42.8927 169.846 43.029 170.036 43.0153L170.752 42.9622C170.966 42.9465 171.148 43.1203 171.148 43.3404V51.7826C171.148 51.9597 171.028 52.1137 170.859 52.1525L169.869 52.3808C169.672 52.4265 169.547 52.6247 169.588 52.8271L169.745 53.6127C169.78 53.7892 169.931 53.9159 170.107 53.9159H174.63C174.834 53.9159 175 53.7463 175 53.5364V52.7487C175 52.5798 174.89 52.4305 174.731 52.3842Z" fill="#41BA4B"/>
<path d="M172.265 39.5914C172.714 39.5914 173.093 39.4245 173.403 39.0899C173.713 38.756 173.869 38.3567 173.869 37.8927C173.869 37.4287 173.713 37.0206 173.403 36.6676C173.093 36.3153 172.714 36.1382 172.265 36.1382C171.817 36.1382 171.438 36.3051 171.128 36.6397C170.817 36.9735 170.662 37.3824 170.662 37.8648C170.662 38.3479 170.817 38.756 171.128 39.0899C171.438 39.4245 171.817 39.5914 172.265 39.5914Z" fill="#41BA4B"/>
<path d="M158.128 52.915L157.974 52.2493C157.938 52.1097 157.863 52.0299 157.772 51.987C157.63 51.9209 157.45 51.9461 157.312 51.9863C157.311 51.9863 157.31 51.987 157.309 51.987C157.242 52.0068 157.183 52.0163 157.135 52.0163C156.89 52.0163 156.767 51.8269 156.767 51.4487V51.3009V50.9213V36.0667C156.767 35.9482 156.724 35.8344 156.646 35.7465L156.121 35.155C156.015 35.0358 155.857 34.9799 155.702 35.0065L153.108 35.4535C152.859 35.4964 152.689 35.7363 152.726 35.9925L152.833 36.7181C152.869 36.9634 153.082 37.1385 153.323 37.1215L153.902 37.0799C154.17 37.0608 154.398 37.2782 154.398 37.5535V40.4861C154.398 40.7995 154.105 41.0312 153.812 40.944C153.323 40.7982 152.816 40.7253 152.291 40.7253C151.269 40.7253 150.36 40.9481 149.562 41.391C149.223 41.5797 148.903 41.8073 148.604 42.0758C148.12 42.5125 147.726 43.0378 147.423 43.6518C146.911 44.6847 146.656 45.9698 146.656 47.5056C146.656 49.4509 147.139 51.0174 148.104 52.2064C148.107 52.2098 148.11 52.2125 148.113 52.2159C148.567 52.7692 149.109 53.1985 149.737 53.5031C149.927 53.595 150.131 53.6714 150.347 53.7361C150.849 53.886 151.422 53.9623 152.067 53.9623C152.558 53.9623 153.037 53.8778 153.5 53.7088C153.502 53.7082 153.503 53.7082 153.504 53.7075C153.547 53.6918 153.591 53.6748 153.634 53.6577C153.861 53.5657 154.085 53.4533 154.305 53.3198C154.329 53.3055 154.354 53.2932 154.38 53.2837C154.56 53.206 154.772 53.2475 154.902 53.4015C155.217 53.7756 155.68 53.9623 156.293 53.9623C156.92 53.9623 157.471 53.8083 157.947 53.501C158.137 53.3763 158.214 53.129 158.128 52.915ZM154.396 50.8219C154.396 50.8559 154.393 50.8893 154.386 50.922C154.367 51.016 154.321 51.1026 154.251 51.1687C153.745 51.645 153.093 51.8821 152.297 51.8821C152.291 51.8821 152.286 51.8814 152.281 51.8814C151.514 51.8773 150.869 51.6034 150.345 51.0597C150.276 50.9881 150.209 50.9125 150.145 50.8314C150.12 50.8007 150.096 50.7694 150.072 50.7374C149.474 49.9504 149.174 48.8159 149.174 47.3312C149.174 46.1238 149.38 45.1474 149.791 44.4006C149.936 44.1376 150.106 43.9025 150.302 43.6967C150.617 43.3377 150.958 43.091 151.326 42.9561C151.693 42.8212 152.069 42.7544 152.454 42.7544C152.691 42.7544 152.925 42.7817 153.158 42.8362C153.244 42.8559 153.33 42.8798 153.415 42.9077C153.476 42.9268 153.536 42.9472 153.596 42.9704C153.835 43.0617 154.03 43.1564 154.18 43.2552C154.283 43.3227 154.354 43.4269 154.383 43.5455C154.392 43.5816 154.396 43.6191 154.396 43.6572V50.8219V50.8219Z" fill="#41BA4B"/>
<path d="M161.586 48.8533C164.007 48.762 165.772 48.2632 166.883 47.359C167.407 46.9284 167.762 46.448 167.945 45.9186C168.129 45.3892 168.221 44.8461 168.221 44.2901C168.221 43.2129 167.818 42.3428 167.013 41.6784C166.226 41.0502 165.255 40.7361 164.1 40.7361C162.525 40.7361 161.214 41.3105 160.164 42.4593C159.639 43.016 159.219 43.711 158.904 44.5456C158.589 45.3803 158.431 46.3404 158.431 47.4265C158.431 48.5126 158.58 49.459 158.878 50.2671C159.455 51.8827 160.505 52.9688 162.027 53.5248C163.707 54.1346 165.421 54.0719 167.172 53.336C167.463 53.2093 167.701 53.0832 167.885 52.9565C168.043 52.8475 168.113 52.6465 168.056 52.4598L167.823 51.4091C167.749 51.0289 167.354 51.0562 167.116 51.204C166.961 51.3008 166.778 51.4009 166.568 51.5045C166.323 51.6122 166.034 51.7062 165.702 51.7873C165.37 51.8683 164.968 51.9085 164.495 51.9085C164.023 51.9085 163.585 51.8281 163.182 51.666C162.2 51.2783 161.537 50.5294 161.194 49.4181C161.111 49.1456 161.307 48.8635 161.586 48.8533ZM160.979 46.371C161.127 45.2658 161.467 44.3923 162.001 43.7505C162.281 43.4275 162.592 43.1849 162.933 43.0234C163.275 42.862 163.694 42.7809 164.193 42.7809C164.692 42.7809 165.073 42.9424 165.335 43.2653C165.597 43.5883 165.729 44.0019 165.729 44.5041C165.729 45.0069 165.562 45.4239 165.23 45.7558C164.897 46.0883 164.416 46.3574 163.787 46.5632C163.239 46.7424 162.448 46.8439 161.412 46.8678C161.149 46.8746 160.943 46.6381 160.979 46.371Z" fill="#41BA4B"/>
<path d="M17.9829 49.6223C22.147 53.4989 27.9298 52.2246 32.24 48.3866C32.3737 48.2675 32.3877 48.0604 32.2738 47.9213L30.5413 45.8136C30.4315 45.6803 30.2401 45.6543 30.0997 45.7533C27.1267 47.8483 24.1528 49.8378 20.493 47.3126C20.3716 47.2288 20.2107 47.2388 20.0984 47.3336L17.9961 49.1168C17.8418 49.2476 17.836 49.4857 17.9829 49.6223Z" fill="#41BA4B"/>
<path d="M31.9469 33.5525C31.4211 32.7502 30.9144 31.978 30.41 31.2092C30.3135 31.0617 30.3547 30.8622 30.5017 30.7658C34.0756 28.4234 39.0305 28.4301 42.2528 30.7658C42.3898 30.8655 42.4253 31.0575 42.332 31.2009C41.8409 31.9504 41.3449 32.7082 40.8092 33.5257C40.7192 33.6631 40.5401 33.7084 40.399 33.6279C37.7272 32.1038 35.0578 32.258 32.3464 33.6615C32.2061 33.7336 32.0344 33.6849 31.9469 33.5525Z" fill="#41BA4B"/>
<path d="M18.2792 31.1698C17.7666 31.9503 17.2697 32.7074 16.7431 33.5097C16.6532 33.6464 16.4749 33.6916 16.3337 33.6111C13.6553 32.0761 10.991 32.2538 8.26797 33.6321C8.12848 33.7025 7.95845 33.6539 7.87261 33.5223C7.35261 32.7267 6.84747 31.9537 6.34398 31.1841C6.24988 31.0399 6.28785 30.8454 6.42899 30.7481C9.79166 28.4292 14.6863 28.4116 18.1892 30.7297C18.3345 30.8253 18.375 31.0231 18.2792 31.1698Z" fill="#41BA4B"/>
<path d="M13.1172 41.1539C11.6761 41.1237 10.5346 39.8963 10.5767 38.4208C10.6188 36.9511 11.8346 35.7992 13.284 35.8571C14.6648 35.9116 15.8072 37.1314 15.7898 38.5331C15.7709 39.9818 14.546 41.1832 13.1172 41.1539Z" fill="#41BA4B"/>
<path d="M36.4115 41.1506C34.9539 41.1674 33.7785 39.997 33.7711 38.5198C33.7637 37.0435 34.9349 35.8488 36.3818 35.8555C37.7734 35.8622 38.9364 37.0175 38.981 38.436C39.0256 39.8864 37.8452 41.1338 36.4115 41.1506Z" fill="#41BA4B"/>
<path d="M31.5779 57.9999C33.7619 57.9999 35.8708 57.5748 37.5827 56.7214C38.9 56.0985 40.0696 55.2501 41.0881 54.1728C41.155 54.1015 41.221 54.0294 41.2862 53.9573C42.8017 52.2705 43.7591 50.2651 44.1603 47.942C44.3022 47.1179 44.3749 46.2544 44.3765 45.3506C44.3765 45.3381 44.3765 45.3263 44.3765 45.3138C44.3765 45.2978 44.3765 45.2819 44.3757 45.2651C44.3757 45.2593 44.3757 45.2542 44.3757 45.2484C44.3757 45.2316 44.3765 45.2157 44.3765 45.1997C44.3765 45.1712 44.3765 45.141 44.3757 45.1125C44.3757 44.9792 44.3765 44.851 44.3782 44.7277C44.3856 44.1266 44.4186 43.6471 44.5589 43.3168C44.6076 43.2019 44.6613 43.1047 44.7339 43.0183C44.8165 42.9202 44.9246 42.8347 45.0814 42.7542C45.7054 42.4348 47.6872 41.4816 47.6872 41.4816C47.896 41.376 48 41.3692 48 41.1638C48 40.9383 47.9554 40.6977 47.9166 40.4496C47.8424 39.9767 47.8316 39.8904 47.7912 39.6808C47.6665 39.0243 47.5444 38.8592 47.2621 38.8894L45.8309 39.1266L43.3307 39.5416L42.786 39.6321L42.2429 39.7219C42.2123 39.7252 42.1826 39.7319 42.1537 39.7411C41.9895 39.7914 41.8607 39.9273 41.8236 40.1016C41.7097 40.6365 41.6114 41.1546 41.5289 41.6568C41.344 42.7743 41.2367 43.8089 41.207 44.7613C41.207 44.7529 41.207 44.7445 41.207 44.737C41.1864 45.904 41.1236 46.8882 40.8719 48.1491C40.5904 49.5592 39.8558 50.8922 38.796 51.884C36.9843 53.5767 34.2927 54.5936 31.5334 54.6104C27.7671 54.633 20.2329 54.633 16.4666 54.6104C13.7073 54.5936 11.0157 53.5767 9.20398 51.884C8.14417 50.8931 7.40874 49.5592 7.12811 48.1491C6.87636 46.8874 6.81363 45.9031 6.793 44.737C6.793 44.7453 6.793 44.7537 6.793 44.7613C6.76246 43.8089 6.65598 42.7743 6.47109 41.6568C6.38773 41.1546 6.29033 40.6373 6.17643 40.1016C6.13929 39.9273 6.01052 39.7914 5.84627 39.7411C5.81738 39.7319 5.78849 39.7252 5.75713 39.7219L5.21402 39.6321L4.66926 39.5416L2.16914 39.1266L0.737903 38.8894C0.454793 38.8592 0.333459 39.0243 0.208825 39.6808C0.169206 39.8904 0.157651 39.9767 0.083365 40.4496C0.0445715 40.6977 0 40.9383 0 41.1638C0 41.3692 0.104 41.376 0.312825 41.4816C0.312825 41.4816 2.2946 42.4348 2.9186 42.7542C3.07625 42.8347 3.18355 42.9194 3.26609 43.0183C3.33872 43.1047 3.39237 43.2019 3.44107 43.3168C3.58139 43.6471 3.6144 44.1266 3.62183 44.7277C3.62348 44.851 3.62348 44.9792 3.62431 45.1125C3.62431 45.1419 3.62348 45.1721 3.62348 45.1997C3.62348 45.2165 3.62348 45.2324 3.62348 45.2484C3.62348 45.2542 3.62348 45.2593 3.62348 45.2651C3.62348 45.2811 3.62266 45.2978 3.62266 45.3138C3.62266 45.3263 3.62266 45.3381 3.62266 45.3506C3.62431 46.2544 3.69694 47.1179 3.83891 47.942C4.24005 50.2651 5.19751 52.2705 6.71294 53.9573C6.77814 54.0294 6.84417 54.1015 6.91103 54.1728C7.93039 55.2501 9.09915 56.0993 10.4165 56.7214C12.1292 57.5748 14.2991 57.9999 16.4831 57.9999H31.5779V57.9999Z" fill="#41BA4B"/>
</svg>
