<svg width="216" height="175" viewBox="0 0 216 175" fill="none" xmlns="http://www.w3.org/2000/svg">
<path d="M167.405 174.323C193.819 174.323 215.231 171.745 215.231 168.565C215.231 165.384 193.819 162.806 167.405 162.806C140.992 162.806 119.579 165.384 119.579 168.565C119.579 171.745 140.992 174.323 167.405 174.323Z" fill="#EBEBEB"/>
<path d="M123.935 82.5858C125.017 82.5858 125.894 81.7088 125.894 80.6271C125.894 79.5453 125.017 78.6683 123.935 78.6683C122.853 78.6683 121.976 79.5453 121.976 80.6271C121.976 81.7088 122.853 82.5858 123.935 82.5858Z" fill="white"/>
<path d="M82.4437 59.1718C104.427 80.6644 134.411 130.593 138.329 138.38C140.997 143.669 113.362 158.33 112.097 154.471C110.496 149.529 82.1822 97.1241 75.4307 67.5991C72.474 54.6673 78.0032 54.8327 82.4437 59.1718Z" fill="#F7A9A0"/>
<mask id="path-4-inside-1" fill="white">
<path d="M110.704 150.837C111.734 153.473 115.284 164.713 117.643 166.064C120.002 167.414 132.154 166.864 138.287 166.736C144.419 166.608 145.477 165.803 145.333 163.695C145.189 161.587 144.436 161.452 144.436 161.452C144.436 161.452 149.697 165.082 154.063 165.781C158.429 166.48 168.415 168.802 169.781 165.188C170.4 163.555 167.646 161.986 167.646 161.986C167.646 161.986 171.852 163.118 172.449 161.025C173.159 158.645 169.808 157.412 169.808 157.412C169.808 157.412 172.433 157.887 172.449 155.955C172.498 151.648 156.107 149.871 156.107 149.871C156.107 149.871 168.751 155.704 169.076 152.182C169.535 147.304 143.773 142.506 141.062 140.44C139.285 139.002 137.795 137.242 136.669 135.252L110.704 150.837Z"/>
</mask>
<path d="M110.704 150.837C111.734 153.473 115.284 164.713 117.643 166.064C120.002 167.414 132.154 166.864 138.287 166.736C144.419 166.608 145.477 165.803 145.333 163.695C145.189 161.587 144.436 161.452 144.436 161.452C144.436 161.452 149.697 165.082 154.063 165.781C158.429 166.48 168.415 168.802 169.781 165.188C170.4 163.555 167.646 161.986 167.646 161.986C167.646 161.986 171.852 163.118 172.449 161.025C173.159 158.645 169.808 157.412 169.808 157.412C169.808 157.412 172.433 157.887 172.449 155.955C172.498 151.648 156.107 149.871 156.107 149.871C156.107 149.871 168.751 155.704 169.076 152.182C169.535 147.304 143.773 142.506 141.062 140.44C139.285 139.002 137.795 137.242 136.669 135.252L110.704 150.837Z" fill="white"/>
<path d="M110.704 150.837L110.19 149.979L109.466 150.414L109.773 151.201L110.704 150.837ZM144.436 161.452L144.612 160.468L143.868 162.275L144.436 161.452ZM169.781 165.188L168.846 164.834L168.846 164.835L169.781 165.188ZM167.646 161.986L167.906 161.02L167.151 162.855L167.646 161.986ZM172.449 161.025L171.491 160.74L171.488 160.751L172.449 161.025ZM169.808 157.412L169.986 156.428L169.462 158.351L169.808 157.412ZM172.449 155.955L171.45 155.944L171.45 155.947L172.449 155.955ZM156.107 149.871L156.215 148.877L155.688 150.779L156.107 149.871ZM169.076 152.182L168.081 152.088L168.081 152.09L169.076 152.182ZM141.062 140.44L140.433 141.217L140.444 141.227L140.456 141.236L141.062 140.44ZM136.669 135.252L137.54 134.76L137.035 133.867L136.155 134.395L136.669 135.252ZM109.773 151.201C110.023 151.841 110.428 153.009 110.949 154.474C111.465 155.922 112.083 157.63 112.745 159.301C113.406 160.967 114.118 162.621 114.824 163.954C115.177 164.619 115.539 165.226 115.904 165.722C116.255 166.199 116.668 166.658 117.146 166.932L118.139 165.196C118.027 165.132 117.814 164.944 117.515 164.537C117.23 164.15 116.92 163.636 116.592 163.017C115.937 161.781 115.255 160.206 114.605 158.564C113.956 156.927 113.347 155.246 112.833 153.803C112.326 152.376 111.901 151.151 111.636 150.473L109.773 151.201ZM117.146 166.932C117.584 167.182 118.16 167.346 118.759 167.466C119.379 167.59 120.111 167.683 120.914 167.753C122.522 167.893 124.486 167.947 126.546 167.954C130.661 167.97 135.266 167.799 138.307 167.736L138.266 165.736C135.175 165.801 130.637 165.97 126.553 165.954C124.514 165.947 122.614 165.893 121.088 165.76C120.324 165.694 119.672 165.609 119.151 165.505C118.61 165.397 118.291 165.283 118.139 165.196L117.146 166.932ZM138.307 167.736C139.857 167.704 141.114 167.628 142.126 167.495C143.128 167.363 143.949 167.167 144.592 166.861C145.26 166.544 145.767 166.093 146.061 165.465C146.34 164.867 146.371 164.224 146.33 163.627L144.335 163.763C144.366 164.22 144.319 164.467 144.249 164.618C144.193 164.737 144.079 164.891 143.734 165.055C143.365 165.23 142.781 165.391 141.864 165.512C140.957 165.631 139.783 165.705 138.266 165.736L138.307 167.736ZM146.33 163.627C146.251 162.47 145.998 161.711 145.652 161.213C145.475 160.959 145.279 160.779 145.086 160.658C144.99 160.598 144.9 160.556 144.818 160.525C144.778 160.51 144.74 160.498 144.705 160.489C144.688 160.484 144.671 160.48 144.656 160.476C144.648 160.475 144.64 160.473 144.633 160.472C144.629 160.471 144.626 160.47 144.622 160.469C144.62 160.469 144.618 160.469 144.617 160.468C144.616 160.468 144.615 160.468 144.614 160.468C144.613 160.468 144.612 160.468 144.436 161.452C144.26 162.436 144.258 162.436 144.257 162.436C144.257 162.436 144.255 162.436 144.254 162.435C144.253 162.435 144.251 162.435 144.249 162.434C144.246 162.434 144.243 162.433 144.239 162.432C144.233 162.431 144.226 162.43 144.22 162.428C144.207 162.426 144.195 162.422 144.183 162.419C144.159 162.413 144.138 162.406 144.118 162.399C144.078 162.384 144.048 162.368 144.025 162.354C143.977 162.324 143.979 162.31 144.009 162.353C144.075 162.449 144.27 162.811 144.335 163.763L146.33 163.627ZM144.436 161.452C143.868 162.275 143.868 162.275 143.868 162.275C143.868 162.275 143.868 162.275 143.868 162.276C143.869 162.276 143.869 162.276 143.87 162.276C143.871 162.277 143.872 162.278 143.873 162.279C143.877 162.281 143.881 162.284 143.887 162.288C143.898 162.296 143.915 162.307 143.936 162.322C143.978 162.35 144.04 162.391 144.119 162.444C144.278 162.548 144.507 162.697 144.796 162.878C145.372 163.238 146.186 163.726 147.141 164.236C149.028 165.245 151.554 166.392 153.905 166.768L154.221 164.793C152.207 164.471 149.919 163.453 148.084 162.472C147.177 161.988 146.403 161.524 145.856 161.182C145.583 161.011 145.367 160.871 145.221 160.775C145.148 160.726 145.092 160.689 145.055 160.664C145.037 160.652 145.023 160.643 145.015 160.637C145.01 160.634 145.007 160.631 145.005 160.63C145.004 160.629 145.004 160.629 145.003 160.629C145.003 160.629 145.003 160.629 145.003 160.629C145.003 160.629 145.003 160.629 145.003 160.629C145.003 160.629 145.003 160.629 144.436 161.452ZM153.905 166.768C156.014 167.106 159.706 167.879 162.98 168.099C164.62 168.21 166.249 168.191 167.59 167.877C168.913 167.568 170.2 166.909 170.716 165.542L168.846 164.835C168.679 165.275 168.205 165.68 167.135 165.93C166.083 166.176 164.687 166.21 163.114 166.104C159.962 165.892 156.478 165.155 154.221 164.793L153.905 166.768ZM170.716 165.543C170.989 164.824 170.87 164.137 170.619 163.585C170.376 163.051 169.995 162.602 169.644 162.259C169.286 161.91 168.914 161.628 168.637 161.435C168.497 161.338 168.378 161.261 168.291 161.208C168.248 161.181 168.213 161.159 168.188 161.144C168.175 161.137 168.164 161.131 168.157 161.126C168.153 161.124 168.149 161.122 168.147 161.121C168.146 161.12 168.144 161.119 168.143 161.119C168.143 161.118 168.143 161.118 168.142 161.118C168.142 161.118 168.142 161.118 168.142 161.118C168.141 161.117 168.141 161.117 167.646 161.986C167.151 162.855 167.151 162.855 167.151 162.855C167.151 162.855 167.15 162.855 167.15 162.854C167.15 162.854 167.15 162.854 167.15 162.854C167.149 162.854 167.149 162.854 167.149 162.854C167.149 162.854 167.15 162.854 167.151 162.855C167.154 162.857 167.159 162.86 167.166 162.864C167.181 162.873 167.204 162.887 167.235 162.906C167.297 162.944 167.388 163.003 167.496 163.078C167.716 163.231 167.994 163.443 168.247 163.69C168.507 163.944 168.698 164.193 168.798 164.413C168.89 164.614 168.883 164.736 168.846 164.834L170.716 165.543ZM167.646 161.986C167.386 162.952 167.387 162.952 167.387 162.952C167.387 162.952 167.387 162.952 167.387 162.952C167.388 162.952 167.388 162.952 167.389 162.952C167.39 162.953 167.392 162.953 167.393 162.954C167.396 162.954 167.401 162.956 167.406 162.957C167.417 162.96 167.431 162.964 167.45 162.968C167.486 162.977 167.538 162.99 167.603 163.005C167.732 163.035 167.914 163.074 168.134 163.114C168.569 163.193 169.17 163.278 169.805 163.29C170.425 163.302 171.158 163.246 171.813 162.989C172.498 162.719 173.154 162.199 173.411 161.3L171.488 160.751C171.446 160.898 171.352 161.021 171.081 161.128C170.779 161.246 170.348 161.3 169.843 161.29C169.351 161.281 168.864 161.214 168.491 161.146C168.307 161.113 168.156 161.08 168.053 161.056C168.002 161.044 167.962 161.035 167.937 161.028C167.925 161.025 167.915 161.023 167.91 161.022C167.908 161.021 167.906 161.02 167.905 161.02C167.905 161.02 167.905 161.02 167.905 161.02C167.905 161.02 167.905 161.02 167.905 161.02C167.905 161.02 167.905 161.02 167.905 161.02C167.906 161.02 167.906 161.02 167.646 161.986ZM173.408 161.311C173.937 159.536 172.89 158.249 172.023 157.549C171.576 157.187 171.113 156.922 170.77 156.749C170.597 156.662 170.449 156.595 170.341 156.549C170.288 156.527 170.244 156.509 170.212 156.496C170.196 156.49 170.183 156.485 170.173 156.481C170.168 156.479 170.164 156.478 170.16 156.476C170.159 156.476 170.157 156.475 170.156 156.475C170.155 156.475 170.155 156.474 170.154 156.474C170.154 156.474 170.154 156.474 170.153 156.474C170.153 156.474 170.153 156.474 169.808 157.412C169.462 158.351 169.462 158.351 169.462 158.35C169.462 158.35 169.461 158.35 169.461 158.35C169.461 158.35 169.461 158.35 169.46 158.35C169.46 158.35 169.46 158.35 169.46 158.35C169.46 158.35 169.46 158.35 169.462 158.35C169.464 158.351 169.47 158.354 169.478 158.357C169.495 158.364 169.523 158.375 169.559 158.39C169.632 158.421 169.741 158.47 169.87 158.535C170.133 158.668 170.464 158.86 170.766 159.104C171.398 159.615 171.672 160.135 171.491 160.74L173.408 161.311ZM169.808 157.412C169.63 158.396 169.63 158.396 169.63 158.396C169.63 158.396 169.631 158.396 169.631 158.396C169.632 158.397 169.632 158.397 169.633 158.397C169.634 158.397 169.636 158.397 169.637 158.398C169.64 158.398 169.644 158.399 169.648 158.399C169.657 158.401 169.669 158.403 169.683 158.405C169.71 158.409 169.748 158.415 169.793 158.421C169.884 158.432 170.01 158.446 170.16 158.455C170.453 158.472 170.869 158.473 171.306 158.391C171.734 158.311 172.267 158.136 172.705 157.736C173.175 157.306 173.443 156.701 173.449 155.963L171.45 155.947C171.448 156.176 171.382 156.236 171.355 156.26C171.296 156.314 171.169 156.382 170.939 156.425C170.717 156.466 170.476 156.47 170.276 156.458C170.18 156.452 170.1 156.444 170.048 156.437C170.022 156.434 170.002 156.431 169.992 156.429C169.986 156.428 169.983 156.428 169.982 156.427C169.981 156.427 169.981 156.427 169.982 156.427C169.982 156.428 169.983 156.428 169.983 156.428C169.984 156.428 169.984 156.428 169.984 156.428C169.985 156.428 169.985 156.428 169.985 156.428C169.985 156.428 169.986 156.428 169.808 157.412ZM173.449 155.966C173.459 155.083 173.04 154.344 172.482 153.764C171.929 153.189 171.182 152.706 170.367 152.295C168.733 151.47 166.599 150.822 164.53 150.325C162.447 149.825 160.37 149.464 158.818 149.227C158.041 149.109 157.393 149.021 156.938 148.964C156.71 148.935 156.531 148.913 156.408 148.899C156.346 148.891 156.299 148.886 156.266 148.882C156.25 148.881 156.238 148.879 156.229 148.878C156.225 148.878 156.221 148.877 156.219 148.877C156.218 148.877 156.217 148.877 156.216 148.877C156.216 148.877 156.216 148.877 156.215 148.877C156.215 148.877 156.215 148.877 156.107 149.871C155.999 150.865 155.999 150.865 155.999 150.865C155.999 150.865 155.999 150.865 156 150.865C156 150.865 156.001 150.865 156.001 150.865C156.003 150.865 156.006 150.866 156.009 150.866C156.016 150.867 156.027 150.868 156.042 150.87C156.072 150.873 156.116 150.878 156.175 150.885C156.292 150.899 156.465 150.92 156.685 150.948C157.126 151.004 157.758 151.089 158.517 151.204C160.037 151.436 162.054 151.788 164.063 152.27C166.085 152.756 168.04 153.36 169.466 154.08C170.18 154.441 170.706 154.803 171.041 155.151C171.369 155.492 171.452 155.751 171.45 155.944L173.449 155.966ZM156.107 149.871C155.688 150.779 155.688 150.779 155.689 150.779C155.689 150.779 155.689 150.779 155.689 150.779C155.69 150.78 155.691 150.78 155.691 150.78C155.693 150.781 155.696 150.782 155.699 150.784C155.706 150.787 155.715 150.791 155.728 150.797C155.753 150.809 155.79 150.825 155.838 150.847C155.933 150.89 156.072 150.952 156.248 151.03C156.6 151.185 157.103 151.402 157.706 151.651C158.91 152.149 160.529 152.78 162.167 153.3C163.783 153.814 165.5 154.248 166.871 154.306C167.546 154.334 168.259 154.278 168.852 153.998C169.519 153.684 169.996 153.098 170.072 152.274L168.081 152.09C168.075 152.146 168.086 152.148 167.999 152.189C167.839 152.265 167.51 152.331 166.954 152.308C165.863 152.262 164.358 151.898 162.773 151.394C161.209 150.897 159.646 150.289 158.47 149.803C157.883 149.561 157.395 149.35 157.054 149.2C156.884 149.125 156.751 149.065 156.661 149.024C156.616 149.004 156.582 148.988 156.559 148.978C156.548 148.973 156.539 148.969 156.534 148.966C156.531 148.965 156.529 148.964 156.528 148.963C156.527 148.963 156.527 148.963 156.526 148.963C156.526 148.963 156.526 148.963 156.526 148.963C156.526 148.963 156.526 148.963 156.107 149.871ZM170.072 152.275C170.174 151.19 169.531 150.293 168.786 149.62C168.018 148.925 166.941 148.281 165.713 147.681C163.245 146.476 159.919 145.336 156.552 144.3C153.186 143.265 149.691 142.309 146.928 141.5C145.537 141.093 144.331 140.723 143.394 140.394C142.409 140.048 141.861 139.792 141.668 139.645L140.456 141.236C140.94 141.605 141.791 141.951 142.731 142.281C143.721 142.629 144.969 143.011 146.367 143.42C149.183 144.244 152.608 145.18 155.964 146.212C159.319 147.244 162.517 148.347 164.835 149.478C166 150.047 166.882 150.594 167.445 151.103C168.031 151.634 168.093 151.954 168.081 152.088L170.072 152.275ZM141.691 139.663C140.012 138.304 138.604 136.64 137.54 134.76L135.799 135.745C136.987 137.844 138.558 139.7 140.433 141.217L141.691 139.663ZM136.155 134.395L110.19 149.979L111.219 151.694L137.184 136.11L136.155 134.395Z" fill="#263238" mask="url(#path-4-inside-1)"/>
<path d="M145.363 163.827C145.395 163.531 145.355 163.231 145.247 162.952C145.14 162.674 144.967 162.425 144.744 162.226C144.296 161.83 143.783 161.512 143.229 161.287C142.086 160.823 140.903 160.466 139.695 160.22C137.262 159.686 137.049 159.348 134.567 158.761C137.116 158.669 137.397 158.829 139.888 159.382C141.158 159.645 142.385 160.085 143.533 160.689C144.125 161 144.647 161.431 145.065 161.954C145.269 162.216 145.404 162.525 145.456 162.852C145.508 163.18 145.476 163.515 145.363 163.827Z" fill="#263238"/>
<path d="M167.608 161.991C165.831 161.596 164.08 161.132 162.33 160.668C160.579 160.203 158.839 159.702 157.094 159.216L151.885 157.7C150.15 157.199 148.411 156.697 146.655 156.217C148.469 156.374 150.27 156.656 152.045 157.06C153.828 157.428 155.584 157.898 157.334 158.389C159.085 158.88 160.809 159.456 162.522 160.038C164.235 160.62 165.943 161.26 167.608 161.991Z" fill="#263238"/>
<path d="M150.717 151.835C152.387 151.908 154.049 152.103 155.691 152.417C157.336 152.711 158.965 153.094 160.569 153.564C162.175 154.028 163.753 154.58 165.298 155.219C166.845 155.846 168.347 156.58 169.791 157.418C168.19 156.884 166.648 156.35 165.068 155.843C163.488 155.336 161.914 154.84 160.329 154.391C158.744 153.943 157.126 153.495 155.525 153.063C153.924 152.63 152.339 152.241 150.717 151.835Z" fill="#263238"/>
<path d="M153.161 147.682C158.567 148.038 163.805 149.707 168.42 152.545C165.858 151.696 163.371 150.789 160.825 149.999C158.279 149.209 155.744 148.451 153.161 147.682Z" fill="#263238"/>
<path d="M137.763 134.591L105.383 154.039C105.383 154.039 78.6973 87.6401 75.2495 70.2465C71.8017 52.8528 78.0782 52.2444 88.16 62.956C99.9497 75.4875 137.763 134.591 137.763 134.591Z" fill="#6BA370"/>
<path d="M104.961 145.857C107.395 144.694 109.685 143.189 111.99 141.774C114.296 140.36 116.521 138.994 118.779 137.58C123.326 134.735 127.98 131.976 132.335 128.832C132.353 128.816 132.364 128.795 132.367 128.772C132.371 128.749 132.366 128.725 132.354 128.705C132.342 128.685 132.324 128.67 132.302 128.662C132.28 128.654 132.256 128.654 132.234 128.661C127.388 131.068 122.771 133.998 118.165 136.832C115.86 138.256 113.572 139.713 111.302 141.203C109.064 142.578 106.904 144.076 104.833 145.692C104.748 145.772 104.871 145.905 104.961 145.857Z" fill="#263238"/>
<path opacity="0.1" d="M119.131 145.772L105.383 154.039C105.383 154.039 78.6971 87.64 75.2493 70.2463C73.5788 61.8297 74.1819 57.3412 76.4075 56.1724L119.131 145.772Z" fill="black"/>
<path d="M91.6774 161.911H6.22475C4.9812 160.444 21.4515 82.6285 56.319 58.1578C67.3881 50.3923 81.5689 53.6373 83.9332 63.1907C94.015 103.977 92.8142 160.604 91.6774 161.911Z" fill="#6BA370"/>
<path d="M78.2758 71.6712C73.6325 71.6712 67.6283 63.2332 65.899 57.1062C65.787 56.6845 70.7825 42.1142 71.471 39.1254C71.6098 38.5063 89.2009 48.0117 89.2009 48.0117C89.2009 48.0117 85.9079 53.8505 84.7391 59.0702C84.643 59.5079 82.7643 71.6445 78.2758 71.6712Z" fill="white"/>
<path d="M89.201 48.0065C89.201 48.0065 85.908 53.8507 84.7338 59.0704C84.7338 59.1771 84.5897 59.935 84.3602 61.0291C75.6287 58.1471 71.2095 51.3636 69.1387 46.7416C70.2061 43.438 71.1935 40.3371 71.471 39.1256C71.6151 38.5118 89.201 48.0065 89.201 48.0065Z" fill="#263238"/>
<path d="M99.9442 16.1173C99.9442 16.1173 105.095 20.5951 104.166 27.0371C103.237 33.479 99.72 39.3871 99.0902 39.5206C98.4605 39.654 99.9442 16.1173 99.9442 16.1173Z" fill="#263238"/>
<path d="M74.1532 16.1386L74.1534 16.1384C77.24 11.9889 82.37 10.0981 87.43 10.2668C92.4918 10.4356 97.4357 12.6637 100.148 16.6893L100.148 16.6895C100.593 17.3478 100.939 18.3252 101.179 19.564C101.419 20.7988 101.551 22.2749 101.58 23.9163C101.638 27.199 101.284 31.1233 100.572 35.0629C99.8593 39.0026 98.7899 42.9489 97.4216 46.2769C96.0501 49.6126 94.3913 52.2951 92.5174 53.7435C88.6145 56.7531 84.0503 57.1704 79.8991 55.8035C75.7424 54.4348 72.0039 51.2769 69.7859 47.1464C69.0439 45.7584 68.6659 43.4905 68.5992 40.7432C68.5328 38.0058 68.7757 34.8283 69.2485 31.6477C69.7213 28.4675 70.4229 25.2905 71.271 22.5546C72.1209 19.8129 73.1116 17.5357 74.1532 16.1386Z" fill="white" stroke="#263238" stroke-width="0.5"/>
<path d="M94.8846 35.7794C94.8846 35.7313 94.97 35.8701 94.9594 35.9235C94.5751 37.2364 94.3616 38.8055 95.4504 39.5527C95.4824 39.5527 95.4504 39.6381 95.4183 39.6221C94.0093 39.0457 94.3136 36.9642 94.8846 35.7794Z" fill="#263238"/>
<path d="M96.4219 34.7011C98.5888 35.08 97.6655 39.3978 95.6587 39.0402C93.652 38.6826 94.602 34.3809 96.4219 34.7011Z" fill="#263238"/>
<path d="M83.0789 45.7971C83.3031 46.192 83.4899 46.7097 83.9542 46.8912C84.4445 47.0236 84.9571 47.0527 85.4593 46.9766C85.4698 46.9748 85.4807 46.9766 85.4901 46.9817C85.4995 46.9868 85.507 46.9949 85.5113 47.0047C85.5156 47.0145 85.5165 47.0255 85.5138 47.0359C85.5111 47.0463 85.5051 47.0554 85.4966 47.062C85.2338 47.2691 84.9194 47.4005 84.5873 47.4418C84.2553 47.4832 83.9182 47.4331 83.6126 47.2968C83.3663 47.1483 83.1695 46.9301 83.047 46.6699C82.9245 46.4096 82.8817 46.1189 82.9241 45.8345C82.9134 45.733 83.0202 45.7384 83.0789 45.7971Z" fill="#263238"/>
<path d="M91.4156 41.4848C91.4156 41.4848 91.2288 43.5343 91.0046 44.4736C91.0046 44.559 88.3734 43.7104 85.406 43.9932C84.963 44.0359 85.0484 43.689 85.5767 43.5182C86.6442 43.182 87.9518 42.9045 90.3802 43.4702C90.5082 43.2247 90.6203 40.3053 90.7698 40.332C91.4824 40.567 92.1608 40.8954 92.7872 41.3087C93.3209 37.039 93.1448 32.7373 93.7265 28.4996C93.7327 28.4694 93.749 28.4423 93.7729 28.4228C93.7967 28.4033 93.8265 28.3927 93.8573 28.3927C93.8881 28.3927 93.9179 28.4033 93.9417 28.4228C93.9656 28.4423 93.9819 28.4694 93.9881 28.4996C94.4791 33.0041 93.9881 37.9249 93.5557 42.3387C93.5184 42.8885 91.7571 41.7303 91.4156 41.4848Z" fill="#263238"/>
<path d="M87.9089 31.6484C87.3005 31.7285 86.7294 31.6965 86.1263 31.7178C85.4378 31.7178 84.8988 31.8246 84.2904 31.4403C84.1363 31.3152 84.0267 31.1439 83.9776 30.9516C83.9286 30.7594 83.9428 30.5564 84.0182 30.3729C84.4131 29.5936 85.2457 29.3642 86.0676 29.3054C86.8946 29.2185 87.7243 29.443 88.3946 29.9352C88.5363 30.0574 88.6401 30.2175 88.6938 30.3967C88.7476 30.5759 88.749 30.7667 88.698 30.9467C88.647 31.1267 88.5456 31.2883 88.4058 31.4126C88.266 31.537 88.0936 31.6188 87.9089 31.6484Z" fill="#263238"/>
<path d="M98.7754 29.4761C98.2481 29.2008 97.7367 28.8961 97.2437 28.5635C96.6619 28.2059 96.1762 27.9817 95.856 27.3359C95.7897 27.1424 95.7899 26.9323 95.8566 26.7389C95.9233 26.5455 96.0527 26.38 96.2243 26.2685C96.9768 25.8362 97.8254 26.0924 98.5192 26.4927C99.2586 26.874 99.8295 27.5172 100.12 28.2966C100.178 28.4775 100.181 28.6712 100.13 28.8539C100.079 29.0367 99.9759 29.2006 99.8332 29.3257C99.6906 29.4508 99.5146 29.5317 99.3267 29.5584C99.1389 29.5851 98.9473 29.5565 98.7754 29.4761Z" fill="#263238"/>
<path d="M83.1325 33.6978C83.5434 33.5911 83.9681 33.5479 84.3921 33.5697C84.8292 33.5925 85.2607 33.6788 85.673 33.8259C86.1037 33.9918 86.5001 34.2361 86.8418 34.5464C87.1919 34.8886 87.4617 35.3042 87.6317 35.7632L87.9412 36.5958L87.098 36.3877C86.5044 36.2363 85.8957 36.1522 85.2834 36.1368C84.6462 36.1045 84.0116 36.2388 83.4421 36.5265C83.8692 35.9513 84.5059 35.5678 85.214 35.459C85.9119 35.3275 86.6293 35.3402 87.3221 35.4964L86.8151 36.0888C86.5316 35.4248 86.0285 34.8783 85.3901 34.541C84.6779 34.162 83.9188 33.8784 83.1325 33.6978Z" fill="#263238"/>
<path d="M85.1282 37.5513C85.7915 37.4784 86.4426 37.3206 87.0656 37.0817C87.2097 37.007 87.7808 36.6867 87.7648 36.548C87.7397 36.2076 87.6697 35.872 87.5566 35.5499C87.7583 35.8516 87.8963 36.1912 87.9622 36.548C87.8996 36.7301 87.7971 36.8959 87.6623 37.0334C87.5275 37.171 87.3638 37.2768 87.183 37.3432C86.53 37.5991 85.8193 37.671 85.1282 37.5513Z" fill="#263238"/>
<path d="M85.6568 45.9356C86.4311 45.8776 87.1723 45.5978 87.7917 45.1297C87.4661 44.4518 86.5908 43.6353 84.2798 44.5106C83.8795 45.2471 84.3599 45.9676 85.6568 45.9356Z" fill="#FF99BA"/>
<path d="M69.9229 34.5678C72.1432 35.6352 75.8791 29.0439 77.0426 26.466C78.0727 24.1978 79.978 16.7952 80.1702 16.2988C80.3623 15.8025 89.3073 24.4913 95.429 23.6641C101.551 22.8368 106.269 18.1722 106.722 15.7278C107.176 13.2834 100.852 5.94482 94.5911 4.66925C88.3306 3.39368 78.5797 10.1131 78.5797 10.1131C78.5797 10.1131 82.0008 7.09231 81.9474 6.79343C81.8941 6.49455 77.571 7.50327 76.3862 10.2892C76.3862 10.2892 77.7418 6.77208 77.4536 6.65466C77.1654 6.53725 73.5201 9.17912 73.8777 11.6502C73.8777 11.6502 69.7361 14.2654 68.8715 17.6918C68.0069 21.1183 67.3184 33.3136 69.9229 34.5678Z" fill="#263238"/>
<path d="M99.7842 23.0714C97.8736 23.6052 95.9522 24.2563 93.9134 24.2136C91.7412 24.1709 89.6437 23.3009 87.749 22.2442C85.8529 21.1528 84.1475 19.7593 82.7001 18.1186C81.4139 16.6882 80.3358 15.0391 78.9321 13.7208C78.5852 13.3952 78.0408 13.8916 78.2276 14.2865C80.0636 18.2147 83.8209 21.8332 87.6797 23.7333C91.7412 25.7347 95.8988 25.3878 99.7736 23.1248C99.8216 23.1088 99.8163 23.0661 99.7842 23.0714Z" fill="#263238"/>
<path d="M72.2263 33.5335L72.2362 33.5658L71.6002 38.9663C71.3289 39.2704 71.002 39.5201 70.6368 39.702C70.2494 39.8949 69.827 40.0075 69.395 40.033C68.9629 40.0584 68.5302 39.9962 68.1229 39.85C67.7155 39.7039 67.3419 39.4768 67.0246 39.1825L67.0183 39.1767L67.0116 39.1713C66.3648 38.6491 65.8383 37.6675 65.4737 36.4352C65.1115 35.2113 64.9197 33.7766 64.9151 32.3907C64.9105 31.0028 65.0937 29.6814 65.4691 28.6789C65.8485 27.6657 66.3954 27.0463 67.0763 26.92C67.7801 26.7894 68.4508 27.0884 69.0851 27.6763C69.7198 28.2646 70.2852 29.1142 70.7591 30.0003C71.2314 30.8835 71.6048 31.7875 71.8604 32.4724C71.988 32.8144 72.0859 33.1007 72.1518 33.3012C72.1848 33.4014 72.2097 33.4801 72.2263 33.5335Z" fill="white" stroke="#263238" stroke-width="0.5"/>
<path d="M67.1748 29.4869C67.1645 29.4837 67.1534 29.4841 67.1434 29.4879C67.1333 29.4917 67.1248 29.4988 67.1193 29.5081C67.1137 29.5173 67.1115 29.5281 67.1128 29.5388C67.1142 29.5495 67.1191 29.5594 67.1267 29.567C69.0801 31.2375 69.5711 33.7299 69.6779 36.1797C69.2883 35.1122 68.5251 34.3544 67.1374 34.7813C67.0627 34.7813 67.0894 34.9148 67.1374 34.9201C67.577 34.9274 68.0036 35.0703 68.359 35.3291C68.7143 35.588 68.9811 35.9503 69.1228 36.3665C69.3526 37.0594 69.5065 37.7752 69.5818 38.5013C69.6245 38.7362 70.0248 38.7522 70.0248 38.5013V38.4479C71.0655 35.5926 70.1689 30.8105 67.1748 29.4869Z" fill="#263238"/>
<path d="M91.1541 49.0152C89.4619 52.0976 88.0491 55.3252 86.9324 58.6594C86.6655 59.508 86.4254 60.3566 86.2386 61.1945C86.2386 61.2265 86.2386 61.3066 86.1959 61.4347C86.1959 61.4827 86.1959 61.5414 86.1638 61.6055C86.0998 61.9471 86.0037 62.4754 85.8703 63.1266C85.8677 63.1603 85.8677 63.1942 85.8703 63.228C85.868 63.2403 85.868 63.253 85.8703 63.2653C85.8729 63.2512 85.8729 63.2367 85.8703 63.2226C82.9563 57.3008 81.6216 50.7265 81.9956 44.1371L83.2444 44.7935L84.1037 45.2472L84.9417 45.6902L85.6942 46.0851L86.1425 46.32L86.863 46.7042L87.5835 47.0885L88.256 47.4461L88.8751 47.777L91.1541 49.0152Z" fill="#F7A9A0"/>
<path d="M91.1541 49.0098C89.4619 52.0922 88.0491 55.3198 86.9324 58.654C86.6655 59.5026 86.4254 60.3512 86.2386 61.1891C86.2386 61.2212 86.2386 61.3012 86.1959 61.4293C86.1959 61.4773 86.1959 61.5361 86.1638 61.6001C86.0998 61.9417 86.0037 62.4701 85.8703 63.1212C85.8728 63.1532 85.8728 63.1853 85.8703 63.2173C82.9563 57.2954 81.6216 50.7211 81.9956 44.1317L83.2444 44.7882C83.5326 44.9376 83.8209 45.0871 84.1037 45.2418L84.9417 45.6848L85.6942 46.0798L86.1478 46.3253L86.8684 46.7095C87.121 46.8376 87.3611 46.9657 87.5889 47.0938L88.2613 47.4514L88.8804 47.7823L91.1541 49.0098Z" fill="#263238"/>
<path d="M102.986 13.8972C102.986 13.8972 108.659 18.8287 107.629 25.9217C106.599 33.0148 102.735 39.5154 102.047 39.6648C101.358 39.8143 102.986 13.8972 102.986 13.8972Z" fill="#263238"/>
<path d="M94.5202 54.9534L94.5222 54.9518C96.4087 53.5697 98.1051 51.1601 99.5572 48.1433C101.007 45.1315 102.202 41.5377 103.098 37.8139C104.669 31.2868 105.317 24.396 104.801 19.5951L104.801 19.5943C104.562 17.2941 104.065 15.504 103.316 14.451L103.315 14.4499L103.227 14.3246C102.846 13.8027 102.427 13.306 101.974 12.8378C97.9707 14.9191 94.3721 17.6351 91.3345 20.8684L91.3295 20.8737L91.3294 20.8737C91.1374 21.0663 90.9564 21.2589 90.781 21.4566L90.7795 21.4583C90.447 21.8265 90.1204 22.2047 89.8054 22.5929L89.8034 22.5953L89.8034 22.5953C88.2008 24.5204 86.8019 26.5903 85.627 28.7752L85.5942 28.836L85.5349 28.8715C85.2753 29.0264 85.066 29.2436 84.9274 29.499C84.8535 29.6651 84.8459 29.8502 84.9057 30.0208L84.9399 30.1186L84.895 30.2119C84.1853 31.6867 83.5739 33.2023 83.0646 34.7497C82.0926 37.7093 81.506 40.7705 81.3178 43.8651L94.5202 54.9534ZM94.5202 54.9534C92.1445 56.7314 89.2599 57.7929 86.2393 57.9988M94.5202 54.9534L86.2393 57.9988M86.2393 57.9988C85.2578 58.0626 84.2722 58.039 83.2956 57.9282C81.7019 53.4023 81.0306 48.6297 81.3178 43.8652L86.2393 57.9988Z" fill="white" stroke="#263238" stroke-width="0.5"/>
<path d="M97.4146 35.5549C97.4146 35.5015 97.5106 35.651 97.4946 35.7097C97.073 37.156 96.8382 38.8853 98.0283 39.7018C98.0657 39.7285 98.0283 39.8032 97.9963 39.7819C96.4485 39.1414 96.7848 36.8518 97.4146 35.5549Z" fill="#263238"/>
<path d="M99.0906 34.3596C101.476 34.7759 100.462 39.5259 98.2474 39.163C96.0325 38.8 97.0999 34.0073 99.0906 34.3596Z" fill="#263238"/>
<path d="M84.3864 46.5762C84.6319 47.0138 84.84 47.5796 85.3524 47.777C85.8907 47.9265 86.4548 47.9593 87.0069 47.8731C87.0191 47.8701 87.0319 47.8714 87.0432 47.8769C87.0545 47.8824 87.0635 47.8917 87.0686 47.9032C87.0737 47.9147 87.0746 47.9276 87.0711 47.9397C87.0676 47.9517 87.06 47.9622 87.0496 47.9692C86.759 48.1919 86.4136 48.3318 86.05 48.3741C85.6863 48.4164 85.318 48.3595 84.9841 48.2094C84.7143 48.0467 84.4984 47.808 84.3636 47.5231C84.2288 47.2383 84.181 46.9201 84.2262 46.6082C84.2316 46.5068 84.349 46.5068 84.3864 46.5762Z" fill="#263238"/>
<path d="M93.5987 41.8264C93.5987 41.8264 93.3852 44.084 93.1451 45.1194C93.1184 45.2155 90.2417 44.2761 86.9807 44.5857C86.4897 44.6284 86.5804 44.2494 87.1622 44.052C88.3256 43.6784 89.7827 43.3742 92.4673 43.9986C92.606 43.7264 92.7288 40.5135 92.8942 40.5401C93.6784 40.7958 94.4251 41.1547 95.1145 41.6076C95.6909 36.9162 95.5094 32.1715 96.1499 27.5069C96.1499 27.4687 96.165 27.432 96.1921 27.405C96.2191 27.378 96.2558 27.3628 96.294 27.3628C96.3322 27.3628 96.3688 27.378 96.3959 27.405C96.4229 27.432 96.4381 27.4687 96.4381 27.5069C96.9718 32.4704 96.4381 37.8823 95.9631 42.7444C95.8884 43.3742 93.967 42.0986 93.5987 41.8264Z" fill="#263238"/>
<path d="M89.7287 30.9919C89.0777 31.0533 88.4239 31.0801 87.77 31.072C87.0121 31.072 86.4144 31.1894 85.7526 30.7678C85.5893 30.6527 85.4706 30.485 85.4163 30.2928C85.3378 30.0569 85.3492 29.8003 85.4483 29.5723C85.6018 29.2705 85.8342 29.016 86.1208 28.8357C86.6107 28.561 87.1605 28.4108 87.722 28.3981C88.6331 28.3044 89.5465 28.5537 90.2838 29.0973C90.4489 29.2295 90.571 29.4078 90.6346 29.6096C90.6982 29.8114 90.7004 30.0275 90.6409 30.2305C90.5814 30.4335 90.463 30.6143 90.3005 30.7499C90.1381 30.8855 89.9391 30.9697 89.7287 30.9919Z" fill="#263238"/>
<path d="M101.7 28.6168C101.12 28.3136 100.557 27.9787 100.014 27.6134C99.3682 27.2184 98.8131 26.9729 98.4875 26.2578C98.4156 26.0469 98.4159 25.8181 98.4884 25.6075C98.5609 25.3968 98.7014 25.2163 98.8878 25.0943C99.7151 24.6139 100.622 24.8968 101.418 25.3398C102.233 25.7561 102.863 26.4624 103.184 27.3199C103.251 27.5197 103.258 27.7348 103.202 27.9382C103.147 28.1416 103.033 28.3242 102.875 28.4629C102.716 28.6016 102.52 28.6902 102.311 28.7176C102.102 28.745 101.89 28.7099 101.7 28.6168Z" fill="#263238"/>
<path d="M84.472 33.2494C85.3977 33.0166 86.3719 33.0668 87.2687 33.3935C87.7455 33.5749 88.1837 33.8447 88.5603 34.1887C88.9493 34.5729 89.2467 35.04 89.4302 35.555L89.7718 36.4677L88.8431 36.2382C88.1871 36.0794 87.5164 35.9882 86.8417 35.966C86.1401 35.9305 85.4414 36.0777 84.8136 36.393C85.2842 35.7552 85.985 35.3263 86.767 35.1975C87.5335 35.0489 88.3228 35.0635 89.0833 35.2402L88.5016 35.9233C88.186 35.1917 87.6307 34.5893 86.9271 34.2154C86.1527 33.7913 85.3278 33.4667 84.472 33.2494Z" fill="#263238"/>
<path d="M86.6763 37.4925C87.4087 37.4117 88.1268 37.2322 88.8111 36.9588C88.9712 36.8841 89.5957 36.5265 89.5797 36.4251C89.5524 36.0483 89.4752 35.6768 89.3502 35.3203C89.569 35.6545 89.7213 36.0278 89.7985 36.4198C89.7285 36.6199 89.6152 36.8021 89.4666 36.9534C89.3181 37.1047 89.138 37.2213 88.9392 37.295C88.217 37.5661 87.4345 37.6344 86.6763 37.4925Z" fill="#263238"/>
<path d="M91.2077 44.516C91.2077 44.516 89.2169 46.6936 87.2475 46.7363C84.9846 46.7843 84.9899 44.7509 87.5838 43.945C88.9501 43.518 91.2077 44.516 91.2077 44.516Z" fill="#263238"/>
<path d="M87.2527 46.7311C88.1142 46.6679 88.9399 46.3606 89.6331 45.8452C89.2702 45.0926 88.3095 44.196 85.7637 45.162C85.2994 45.9733 85.8277 46.7632 87.2527 46.7311Z" fill="#FF99BA"/>
<path d="M110.448 13.47C110.197 14.8416 108.718 16.8537 106.434 18.6149C105.944 18.9994 105.433 19.3558 104.902 19.6824C104.159 20.1544 103.379 20.5666 102.57 20.9153C101.123 21.5591 99.592 21.9957 98.0228 22.2122C96.0428 22.479 93.7958 21.8439 91.6183 20.8245C94.5792 17.505 98.0932 14.7241 102.004 12.6054C104.202 11.4076 106.514 10.4314 108.905 9.69128C110.015 11.2177 110.608 12.6054 110.448 13.47Z" fill="#263238"/>
<path d="M102.826 21.6091L102.527 21.7799C98.5458 24.0108 94.3081 24.4004 90.1451 22.5698C90.4494 22.1749 90.7642 21.7906 91.0845 21.417C92.7305 22.2515 94.5353 22.7264 96.3789 22.81C98.5137 22.8527 100.526 22.2176 102.533 21.6358L102.805 21.5558C102.826 21.5451 102.826 21.5931 102.826 21.6091Z" fill="#263238"/>
<path d="M91.653 119.835L102.083 123.088L112.155 90.7898L101.725 87.5373L91.653 119.835Z" fill="#EBEBEB"/>
<path d="M134.038 2.20872C125.316 -0.511138 115.983 -0.583568 107.22 2.00059C98.4571 4.58474 90.6572 9.70942 84.8067 16.7266C78.9562 23.7437 75.3179 32.3382 74.352 41.4231C73.386 50.508 75.1357 59.6753 79.3799 67.7658C83.624 75.8562 90.172 82.5065 98.1957 86.8755C106.219 91.2445 115.359 93.1361 124.457 92.311C133.556 91.486 142.206 87.9814 149.313 82.2403C156.42 76.4993 161.665 68.7797 164.384 60.0578C166.191 54.2668 166.839 48.1766 166.291 42.1351C165.744 36.0937 164.012 30.2192 161.194 24.8473C158.376 19.4753 154.527 14.7112 149.867 10.8268C145.208 6.94243 139.829 4.01399 134.038 2.20872ZM156.918 57.7148C154.662 64.9611 150.307 71.3755 144.405 76.1467C138.503 80.9179 131.318 83.8316 123.76 84.5191C116.201 85.2066 108.609 83.6371 101.943 80.0091C95.2766 76.3811 89.8361 70.8577 86.3094 64.1373C82.7828 57.417 81.3283 49.8017 82.1302 42.2547C82.932 34.7077 85.954 27.568 90.8139 21.7387C95.6739 15.9094 102.154 11.6524 109.433 9.50601C116.713 7.35966 124.465 7.42045 131.711 9.68069C141.424 12.7112 149.537 19.4756 154.264 28.4863C158.991 37.497 159.945 48.0163 156.918 57.7308V57.7148Z" fill="#455A64"/>
<path d="M77.1974 156.766L92.9686 161.682L107.715 114.39L91.9439 109.474L77.1974 156.766Z" fill="#263238"/>
<path d="M145.641 54.5179C145.641 54.4698 145.641 54.4218 145.683 54.3738C145.859 53.6799 145.534 55.0622 145.63 54.5926C145.747 54.0589 145.859 53.4771 145.95 52.9114C146.263 50.94 146.411 48.9459 146.393 46.9498C146.393 46.667 146.393 46.4161 146.393 46.1066C146.393 46.0158 146.425 46.7737 146.393 46.1706C146.393 45.9945 146.393 45.8237 146.361 45.6369C146.324 44.9751 146.26 44.3133 146.18 43.6515C146.009 42.1961 145.741 40.7537 145.379 39.3338C145.288 38.9975 145.192 38.6613 145.096 38.3197C144.974 37.866 145.267 38.8534 145.07 38.229C145 38.0262 144.936 37.8287 144.872 37.6259C144.611 36.868 144.338 36.1208 144.002 35.3843C143.666 34.6478 143.282 33.7832 142.871 33.0466C142.684 32.6944 142.486 32.3475 142.284 31.9792C141.937 31.3868 142.449 32.2194 142.177 31.8031C142.043 31.6056 141.915 31.4028 141.787 31.2C140.583 29.4267 139.208 27.7751 137.683 26.2685C137.651 26.2365 137.373 25.9696 137.603 26.1884C137.832 26.4073 137.475 26.0764 137.438 26.0337L136.728 25.4039C136.263 25.0036 135.794 24.614 135.313 24.235C134.294 23.4398 133.232 22.7033 132.138 22.0095C130.884 21.2142 130.707 19.3089 131.545 18.1667C131.986 17.5911 132.631 17.208 133.348 17.0976C134.064 16.9872 134.795 17.158 135.388 17.5743C142.326 21.9668 147.776 28.4834 150.215 36.3717C151.852 41.6775 152.302 47.2787 151.533 52.778C151.371 54.0102 151.125 55.2299 150.796 56.4286C150.407 57.8162 148.533 58.5634 147.252 58.0297C146.582 57.7556 146.042 57.2348 145.744 56.5744C145.446 55.9141 145.413 55.1646 145.651 54.4805L145.641 54.5179Z" fill="white"/>
<path d="M142.61 62.1126C142.419 62.6131 142.382 63.1588 142.501 63.6807C142.621 64.2025 142.893 64.6771 143.283 65.0443C143.673 65.4115 144.163 65.6548 144.691 65.7435C145.219 65.8321 145.761 65.7621 146.25 65.5423C146.738 65.3224 147.15 64.9627 147.434 64.5086C147.717 64.0544 147.86 63.5264 147.843 62.9912C147.827 62.4559 147.652 61.9377 147.34 61.502C147.029 61.0663 146.596 60.7327 146.095 60.5435C145.763 60.4174 145.409 60.358 145.055 60.3686C144.7 60.3793 144.351 60.4598 144.027 60.6055C143.703 60.7512 143.411 60.9594 143.168 61.218C142.925 61.4766 142.735 61.7806 142.61 62.1126Z" fill="white"/>
<path d="M48.9212 62.8279C18.0887 83.7867 -6.13651 131.34 4.80992 139.149C14.8063 146.263 60.4547 152.182 75.5641 151.883C80.0046 151.792 83.858 114.854 79.1133 114.939C73.3759 115.046 40.3765 111.791 39.8214 111.63C38.6366 111.284 54.7654 82.3831 61.8958 69.2431C71.8708 50.9047 60.4921 54.9556 48.9212 62.8279Z" fill="#609365"/>
<path d="M119.344 124.778L119.344 124.778C119.651 126.398 119.059 127.604 118.374 128.425C118.029 128.838 117.663 129.15 117.382 129.358C117.243 129.461 117.126 129.538 117.046 129.588C117.005 129.613 116.975 129.631 116.955 129.643L116.934 129.654L116.931 129.656L116.93 129.656L116.93 129.657L116.93 129.657L116.93 129.657L116.346 129.97L116.809 130.445L116.809 130.445L116.809 130.446L116.809 130.446L116.811 130.448L116.825 130.462C116.837 130.475 116.856 130.497 116.882 130.525C116.932 130.582 117.006 130.668 117.096 130.781C117.277 131.007 117.519 131.339 117.761 131.753C118.248 132.587 118.719 133.731 118.722 135.024C118.722 136.356 117.672 137.391 116.437 138.135C115.837 138.497 115.232 138.765 114.776 138.942C114.549 139.031 114.36 139.096 114.229 139.139C114.163 139.161 114.113 139.177 114.079 139.187L114.041 139.198L114.033 139.201L114.032 139.201L114.031 139.201L114.031 139.201L113.404 139.379L113.738 139.938C114.68 141.517 115.124 143.342 115.014 145.176C114.878 146.49 113.743 147.688 112.493 148.606C111.885 149.053 111.282 149.408 110.831 149.653C110.607 149.774 110.42 149.868 110.292 149.93C110.227 149.961 110.177 149.985 110.144 150L110.107 150.017L110.098 150.021L110.096 150.022L110.096 150.022L110.096 150.022L109.787 150.158L109.799 150.496C109.862 152.409 109.235 154.282 108.032 155.772C106.379 157.649 103.615 158.33 100.499 158.406C97.4948 158.479 94.2929 157.988 91.7096 157.592C91.6237 157.579 91.5384 157.566 91.4538 157.553C90.2032 157.362 88.3855 156.781 86.2887 155.981C84.2019 155.184 81.8733 154.184 79.6136 153.171C77.4948 152.221 75.4246 151.254 73.6794 150.439C72.0036 149.656 70.6274 149.013 69.7956 148.66L74.5317 115.8C74.7044 115.779 74.9335 115.751 75.2132 115.718C75.8926 115.637 76.8702 115.524 78.0623 115.394C80.4467 115.133 83.6877 114.805 87.1154 114.532C90.5444 114.26 94.1537 114.045 97.277 114.011C100.423 113.976 103.006 114.126 104.427 114.553C106.91 115.308 110.493 116.922 113.546 118.852C115.071 119.816 116.449 120.849 117.485 121.88C118.534 122.922 119.181 123.909 119.344 124.778Z" fill="white" stroke="#263238"/>
<path d="M117.007 129.489C112.012 126.569 106.424 125.294 100.916 123.698C100.892 123.696 100.868 123.702 100.849 123.715C100.83 123.729 100.815 123.749 100.809 123.772C100.803 123.794 100.805 123.819 100.814 123.84C100.824 123.862 100.841 123.88 100.862 123.89C106.36 125.411 111.478 128.005 116.874 129.761C116.892 129.77 116.911 129.775 116.931 129.776C116.951 129.777 116.971 129.775 116.989 129.768C117.008 129.762 117.026 129.752 117.041 129.738C117.056 129.725 117.068 129.709 117.076 129.691C117.085 129.673 117.09 129.654 117.092 129.634C117.093 129.614 117.09 129.594 117.084 129.576C117.077 129.557 117.067 129.539 117.054 129.524C117.041 129.51 117.025 129.497 117.007 129.489Z" fill="#263238"/>
<path d="M114.115 139.207C112.925 138.657 111.669 138.264 110.379 138.039C109.016 137.718 107.649 137.42 106.28 137.142C103.536 136.608 100.782 136.101 98.0124 135.69C97.8897 135.69 97.831 135.856 97.9591 135.882C100.692 136.416 103.419 137.035 106.125 137.708C107.48 138.042 108.833 138.398 110.181 138.775C111.432 139.184 112.724 139.452 114.034 139.576C114.076 139.572 114.116 139.555 114.147 139.527C114.179 139.499 114.201 139.462 114.21 139.421C114.219 139.38 114.214 139.337 114.197 139.299C114.18 139.26 114.151 139.228 114.115 139.207Z" fill="#263238"/>
<path d="M110.181 150.437C109.204 149.855 107.838 149.764 106.733 149.567C105.481 149.342 104.235 149.109 102.997 148.867C100.494 148.387 97.9908 147.907 95.525 147.336C95.3969 147.309 95.3435 147.501 95.4716 147.528C97.9961 148.12 100.51 148.739 103.04 149.31C104.278 149.588 105.523 149.858 106.776 150.122C107.843 150.346 109.135 150.751 110.218 150.565C110.231 150.557 110.241 150.545 110.246 150.531C110.251 150.516 110.252 150.501 110.248 150.486C110.244 150.472 110.235 150.459 110.223 150.45C110.211 150.441 110.196 150.436 110.181 150.437Z" fill="#263238"/>
<path d="M40.6328 110.467C40.3446 110.141 56.3933 82.4097 63.5451 67.5512C70.6968 52.6927 63.2729 51.9775 49.0441 62.102C33.8013 72.9524 2.4884 105.471 0.00664281 136.128C-0.788588 146.06 69.592 154.151 69.592 154.151L72.7623 113.232C72.7623 113.232 41.0758 110.969 40.6328 110.467Z" fill="#6BA370"/>
<path d="M26.7721 110.915C28.1171 111.102 64.9752 112.324 72.7407 113.525C72.8635 113.525 72.8795 113.125 72.7407 113.109C48.7237 109.907 28.1278 110.04 26.5159 110.157C24.6159 110.275 24.2583 110.568 26.7721 110.915Z" fill="#263238"/>
<path d="M40.8624 110.878C40.8624 110.803 46.7333 100.102 47.363 99.515C47.9928 98.9279 49.4178 97.5456 50.0316 96.8998C51.2538 95.5869 52.3906 94.2312 53.5648 92.8649C53.6608 92.7529 53.4954 92.5928 53.3993 92.6995C52.1931 93.9804 50.8695 95.1599 49.5513 96.3127L47.5765 97.9992C47.5285 98.0313 53.2019 87.5011 54.1252 85.6278C54.1946 85.489 54.0505 85.3983 53.9651 85.5051C52.7002 87.2876 41.156 108.321 39.7363 110.616C39.7363 110.632 40.1633 110.755 40.8624 110.878Z" fill="#263238"/>
<path d="M11.8178 143.568C23.1592 146.93 67.0677 153.666 69.336 154.039C69.3781 153.231 69.4942 152.429 69.6829 151.643C69.6829 151.557 69.875 151.547 69.8803 151.643C69.973 152.763 70.0051 153.887 69.9764 155.011C69.9764 155.197 26.7457 149.289 11.8018 143.68C11.7377 143.653 11.7484 143.546 11.8178 143.568Z" fill="#263238"/>
<path d="M60.3854 149.924C60.8471 147.122 61.1678 144.299 61.3461 141.465C61.6094 138.69 61.8531 135.914 62.0773 133.139C62.5256 127.54 63.118 121.931 63.2034 116.285C63.2034 116.258 63.1927 116.232 63.1737 116.213C63.1547 116.194 63.1289 116.183 63.102 116.183C63.0751 116.183 63.0493 116.194 63.0303 116.213C63.0113 116.232 63.0006 116.258 63.0006 116.285C61.9919 121.862 61.5542 127.567 61.0632 133.209C60.8177 136.037 60.6113 138.869 60.4441 141.705C60.1971 144.445 60.1044 147.196 60.1666 149.946C60.1719 150.052 60.3587 150.036 60.3854 149.924Z" fill="#263238"/>
<path d="M197.021 122.98C197.03 129.374 195.006 135.606 191.241 140.774C188.196 144.966 184.126 148.307 179.421 150.476C174.716 152.646 169.533 153.571 164.367 153.164C159.202 152.757 154.228 151.03 149.921 148.151C145.613 145.271 142.117 141.334 139.767 136.716C137.417 132.098 136.292 126.955 136.498 121.778C136.705 116.601 138.237 111.563 140.948 107.148C143.659 102.732 147.457 99.086 151.98 96.5587C156.503 94.0314 161.599 92.7073 166.781 92.7132C167.606 92.7132 168.428 92.7452 169.246 92.8092C173.933 93.1803 178.467 94.6425 182.488 97.0789C186.534 99.5427 189.949 102.916 192.463 106.931C195.461 111.746 197.041 117.308 197.021 122.98Z" fill="#263238"/>
<path d="M173.287 137.267C172.908 138.287 173.543 138.335 173.586 138.751C173.628 139.167 173.586 139.979 172.358 141.212C171.131 142.444 169.092 142.183 168.665 142.695C168.238 143.208 167.523 145.364 166.53 146.084C165.537 146.805 165.345 146.383 163.904 146.677C162.463 146.97 161.358 148.844 160.937 149.73C160.515 150.616 161.022 152.105 160.003 152.147C158.983 152.19 158.519 149.986 157.585 148.801C156.779 147.733 156.255 146.479 156.059 145.156C155.765 143.752 156.229 140.827 156.059 139.685C155.888 138.543 152.856 136.483 151.735 135.106C150.615 133.729 149.11 130.911 149.195 129.977C149.321 129.071 149.773 128.242 150.465 127.645C150.972 127.26 150.759 127.052 150.844 126.711C150.93 126.369 151.378 126.289 151.442 125.862C151.506 125.435 151.186 124.17 150.759 123.957C150.332 123.743 150.038 124.464 149.787 124.336C149.537 124.208 148.768 123.322 148.474 123.236C148.181 123.151 148.261 123.77 147.834 122.98C147.407 122.19 147.199 120.141 146.863 119.778C146.526 119.415 146.265 120.375 145.464 119.778C144.664 119.18 144.317 118.043 143.981 117.872C143.644 117.702 143.175 117.915 142.822 117.237C142.47 116.559 143.132 115.327 142.822 115.455C142.513 115.583 141.856 116.559 141.691 115.625C141.526 114.691 142.534 111.553 142.369 109.861C142.229 108.074 142.805 106.304 143.97 104.94C143.97 104.94 144.135 104.012 144.306 103.414C144.477 102.816 148.122 100.447 148.544 99.7688C148.721 99.3901 148.823 98.9804 148.843 98.5626C154.037 94.7385 160.32 92.6808 166.77 92.6918C167.596 92.6918 168.418 92.7238 169.236 92.7879C169.26 92.8284 169.289 92.866 169.321 92.9C169.684 93.3696 170.084 93.6632 171.157 94.0635C172.23 94.4637 172.486 94.9654 172.257 95.3871C172.156 95.5632 172.007 95.707 171.827 95.8015C171.648 95.8961 171.445 95.9374 171.243 95.9208C170.816 95.9475 170.421 95.7233 169.967 96.0062C169.513 96.289 169.065 97.8154 168.473 97.9008C167.88 97.9862 166.834 96.5399 166.605 96.1182C166.375 95.6966 167.138 94.7893 166.77 94.3677C166.402 93.946 165.815 94.0261 164.854 93.9407C163.893 93.8553 161.652 94.2236 161.743 94.5918C161.833 94.9601 165.025 94.5331 165.11 95.2696C165.196 96.0062 162.762 97.2497 162.34 97.1376C161.919 97.0256 161.348 96.289 160.739 96.2036C160.131 96.1182 159.608 96.6253 159.218 96.684C158.828 96.7427 158.364 96.2623 157.772 96.3744C157.179 96.4865 157.035 96.9935 156.704 97.191C156.373 97.3885 155.637 97.3885 155.573 97.8421C155.509 98.2958 156.507 98.552 156.758 98.8295C157.009 99.107 156.448 100.078 156.704 100.276C156.96 100.473 158.54 99.0857 158.935 98.7495C159.33 98.4132 159.672 96.9402 160.536 96.9668C161.401 96.9935 161.668 98.4345 161.945 98.568C162.223 98.7014 162.853 98.2264 163.787 98.4239C164.721 98.6214 165.388 100.66 165.537 101.279C165.687 101.898 166.103 102.523 165.761 102.779C165.42 103.035 163.899 102.608 163.701 102.213C163.504 101.818 164.715 101.226 164.635 101.082C164.466 100.967 164.271 100.897 164.068 100.876C163.865 100.856 163.66 100.886 163.472 100.964C163.109 101.189 162.938 101.647 162.543 101.76C162.148 101.872 161.102 100.692 160.819 101.023C160.536 101.354 161.102 102.437 161.385 102.694C161.668 102.95 162.709 103.089 162.794 103.371C162.879 103.654 162.089 104.273 161.129 104.22C160.168 104.167 159.378 103.43 158.994 103.74C158.61 104.049 158.823 104.871 158.567 105.154C158.311 105.437 156.928 105.239 156.251 105.971C155.573 106.702 155.263 107.807 154.585 108.431C153.908 109.055 153.593 108.26 152.691 109.135C151.789 110.011 151.623 111.964 151.623 112.642C151.623 113.32 151.623 113.859 151.394 113.773C151.075 113.496 150.857 113.121 150.775 112.706C150.689 112.338 150.972 111.713 150.972 111.489C150.972 111.265 149.67 110.107 148.907 109.989C148.144 109.872 147.466 110.523 146.9 110.95C146.334 111.377 145.299 111.318 144.952 111.687C144.605 112.055 144.301 115.305 144.584 116.068C144.867 116.832 145.235 116.832 146.137 116.437C147.039 116.042 146.532 115.279 147.071 115.444C147.313 115.535 147.522 115.697 147.669 115.91C147.816 116.123 147.894 116.376 147.893 116.634C147.893 117.088 146.825 118.161 146.959 118.47C147.092 118.78 148.026 118.417 148.485 118.555C148.944 118.694 149.163 118.977 149.019 120.157C148.875 121.336 148.96 122.217 149.638 122.601C150.316 122.985 150.705 122.067 150.994 122.174C151.282 122.281 151.714 122.98 152.141 122.937C152.568 122.895 152.349 122.516 153.155 122.259C153.961 122.003 153.689 121.838 153.833 121.325C153.861 121.195 153.917 121.073 153.997 120.966C154.077 120.859 154.179 120.771 154.295 120.706C154.412 120.642 154.541 120.604 154.674 120.594C154.807 120.584 154.941 120.602 155.066 120.648C155.6 120.904 155.231 121.283 155.274 121.715C155.317 122.147 156.293 122.179 157.057 122.436C157.82 122.692 158.241 122.436 159.768 122.969C161.294 123.503 161.369 125.003 162.015 125.259C162.661 125.515 164.774 125.088 166.284 126.193C167.795 127.298 167.384 129.331 168.147 129.929C168.91 130.527 171.75 131.327 172.854 131.53C173.959 131.733 174.125 130.996 175.016 131.188C175.907 131.381 176.414 131.658 176.713 132.886C176.985 133.985 173.671 136.248 173.287 137.267Z" fill="#99E9A0"/>
<path d="M150.508 115.588C150.535 115.828 151.245 115.93 152.109 116.41C152.974 116.89 153.267 118.305 153.71 118.272C154.153 118.24 154.02 117.595 154.191 117.429C154.268 117.381 154.332 117.315 154.376 117.235C154.42 117.156 154.443 117.066 154.443 116.976C154.443 116.885 154.42 116.795 154.376 116.716C154.332 116.637 154.268 116.57 154.191 116.522C153.737 116.154 153.294 115.364 152.472 115.252C151.65 115.14 151.501 114.798 151.138 114.825C151.043 114.825 150.95 114.845 150.864 114.886C150.778 114.926 150.703 114.985 150.643 115.058C150.582 115.131 150.539 115.216 150.516 115.308C150.493 115.399 150.49 115.495 150.508 115.588Z" fill="#99E9A0"/>
<path d="M155.172 117.963C155.044 118.31 155.172 118.556 156.074 118.785C156.976 119.015 157.83 118.556 157.547 118.374C157.264 118.193 156.837 118.273 157.014 117.963C157.19 117.654 157.126 117.2 156.389 117.285C155.653 117.371 155.284 117.654 155.172 117.963Z" fill="#99E9A0"/>
<path d="M158.337 118.059C158.028 118.107 157.857 118.641 158.167 118.982C158.476 119.324 158.476 119.265 158.844 118.982C159.213 118.7 159.778 118.561 159.64 118.278C159.501 117.995 158.647 118.016 158.337 118.059Z" fill="#99E9A0"/>
<path d="M160.798 119.217C160.936 118.79 161.646 119.217 161.956 119.66C162.078 119.91 162.141 120.183 162.141 120.461C162.141 120.738 162.078 121.012 161.956 121.261C161.785 121.747 161.673 122.329 161.278 122.083C160.883 121.838 161.305 121.181 161.246 120.781C161.187 120.381 160.68 119.564 160.798 119.217Z" fill="#99E9A0"/>
<path d="M172.977 95.638C172.827 95.9902 173.51 96.1183 173.911 96.3425C174.311 96.5666 174.615 96.7107 174.845 96.3425C174.886 96.2599 174.908 96.1691 174.909 96.0769C174.911 95.9846 174.892 95.8932 174.853 95.8093C174.815 95.7254 174.758 95.6512 174.687 95.592C174.617 95.5328 174.534 95.4901 174.444 95.4672C174.135 95.3818 173.121 95.3071 172.977 95.638Z" fill="#99E9A0"/>
<path d="M178.32 98.9416C178.581 99.2192 179.024 99.1711 179.339 99.5661C179.654 99.961 179.536 100.633 179.931 100.836C180.326 101.039 180.609 100.836 180.636 100.553C180.663 100.271 180.07 99.5661 180.129 99.422C180.188 99.2779 180.945 99.6195 181.116 100.046C181.287 100.473 180.945 101.06 181.346 101.178C181.746 101.295 181.655 100.783 181.826 100.644C181.997 100.505 182.36 100.591 182.333 100.249C182.197 99.7279 181.9 99.2628 181.485 98.9203C181.117 98.6028 180.683 98.3713 180.214 98.2425C179.958 98.1701 179.69 98.1531 179.426 98.1927C179.163 98.2323 178.911 98.3275 178.688 98.472C178.373 98.7442 178.159 98.7762 178.32 98.9416Z" fill="#99E9A0"/>
<path d="M190.547 104.268C190.531 104.384 190.474 104.49 190.387 104.567C189.794 104.994 189.085 103.5 188.252 103.238C187.419 102.977 187.067 101.909 186.896 102.139C186.726 102.368 186.784 102.672 186.528 103.041C186.272 103.409 185.904 103.323 185.738 104.033C185.573 104.743 186.528 106.04 186.304 106.462C186.08 106.883 185.77 106.745 185.338 106.718C184.906 106.691 184.975 107.081 184.383 106.915C183.79 106.75 184.297 106.008 183.363 105.133C182.429 104.257 182.12 104.065 182.296 103.692C182.472 103.318 182.21 102.731 182.632 102.672C183.054 102.614 183.395 103.238 183.699 103.409C184.004 103.58 184.351 103.073 184.377 102.619C184.404 102.165 183.39 101.552 183.022 101.194C182.653 100.836 182.627 99.5928 182.771 99.3099C182.915 99.0271 183.337 99.1391 183.449 98.52C183.513 98.1518 182.915 97.5433 182.445 97.1003C185.551 98.9885 188.294 101.416 190.547 104.268Z" fill="#99E9A0"/>
<path d="M194.769 129.609C194.854 128.707 194.4 128.648 194.854 126.983C194.992 126.324 194.99 125.645 194.848 124.987C194.707 124.33 194.429 123.71 194.032 123.167C193.696 122.798 192.965 122.91 192.367 123.279C191.769 123.647 192.196 123.93 191.801 124.069C191.406 124.207 191.011 123.983 190.643 124.015C190.275 124.047 189.933 124.971 189.143 124.944C188.353 124.917 187.846 123.786 187.249 122.98C186.651 122.174 185.439 121.667 185.044 120.68C184.649 119.692 185.413 118.16 185.242 117.002C185.071 115.844 184.313 116.1 184.174 115.449C184.036 114.798 184.287 115.108 184.484 114.488C184.682 113.869 184.26 113.528 184.655 112.455C185.05 111.382 185.76 110.854 185.589 110.363C185.418 109.872 184.884 109.087 184.852 108.527C184.82 107.966 185.386 107.993 186.453 107.198C187.521 106.403 187.809 106.461 188.631 106.744C189.219 106.962 189.824 107.132 190.44 107.251C190.921 107.337 191.572 108.58 191.769 108.527C191.967 108.474 191.993 108.1 192.079 107.566C192.133 107.331 192.255 107.118 192.431 106.952C195.62 112.069 197.209 118.021 196.996 124.046C196.784 130.071 194.778 135.895 191.235 140.774C194.123 136.403 194.683 130.532 194.769 129.609Z" fill="#99E9A0"/>
<path d="M132.116 122.98C132.116 126.065 132.25 129.219 133.098 132.235L133.36 133.377L133.728 134.487L134.481 136.718L135.447 138.853C135.612 139.205 135.761 139.573 135.943 139.92L136.525 140.945C138.078 143.701 139.997 146.234 142.23 148.475L143.959 150.103C144.525 150.637 145.192 151.091 145.806 151.587C147.066 152.557 148.385 153.448 149.755 154.255C150.444 154.645 151.17 154.976 151.89 155.323L152.958 155.857C153.321 156.022 153.7 156.145 154.068 156.294L156.299 157.132L158.604 157.751L159.757 158.055L160.937 158.248L163.296 158.627L165.681 158.771L166.877 158.84C167.272 158.84 167.672 158.84 168.067 158.797L170.458 158.696C171.253 158.611 172.059 158.472 172.828 158.36C174.405 158.102 175.965 157.746 177.498 157.292C178.256 157.052 178.997 156.759 179.75 156.492L180.876 156.081C181.244 155.926 181.602 155.745 181.944 155.574L184.105 154.538L186.155 153.3C186.843 152.895 187.503 152.442 188.129 151.944C188.759 151.453 189.421 151.005 190.024 150.482C191.236 149.442 192.381 148.327 193.45 147.141C195.613 144.788 197.438 142.146 198.873 139.29L199.892 137.129C200.202 136.392 200.426 135.629 200.714 134.887L201.114 133.761C201.237 133.382 201.317 132.987 201.419 132.603L201.995 130.286C202.575 127.162 202.758 123.978 202.54 120.808C202.095 114.501 199.931 108.436 196.285 103.271C192.638 98.1056 187.647 94.0373 181.853 91.507C187.336 94.355 191.98 98.5866 195.324 103.782C198.635 108.913 200.533 114.826 200.826 120.925C200.93 123.941 200.681 126.96 200.084 129.918L199.503 132.101C199.396 132.464 199.321 132.832 199.198 133.169L198.798 134.236C198.526 134.935 198.291 135.656 197.987 136.339L196.994 138.362C196.665 139.036 196.293 139.689 195.879 140.315C195.473 140.945 195.132 141.623 194.673 142.215C193.808 143.443 192.861 144.611 191.839 145.711C190.828 146.82 189.748 147.863 188.604 148.833C188.033 149.324 187.409 149.74 186.811 150.194L185.909 150.866C185.605 151.085 185.274 151.261 184.959 151.459C174.872 158.088 161.22 158.44 150.561 152.745C147.904 151.29 145.435 149.514 143.212 147.456C140.977 145.375 139.032 143.004 137.427 140.406L136.808 139.445C136.61 139.119 136.455 138.767 136.274 138.431L135.206 136.392L134.358 134.257L133.936 133.19L133.621 132.085C133.413 131.349 133.189 130.612 132.997 129.865L132.586 127.591C132.516 127.212 132.436 126.833 132.378 126.454L132.282 125.302L132.116 122.98Z" fill="#D95736"/>
<path d="M178.912 95.5845L183.006 97.5326L185.898 88.8918L183.79 87.8884L178.912 95.5845Z" fill="#D95736"/>
<path d="M164.085 168.575H168.483V157.805H164.085V168.575Z" fill="#D95736"/>
<path d="M150.166 168.564H182.402V164.567H150.166V168.564Z" fill="#D95736"/>
</svg>
