<svg width="64" height="38" viewBox="0 0 64 38" fill="none" xmlns="http://www.w3.org/2000/svg">
<path d="M23.7837 27.0223C29.291 32.1019 36.9391 30.4322 42.6396 25.403C42.8165 25.247 42.835 24.9757 42.6844 24.7933L40.393 22.0316C40.2478 21.8569 39.9946 21.8229 39.809 21.9525C35.8769 24.6977 31.9437 27.3046 27.1033 23.9958C26.9429 23.8859 26.73 23.8991 26.5815 24.0232L23.8011 26.3598C23.597 26.5312 23.5893 26.8432 23.7837 27.0223Z" fill="#41BA4B"/>
<path d="M42.2521 5.96527C41.5567 4.91396 40.8864 3.90219 40.2195 2.89483C40.0917 2.70148 40.1463 2.44003 40.3406 2.3137C45.0674 -0.755646 51.6206 -0.746857 55.8823 2.3137C56.0635 2.44442 56.1105 2.69599 55.9871 2.88384C55.3376 3.86594 54.6815 4.85903 53.9731 5.93011C53.8541 6.11027 53.6172 6.1696 53.4305 6.06414C49.8969 4.06698 46.3665 4.26911 42.7804 6.10808C42.5949 6.20255 42.3678 6.13884 42.2521 5.96527Z" fill="#41BA4B"/>
<path d="M24.1755 2.84321C23.4976 3.86596 22.8404 4.85795 22.144 5.90926C22.025 6.08832 21.7892 6.14764 21.6025 6.04218C18.0601 4.03074 14.5363 4.26363 10.935 6.06964C10.7505 6.16192 10.5256 6.09821 10.4121 5.92574C9.72435 4.88321 9.05626 3.87035 8.39036 2.86189C8.26591 2.67294 8.31613 2.41807 8.5028 2.29064C12.9502 -0.747939 19.4236 -0.771008 24.0565 2.26647C24.2487 2.39171 24.3022 2.65097 24.1755 2.84321Z" fill="#41BA4B"/>
<path d="M17.3484 15.9258C15.4424 15.8863 13.9326 14.278 13.9883 12.3445C14.044 10.4188 15.652 8.90939 17.5689 8.98519C19.3952 9.05659 20.906 10.655 20.8831 12.4918C20.858 14.39 19.238 15.9643 17.3484 15.9258Z" fill="#41BA4B"/>
<path d="M48.1568 15.9214C46.2289 15.9434 44.6744 14.4098 44.6646 12.4742C44.6548 10.5397 46.2038 8.97422 48.1175 8.98301C49.958 8.9918 51.4961 10.5056 51.555 12.3643C51.614 14.2648 50.0529 15.8995 48.1568 15.9214Z" fill="#41BA4B"/>
<path d="M41.764 38C44.6525 38 47.4417 37.443 49.7057 36.3247C51.448 35.5085 52.9948 34.3968 54.3419 32.9851C54.4303 32.8918 54.5177 32.7973 54.6039 32.7028C56.6082 30.4925 57.8745 27.8648 58.405 24.8207C58.5928 23.7409 58.6888 22.6094 58.691 21.4251C58.691 21.4086 58.691 21.3933 58.691 21.3768C58.691 21.3559 58.691 21.335 58.6899 21.3131C58.6899 21.3054 58.6899 21.2988 58.6899 21.2911C58.6899 21.2691 58.691 21.2483 58.691 21.2274C58.691 21.19 58.691 21.1505 58.6899 21.1131C58.6899 20.9385 58.691 20.7704 58.6932 20.6089C58.703 19.8212 58.7467 19.1929 58.9323 18.76C58.9967 18.6095 59.0676 18.4821 59.1637 18.369C59.2729 18.2404 59.4159 18.1284 59.6233 18.0229C60.4486 17.6044 63.0696 16.3553 63.0696 16.3553C63.3458 16.2169 63.4833 16.2081 63.4833 15.939C63.4833 15.6435 63.4244 15.3282 63.3731 15.003C63.2748 14.3834 63.2606 14.2703 63.2071 13.9956C63.0423 13.1355 62.8807 12.9191 62.5074 12.9586L60.6145 13.2695L57.3079 13.8133L56.5874 13.9319L55.8691 14.0495C55.8287 14.0539 55.7894 14.0627 55.7512 14.0747C55.534 14.1406 55.3637 14.3186 55.3146 14.5471C55.1639 15.248 55.034 15.9269 54.9249 16.5849C54.6803 18.0493 54.5384 19.4049 54.4991 20.6528C54.4991 20.6419 54.4991 20.6309 54.4991 20.621C54.4718 22.1502 54.3889 23.4399 54.0559 25.0921C53.6837 26.9398 52.7121 28.6865 51.3104 29.9861C48.9143 32.2041 45.3544 33.5366 41.7051 33.5586C36.7239 33.5882 26.7594 33.5882 21.7782 33.5586C18.1289 33.5366 14.569 32.2041 12.1729 29.9861C10.7712 28.6876 9.79857 26.9398 9.42742 25.0921C9.09447 23.4388 9.0115 22.1491 8.98421 20.621C8.98421 20.632 8.98421 20.643 8.98421 20.6528C8.94382 19.4049 8.803 18.0493 8.55847 16.5849C8.44821 15.9269 8.3194 15.2491 8.16875 14.5471C8.11963 14.3186 7.94933 14.1406 7.7321 14.0747C7.69389 14.0627 7.65568 14.0539 7.6142 14.0495L6.8959 13.9319L6.17542 13.8133L2.86883 13.2695L0.975928 12.9586C0.601495 12.9191 0.441023 13.1355 0.276185 13.9956C0.223786 14.2703 0.208504 14.3834 0.110256 15.003C0.0589489 15.3282 0 15.6435 0 15.939C0 16.2081 0.137547 16.2169 0.413732 16.3553C0.413732 16.3553 3.03476 17.6044 3.86004 18.0229C4.06855 18.1284 4.21046 18.2393 4.31963 18.369C4.41569 18.4821 4.48665 18.6095 4.55105 18.76C4.73663 19.1929 4.7803 19.8212 4.79012 20.6089C4.79231 20.7704 4.79231 20.9385 4.7934 21.1131C4.7934 21.1516 4.79231 21.1911 4.79231 21.2274C4.79231 21.2493 4.79231 21.2702 4.79231 21.2911C4.79231 21.2988 4.79231 21.3054 4.79231 21.3131C4.79231 21.3339 4.79121 21.3559 4.79121 21.3768C4.79121 21.3933 4.79121 21.4086 4.79121 21.4251C4.7934 22.6094 4.88946 23.7409 5.07722 24.8207C5.60776 27.8648 6.87407 30.4925 8.87832 32.7028C8.96456 32.7973 9.05189 32.8918 9.14031 32.9851C10.4885 34.3968 12.0343 35.5096 13.7765 36.3247C16.0417 37.443 18.9116 38 21.8001 38H41.764Z" fill="#41BA4B"/>
</svg>
