<svg width="553" height="557" viewBox="0 0 553 557" fill="none" xmlns="http://www.w3.org/2000/svg">
<path d="M38.4833 207.604H31.0552C23.0841 207.604 15.4394 210.77 9.80296 216.407C4.16652 222.043 1 229.688 1 237.659V402.585C1 410.557 4.16652 418.201 9.80296 423.838C15.4394 429.474 23.0841 432.641 31.0552 432.641H132.966C140.937 432.641 148.582 429.474 154.218 423.838C159.855 418.201 163.021 410.557 163.021 402.585" stroke="#263238" stroke-width="1.10311" stroke-linecap="round" stroke-linejoin="round" stroke-dasharray="4.41 4.41"/>
<path d="M154.716 51.9828V19.4059C154.716 14.5315 156.65 9.85607 160.093 6.40547C163.536 2.95488 168.207 1.01089 173.081 1H305.609C310.491 1 315.172 2.93919 318.624 6.39096C322.076 9.84273 324.015 14.5243 324.015 19.4059" stroke="#263238" stroke-width="1.10311" stroke-linecap="round" stroke-linejoin="round" stroke-dasharray="4.41 4.41"/>
<path d="M371.308 556.796C461.595 556.796 534.788 544.26 534.788 528.796C534.788 513.332 461.595 500.796 371.308 500.796C281.021 500.796 207.829 513.332 207.829 528.796C207.829 544.26 281.021 556.796 371.308 556.796Z" fill="#99E9A0"/>
<path opacity="0.5" d="M371.308 556.796C461.595 556.796 534.788 544.26 534.788 528.796C534.788 513.332 461.595 500.796 371.308 500.796C281.021 500.796 207.829 513.332 207.829 528.796C207.829 544.26 281.021 556.796 371.308 556.796Z" fill="white"/>
<path d="M521.38 95.6882V342.461C521.38 350.528 518.176 358.265 512.473 363.97C506.77 369.676 499.035 372.883 490.968 372.887H56.9291C48.8622 372.883 41.1269 369.676 35.4241 363.97C29.7212 358.265 26.5176 350.528 26.5176 342.461V95.6882C26.5176 94.9618 26.5176 94.3177 26.6135 93.5502C27.1478 85.8736 30.5736 78.6854 36.1998 73.4356C41.8261 68.1858 49.234 65.2652 56.9291 65.2629H490.968C498.672 65.2661 506.087 68.1944 511.715 73.4556C517.343 78.7169 520.763 85.9187 521.284 93.605C521.352 94.2628 521.38 94.9755 521.38 95.6882Z" fill="white" stroke="#263238" stroke-width="1.10311" stroke-linecap="round" stroke-linejoin="round"/>
<path d="M41.3198 104.953H508.128V332.909C508.128 340.469 505.124 347.72 499.778 353.066C494.432 358.412 487.182 361.415 479.621 361.415H69.84C62.2796 361.415 55.0289 358.412 49.6829 353.066C44.3369 347.72 41.3335 340.469 41.3335 332.909V104.953H41.3198Z" fill="#263238"/>
<path opacity="0.2" d="M508.14 104.953V332.909C508.18 340.427 505.233 347.653 499.947 352.999C494.66 358.345 487.467 361.372 479.949 361.415H69.5101C61.992 361.372 54.7989 358.345 49.5124 352.999C44.2259 347.653 41.2787 340.427 41.3188 332.909V104.953H508.14Z" fill="white"/>
<path d="M521.284 93.6052H26.6138C27.1481 85.9287 30.5739 78.7404 36.2001 73.4906C41.8263 68.2409 49.2342 65.3202 56.9294 65.318H490.968C498.664 65.3202 506.071 68.2409 511.698 73.4906C517.324 78.7404 520.75 85.9287 521.284 93.6052Z" fill="#99E9A0" stroke="#263238" stroke-width="1.10311" stroke-miterlimit="10"/>
<path d="M87.3957 79.4066C87.3957 80.4719 87.0798 81.5132 86.488 82.3989C85.8962 83.2847 85.055 83.975 84.0708 84.3827C83.0866 84.7903 82.0037 84.897 80.9589 84.6892C79.9141 84.4814 78.9544 83.9684 78.2011 83.2151C77.4478 82.4619 76.9349 81.5022 76.727 80.4574C76.5192 79.4126 76.6259 78.3296 77.0335 77.3454C77.4412 76.3613 78.1315 75.5201 79.0173 74.9282C79.903 74.3364 80.9444 74.0205 82.0096 74.0205C83.4381 74.0205 84.8081 74.588 85.8182 75.5981C86.8282 76.6081 87.3957 77.9781 87.3957 79.4066Z" fill="#263238"/>
<path d="M110.173 79.4066C110.173 80.4719 109.857 81.5132 109.265 82.3989C108.674 83.2847 107.832 83.975 106.848 84.3827C105.864 84.7903 104.781 84.897 103.736 84.6892C102.691 84.4814 101.732 83.9684 100.978 83.2151C100.225 82.4619 99.7122 81.5022 99.5044 80.4574C99.2965 79.4126 99.4032 78.3296 99.8109 77.3454C100.219 76.3613 100.909 75.5201 101.795 74.9282C102.68 74.3364 103.722 74.0205 104.787 74.0205C106.215 74.0205 107.585 74.588 108.595 75.5981C109.606 76.6081 110.173 77.9781 110.173 79.4066Z" fill="#263238"/>
<path d="M127.566 84.7927C130.54 84.7927 132.952 82.3812 132.952 79.4066C132.952 76.4319 130.54 74.0205 127.566 74.0205C124.591 74.0205 122.18 76.4319 122.18 79.4066C122.18 82.3812 124.591 84.7927 127.566 84.7927Z" fill="#263238"/>
<path d="M508.127 104.953V332.909C508.127 340.469 505.124 347.72 499.778 353.066C494.432 358.412 487.181 361.415 479.621 361.415H69.8395C63.241 361.414 56.8472 359.124 51.7487 354.935C46.6503 350.746 43.1628 344.919 41.8812 338.446V338.364C41.5327 336.557 41.3583 334.721 41.3604 332.881V104.953H508.127Z" stroke="#263238" stroke-width="1.10311" stroke-miterlimit="10"/>
<path d="M507.688 140.202C505.69 139.08 503.564 138.201 501.356 137.584L498.793 126.141H487.912L485.376 137.584C483.156 138.19 481.02 139.069 479.017 140.202L469.191 133.912L461.502 141.573L467.683 151.399C466.551 153.403 465.672 155.539 465.065 157.758L453.622 160.294V171.176L465.065 173.738C465.665 175.969 466.545 178.115 467.683 180.125L461.392 190.02L469.095 197.709L478.976 191.418C480.975 192.553 483.106 193.436 485.321 194.049L487.871 205.479H498.711L501.26 194.049C503.469 193.43 505.595 192.547 507.592 191.418L508.099 191.747V139.928L507.688 140.202ZM493.38 179.947C490.598 179.947 487.879 179.122 485.566 177.576C483.254 176.03 481.451 173.833 480.388 171.263C479.324 168.693 479.046 165.865 479.59 163.137C480.133 160.409 481.474 157.904 483.442 155.938C485.41 153.972 487.917 152.634 490.645 152.093C493.374 151.552 496.201 151.832 498.771 152.898C501.34 153.965 503.535 155.769 505.078 158.083C506.622 160.397 507.444 163.117 507.441 165.899C507.441 167.745 507.078 169.573 506.371 171.278C505.664 172.983 504.628 174.533 503.322 175.837C502.016 177.142 500.466 178.176 498.76 178.881C497.054 179.587 495.226 179.949 493.38 179.947Z" fill="#263238"/>
<path d="M311.569 151.235V128.292L287.448 122.934C286.147 118.273 284.307 113.779 281.966 109.544L284.886 104.953H170.997L173.806 109.421C171.437 113.637 169.596 118.13 168.324 122.797L144.189 128.169V151.166L168.324 156.552C169.596 161.254 171.437 165.783 173.806 170.038L160.553 190.883L176.794 207.11L197.625 193.844C201.852 196.221 206.347 198.084 211.015 199.394L216.388 223.447H239.275L244.675 199.339C249.328 198.023 253.809 196.16 258.024 193.789L278.869 207.055L295.096 190.829L281.925 169.983C284.26 165.754 286.099 161.271 287.407 156.621L311.569 151.235ZM227.968 169.408C222.105 169.408 216.374 167.669 211.499 164.412C206.624 161.154 202.825 156.525 200.581 151.108C198.337 145.691 197.75 139.731 198.894 133.98C200.038 128.23 202.861 122.948 207.007 118.802C211.153 114.656 216.435 111.833 222.185 110.689C227.936 109.545 233.896 110.132 239.313 112.376C244.729 114.62 249.359 118.419 252.617 123.294C255.874 128.169 257.612 133.901 257.612 139.764C257.614 143.657 256.849 147.513 255.36 151.11C253.871 154.707 251.687 157.976 248.934 160.729C246.181 163.482 242.912 165.666 239.315 167.155C235.717 168.644 231.862 169.409 227.968 169.408Z" fill="#263238"/>
<path d="M159.348 308.774L160.321 290.56L141.449 285.243C140.573 281.5 139.276 277.868 137.584 274.416L148.987 258.408L136.762 244.854L119.685 254.448C116.421 252.394 112.931 250.724 109.283 249.473L106.021 230.121L87.8211 229.285L82.5583 248.212C78.8086 249.053 75.1736 250.341 71.7313 252.049L55.7375 240.66L42.1558 252.871L51.8316 269.962C49.7573 273.211 48.0823 276.699 46.843 280.35L41.3609 281.255V305.924L45.3628 307.047C46.193 310.803 47.4771 314.443 49.1865 317.888L41.3198 328.921L41.8406 338.364V338.446L49.9677 347.45L67.0716 337.788C70.33 339.884 73.8326 341.573 77.5012 342.818L80.7081 361.402L80.8589 362.183L99.0592 363.142L99.5389 361.402L104.322 344.229C108.089 343.386 111.741 342.098 115.204 340.392L131.17 351.767L144.738 339.57L135.145 322.466C137.2 319.22 138.852 315.736 140.065 312.091L159.348 308.774ZM111.01 280.336C107.892 276.869 103.816 274.403 99.2974 273.253C94.7785 272.102 90.0198 272.317 85.6233 273.872C81.2268 275.426 77.3901 278.249 74.5985 281.984C71.8068 285.72 70.1857 290.199 69.9402 294.855C69.6947 299.512 70.8359 304.137 73.2193 308.145C75.6027 312.153 79.1214 315.364 83.3301 317.372C87.5387 319.38 92.2484 320.094 96.8633 319.425C101.478 318.756 105.791 316.733 109.256 313.612C113.882 309.432 116.664 303.59 116.993 297.364C117.322 291.138 115.17 285.035 111.01 280.391V280.336Z" fill="#263238"/>
<path d="M304.922 281.625C305.627 278.804 305.999 275.911 306.032 273.004L319.121 266.152L315.503 252.871L300.729 253.557C299.232 251.075 297.452 248.775 295.425 246.704L299.797 232.574L287.873 225.722L277.896 236.604C275.081 235.924 272.199 235.556 269.303 235.507L262.45 222.419L249.184 226.023L249.883 240.811C247.401 242.307 245.101 244.087 243.03 246.115L228.887 241.743L222.034 253.653L232.998 263.616C232.289 266.426 231.926 269.312 231.916 272.209L218.8 279.062L222.418 292.328L237.219 291.629C238.686 294.124 240.459 296.426 242.496 298.482L238.097 312.543L250.034 319.396L259.956 308.596C262.775 309.306 265.67 309.669 268.577 309.679L275.429 322.781L288.696 319.176L288.106 306.54L288.01 304.375C290.527 302.893 292.856 301.112 294.945 299.071L309.075 303.457L314.913 293.26L315.9 291.533L304.922 281.625ZM273.579 289.683C270.177 290.621 266.573 290.528 263.224 289.415C259.875 288.302 256.931 286.22 254.768 283.432C252.604 280.644 251.317 277.276 251.069 273.756C250.822 270.235 251.626 266.721 253.379 263.658C255.132 260.595 257.755 258.122 260.916 256.552C264.077 254.981 267.632 254.385 271.132 254.839C274.632 255.293 277.918 256.775 280.574 259.099C283.23 261.423 285.136 264.484 286.05 267.892C287.269 272.435 286.642 277.276 284.305 281.358C281.969 285.44 278.113 288.433 273.579 289.683Z" fill="#263238"/>
<path d="M456.664 304.978L459.679 286.75L441.232 279.336C440.814 275.451 439.925 271.632 438.587 267.961L451.867 253.173L441.123 238.097L422.813 245.868C419.773 243.431 416.451 241.37 412.918 239.728L411.849 219.87L393.621 216.854L386.152 235.219C382.284 235.674 378.481 236.57 374.818 237.892L359.989 224.612L344.982 235.356L352.766 253.653C350.623 256.327 348.763 259.216 347.216 262.273C347.01 262.698 346.791 263.123 346.599 263.548L326.754 264.644L323.725 282.844L326.713 284.05L342.172 290.286C342.594 294.153 343.482 297.954 344.817 301.607L331.51 316.49L342.268 331.566L360.564 323.754C363.594 326.212 366.913 328.293 370.446 329.949L371.474 349.711L389.688 352.726L397.143 334.499C401.019 334.075 404.83 333.182 408.491 331.84L423.292 345.12L438.368 334.362L430.583 316.052C433.063 313.009 435.158 309.672 436.819 306.116L456.664 304.978ZM405.544 304.156C401.71 306.907 397.145 308.459 392.428 308.616C387.711 308.773 383.054 307.528 379.045 305.038C375.036 302.547 371.855 298.924 369.906 294.626C367.956 290.328 367.324 285.549 368.091 280.892C368.858 276.235 370.989 271.91 374.214 268.465C377.439 265.019 381.613 262.607 386.209 261.534C390.805 260.46 395.616 260.774 400.033 262.435C404.451 264.097 408.276 267.031 411.026 270.866C414.71 276.011 416.199 282.409 415.166 288.652C414.132 294.895 410.662 300.472 405.517 304.156H405.544Z" fill="#263238"/>
<path d="M209.644 170.038H66.3169C56.3939 170.038 48.3496 178.082 48.3496 188.006V386.441C48.3496 396.364 56.3939 404.408 66.3169 404.408H209.644C219.567 404.408 227.612 396.364 227.612 386.441V188.006C227.612 178.082 219.567 170.038 209.644 170.038Z" fill="#99E9A0" stroke="#263238" stroke-width="1.10311" stroke-miterlimit="10"/>
<path opacity="0.2" d="M209.644 170.038H66.3169C56.3939 170.038 48.3496 178.082 48.3496 188.006V386.441C48.3496 396.364 56.3939 404.408 66.3169 404.408H209.644C219.567 404.408 227.612 396.364 227.612 386.441V188.006C227.612 178.082 219.567 170.038 209.644 170.038Z" fill="black"/>
<path d="M244.29 205.712V404.148C244.292 406.509 243.829 408.846 242.927 411.028C242.025 413.209 240.701 415.192 239.033 416.862C237.364 418.531 235.383 419.856 233.202 420.76C231.021 421.664 228.684 422.129 226.323 422.129H82.9956C80.6361 422.127 78.3001 421.661 76.1209 420.756C73.9417 419.851 71.962 418.526 70.2948 416.857C68.6277 415.187 67.3057 413.205 66.4044 411.025C65.5032 408.844 65.0402 406.507 65.042 404.148V205.712C65.042 200.95 66.9331 196.382 70.2997 193.012C73.6662 189.643 78.2328 187.749 82.9956 187.745H226.323C231.088 187.745 235.658 189.638 239.028 193.008C242.397 196.377 244.29 200.947 244.29 205.712Z" fill="white" stroke="#263238" stroke-width="1.10311" stroke-linecap="round" stroke-linejoin="round"/>
<path d="M244.29 205.712V216.334H65.042V205.712C65.042 200.95 66.9331 196.382 70.2997 193.012C73.6662 189.643 78.2328 187.749 82.9956 187.745H226.323C231.088 187.745 235.658 189.638 239.028 193.008C242.397 196.377 244.29 200.947 244.29 205.712Z" fill="#99E9A0" stroke="#263238" stroke-width="1.10311" stroke-miterlimit="10"/>
<path d="M126.002 228.641H81.8994V236.042H126.002V228.641Z" fill="#99E9A0"/>
<path d="M126.002 294.96H81.8994V302.36H126.002V294.96Z" fill="#99E9A0"/>
<path d="M126.002 355.098H81.8994V362.498H126.002V355.098Z" fill="#99E9A0"/>
<path d="M207.15 246.965H81.8994V252.392H207.15V246.965Z" fill="#263238"/>
<path d="M184.564 257.339H81.8994V262.63H184.564V257.339Z" fill="#263238"/>
<path d="M198.009 267.55H81.8994V272.84H198.009V267.55Z" fill="#263238"/>
<path d="M198.009 277.746H81.8994V283.036H198.009V277.746Z" fill="#263238"/>
<path d="M207.15 307.103H81.8994V312.53H207.15V307.103Z" fill="#263238"/>
<path d="M184.564 317.477H81.8994V322.767H184.564V317.477Z" fill="#263238"/>
<path d="M198.009 327.688H81.8994V332.978H198.009V327.688Z" fill="#263238"/>
<path d="M207.15 373.133H81.8994V378.561H207.15V373.133Z" fill="#263238"/>
<path d="M184.564 383.522H81.8994V388.812H184.564V383.522Z" fill="#263238"/>
<path d="M198.009 393.732H81.8994V399.022H198.009V393.732Z" fill="#263238"/>
<path d="M446.317 50.1464V130.348C446.317 133.163 445.763 135.949 444.685 138.549C443.608 141.149 442.029 143.511 440.038 145.5C438.048 147.489 435.685 149.067 433.084 150.143C430.484 151.218 427.697 151.771 424.882 151.769H240.166C237.351 151.771 234.564 151.218 231.964 150.143C229.363 149.067 227 147.489 225.01 145.5C223.019 143.511 221.44 141.149 220.363 138.549C219.285 135.949 218.731 133.163 218.731 130.348V50.1464C218.735 44.4626 220.994 39.0128 225.013 34.9938C229.032 30.9748 234.482 28.7153 240.166 28.7117H424.882C430.567 28.7117 436.019 30.97 440.039 34.9897C444.059 39.0095 446.317 44.4615 446.317 50.1464Z" fill="white" stroke="#222221" stroke-width="1.10311" stroke-miterlimit="10"/>
<path d="M446.317 50.1464V51.9828H218.731V50.1464C218.735 44.4626 220.994 39.0128 225.013 34.9938C229.032 30.9748 234.482 28.7153 240.166 28.7117H424.882C430.567 28.7117 436.019 30.97 440.039 34.9897C444.059 39.0095 446.317 44.4615 446.317 50.1464Z" fill="#99E9A0" stroke="#263238" stroke-width="1.10311" stroke-miterlimit="10"/>
<path d="M252.171 44.1847C251.711 44.6455 251.125 44.9596 250.487 45.0872C249.849 45.2147 249.187 45.15 248.586 44.9013C247.984 44.6526 247.47 44.231 247.108 43.6899C246.746 43.1489 246.553 42.5126 246.553 41.8617C246.553 41.2108 246.746 40.5746 247.108 40.0335C247.47 39.4924 247.984 39.0708 248.586 38.8221C249.187 38.5734 249.849 38.5087 250.487 38.6363C251.125 38.7639 251.711 39.0779 252.171 39.5387C252.783 40.1571 253.126 40.9919 253.126 41.8617C253.126 42.7316 252.783 43.5664 252.171 44.1847Z" fill="#263238"/>
<path d="M267.411 44.1847C266.952 44.6455 266.366 44.9596 265.727 45.0872C265.089 45.2147 264.427 45.15 263.826 44.9013C263.224 44.6526 262.71 44.231 262.348 43.6899C261.987 43.1489 261.793 42.5126 261.793 41.8617C261.793 41.2108 261.987 40.5746 262.348 40.0335C262.71 39.4924 263.224 39.0708 263.826 38.8221C264.427 38.5734 265.089 38.5087 265.727 38.6363C266.366 38.7639 266.952 39.0779 267.411 39.5387C268.023 40.1571 268.366 40.9919 268.366 41.8617C268.366 42.7316 268.023 43.5664 267.411 44.1847Z" fill="#263238"/>
<path d="M282.651 44.1847C282.191 44.6455 281.605 44.9596 280.967 45.0872C280.329 45.2147 279.667 45.15 279.066 44.9013C278.464 44.6526 277.95 44.231 277.588 43.6899C277.226 43.1489 277.033 42.5126 277.033 41.8617C277.033 41.2108 277.226 40.5746 277.588 40.0335C277.95 39.4924 278.464 39.0708 279.066 38.8221C279.667 38.5734 280.329 38.5087 280.967 38.6363C281.605 38.7639 282.191 39.0779 282.651 39.5387C283.263 40.1571 283.606 40.9919 283.606 41.8617C283.606 42.7316 283.263 43.5664 282.651 44.1847Z" fill="#263238"/>
<path d="M307.636 66.7295H233.245V131.034H307.636V66.7295Z" stroke="#263238" stroke-width="1.10311" stroke-linecap="round" stroke-linejoin="round" stroke-dasharray="4.41 4.41"/>
<path d="M376.829 98.7963H318.829V103.796H376.829V98.7963Z" fill="#263238"/>
<path d="M362.829 107.796H318.829V112.796H362.829V107.796Z" fill="#263238"/>
<path d="M384.829 117.796H318.829V121.796H384.829V117.796Z" fill="#263238"/>
<path d="M374.829 126.796H318.829V130.796H374.829V126.796Z" fill="#263238"/>
<path d="M452.539 249.199H410.67C405.727 249.199 401.721 253.205 401.721 258.148V282.721C401.721 287.664 405.727 291.671 410.67 291.671H452.539C457.482 291.671 461.488 287.664 461.488 282.721V258.148C461.488 253.205 457.482 249.199 452.539 249.199Z" fill="white" stroke="#263238" stroke-width="1.10311" stroke-linecap="round" stroke-linejoin="round"/>
<path d="M421.003 261.972L409.505 269.181L420.181 278.637" stroke="#D95736" stroke-width="1.10311" stroke-linecap="round" stroke-linejoin="round"/>
<path d="M441.945 279.322L452.278 270.524L440.355 262.712" stroke="#D95736" stroke-width="1.10311" stroke-linecap="round" stroke-linejoin="round"/>
<path d="M426.595 284.749L435.079 258.134" stroke="#D95736" stroke-width="1.10311" stroke-linecap="round" stroke-linejoin="round"/>
<path d="M338.172 516.365C338.172 516.365 298.427 527.754 292.877 529.727C287.833 531.509 274.156 536.306 263.89 534.812C262.9 534.669 261.92 534.459 260.958 534.181C250.555 531.084 245.882 528.192 244.512 521.655C243.141 515.118 248.322 510.293 253.31 507.21C258.299 504.126 285.353 500.906 285.353 500.906L291.89 502.824L338.172 516.365Z" fill="#99E9A0"/>
<path d="M263.89 534.812C262.9 534.669 261.92 534.459 260.958 534.181C250.555 531.084 245.882 528.192 244.512 521.655C243.141 515.118 248.322 510.293 253.31 507.21C258.299 504.126 285.353 500.906 285.353 500.906L291.89 502.824C285.969 505.565 263.932 507.059 259.121 509.828C254.311 512.596 251.995 517.804 254.831 524.903C256.353 528.603 260.409 532.235 263.89 534.812Z" fill="white"/>
<path d="M332.196 517.982C332.196 517.982 302.347 525.712 290.506 530.659C278.664 535.607 256.092 537.772 248.02 527.576C239.948 517.379 247.088 508.58 255.133 506.621C263.178 504.661 279.446 501.577 288.326 502.824" stroke="#263238" stroke-width="1.10311" stroke-linecap="round" stroke-linejoin="round"/>
<path d="M264.48 534.277C264.48 534.277 249.295 525.945 254.338 514.268C258.066 505.661 278.322 507.525 288.354 502.824" stroke="#263238" stroke-width="1.10311" stroke-linecap="round" stroke-linejoin="round"/>
<path d="M459.228 536.662C458.817 540.774 457.378 544.625 453.267 547.05C450.526 548.668 446.633 549.627 441.056 549.572C427.117 549.394 400.913 539.43 400.913 539.43L376.381 525.862L389.141 505.675L392.636 500.193L401.653 502.221C401.653 502.221 409.123 506.456 416.633 509.828C424.143 513.199 442.385 513.939 448.813 519.106C455.24 524.273 459.927 529.892 459.228 536.662Z" fill="#99E9A0"/>
<path d="M459.228 536.662C458.817 540.774 457.378 544.625 453.267 547.05C454.451 543.009 454.209 538.683 452.581 534.798C449.84 528.645 440.918 523.217 429.187 522.313C417.455 521.408 408.478 515.926 403.778 513.473C400.105 511.568 392.361 507.402 389.141 505.675L392.635 500.193L401.653 502.221C401.653 502.221 409.123 506.456 416.633 509.828C424.143 513.199 442.385 513.939 448.812 519.106C455.24 524.273 459.927 529.892 459.228 536.662Z" fill="white"/>
<path d="M381.823 529.672C399.481 539.937 418.998 546.603 439.247 549.284C443.715 549.819 448.909 549.901 451.897 546.543C452.691 545.574 453.283 544.454 453.636 543.251C453.989 542.047 454.097 540.786 453.952 539.54C453.418 533.236 448.114 528.247 442.303 525.739C436.492 523.231 430.092 522.655 423.911 521.271C417.764 519.885 411.821 517.711 406.231 514.802C401.791 512.486 397.501 509.677 392.608 508.635C387.716 507.594 381.891 508.854 379.273 513.13" stroke="#263238" stroke-width="1.10311" stroke-linecap="round" stroke-linejoin="round"/>
<path d="M450.252 548.256C452.548 547.157 454.556 545.536 456.114 543.523C457.673 541.51 458.739 539.16 459.229 536.662C460.119 530.728 456.734 524.752 451.979 521.107C447.223 517.461 441.261 515.734 435.382 514.515C429.502 513.295 423.486 512.473 417.853 510.239C409.26 506.867 400.777 500.234 391.813 502.605" stroke="#263238" stroke-width="1.10311" stroke-linecap="round" stroke-linejoin="round"/>
<path d="M409.506 317.354L367.993 301.566L367.472 301.36C367.472 301.36 367.623 300.264 367.747 298.619C368.007 295.302 368.144 289.903 366.582 288.08C364.266 285.339 357.715 287.641 351.314 284.708C344.914 281.775 333.087 287.025 333.087 287.025C333.087 287.025 324.535 285.448 320.752 291.616C318.833 296.591 319.491 303.95 319.491 303.95L318.71 304.224C313.762 306.075 286.846 316.203 281.158 320.273C274.867 324.727 267.905 370.461 265.671 383.892C263.437 397.323 259.463 409.424 261.478 414.043C263.492 418.662 292.41 440.932 309.048 446.675C325.686 452.417 384.686 450.786 384.686 450.786C384.686 450.786 385.645 450.526 387.359 449.978C397.336 446.771 432.736 433.532 451.526 402.449C451.553 402.503 433.353 342.845 409.506 317.354ZM297.344 394.28C294.288 396.446 295.973 404.833 295.973 404.833L290.779 400.256L303.826 368.172L309.39 392.841C309.39 392.841 300.4 392.129 297.344 394.28ZM401.721 414.66C400.282 415.4 405.833 399.982 403.202 396.487C400.57 392.992 392.635 393.321 392.635 393.321L393.307 389.113L398.007 364.993L399.57 363.142C399.57 363.142 415.714 390.813 418.606 400.571C418.606 400.598 401.009 414.66 401.721 414.66Z" fill="#99E9A0"/>
<path d="M331.128 217.293L309.693 240.044C309.693 240.044 306.746 242.661 307.911 249.253C309.076 255.846 311.817 261.588 313.887 261.972C315.525 262.258 317.185 262.405 318.848 262.41C318.848 262.41 323.439 272.36 326.701 276.266C326.701 276.266 327.825 291.629 327.222 295.892C327.222 295.892 334.924 302.621 342.174 303.471C349.424 304.32 360.621 293.219 360.621 293.219L363.362 279.624C363.362 279.624 369.94 269.647 370.379 266.988C370.817 264.329 373.833 265.014 375.313 263.699C376.793 262.383 380.205 256.531 380.795 250.994C381.384 245.457 381.398 239.098 374.97 240.962C369.392 239.468 372.887 227.682 372.887 227.682L363.088 219.047L331.128 217.293Z" fill="white"/>
<path opacity="0.5" d="M367.994 301.566C367.67 302.413 367.3 303.241 366.884 304.046C363.348 310.707 347.943 323.411 347.943 323.411L343.284 309.09L340.734 323.411C335.595 321.164 319.916 307.582 319.916 307.582C319.916 307.582 319.382 306.308 318.738 304.32L319.519 304.046C319.519 304.046 318.861 296.632 320.78 291.712C324.535 285.544 333.114 287.12 333.114 287.12C333.114 287.12 344.942 281.871 351.342 284.804C357.742 287.737 364.293 285.462 366.61 288.176C368.926 290.889 367.5 301.415 367.5 301.415L367.994 301.566Z" fill="white"/>
<path opacity="0.2" d="M409.507 317.354L367.994 301.565L367.473 301.36C367.473 301.36 367.624 300.264 367.747 298.619L366.884 304.005L360.744 312.338C367.307 314.754 373.715 317.574 379.931 320.78C382.907 322.374 385.335 324.826 386.899 327.817C388.463 330.809 389.091 334.202 388.702 337.555L381.055 402.997L377.917 440.151L387.387 449.978C397.364 446.771 432.764 433.531 451.554 402.448C451.554 402.503 433.354 342.845 409.507 317.354ZM401.722 414.66C400.283 415.4 405.834 399.981 403.202 396.487C400.571 392.992 392.636 393.321 392.636 393.321L393.307 389.113L398.008 364.992L399.571 363.142C399.571 363.142 415.715 390.813 418.607 400.571C418.607 400.598 401.01 414.66 401.722 414.66Z" fill="black"/>
<path opacity="0.2" d="M312.146 396.487L305.691 374.915C305.691 374.915 294.11 335.431 286.175 325.7L288.258 353.467C288.258 353.467 281.405 386.633 275.142 396.487C268.879 406.341 267.481 408.821 275.142 408.821C282.803 408.821 301.456 423.678 301.456 423.678L300.017 411.343L312.146 396.487ZM295.878 404.833L290.683 400.256L303.731 368.172L309.295 392.841C309.295 392.841 300.359 392.17 297.303 394.321C294.247 396.473 295.878 404.833 295.878 404.833Z" fill="black"/>
<path d="M326.701 276.266C326.701 276.266 327.879 287.902 326.701 293.219" stroke="#263238" stroke-width="1.10311" stroke-linecap="round" stroke-linejoin="round"/>
<path d="M361.813 291.657C361.826 287.915 362.258 284.187 363.101 280.542" stroke="#263238" stroke-width="1.10311" stroke-linecap="round" stroke-linejoin="round"/>
<path d="M364.924 225.969C364.924 225.969 371.969 234.808 371.598 241.496C371.228 248.184 370.708 256.106 370.886 263.863C371.064 271.62 358.428 287.874 351.932 289.313C345.436 290.752 339.844 291.122 335.691 286.97C331.539 282.817 327.386 277.047 321.986 269.647C316.586 262.246 317.875 246.005 317.875 246.005" stroke="#263238" stroke-width="1.10311" stroke-linecap="round" stroke-linejoin="round"/>
<path d="M347.957 252.186C347.528 254.615 347.344 257.081 347.409 259.546C347.268 261.624 347.914 263.679 349.218 265.302C349.999 266.097 351.123 266.741 351.274 267.837C351.27 268.331 351.133 268.814 350.877 269.236C350.622 269.659 350.257 270.004 349.821 270.236C348.942 270.679 348.095 271.183 347.286 271.743" stroke="#263238" stroke-width="1.10311" stroke-linecap="round" stroke-linejoin="round"/>
<path d="M336.815 272.593C336.815 272.593 337.624 277.842 344.654 278.938" stroke="#263238" stroke-width="1.10311" stroke-linecap="round" stroke-linejoin="round"/>
<path d="M337.541 256.188C337.541 257.709 336.883 258.929 336.075 258.929C335.266 258.929 334.608 257.709 334.608 256.188C334.608 254.667 335.266 253.447 336.075 253.447C336.883 253.447 337.541 254.681 337.541 256.188Z" fill="#263238"/>
<path d="M358.524 256.846C358.524 258.367 357.866 259.587 357.057 259.587C356.249 259.587 355.591 258.354 355.591 256.846C355.591 255.338 356.249 254.105 357.057 254.105C357.866 254.105 358.524 255.325 358.524 256.846Z" fill="#263238"/>
<path d="M354.289 250.199C354.289 250.199 361.142 243.346 366.884 250.994" stroke="#263238" stroke-width="2.20621" stroke-linecap="round" stroke-linejoin="round"/>
<path d="M339.858 250.336C339.858 250.336 335.527 245.484 328.702 250.336" stroke="#263238" stroke-width="2.20621" stroke-linecap="round" stroke-linejoin="round"/>
<path d="M327.221 282.735C327.221 282.735 331.402 294.247 340.735 297.523C350.068 300.798 362.457 283.817 362.457 283.817L361.813 281.611C361.813 281.611 353.686 292.164 344.654 290.368C335.623 288.573 326.701 276.321 326.701 276.321L327.221 282.735Z" fill="#263238"/>
<path d="M318.848 261.972C318.848 261.972 313.284 263.931 311.803 259.601C310.323 255.27 305.252 243.854 309.693 240.044C314.133 236.234 317.697 245.073 317.697 245.073" stroke="#263238" stroke-width="1.10311" stroke-linecap="round" stroke-linejoin="round"/>
<path d="M370.872 264.329C370.872 264.329 376.038 265.37 377.519 261.04C378.999 256.709 384.07 245.293 379.629 241.483C375.189 237.673 371.625 246.512 371.625 246.512" stroke="#263238" stroke-width="1.10311" stroke-linecap="round" stroke-linejoin="round"/>
<path d="M317.697 256.188C319.63 255.883 321.374 254.854 322.576 253.31C323.31 251.955 323.775 250.47 323.946 248.938C324.455 246.024 324.712 243.071 324.714 240.112C324.653 238.956 324.759 237.798 325.029 236.672C325.44 235.539 326.074 234.5 326.893 233.616C328.825 231.341 331.169 229.422 333.019 227.065C334.011 225.952 334.765 224.65 335.237 223.236C335.708 221.822 335.886 220.327 335.76 218.842C340 222.338 344.954 224.862 350.275 226.238C355.595 227.614 361.152 227.807 366.555 226.804C376.354 224.886 385.742 216.293 384.605 205.493C384.39 203.682 383.613 201.984 382.384 200.638C381.156 199.291 379.536 198.362 377.752 197.983C372.914 196.777 368.57 199.353 364.184 201.012C356.194 204.027 348.369 198.846 340.296 197.983C333.444 197.229 324.905 198.092 321.315 204.959C321.315 204.959 308.98 206.411 303.498 216.608C298.016 226.804 308.391 240.907 308.391 240.907C308.391 240.907 312.502 235.864 317.889 246.06L317.697 256.188Z" fill="#263238"/>
<path d="M365.773 223.365C365.773 223.365 362.566 240.085 370.94 248.184C370.94 248.184 372.777 243.155 374.627 241.921C375.961 238.954 376.526 235.698 376.269 232.455C376.013 229.212 374.944 226.085 373.16 223.365C366.966 213.634 365.773 223.365 365.773 223.365Z" fill="#263238"/>
<path opacity="0.2" d="M381.041 204.342C380.306 206.623 379.059 208.707 377.397 210.433C375.734 212.16 373.7 213.484 371.448 214.305C359.826 219.047 348.546 213.798 336.897 212.771C327.4 211.921 316.915 220.5 316.244 230.258" stroke="white" stroke-width="1.10311" stroke-linecap="round" stroke-linejoin="round"/>
<path opacity="0.2" d="M309.076 227.682C309.219 223.831 310.454 220.1 312.638 216.926C314.822 213.751 317.865 211.264 321.411 209.755" stroke="white" stroke-width="1.10311" stroke-linecap="round" stroke-linejoin="round"/>
<path d="M324.015 291.657C329.126 296.983 335.292 301.184 342.119 303.991C342.119 303.991 356.03 299.948 363.101 290.286" stroke="#263238" stroke-width="1.10311" stroke-linecap="round" stroke-linejoin="round"/>
<path d="M338.23 267.347C344.408 264.514 347.12 257.208 344.286 251.03C341.452 244.852 334.146 242.141 327.968 244.974C321.79 247.808 319.079 255.114 321.913 261.292C324.747 267.47 332.052 270.181 338.23 267.347Z" stroke="#263238" stroke-width="1.10311" stroke-linecap="round" stroke-linejoin="round"/>
<path d="M362.079 268.431C368.826 267.602 373.623 261.462 372.795 254.716C371.967 247.969 365.826 243.172 359.08 244C352.333 244.828 347.536 250.969 348.364 257.715C349.192 264.462 355.333 269.259 362.079 268.431Z" stroke="#263238" stroke-width="1.10311" stroke-linecap="round" stroke-linejoin="round"/>
<path d="M326.701 287.066C325.454 287.393 324.286 287.968 323.266 288.757C322.246 289.546 321.396 290.532 320.766 291.657C318.587 295.494 319.903 307.568 319.903 307.568C319.903 307.568 331.155 318.697 340.735 323.398L343.558 307.514L347.943 323.398C347.943 323.398 362.772 312.913 366.884 304.046C366.884 304.046 368.254 293.699 366.884 290.341C366.572 289.409 365.979 288.595 365.187 288.014C364.394 287.432 363.44 287.11 362.457 287.093" stroke="#263238" stroke-width="1.10311" stroke-linecap="round" stroke-linejoin="round"/>
<path d="M309.076 393.335C309.076 393.335 304.676 363.869 298.824 351.849" stroke="#263238" stroke-width="1.10311" stroke-linecap="round" stroke-linejoin="round"/>
<path d="M286.174 325.7C289.582 330.543 292.623 335.632 295.274 340.926" stroke="#263238" stroke-width="1.10311" stroke-linecap="round" stroke-linejoin="round"/>
<path d="M401.722 347.697C402.904 342.77 404.523 337.959 406.56 333.32" stroke="#263238" stroke-width="1.10311" stroke-linecap="round" stroke-linejoin="round"/>
<path d="M392.636 393.335C392.636 393.335 395.802 373.133 399.584 356.495" stroke="#263238" stroke-width="1.10311" stroke-linecap="round" stroke-linejoin="round"/>
<path d="M398.008 364.965C401.068 360.908 405.371 357.962 410.261 356.578" stroke="#263238" stroke-width="1.10311" stroke-linecap="round" stroke-linejoin="round"/>
<path d="M367.487 301.36C367.487 301.36 393.019 311.57 409.507 317.367C409.507 317.367 429.79 336.431 451.54 402.503C451.54 402.503 431.613 436.026 393.705 446.77" stroke="#263238" stroke-width="1.10311" stroke-linecap="round" stroke-linejoin="round"/>
<path d="M400.283 415.852L418.607 400.598C418.607 400.598 428.296 393.239 438.37 398.268" stroke="#263238" stroke-width="1.10311" stroke-linecap="round" stroke-linejoin="round"/>
<path d="M399.584 363.142C399.584 363.142 414.728 385.523 418.607 400.598" stroke="#263238" stroke-width="1.10311" stroke-linecap="round" stroke-linejoin="round"/>
<path d="M296.083 405.683L290.725 400.598C290.725 400.598 282.776 399.228 273.758 405.244" stroke="#263238" stroke-width="1.10311" stroke-linecap="round" stroke-linejoin="round"/>
<path d="M290.725 400.598C290.725 400.598 297.385 378.67 303.95 367.446" stroke="#263238" stroke-width="1.10311" stroke-linecap="round" stroke-linejoin="round"/>
<path d="M319.519 304.046C319.519 304.046 282.776 317.833 279.171 321.863C275.567 325.892 261.876 402.983 261.506 411.809C261.19 419.703 289.806 437.424 303.991 444.893" stroke="#263238" stroke-width="1.10311" stroke-linecap="round" stroke-linejoin="round"/>
<path d="M346.998 330.099C346.998 330.579 346.856 331.048 346.589 331.447C346.323 331.846 345.944 332.157 345.501 332.341C345.057 332.524 344.57 332.572 344.099 332.479C343.628 332.385 343.196 332.154 342.857 331.815C342.518 331.475 342.287 331.043 342.193 330.573C342.099 330.102 342.148 329.614 342.331 329.171C342.515 328.728 342.826 328.349 343.225 328.082C343.623 327.816 344.093 327.674 344.572 327.674C344.891 327.672 345.208 327.733 345.503 327.855C345.798 327.976 346.066 328.154 346.292 328.38C346.517 328.606 346.696 328.874 346.817 329.169C346.938 329.464 347 329.78 346.998 330.099Z" fill="#263238"/>
<path d="M389.511 459.228H305.91C305.391 459.228 304.892 459.022 304.525 458.654C304.157 458.287 303.951 457.788 303.951 457.269C303.951 456.749 304.157 456.25 304.525 455.883C304.892 455.515 305.391 455.309 305.91 455.309H389.511C390.031 455.309 390.53 455.515 390.897 455.883C391.265 456.25 391.471 456.749 391.471 457.269C391.471 457.788 391.265 458.287 390.897 458.654C390.53 459.022 390.031 459.228 389.511 459.228Z" fill="#263238"/>
<path d="M392.444 452.677L403.641 400.05C403.815 399.234 403.804 398.39 403.609 397.578C403.414 396.767 403.04 396.01 402.514 395.362C401.989 394.714 401.325 394.192 400.571 393.834C399.818 393.476 398.993 393.292 398.159 393.293H300.442C299.615 393.294 298.798 393.477 298.05 393.831C297.303 394.185 296.643 394.701 296.119 395.34C295.594 395.98 295.218 396.728 295.018 397.531C294.818 398.333 294.798 399.17 294.96 399.982L305.006 450.855C305.252 452.104 305.918 453.232 306.892 454.052C307.866 454.872 309.091 455.335 310.365 455.364L386.825 457.118C388.132 457.147 389.408 456.719 390.434 455.909C391.459 455.098 392.17 453.956 392.444 452.677Z" fill="white" stroke="#263238" stroke-width="1.10311" stroke-linecap="round" stroke-linejoin="round"/>
<path d="M356.783 423.664C356.781 425.206 356.321 426.712 355.462 427.993C354.604 429.273 353.385 430.271 351.96 430.859C350.535 431.447 348.967 431.599 347.455 431.297C345.944 430.994 344.555 430.251 343.466 429.16C342.377 428.068 341.636 426.679 341.336 425.167C341.036 423.654 341.191 422.087 341.782 420.663C342.373 419.239 343.372 418.022 344.654 417.165C345.936 416.309 347.443 415.852 348.985 415.852C350.01 415.852 351.026 416.054 351.973 416.447C352.92 416.84 353.78 417.415 354.504 418.141C355.228 418.867 355.803 419.728 356.194 420.676C356.585 421.623 356.785 422.639 356.783 423.664Z" fill="#263238"/>
<path d="M372.119 398.323H383.727" stroke="#263238" stroke-width="1.10311" stroke-linecap="round" stroke-linejoin="round"/>
<path d="M316.682 398.323H360.744" stroke="#263238" stroke-width="1.10311" stroke-linecap="round" stroke-linejoin="round"/>
<path d="M392.636 508.553L383.728 531.934C383.728 531.934 361.005 526.205 331.909 520.243C301.47 514.008 269.688 505.935 253.201 477.004C251.2 473.482 249.857 469.315 250.802 465.368C253.173 455.377 266.18 452.664 274.745 451.663C280.13 451.081 285.542 450.779 290.958 450.759C293.699 450.759 302.813 449.265 305.02 450.896C308.335 453.314 311.873 455.412 315.586 457.159C320.452 459.229 391.471 455.309 391.471 455.309C392.707 452.614 393.463 449.725 393.705 446.771C404.875 441.097 430.709 436.3 441.673 438.424C458.845 441.755 468.864 451.773 466.959 462.271C465.054 472.769 427.118 500.919 392.636 508.553Z" fill="#263238"/>
<path d="M392.636 508.553C392.636 508.553 371.023 502.824 353.371 490.901C335.719 478.977 321.932 465.135 297.331 468" stroke="white" stroke-width="1.10311" stroke-linecap="round" stroke-linejoin="round"/>
<path d="M349.328 488.091C360.484 484.884 368.666 477.662 377.615 470.741C387.055 463.165 397.192 456.502 407.89 450.841" stroke="white" stroke-width="1.10311" stroke-linecap="round" stroke-linejoin="round"/>
<path d="M345.395 258.134H348.67" stroke="#263238" stroke-width="1.10311" stroke-linecap="round" stroke-linejoin="round"/>
<path d="M545 395.638C543.561 396.107 542.148 396.654 540.767 397.275C541.522 396.724 542.276 396.151 543.031 395.57C546.39 392.868 549.587 389.971 552.606 386.893C549.064 390.334 545.281 393.518 541.288 396.422C541.838 395.466 542.322 394.473 542.736 393.45C543.491 391.571 543.627 389.677 541.839 388.674C539.628 387.436 536.957 389.285 537.659 392.446C538.087 394.211 538.921 395.852 540.096 397.237C537.489 399.042 534.767 400.672 531.947 402.119L531.683 402.255C532.279 401.222 532.806 400.151 533.26 399.048C533.969 397.177 534.15 395.276 532.354 394.28C530.144 393.035 527.473 394.891 528.182 398.052C528.603 399.794 529.419 401.415 530.566 402.791C527.178 404.458 523.677 405.877 520.191 407.416L519.686 407.642C520.366 406.912 520.999 406.138 521.58 405.326C522.711 403.666 523.323 401.87 521.814 400.474C519.958 398.754 516.917 399.931 516.872 403.191C516.874 404.99 517.292 406.764 518.094 408.374C514.832 409.898 511.733 411.749 508.843 413.897L508.753 413.973C509.144 413.353 509.501 412.713 509.824 412.056C510.677 410.238 510.994 408.367 509.274 407.227C508.924 406.987 508.524 406.829 508.105 406.765C507.686 406.701 507.257 406.733 506.852 406.859C506.447 406.985 506.075 407.201 505.765 407.49C505.456 407.78 505.216 408.137 505.063 408.533C504.836 408.179 504.529 407.884 504.165 407.672C502.438 406.676 500.74 407.755 499.284 409.279C498.906 409.679 498.529 410.109 498.205 410.532C499.328 407.414 500.74 404.408 502.422 401.553C504.025 402.253 505.752 402.62 507.5 402.632C510.941 402.632 512.39 399.765 510.7 397.984C509.326 396.543 507.395 397.094 505.569 398.15C504.968 398.501 504.386 398.884 503.826 399.297C505.575 396.663 507.56 394.193 509.756 391.918C511.196 393.082 512.868 393.924 514.661 394.385C518.003 395.208 520.101 392.786 518.894 390.65C517.913 388.915 515.876 388.983 513.876 389.564C512.919 389.85 511.981 390.198 511.069 390.605C511.982 389.715 512.925 388.862 513.884 388.017C515.136 386.946 516.434 385.912 517.754 384.901C519.174 386.034 520.817 386.854 522.576 387.308C525.918 388.13 528.016 385.708 526.809 383.573C525.828 381.838 523.79 381.906 521.783 382.486C521.316 382.622 520.84 382.788 520.38 382.962C522.123 381.717 523.889 380.502 525.662 379.295L527.299 378.171C528.774 379.406 530.506 380.298 532.369 380.781C535.712 381.604 537.817 379.182 536.61 377.046C535.621 375.311 533.592 375.379 531.585 375.96C530.795 376.201 530.018 376.481 529.253 376.797L530.264 376.043C530.883 375.598 531.502 375.145 532.105 374.67C532.86 374.104 533.577 373.478 534.308 372.874C534.731 372.542 535.131 372.187 535.531 371.825C537.012 373.074 538.755 373.974 540.631 374.458C543.974 375.281 546.071 372.859 544.864 370.724C543.883 368.988 541.846 369.056 539.847 369.637C538.725 369.983 537.627 370.399 536.557 370.882C537.923 369.614 539.243 368.294 540.496 366.921C540.579 366.823 540.654 366.725 540.745 366.634C541.28 366.038 541.808 365.434 542.321 364.808C542.835 364.182 543.499 363.359 544.057 362.605C546.35 359.595 548.237 356.298 549.67 352.796C548.168 356.256 546.217 359.503 543.868 362.454C541.545 365.417 538.951 368.158 536.119 370.641L535.81 370.905C536.453 369.809 537.023 368.673 537.515 367.502C538.232 365.631 538.406 363.729 536.61 362.733C534.407 361.488 531.728 363.344 532.437 366.506C532.893 368.378 533.802 370.109 535.086 371.546L534.422 372.119L533.667 372.768C533.229 373.123 532.777 373.462 532.324 373.802C532.083 373.983 531.849 374.172 531.57 374.353C530.928 374.828 530.279 375.288 529.623 375.741L528.68 376.382L527.608 377.137C528.235 376.068 528.784 374.956 529.253 373.81C529.97 371.931 530.144 370.037 528.355 369.041C526.145 367.796 523.466 369.652 524.175 372.814C524.613 374.63 525.479 376.314 526.703 377.725L525.948 378.239L523.013 380.163L522.432 380.54L520.795 381.634L520.086 382.109C519.331 382.63 518.577 383.158 517.822 383.701C518.428 382.615 518.958 381.488 519.407 380.329C520.161 378.457 520.297 376.556 518.509 375.56C516.298 374.315 513.627 376.171 514.336 379.333C514.78 381.173 515.665 382.877 516.917 384.297C515.634 385.24 514.367 386.206 513.144 387.217C512.246 387.972 511.364 388.726 510.496 389.541C510.874 388.842 511.211 388.121 511.507 387.383C512.216 385.505 512.397 383.611 510.601 382.615C508.391 381.37 505.72 383.226 506.429 386.387C506.85 388.129 507.666 389.75 508.813 391.126C506.37 393.554 504.168 396.215 502.241 399.071C502.46 398.247 502.627 397.411 502.739 396.566C502.981 394.574 502.694 392.703 500.71 392.159C498.265 391.488 496.122 393.933 497.578 396.845C498.416 398.448 499.615 399.835 501.079 400.897C499.179 404.001 497.592 407.287 496.341 410.706C496.308 409.991 496.238 409.278 496.13 408.57C495.79 406.586 494.99 404.873 492.931 404.911C490.395 404.964 489.03 407.929 491.256 410.298C492.443 411.536 493.891 412.492 495.496 413.097C494.638 415.736 493.94 418.425 493.406 421.148C493.315 421.578 493.248 422.008 493.165 422.438C493.074 422.521 492.983 422.604 492.9 422.695C492.81 422.325 492.704 421.94 492.584 421.586C491.95 419.684 490.893 418.107 488.864 418.47C486.374 418.907 485.476 422.031 488.041 424.045C489.345 425.041 490.848 425.743 492.448 426.105C492.448 426.181 492.508 426.249 492.546 426.324C492.267 428.369 492.055 430.429 491.927 432.496C491.829 434.005 491.776 435.582 491.746 437.129C489.588 437.129 488.064 439.498 489.55 442.063C490.178 443.127 490.981 444.076 491.927 444.87C492.108 447.775 492.395 450.68 492.78 453.562C492.475 453.28 492.101 453.082 491.696 452.988C491.291 452.894 490.869 452.908 490.471 453.027C489.113 453.396 488.502 454.49 488.283 455.833C487.799 456.333 487.529 457.002 487.528 457.697C486.517 456.188 485.559 454.679 484.631 453.087C486.048 452.001 487.222 450.631 488.079 449.065C489.701 446.047 487.868 443.399 485.506 444.04C483.575 444.568 483.152 446.53 483.243 448.635C483.273 449.434 483.348 450.23 483.469 451.02L482.473 449.269C481.643 447.76 480.964 446.251 480.149 444.742C479.953 444.372 479.779 443.987 479.621 443.61C481.21 442.809 482.616 441.686 483.748 440.313C485.914 437.642 484.608 434.707 482.164 434.895C480.172 435.054 479.379 436.902 479.047 438.985C478.918 439.893 478.837 440.807 478.806 441.724L478.097 440.087C476.586 436.372 475.343 432.555 474.377 428.663C476.176 428.026 477.811 426.994 479.161 425.645C481.583 423.193 480.579 420.152 478.127 420.092C476.135 420.046 475.162 421.805 474.618 423.864C474.352 424.958 474.153 426.066 474.022 427.184C473.494 424.951 473.041 422.687 472.664 420.394C472.408 418.99 472.242 417.564 472.068 416.146C474.002 415.762 475.824 414.944 477.395 413.754C480.111 411.641 479.515 408.472 477.086 408.118C475.116 407.808 473.924 409.43 473.124 411.385C472.656 412.617 472.263 413.877 471.947 415.157C471.797 413.512 471.623 411.86 471.548 410.208C471.321 406.796 471.321 403.373 471.548 399.961C471.203 403.37 471.085 406.798 471.193 410.223C471.193 411.8 471.329 413.369 471.427 414.946C470.996 413.874 470.492 412.833 469.918 411.83C468.892 410.102 467.518 408.812 465.617 409.566C463.27 410.532 463.067 413.776 466.009 415.195C467.735 415.988 469.628 416.348 471.525 416.244C471.661 417.655 471.781 419.058 471.993 420.454C472.287 422.717 472.664 424.891 473.109 427.086C472.627 426.245 472.09 425.436 471.502 424.664C470.257 423.087 468.733 421.971 466.975 422.989C464.779 424.249 464.991 427.516 468.092 428.52C469.847 429.065 471.705 429.189 473.517 428.882C474.378 432.816 475.51 436.686 476.905 440.464L477.35 441.596C476.951 441.067 476.52 440.563 476.06 440.087C474.664 438.638 473.041 437.68 471.359 438.879C469.299 440.388 469.85 443.557 473.019 444.267C474.768 444.621 476.575 444.569 478.3 444.116C478.459 444.5 478.617 444.87 478.806 445.263C479.561 446.817 480.232 448.409 481.024 449.933L481.681 451.253C481.288 450.914 480.881 450.589 480.458 450.288C478.814 449.133 477.033 448.499 475.614 449.986C473.864 451.819 474.996 454.868 478.255 454.966C479.952 455.005 481.637 454.67 483.19 453.985C484.125 455.675 485.084 457.342 486.125 458.98C486.51 459.606 486.879 460.225 487.317 460.843C486.725 460.302 486.1 459.798 485.446 459.334C483.801 458.18 482.02 457.546 480.594 459.033C478.851 460.866 479.983 463.914 483.243 464.012C485.106 464.035 486.947 463.613 488.615 462.782C489.158 463.537 489.716 464.292 490.29 465.046C489.075 466.457 489.475 468.819 491.942 469.898C493.141 470.397 494.418 470.681 495.715 470.735C495.866 470.856 496.017 470.977 496.183 471.09L496.258 471.15C497.817 476.975 499.666 482.714 501.804 488.368C502.709 490.775 503.683 493.159 504.686 495.529H495.632V531.233H523.3V495.498H508.572C507.312 492.744 506.097 489.96 504.965 487.146C503.117 482.528 501.442 477.835 499.985 473.074C500.233 473.147 500.485 473.205 500.74 473.248C501.075 473.316 501.419 473.331 501.758 473.293L501.366 470.811H501.102C500.945 470.788 500.789 470.758 500.634 470.72C500.286 470.62 499.945 470.494 499.616 470.343L499.223 470.162C500.679 469.654 502.032 468.887 503.215 467.898C505.833 465.635 505.093 462.541 502.649 462.277C500.672 462.058 499.555 463.733 498.876 465.718C498.673 466.283 498.507 466.872 498.363 467.445C498.22 466.917 498.076 466.389 497.941 465.861C497.541 464.299 497.186 462.722 496.824 461.145C498.404 460.652 499.873 459.855 501.147 458.799C503.766 456.535 503.019 453.449 500.581 453.185C498.597 452.966 497.488 454.641 496.809 456.626C496.605 457.199 496.432 457.795 496.281 458.384C496.054 457.237 495.836 456.082 495.632 454.928C495.488 454.075 495.353 453.215 495.224 452.355C495.179 451.133 495.156 449.91 495.172 448.681C495.172 448.009 495.172 447.337 495.232 446.666C496.711 447.133 498.263 447.33 499.812 447.247C503.252 447.021 504.52 444.078 502.724 442.41C501.261 441.045 499.367 441.724 497.609 442.886C496.82 443.421 496.064 444.003 495.345 444.629C495.557 441.757 495.993 438.906 496.65 436.103C497.035 434.451 497.517 432.824 498.092 431.228C499.669 431.772 501.337 432.005 503.003 431.915C506.444 431.696 507.712 428.754 505.916 427.079C504.46 425.72 502.558 426.392 500.8 427.562C500.187 427.983 499.597 428.439 499.035 428.927C499.698 427.366 500.47 425.854 501.344 424.4C503.077 421.467 505.25 418.818 507.787 416.546C509.102 417.758 510.657 418.681 512.352 419.254C515.627 420.326 517.898 418.062 516.879 415.844C516.026 414.041 514.019 413.958 511.952 414.388C511.155 414.558 510.369 414.774 509.598 415.036L509.651 414.991C512.466 412.794 515.5 410.893 518.705 409.317C519.836 410.798 521.272 412.017 522.915 412.894C525.979 414.471 528.582 412.599 527.903 410.245C527.352 408.329 525.382 407.929 523.277 407.982C522.451 408.027 521.627 408.117 520.81 408.253C524.213 406.646 527.684 405.13 531.034 403.357H531.109C532.609 404.651 534.389 405.581 536.308 406.073C539.65 406.903 541.748 404.473 540.541 402.3C539.56 400.565 537.523 400.64 535.523 401.214C534.957 401.38 534.391 401.583 533.841 401.795C536.078 400.494 538.246 399.079 540.337 397.554L540.511 397.743V397.645C542.025 398.951 543.819 399.893 545.755 400.399C549.09 401.221 551.195 398.799 549.987 396.626C549.037 394.989 547.03 395.057 545 395.638ZM492.244 464.005C491.557 463.205 490.909 462.367 490.275 461.522C490.426 461.387 490.592 461.236 490.758 461.07C491.7 461.364 492.676 461.538 493.662 461.59V461.749L494.123 461.651C494.364 462.843 494.613 464.027 494.877 465.212C494.571 464.811 494.17 464.491 493.711 464.28C493.252 464.07 492.748 463.975 492.244 464.005ZM494.704 435.597C494.47 436.487 494.274 437.378 494.085 438.276L493.972 438.117C493.972 436.276 494 434.44 494.055 432.609C494.108 431.327 494.198 430.051 494.311 428.769C494.932 429.401 495.615 429.97 496.349 430.466C495.71 432.146 495.163 433.858 494.711 435.597H494.704ZM497.797 427.147C497.843 426.815 497.88 426.475 497.895 426.143V425.637C498.167 425.554 498.446 425.456 498.718 425.343C498.416 425.939 498.099 426.543 497.805 427.147H497.797ZM501.728 420.771C501.598 420.472 501.408 420.203 501.171 419.98C500.934 419.757 500.654 419.585 500.348 419.473C498.484 418.719 496.975 420.077 495.775 421.812L495.715 421.895H495.594C495.468 421.866 495.339 421.849 495.209 421.842C495.2 421.736 495.219 421.63 495.262 421.533C495.74 418.807 496.385 416.113 497.194 413.467C498.926 413.687 500.684 413.551 502.362 413.067C503.399 412.795 504.3 412.154 504.897 411.264C505.229 412.785 505.863 414.225 506.761 415.497C504.905 417.076 503.22 418.846 501.736 420.778L501.728 420.771Z" fill="#7ABA80"/>
<path d="M398.234 80.2039H324.766C324.01 80.2049 323.261 80.0636 322.562 79.7882C321.863 79.5127 321.228 79.1084 320.692 78.5984C320.157 78.0884 319.732 77.4827 319.441 76.8158C319.151 76.1489 319.001 75.4339 319 74.7116C318.999 73.9894 319.147 73.274 319.435 72.6063C319.724 71.9386 320.147 71.3317 320.681 70.8203C321.215 70.3088 321.849 69.9028 322.547 69.6255C323.245 69.3482 323.994 69.2049 324.75 69.2039H398.234C398.991 69.2028 399.741 69.3446 400.442 69.621C401.142 69.8975 401.778 70.3031 402.313 70.8148C402.849 71.3264 403.274 71.934 403.563 72.6027C403.853 73.2714 404.001 73.988 404 74.7116C403.999 75.4339 403.849 76.1489 403.559 76.8158C403.268 77.4827 402.843 78.0884 402.308 78.5984C401.772 79.1084 401.137 79.5127 400.438 79.7882C399.739 80.0636 398.99 80.2049 398.234 80.2039Z" fill="white" stroke="#2E353A" stroke-linecap="round" stroke-linejoin="round"/>
<path d="M398.361 80.2039H388.545V69.2039H398.361C399.101 69.2028 399.835 69.3444 400.52 69.6204C401.205 69.8965 401.827 70.3016 402.351 70.8125C402.874 71.3234 403.29 71.9301 403.573 72.5979C403.856 73.2656 404.001 73.9813 404 74.7039C404.001 75.4264 403.856 76.1421 403.573 76.8098C403.29 77.4776 402.874 78.0843 402.351 78.5952C401.827 79.1061 401.205 79.5112 400.52 79.7873C399.835 80.0633 399.101 80.2049 398.361 80.2039Z" fill="#2E353A" stroke="#2E353A" stroke-linecap="round" stroke-linejoin="round"/>
<path d="M399.354 128.021C399.539 128.482 399.816 128.901 400.167 129.253C400.518 129.605 400.936 129.883 401.396 130.07C402.115 130.363 403.076 130.299 404.183 130.923C406.683 132.329 412.925 131.075 417.448 131.559C421.972 132.042 428.067 127.035 428.067 127.035L446.016 128.021V110.206C446.016 110.206 427.285 110.989 423.226 109.424C419.166 107.859 414.643 104.588 412.613 104.741C410.583 104.894 393.882 106.771 393.882 106.771L399.347 128.021H399.354Z" fill="white" stroke="#2E353A" stroke-linecap="round" stroke-linejoin="round"/>
<path d="M394.709 56.1891C391.003 56.5994 387.502 58.0993 384.649 60.4993C381.795 62.8993 379.717 66.0916 378.678 69.6724C377.639 73.2532 377.685 77.0618 378.81 80.6165C379.936 84.1712 382.09 87.3124 385 89.6428C387.911 91.9732 391.447 93.3882 395.162 93.7088C398.877 94.0295 402.603 93.2414 405.87 91.4441C409.137 89.6469 411.797 86.9213 413.515 83.612C415.233 80.3027 415.931 76.5584 415.521 72.8524C415.25 70.3911 414.497 68.0074 413.304 65.8375C412.111 63.6676 410.502 61.7541 408.569 60.2065C406.636 58.6588 404.417 57.5074 402.039 56.8181C399.661 56.1288 397.17 55.915 394.709 56.1891ZM398.45 89.9611C395.477 90.2914 392.473 89.7327 389.818 88.3557C387.163 86.9787 384.975 84.8452 383.532 82.225C382.09 79.6049 381.456 76.6157 381.712 73.6355C381.968 70.6554 383.102 67.8181 384.971 65.4824C386.839 63.1467 389.358 61.4175 392.21 60.5136C395.061 59.6096 398.116 59.5715 400.989 60.4039C403.862 61.2364 406.424 62.9021 408.35 65.1904C410.276 67.4787 411.481 70.2868 411.811 73.2596C412.031 75.2336 411.859 77.2314 411.306 79.139C410.754 81.0467 409.831 82.8267 408.59 84.3776C407.349 85.9285 405.815 87.2198 404.075 88.1778C402.336 89.1359 400.424 89.7418 398.45 89.9611Z" fill="white" stroke="#2E353A" stroke-linecap="round" stroke-linejoin="round"/>
<path d="M394.607 55.1138C390.901 55.5241 387.4 57.024 384.547 59.424C381.693 61.824 379.615 65.0163 378.576 68.5971C377.537 72.1779 377.583 75.9865 378.708 79.5412C379.834 83.0959 381.988 86.2371 384.898 88.5675C387.809 90.8979 391.345 92.3129 395.06 92.6336C398.775 92.9542 402.501 92.1661 405.768 90.3689C409.035 88.5716 411.695 85.8461 413.413 82.5368C415.131 79.2275 415.829 75.4831 415.419 71.7772C414.867 66.8084 412.365 62.262 408.462 59.1374C404.56 56.0127 399.576 54.5655 394.607 55.1138ZM398.348 88.8858C395.375 89.2161 392.371 88.6574 389.716 87.2804C387.061 85.9034 384.873 83.7699 383.43 81.1497C381.988 78.5296 381.354 75.5404 381.61 72.5603C381.866 69.5801 383 66.7428 384.869 64.4071C386.737 62.0714 389.256 60.3422 392.108 59.4383C394.959 58.5343 398.014 58.4962 400.887 59.3286C403.76 60.1611 406.322 61.8268 408.248 64.1151C410.174 66.4034 411.379 69.2115 411.709 72.1844C411.929 74.1583 411.757 76.1561 411.204 78.0637C410.652 79.9714 409.728 81.7515 408.488 83.3023C407.247 84.8532 405.713 86.1445 403.973 87.1026C402.234 88.0606 400.322 88.6665 398.348 88.8858Z" fill="white" stroke="#2E353A" stroke-linecap="round" stroke-linejoin="round"/>
<path d="M399.376 92.9388L398.485 93.0375C397.479 93.1489 396.754 94.0547 396.865 95.0605L398.312 108.125C398.424 109.131 399.329 109.856 400.335 109.745L401.227 109.646C402.233 109.535 402.958 108.629 402.846 107.623L401.399 94.5583C401.288 93.5525 400.382 92.8274 399.376 92.9388Z" fill="#D95736" stroke="#2E353A" stroke-linecap="round" stroke-linejoin="round"/>
<path d="M399.087 103.844L400.995 103.64C401.816 103.553 402.638 103.792 403.284 104.306C403.93 104.821 404.346 105.569 404.444 106.389L407.3 132.227C407.417 133.283 407.108 134.342 406.444 135.172C405.779 136.001 404.813 136.532 403.757 136.649H403.629C403.106 136.707 402.577 136.662 402.071 136.515C401.566 136.368 401.094 136.124 400.683 135.794C400.272 135.465 399.931 135.058 399.677 134.597C399.424 134.135 399.264 133.628 399.207 133.105L396.351 107.273C396.305 106.864 396.34 106.45 396.454 106.055C396.568 105.659 396.76 105.29 397.017 104.969C397.274 104.647 397.592 104.38 397.952 104.181C398.313 103.983 398.709 103.857 399.118 103.812L399.087 103.844Z" fill="#2E353A" stroke="#2E353A" stroke-linecap="round" stroke-linejoin="round"/>
<path d="M401.86 125.375C401.86 125.375 397.336 125.54 396.7 126.323C396.064 127.105 396.178 129.828 397.406 130.14C400.537 130.961 407.192 130.484 407.453 129.924C407.714 129.364 408.248 126.106 406.874 125.756C405.215 125.502 403.539 125.375 401.86 125.375Z" fill="white" stroke="#2E353A" stroke-linecap="round" stroke-linejoin="round"/>
<path d="M400.556 119.063C400.556 119.063 395.294 118.866 394.474 119.814C393.653 120.762 393.494 124.306 394.881 124.84C398.418 126.195 406.378 125.667 406.74 124.967C407.103 124.267 407.892 120.634 406.333 120.049C404.774 119.464 400.556 119.063 400.556 119.063Z" fill="white" stroke="#2E353A" stroke-linecap="round" stroke-linejoin="round"/>
<path d="M399.799 111.937C399.799 111.937 394.175 111.721 393.297 112.739C392.419 113.757 392.247 117.536 393.729 118.109C397.547 119.559 405.818 119.559 406.206 118.809C406.594 118.058 407.638 113.617 405.971 112.987C404.304 112.357 399.799 111.937 399.799 111.937Z" fill="white" stroke="#2E353A" stroke-linecap="round" stroke-linejoin="round"/>
<path d="M396.554 105.269C396.554 105.269 390.929 105.059 390.051 106.071C389.173 107.082 388.963 110.983 390.484 111.441C392.005 111.899 402.573 112.891 402.961 112.147C403.349 111.403 404.392 106.949 402.725 106.319C401.058 105.689 396.554 105.269 396.554 105.269Z" fill="white" stroke="#2E353A" stroke-linecap="round" stroke-linejoin="round"/>
<path d="M414.973 123.981C413.964 123.704 413.007 123.261 412.142 122.671C407.618 119.547 407.771 112.37 407.771 112.37L406.683 112.058C405.784 111.716 404.941 111.242 404.182 110.652C404.547 112.134 404.76 113.65 404.819 115.176C404.802 116.014 404.475 116.816 403.9 117.427C403.325 118.037 402.543 118.411 401.707 118.478C400.301 118.637 399.678 118.789 399.207 116.919C398.736 115.048 396.401 107.553 396.242 106.459C396.102 105.466 397.769 103.698 400.422 103.278C404.501 103.609 408.522 104.747 412.632 104.747C414.062 104.882 415.432 105.386 416.608 106.211" fill="white"/>
<path d="M414.973 123.981C413.964 123.704 413.007 123.261 412.142 122.671C407.618 119.547 407.771 112.37 407.771 112.37L406.683 112.058C405.784 111.716 404.941 111.242 404.182 110.652C404.547 112.134 404.76 113.65 404.819 115.176C404.802 116.014 404.475 116.816 403.9 117.427C403.325 118.037 402.543 118.411 401.707 118.478C400.301 118.637 399.678 118.789 399.207 116.919C398.736 115.048 396.401 107.553 396.242 106.459C396.102 105.466 397.769 103.698 400.422 103.278C404.501 103.609 408.522 104.747 412.632 104.747C414.062 104.882 415.432 105.386 416.608 106.211" stroke="#2E353A" stroke-linecap="round" stroke-linejoin="round"/>
<path d="M419.274 124.376C418.779 124.401 418.282 124.401 417.786 124.376H419.274Z" fill="white"/>
<path d="M419.274 124.376C418.779 124.401 418.282 124.401 417.786 124.376" stroke="#2E353A" stroke-linecap="round" stroke-linejoin="round"/>
<path d="M422.602 123.759C421.522 124.1 420.405 124.314 419.274 124.395L422.602 123.759Z" fill="white"/>
<path d="M422.602 123.759C421.522 124.1 420.405 124.314 419.274 124.395" stroke="#2E353A" stroke-linecap="round" stroke-linejoin="round"/>
<path d="M428.22 121.735H433.838" stroke="#2E353A" stroke-linecap="round" stroke-linejoin="round"/>
<path d="M428.691 123.294H431.032" stroke="#2E353A" stroke-linecap="round" stroke-linejoin="round"/>
<path d="M407.771 112.37C407.771 112.37 410.876 112.37 412.912 110.518" stroke="#2E353A" stroke-linecap="round" stroke-linejoin="round"/>
<path d="M404.113 110.448C404.023 109.601 403.846 108.765 403.584 107.954" stroke="#2E353A" stroke-linecap="round" stroke-linejoin="round"/>
<path d="M399.163 116.098C399.163 116.098 398.571 114.457 399.29 113.865C400.009 113.273 401.918 112.421 402.249 113.076C402.58 113.731 403.299 116.753 403.101 117.345L402.904 117.937" stroke="#2E353A" stroke-width="0.5" stroke-linecap="round" stroke-linejoin="round"/>
</svg>
