<svg width="20" height="12" viewBox="0 0 20 12" fill="none" xmlns="http://www.w3.org/2000/svg">
<path d="M12.3661 0.000247129C11.9699 0.00247163 11.5765 0.0180443 11.1607 0.10703C10.745 0.196016 10.3292 0.338393 9.88839 0.569755C9.34152 0.313921 8.81138 0.102581 8.30357 0.0536385C7.67299 -0.00865143 7.08705 0.0247183 6.40625 0.0358414C5.59989 0.0491895 5.07255 0.378436 4.21875 0.640944C3.36496 0.903452 2.26562 1.15706 0.714286 1.15706H0V6.63858L0.401786 6.79875L1.71875 7.31487L6.40625 11.4794L6.42857 11.4972C6.96429 11.9199 7.68694 12.0244 8.32589 11.9955C8.96484 11.9666 9.56473 11.8175 10.0446 11.5862C11.0993 11.079 13.9732 9.48612 13.9732 9.48612L14.0402 9.45052L14.0848 9.41493C14.4252 9.14575 14.5954 8.8165 14.7098 8.47168L17.4554 7.36826L19.5089 6.81655L20 6.69197V1.15706H19.2857C17.7372 1.15706 16.635 0.890104 15.7812 0.623147C14.9275 0.35619 14.4085 0.0313924 13.5938 0.0180443C13.1585 0.0113702 12.7623 -0.00197737 12.3661 0.000247129ZM12.3884 1.13926C12.7093 1.13704 13.0804 1.15039 13.5491 1.15706C13.6244 1.15929 14.3108 1.39287 15.2679 1.69097C16.077 1.94458 17.2015 2.16927 18.5714 2.24269V5.8733L16.9196 6.31823H16.875L16.8304 6.33603L14.6652 7.20808C14.5452 6.9478 14.3806 6.70754 14.1295 6.4962L14.0848 6.44281L11.0491 3.47069L10.6027 3.02576L10.0446 3.3817L8.125 4.6275C7.48047 4.98344 6.95871 4.88111 6.42857 4.68089C6.27511 4.62305 6.28348 4.60525 6.16071 4.53852L9.41964 2.38506L9.46429 2.34947C10.4325 1.58419 11.0268 1.31946 11.5402 1.21045C11.7969 1.15484 12.0675 1.14149 12.3884 1.13926ZM7.41071 1.15706C7.68415 1.15261 7.91295 1.15484 8.125 1.17486C8.31194 1.19265 8.524 1.31946 8.70536 1.37063C8.63281 1.42402 8.5798 1.45516 8.50446 1.513C8.48772 1.52635 8.47656 1.53525 8.45982 1.5486L4.55357 4.12918L3.95089 4.52072L4.48661 4.96565C4.48661 4.96565 5.00279 5.41057 5.80357 5.71313C6.60435 6.01568 7.8404 6.18697 8.95089 5.57075L8.99554 5.53515L10.3795 4.6275L13.0134 7.20808L13.0357 7.24368L13.058 7.26148C13.5296 7.63299 13.5184 8.21807 13.058 8.59626C13.0525 8.60071 13.0636 8.60961 13.058 8.61406C13.0525 8.61628 12.9576 8.66078 12.9464 8.66745L12.0089 7.65301L10.8482 8.3293L11.7634 9.30815C11.3923 9.50836 11.2249 9.61292 10.8259 9.82426L9.86607 8.79203L8.70536 9.46832L9.62054 10.4472C9.53962 10.4872 9.37221 10.5762 9.30804 10.6073C9.08203 10.7163 8.64676 10.8387 8.25893 10.8565C7.89341 10.8721 7.6144 10.8053 7.47768 10.7141L7.45536 10.6963L2.67857 6.4784L2.58929 6.38942L1.42857 5.92669V2.24269C2.79297 2.1715 3.92578 1.95571 4.73214 1.70877C5.68638 1.41734 6.36719 1.17708 6.45089 1.17486C6.81641 1.16818 7.13728 1.16151 7.41071 1.15706Z" fill="#7FA082"/>
</svg>
