<svg width="492" height="478" viewBox="0 0 492 478" fill="none" xmlns="http://www.w3.org/2000/svg">
<path d="M388.678 29.367C388.751 29.367 390.922 23.642 391.019 23.3023C392.123 18.8994 391.65 9.74175 387.381 7.06116C386.651 6.64839 385.845 6.39122 385.011 6.30587C384.177 6.22051 383.335 6.30883 382.537 6.56525C381.74 6.82167 381.004 7.24063 380.376 7.7957C379.748 8.35077 379.242 9.0299 378.89 9.79026C377.301 13.0167 378.417 17.2983 379.945 20.3307C381.668 23.8239 388.678 29.3549 388.678 29.367Z" fill="#99E9A0"/>
<path d="M489.315 71.3467C485.761 67.7079 476.725 69.2119 472.662 71.2375C472.31 71.4073 467.131 74.7672 467.203 74.8763L467.276 74.9491C465.857 75.1796 464.317 75.4343 462.655 75.7496C459.586 76.3682 456.117 77.0839 452.406 78.1755C448.384 79.2409 444.431 80.5492 440.567 82.0933C436.227 83.7895 432.047 85.8677 428.074 88.3035L427.941 88.4005C428.911 87.2725 431.507 84.0097 431.689 83.7429C434.115 79.8979 436.54 71.0556 433.253 67.1621C432.685 66.5406 431.994 66.0443 431.223 65.7048C430.453 65.3652 429.62 65.1898 428.778 65.1898C427.936 65.1898 427.103 65.3652 426.332 65.7048C425.562 66.0443 424.87 66.5406 424.302 67.1621C421.791 69.7335 421.512 74.1364 422.022 77.4963C422.604 81.2685 427.128 88.2186 427.492 88.7765C423.512 91.346 419.711 94.1826 416.115 97.2671C414.004 99.0622 411.942 100.906 409.892 102.822C410.693 101.816 411.408 100.918 411.493 100.772C413.919 96.9274 416.345 88.0852 413.07 84.1917C412.502 83.5702 411.811 83.0739 411.04 82.7343C410.269 82.3948 409.437 82.2194 408.594 82.2194C407.752 82.2194 406.92 82.3948 406.149 82.7343C405.378 83.0739 404.687 83.5702 404.119 84.1917C401.608 86.7631 401.329 91.1781 401.838 94.5258C402.348 97.8735 406.096 103.926 407.103 105.442L404.774 107.638C401.05 111.179 397.351 114.733 393.615 118.105C392.305 119.318 390.958 120.422 389.624 121.55C390.34 120.652 390.934 119.9 391.019 119.779C393.445 115.934 395.871 107.092 392.584 103.186C392.02 102.561 391.332 102.06 390.563 101.715C389.795 101.37 388.963 101.189 388.121 101.184C387.279 101.178 386.445 101.348 385.672 101.682C384.899 102.016 384.205 102.508 383.632 103.126C381.134 105.697 380.843 110.112 381.352 113.46C381.861 116.807 385.258 122.278 386.446 124.158C385.051 125.274 383.644 126.39 382.237 127.408C381.255 128.076 380.357 128.791 379.338 129.41L376.379 131.302C374.45 132.43 372.473 133.607 370.569 134.674C369.247 135.414 367.973 136.093 366.7 136.797C368.022 135.584 370.557 133.279 370.751 133.061C373.26 129.948 374.931 126.244 375.603 122.302C375.899 121.971 376.159 121.609 376.379 121.222C376.822 120.507 377.112 119.708 377.23 118.874C377.347 118.041 377.29 117.192 377.062 116.383C376.834 115.573 376.44 114.819 375.904 114.169C375.369 113.52 374.705 112.989 373.953 112.611C370.448 110.997 365.062 113.29 361.326 115.946C361.484 113.363 361.411 111.774 361.411 111.774L360.429 111.871L361.145 110.161C361.63 109.093 361.994 107.904 362.418 106.764C363.364 104.096 364.189 101.343 364.965 98.5649C366.724 99.414 372.995 102.386 376.403 102.507C379.812 102.628 384.142 101.852 386.41 99.0622C386.959 98.4231 387.369 97.6765 387.614 96.8702C387.858 96.0638 387.932 95.2153 387.831 94.3788C387.729 93.5423 387.454 92.7361 387.024 92.0117C386.593 91.2873 386.017 90.6605 385.33 90.1714C381.085 87.3817 372.57 90.79 369.029 93.6283C368.81 93.8102 366.494 96.139 365.256 97.4369C365.705 95.763 366.166 94.0892 366.566 92.3668C367.719 87.4302 368.737 82.3844 369.781 77.3628C370.096 75.8224 370.436 74.2941 370.763 72.7537C371.382 73.0691 378.768 76.7564 382.577 76.8898C385.973 77.0111 390.316 76.2348 392.584 73.4451C393.131 72.8062 393.539 72.0605 393.783 71.2553C394.026 70.4502 394.099 69.6032 393.998 68.7682C393.896 67.9332 393.622 67.1284 393.193 66.4051C392.764 65.6817 392.189 65.0555 391.504 64.5664C387.259 61.7645 378.744 65.1729 375.202 68.0233C374.936 68.2295 371.564 71.5771 370.824 72.4747C371.539 69.1028 372.304 65.7429 373.177 62.4559C374.335 58.0225 375.786 53.6707 377.519 49.429C377.81 49.5745 385.5 53.4559 389.406 53.5894C392.79 53.7228 397.144 52.9344 399.413 50.1446C399.959 49.505 400.367 48.7586 400.609 47.953C400.851 47.1473 400.924 46.3001 400.821 45.465C400.718 44.63 400.443 43.8254 400.013 43.1025C399.582 42.3796 399.006 41.7542 398.321 41.2659C394.076 38.4641 385.573 41.8724 382.031 44.7228C381.752 44.9411 378.186 48.5435 377.58 49.2471C377.689 49.0045 377.762 48.7376 377.871 48.495C379.713 44.2608 381.934 40.2012 384.506 36.3657C385.9 34.2431 387.344 32.2781 388.799 30.4102C390.158 31.2835 396.404 35.1892 399.91 35.7107C403.415 36.2323 407.673 35.8927 410.232 33.3819C410.846 32.8061 411.334 32.1087 411.665 31.3339C411.995 30.5592 412.16 29.7242 412.15 28.8821C412.139 28.04 411.954 27.2093 411.605 26.4429C411.256 25.6764 410.751 24.9911 410.123 24.4304C406.217 21.1798 397.387 23.642 393.554 26.08C393.348 26.2013 391.371 27.7903 389.915 28.9547C390.582 28.1299 391.25 27.2566 391.905 26.4682C394.33 23.5086 396.756 20.9493 398.964 18.7054C400.177 17.4925 401.39 16.2795 402.445 15.2728C404.228 15.4305 411.396 15.9763 414.683 14.8483C417.97 13.7202 421.67 11.4399 422.774 8.01946C423.054 7.226 423.167 6.38281 423.104 5.54354C423.041 4.70427 422.804 3.8873 422.408 3.14459C422.012 2.40188 421.466 1.74971 420.804 1.22955C420.143 0.709394 419.38 0.332639 418.565 0.123266C413.592 -0.956245 406.884 5.30249 404.604 9.22026C404.41 9.55988 401.948 15.2243 402.032 15.2849H402.142C401.074 16.2553 399.946 17.3227 398.733 18.4992C396.502 20.7067 394.015 23.2175 391.456 26.1407C388.696 29.2548 386.12 32.5272 383.741 35.9412C381.061 39.7694 378.727 43.8285 376.767 48.0705L376.694 48.2282C376.888 46.7484 377.264 42.6002 377.252 42.2727C377.155 37.7363 374.293 29.0275 369.417 27.5719C368.603 27.36 367.755 27.3194 366.925 27.4528C366.095 27.5863 365.302 27.8907 364.596 28.3469C363.89 28.8031 363.286 29.4011 362.824 30.1029C362.361 30.8047 362.05 31.595 361.909 32.4237C361.242 35.9412 363.437 39.7741 365.717 42.297C368.277 45.1352 375.894 48.3616 376.5 48.6891C374.601 53.022 373 57.4798 371.709 62.0314C370.933 64.6877 370.242 67.3804 369.574 70.0974C369.696 68.8117 369.793 67.6715 369.781 67.5017C369.684 62.9653 366.821 54.2565 361.945 52.8009C361.132 52.5909 360.285 52.5518 359.457 52.6862C358.628 52.8205 357.837 53.1254 357.132 53.5814C356.427 54.0374 355.825 54.6347 355.363 55.3355C354.902 56.0363 354.59 56.8253 354.449 57.6527C353.77 61.1702 355.977 65.0031 358.246 67.5259C360.514 70.0489 366.991 73.0084 368.701 73.7726C368.459 74.8157 368.204 75.8467 367.961 76.8898C366.809 81.8992 365.693 86.9086 364.432 91.7725C363.995 93.4948 363.498 95.1687 363.012 96.8425C363.109 95.7145 363.182 94.7442 363.182 94.5986C363.085 90.0622 360.223 81.3534 355.347 79.8979C354.534 79.6878 353.687 79.6488 352.858 79.7831C352.03 79.9174 351.238 80.2223 350.534 80.6783C349.829 81.1343 349.227 81.7317 348.765 82.4324C348.303 83.1332 347.992 83.9223 347.851 84.7496C347.172 88.2792 349.367 92.1121 351.647 94.635C353.928 97.1579 359.762 99.8263 361.787 100.7C361.242 102.41 360.684 104.108 360.065 105.733C359.628 106.837 359.277 107.929 358.767 109.008L357.372 112.138C356.293 112.32 355.043 112.562 353.649 112.878C353.285 108.305 351.574 102.725 348.093 101.076C347.318 100.743 346.483 100.575 345.639 100.583C344.796 100.591 343.964 100.776 343.195 101.124C342.427 101.472 341.74 101.976 341.178 102.605C340.616 103.234 340.191 103.973 339.93 104.775C338.717 108.159 340.331 112.283 342.199 115.109C342.472 115.538 342.78 115.944 343.12 116.322C337.159 118.753 331.799 122.454 327.413 127.166C314.835 141.236 315.781 162.608 315.781 162.608C315.781 162.608 333.623 161.395 346.298 150.478C350.192 148.635 355.225 146.185 360.987 143.092C363.146 141.952 365.426 140.666 367.755 139.344C368.374 140.108 373.383 146.318 376.719 148.004C379.751 149.544 383.996 150.648 387.247 149.071C388.008 148.72 388.689 148.215 389.245 147.588C389.801 146.961 390.221 146.225 390.479 145.427C390.737 144.629 390.826 143.787 390.742 142.953C390.657 142.118 390.4 141.311 389.988 140.581C387.307 136.263 378.15 135.802 373.747 136.942C373.492 137.015 370.751 138.034 369.029 138.701C369.975 138.155 370.909 137.633 371.879 137.051C373.808 135.923 375.7 134.747 377.737 133.485L380.661 131.532C381.643 130.902 382.613 130.113 383.596 129.398C385.852 127.7 388.06 125.856 390.243 123.964C391.237 125.65 394.84 131.581 397.605 133.558C400.371 135.535 404.422 137.282 407.855 136.214C408.665 135.983 409.418 135.585 410.066 135.046C410.714 134.508 411.242 133.84 411.618 133.085C411.993 132.331 412.207 131.507 412.246 130.665C412.285 129.823 412.149 128.983 411.845 128.197C409.856 123.527 400.868 121.671 396.356 122.132C396.065 122.132 392.863 122.824 391.104 123.224C392.402 122.072 393.712 120.919 394.997 119.718C398.636 116.225 402.275 112.586 405.914 108.972C407.03 107.856 408.158 106.764 409.274 105.673C409.613 106.267 413.749 113.423 416.855 115.643C419.608 117.62 423.671 119.355 427.092 118.287C427.901 118.057 428.654 117.66 429.303 117.123C429.951 116.586 430.48 115.919 430.856 115.166C431.233 114.413 431.449 113.59 431.49 112.749C431.53 111.908 431.396 111.068 431.094 110.282C429.093 105.6 420.178 103.756 415.593 104.217C415.253 104.217 410.644 105.212 409.528 105.515C411.954 103.089 414.477 100.663 417.012 98.4679C420.43 95.4054 424.044 92.5692 427.832 89.9773C427.989 90.2563 432.271 97.7401 435.449 100.008C438.202 101.985 442.265 103.732 445.686 102.652C446.496 102.422 447.249 102.026 447.897 101.488C448.545 100.951 449.074 100.285 449.451 99.5315C449.827 98.7785 450.043 97.9553 450.084 97.1144C450.125 96.2734 449.99 95.4332 449.689 94.6471C447.687 89.9652 438.712 88.1216 434.187 88.5825C433.836 88.5825 428.875 89.662 427.977 89.9167C428.208 89.759 428.414 89.5892 428.632 89.4436C432.5 86.9489 436.584 84.8056 440.834 83.0394C443.163 82.0326 445.443 81.1957 447.687 80.4437C448.342 81.9113 451.399 88.6189 454.043 90.9841C456.687 93.3493 460.411 95.4234 463.928 94.7442C464.76 94.6036 465.553 94.2913 466.256 93.8272C466.96 93.363 467.56 92.7572 468.016 92.0484C468.473 91.3396 468.776 90.5434 468.908 89.7107C469.04 88.8779 468.996 88.0269 468.78 87.2119C467.3 82.3601 458.579 79.5219 454.043 79.4491C453.788 79.4491 451.278 79.6674 449.446 79.8736C450.465 79.5461 451.508 79.1822 452.49 78.8911C456.129 77.7752 459.61 76.9868 462.667 76.3076C464.401 75.9316 465.978 75.6283 467.519 75.3736C468.914 76.4774 474.602 80.8925 477.962 81.7658C481.322 82.6391 485.664 82.7725 488.478 80.5528C489.197 80.0465 489.797 79.3899 490.237 78.6285C490.677 77.8671 490.947 77.0191 491.026 76.1434C491.106 75.2676 490.994 74.385 490.699 73.5567C490.403 72.7285 489.931 71.9744 489.315 71.3467ZM359.653 140.35C357.008 141.697 354.51 142.922 352.205 143.989C356.108 138.329 358.789 131.918 360.077 125.165C360.768 125.334 361.472 125.48 362.176 125.613C362.382 129.434 365.426 136.226 365.814 137.1C363.704 138.264 361.63 139.404 359.653 140.35Z" fill="#99E9A0"/>
<path d="M453.498 75.4948C456.845 72.4261 461.515 64.5784 459.392 59.9208C459.014 59.1692 458.483 58.5047 457.834 57.9695C457.184 57.4343 456.431 57.04 455.621 56.8119C454.811 56.5837 453.962 56.5266 453.129 56.6442C452.296 56.7618 451.496 57.0515 450.781 57.4949C447.688 59.3143 446.244 63.4868 445.856 66.8588C445.395 70.8129 448.185 79.2913 448.185 79.2913C448.185 79.2913 453.219 75.7617 453.498 75.4948Z" fill="#99E9A0"/>
<path d="M306.612 37.7484C306.612 37.7484 280.716 64.0205 280.583 96.5756C280.449 129.131 306.054 155.609 306.054 155.609C306.054 155.609 331.975 129.337 332.084 96.794C332.193 64.251 306.612 37.7484 306.612 37.7484Z" fill="#99E9A0"/>
<path d="M249.689 112.198C249.689 112.198 249.531 133.595 262.618 147.192C275.706 160.789 297.078 161.444 297.078 161.444C297.078 161.444 297.248 140.047 284.16 126.45C271.073 112.853 249.689 112.198 249.689 112.198Z" fill="#99E9A0"/>
<g opacity="0.5">
<path opacity="0.5" d="M388.677 29.367C388.75 29.367 390.921 23.642 391.018 23.3023C392.122 18.8994 391.649 9.74175 387.38 7.06116C386.65 6.64839 385.844 6.39122 385.01 6.30587C384.176 6.22051 383.334 6.30883 382.536 6.56525C381.739 6.82167 381.003 7.24063 380.375 7.7957C379.747 8.35077 379.241 9.0299 378.889 9.79026C377.3 13.0167 378.416 17.2983 379.944 20.3307C381.667 23.8239 388.677 29.3549 388.677 29.367Z" fill="white"/>
<path opacity="0.5" d="M489.314 71.3467C485.76 67.7079 476.724 69.2119 472.661 71.2375C472.309 71.4073 467.13 74.7672 467.202 74.8763L467.275 74.9491C465.856 75.1796 464.316 75.4343 462.654 75.7496C459.585 76.3682 456.116 77.0839 452.405 78.1755C448.383 79.2409 444.43 80.5492 440.566 82.0933C436.226 83.7895 432.046 85.8677 428.073 88.3035L427.94 88.4005C428.91 87.2725 431.506 84.0097 431.688 83.7429C434.114 79.8979 436.539 71.0556 433.252 67.1621C432.684 66.5406 431.993 66.0443 431.222 65.7048C430.452 65.3652 429.619 65.1898 428.777 65.1898C427.935 65.1898 427.102 65.3652 426.331 65.7048C425.561 66.0443 424.869 66.5406 424.301 67.1621C421.79 69.7335 421.511 74.1364 422.021 77.4963C422.603 81.2685 427.127 88.2186 427.491 88.7765C423.511 91.346 419.71 94.1826 416.114 97.2671C414.003 99.0622 411.941 100.906 409.891 102.822C410.692 101.816 411.407 100.918 411.492 100.772C413.918 96.9274 416.344 88.0852 413.069 84.1917C412.501 83.5702 411.81 83.0739 411.039 82.7343C410.268 82.3948 409.436 82.2194 408.593 82.2194C407.751 82.2194 406.919 82.3948 406.148 82.7343C405.377 83.0739 404.686 83.5702 404.118 84.1917C401.607 86.7631 401.328 91.1781 401.837 94.5258C402.347 97.8735 406.095 103.926 407.102 105.442L404.773 107.638C401.049 111.179 397.35 114.733 393.614 118.105C392.304 119.318 390.957 120.422 389.623 121.55C390.339 120.652 390.933 119.9 391.018 119.779C393.444 115.934 395.87 107.092 392.583 103.186C392.019 102.561 391.331 102.06 390.562 101.715C389.794 101.37 388.962 101.189 388.12 101.184C387.278 101.178 386.444 101.348 385.671 101.682C384.899 102.016 384.204 102.508 383.631 103.126C381.133 105.697 380.842 110.112 381.351 113.46C381.86 116.807 385.257 122.278 386.445 124.158C385.05 125.274 383.643 126.39 382.236 127.408C381.254 128.076 380.356 128.791 379.338 129.41L376.378 131.302C374.449 132.43 372.472 133.607 370.568 134.674C369.246 135.414 367.972 136.093 366.699 136.797C368.021 135.584 370.556 133.279 370.75 133.061C373.26 129.948 374.93 126.244 375.602 122.302C375.898 121.971 376.158 121.609 376.378 121.222C376.821 120.507 377.111 119.708 377.229 118.874C377.346 118.041 377.289 117.192 377.061 116.383C376.833 115.573 376.439 114.819 375.903 114.169C375.368 113.52 374.704 112.989 373.952 112.611C370.447 110.997 365.061 113.29 361.325 115.946C361.483 113.363 361.41 111.774 361.41 111.774L360.428 111.871L361.144 110.161C361.629 109.093 361.993 107.904 362.417 106.764C363.363 104.096 364.188 101.343 364.964 98.5649C366.723 99.414 372.994 102.386 376.402 102.507C379.811 102.628 384.141 101.852 386.409 99.0622C386.958 98.4231 387.368 97.6765 387.613 96.8702C387.857 96.0638 387.931 95.2153 387.83 94.3788C387.728 93.5423 387.453 92.7361 387.023 92.0117C386.592 91.2873 386.016 90.6605 385.329 90.1714C381.084 87.3817 372.569 90.79 369.028 93.6283C368.809 93.8102 366.493 96.139 365.255 97.4369C365.704 95.763 366.165 94.0892 366.565 92.3668C367.718 87.4302 368.736 82.3844 369.78 77.3628C370.095 75.8224 370.435 74.2941 370.762 72.7537C371.381 73.0691 378.767 76.7564 382.576 76.8898C385.972 77.0111 390.315 76.2348 392.583 73.4451C393.13 72.8062 393.538 72.0605 393.782 71.2553C394.025 70.4502 394.098 69.6032 393.997 68.7682C393.895 67.9332 393.621 67.1284 393.192 66.4051C392.763 65.6817 392.188 65.0555 391.503 64.5664C387.258 61.7645 378.743 65.1729 375.201 68.0233C374.935 68.2295 371.563 71.5771 370.823 72.4747C371.538 69.1028 372.303 65.7429 373.176 62.4559C374.334 58.0225 375.785 53.6707 377.518 49.429C377.809 49.5745 385.499 53.4559 389.405 53.5894C392.789 53.7228 397.143 52.9344 399.412 50.1446C399.958 49.505 400.366 48.7586 400.608 47.953C400.85 47.1473 400.923 46.3001 400.82 45.465C400.717 44.63 400.442 43.8254 400.012 43.1025C399.581 42.3796 399.005 41.7542 398.32 41.2659C394.075 38.4641 385.572 41.8724 382.03 44.7228C381.751 44.9411 378.185 48.5435 377.579 49.2471C377.688 49.0045 377.761 48.7376 377.87 48.495C379.713 44.2608 381.933 40.2012 384.505 36.3657C385.899 34.2431 387.343 32.2781 388.798 30.4102C390.157 31.2835 396.404 35.1892 399.909 35.7107C403.414 36.2323 407.672 35.8927 410.231 33.3819C410.846 32.8061 411.333 32.1087 411.664 31.3339C411.994 30.5592 412.159 29.7242 412.149 28.8821C412.139 28.04 411.953 27.2093 411.604 26.4429C411.255 25.6764 410.75 24.9911 410.122 24.4304C406.216 21.1798 397.386 23.642 393.553 26.08C393.347 26.2013 391.37 27.7903 389.914 28.9547C390.581 28.1299 391.249 27.2566 391.904 26.4682C394.329 23.5086 396.755 20.9493 398.963 18.7054C400.176 17.4925 401.389 16.2795 402.444 15.2728C404.227 15.4305 411.395 15.9763 414.682 14.8483C417.969 13.7202 421.669 11.4399 422.773 8.01946C423.053 7.226 423.166 6.38281 423.103 5.54354C423.04 4.70427 422.803 3.8873 422.407 3.14459C422.011 2.40188 421.465 1.74971 420.803 1.22955C420.142 0.709394 419.379 0.332639 418.564 0.123266C413.591 -0.956245 406.883 5.30249 404.603 9.22026C404.409 9.55988 401.947 15.2243 402.032 15.2849H402.141C401.073 16.2553 399.945 17.3227 398.732 18.4992C396.501 20.7067 394.014 23.2175 391.455 26.1407C388.695 29.2548 386.119 32.5272 383.74 35.9412C381.06 39.7694 378.726 43.8285 376.766 48.0705L376.693 48.2282C376.887 46.7484 377.263 42.6002 377.251 42.2727C377.154 37.7363 374.292 29.0275 369.416 27.5719C368.602 27.36 367.754 27.3194 366.924 27.4528C366.094 27.5863 365.301 27.8907 364.595 28.3469C363.889 28.8031 363.285 29.4011 362.823 30.1029C362.36 30.8047 362.049 31.595 361.908 32.4237C361.241 35.9412 363.436 39.7741 365.716 42.297C368.276 45.1352 375.893 48.3616 376.499 48.6891C374.6 53.022 372.999 57.4798 371.708 62.0314C370.932 64.6877 370.241 67.3804 369.573 70.0974C369.695 68.8117 369.792 67.6715 369.78 67.5017C369.683 62.9653 366.82 54.2565 361.944 52.8009C361.131 52.5909 360.284 52.5518 359.456 52.6862C358.627 52.8205 357.836 53.1254 357.131 53.5814C356.427 54.0374 355.824 54.6347 355.362 55.3355C354.901 56.0363 354.589 56.8253 354.448 57.6527C353.769 61.1702 355.976 65.0031 358.245 67.5259C360.513 70.0489 366.99 73.0084 368.7 73.7726C368.458 74.8157 368.203 75.8467 367.96 76.8898C366.808 81.8992 365.692 86.9086 364.431 91.7725C363.994 93.4948 363.497 95.1687 363.011 96.8425C363.108 95.7145 363.181 94.7442 363.181 94.5986C363.084 90.0622 360.222 81.3534 355.346 79.8979C354.533 79.6878 353.686 79.6488 352.857 79.7831C352.029 79.9174 351.237 80.2223 350.533 80.6783C349.828 81.1343 349.226 81.7317 348.764 82.4324C348.302 83.1332 347.991 83.9223 347.85 84.7496C347.171 88.2792 349.366 92.1121 351.646 94.635C353.927 97.1579 359.761 99.8263 361.786 100.7C361.241 102.41 360.683 104.108 360.064 105.733C359.627 106.837 359.276 107.929 358.766 109.008L357.371 112.138C356.292 112.32 355.042 112.562 353.648 112.878C353.284 108.305 351.574 102.725 348.092 101.076C347.318 100.743 346.482 100.575 345.638 100.583C344.795 100.591 343.963 100.776 343.194 101.124C342.426 101.472 341.739 101.976 341.177 102.605C340.615 103.234 340.19 103.973 339.929 104.775C338.716 108.159 340.33 112.283 342.198 115.109C342.471 115.538 342.779 115.944 343.119 116.322C337.158 118.753 331.798 122.454 327.412 127.166C314.834 141.236 315.78 162.608 315.78 162.608C315.78 162.608 333.622 161.395 346.297 150.478C350.191 148.635 355.224 146.185 360.986 143.092C363.145 141.952 365.425 140.666 367.754 139.344C368.373 140.108 373.382 146.318 376.718 148.004C379.75 149.544 383.995 150.648 387.246 149.071C388.007 148.72 388.688 148.215 389.244 147.588C389.8 146.961 390.22 146.225 390.478 145.427C390.736 144.629 390.825 143.787 390.741 142.953C390.656 142.118 390.399 141.311 389.987 140.581C387.306 136.263 378.149 135.802 373.746 136.942C373.491 137.015 370.75 138.034 369.028 138.701C369.974 138.155 370.908 137.633 371.878 137.051C373.807 135.923 375.699 134.747 377.736 133.485L380.66 131.532C381.642 130.902 382.612 130.113 383.595 129.398C385.851 127.7 388.059 125.856 390.242 123.964C391.236 125.65 394.839 131.581 397.604 133.558C400.37 135.535 404.421 137.282 407.854 136.214C408.664 135.983 409.417 135.585 410.065 135.046C410.713 134.508 411.241 133.84 411.617 133.085C411.992 132.331 412.206 131.507 412.245 130.665C412.285 129.823 412.148 128.983 411.844 128.197C409.855 123.527 400.867 121.671 396.355 122.132C396.064 122.132 392.862 122.824 391.103 123.224C392.401 122.072 393.711 120.919 394.996 119.718C398.635 116.225 402.274 112.586 405.913 108.972C407.029 107.856 408.157 106.764 409.273 105.673C409.612 106.267 413.748 113.423 416.854 115.643C419.607 117.62 423.67 119.355 427.091 118.287C427.9 118.057 428.653 117.66 429.302 117.123C429.95 116.586 430.479 115.919 430.855 115.166C431.232 114.413 431.448 113.59 431.489 112.749C431.53 111.908 431.395 111.068 431.093 110.282C429.092 105.6 420.177 103.756 415.592 104.217C415.252 104.217 410.643 105.212 409.527 105.515C411.953 103.089 414.476 100.663 417.011 98.4679C420.429 95.4054 424.043 92.5692 427.831 89.9773C427.988 90.2563 432.27 97.7401 435.448 100.008C438.201 101.985 442.264 103.732 445.685 102.652C446.495 102.422 447.248 102.026 447.896 101.488C448.544 100.951 449.073 100.285 449.45 99.5315C449.826 98.7785 450.042 97.9553 450.083 97.1144C450.124 96.2734 449.989 95.4332 449.688 94.6471C447.686 89.9652 438.711 88.1216 434.186 88.5825C433.835 88.5825 428.874 89.662 427.976 89.9167C428.207 89.759 428.413 89.5892 428.631 89.4436C432.499 86.9489 436.583 84.8056 440.833 83.0394C443.162 82.0326 445.442 81.1957 447.686 80.4437C448.341 81.9113 451.398 88.6189 454.042 90.9841C456.686 93.3493 460.41 95.4234 463.927 94.7442C464.759 94.6036 465.552 94.2913 466.255 93.8272C466.959 93.363 467.559 92.7572 468.015 92.0484C468.472 91.3396 468.775 90.5434 468.907 89.7107C469.039 88.8779 468.995 88.0269 468.779 87.2119C467.299 82.3601 458.578 79.5219 454.042 79.4491C453.787 79.4491 451.277 79.6674 449.445 79.8736C450.464 79.5461 451.507 79.1822 452.49 78.8911C456.128 77.7752 459.609 76.9868 462.666 76.3076C464.401 75.9316 465.977 75.6283 467.518 75.3736C468.913 76.4774 474.601 80.8925 477.961 81.7658C481.321 82.6391 485.663 82.7725 488.477 80.5528C489.196 80.0465 489.797 79.3899 490.236 78.6285C490.676 77.8671 490.946 77.0191 491.025 76.1434C491.105 75.2676 490.993 74.385 490.698 73.5567C490.402 72.7285 489.93 71.9744 489.314 71.3467ZM359.652 140.35C357.007 141.697 354.509 142.922 352.204 143.989C356.107 138.329 358.788 131.918 360.076 125.165C360.768 125.334 361.471 125.48 362.175 125.613C362.381 129.434 365.425 136.226 365.813 137.1C363.703 138.264 361.629 139.404 359.652 140.35Z" fill="white"/>
<path opacity="0.5" d="M453.498 75.4948C456.845 72.4261 461.515 64.5784 459.392 59.9208C459.014 59.1692 458.483 58.5047 457.834 57.9695C457.184 57.4343 456.431 57.04 455.621 56.8119C454.811 56.5837 453.962 56.5266 453.129 56.6442C452.296 56.7618 451.496 57.0515 450.781 57.4949C447.688 59.3143 446.244 63.4868 445.856 66.8588C445.395 70.8129 448.185 79.2913 448.185 79.2913C448.185 79.2913 453.219 75.7617 453.498 75.4948Z" fill="white"/>
<path opacity="0.5" d="M306.611 37.7484C306.611 37.7484 280.715 64.0205 280.582 96.5756C280.448 129.131 306.053 155.609 306.053 155.609C306.053 155.609 331.974 129.337 332.083 96.794C332.192 64.251 306.611 37.7484 306.611 37.7484Z" fill="white"/>
<path opacity="0.5" d="M249.688 112.198C249.688 112.198 249.53 133.595 262.617 147.192C275.705 160.789 297.077 161.444 297.077 161.444C297.077 161.444 297.247 140.047 284.159 126.45C271.072 112.853 249.688 112.198 249.688 112.198Z" fill="white"/>
</g>
<path d="M322.888 126.074L322.063 125.007L306.829 136.966L306.95 110.658L328.116 91.9301L327.218 90.9234L306.95 108.851L307.084 79.9585L321.336 67.6108L320.462 66.5919L307.084 78.1633L307.266 37.7484H305.919L305.652 97.2913L288.89 72.7779L287.774 73.5299L305.543 99.4988L305.652 99.426L305.543 124.17L285.433 106.085L284.535 107.092L305.531 125.977V125.965L305.41 155.609L306.756 155.621L306.829 138.677L322.888 126.074Z" fill="white"/>
<path d="M361.897 112.077L360.902 111.179L338.487 136.239L340.525 120.046L339.19 119.888L336.91 137.985H336.922L327.91 148.065L326.212 133.109L324.878 133.255L326.709 149.411L315.332 162.123L316.339 163.02L322.804 155.803L334.484 156.507L334.557 155.16L323.944 154.517L333.635 143.686L349.901 143.698V142.352L334.836 142.327L345.498 130.416L356.305 130.55L356.329 129.204L346.698 129.082L361.897 112.077Z" fill="white"/>
<path d="M292.42 142.4L291.086 142.218L289.654 152.759L279.575 142.279L280.812 126.062L279.466 125.965L278.326 140.981L267.227 129.458L268.173 118.687L266.827 118.578L265.99 128.173L250.173 111.737L249.203 112.671L272.516 136.894L256.529 133.643L256.262 134.965L274.141 138.592V138.567L283.517 148.319L268.477 148.889L268.525 150.236L284.766 149.617L296.592 161.904L297.563 160.97L290.855 153.996L292.42 142.4Z" fill="white"/>
<path d="M302.257 464.07L457.136 405.959L458.252 393.575L304.513 451.674L302.257 464.07Z" fill="#99E9A0" stroke="#2E353A" stroke-width="1.13593" stroke-linecap="round" stroke-linejoin="round"/>
<path d="M276.177 258.648C273.456 258.627 270.825 257.667 268.73 255.931C266.097 253.759 264.368 250.684 263.878 247.307C263.817 246.703 263.99 246.1 264.361 245.62C264.732 245.14 265.274 244.822 265.873 244.73C266.473 244.638 267.084 244.78 267.582 245.126C268.08 245.473 268.426 245.997 268.548 246.591C268.865 248.806 269.993 250.825 271.714 252.255C272.462 252.901 273.342 253.376 274.292 253.649C275.243 253.921 276.241 253.984 277.217 253.833C278.194 253.682 279.127 253.32 279.95 252.774C280.774 252.227 281.469 251.508 281.987 250.667C282.345 250.171 282.88 249.833 283.48 249.724C284.081 249.614 284.701 249.741 285.21 250.078C285.72 250.415 286.079 250.936 286.213 251.531C286.347 252.127 286.245 252.752 285.929 253.274C285.044 254.663 283.874 255.847 282.495 256.748C281.117 257.65 279.563 258.248 277.936 258.502C277.355 258.599 276.767 258.648 276.177 258.648Z" fill="#2E353A"/>
<path d="M253.823 265.549C247.844 265.549 242.495 260.795 241.488 254.221C241.439 253.915 241.452 253.602 241.525 253.301C241.597 253 241.729 252.716 241.911 252.466C242.094 252.216 242.324 252.004 242.588 251.843C242.853 251.682 243.147 251.575 243.453 251.528C244.071 251.446 244.698 251.606 245.201 251.974C245.705 252.343 246.048 252.891 246.158 253.505C246.861 258.126 250.755 261.377 254.818 260.783C255.793 260.624 256.724 260.259 257.548 259.713C258.372 259.168 259.07 258.453 259.597 257.617C259.954 257.122 260.489 256.784 261.09 256.674C261.691 256.564 262.311 256.691 262.82 257.028C263.329 257.365 263.689 257.886 263.823 258.482C263.957 259.077 263.855 259.702 263.539 260.225C262.654 261.613 261.483 262.797 260.105 263.699C258.727 264.6 257.173 265.198 255.546 265.452C254.975 265.532 254.399 265.564 253.823 265.549Z" fill="#2E353A"/>
<path d="M233.374 273.397C230.654 273.379 228.024 272.423 225.926 270.692C223.296 268.518 221.567 265.445 221.075 262.068C221.013 261.465 221.186 260.861 221.557 260.382C221.929 259.902 222.47 259.583 223.069 259.492C223.669 259.4 224.281 259.542 224.779 259.888C225.276 260.234 225.622 260.759 225.744 261.353C226.061 263.568 227.189 265.587 228.91 267.017C229.666 267.651 230.547 268.119 231.496 268.39C232.445 268.662 233.44 268.731 234.417 268.594C235.391 268.435 236.319 268.07 237.141 267.524C237.963 266.978 238.659 266.264 239.184 265.428C239.58 265.044 240.096 264.807 240.646 264.755C241.195 264.704 241.746 264.841 242.207 265.145C242.668 265.449 243.012 265.901 243.181 266.427C243.35 266.953 243.335 267.52 243.138 268.036C242.249 269.424 241.076 270.607 239.696 271.508C238.316 272.409 236.761 273.008 235.132 273.264C234.551 273.357 233.963 273.402 233.374 273.397Z" fill="#2E353A"/>
<path d="M211.02 279.801C205.04 279.801 199.691 275.035 198.684 268.473C198.622 268.16 198.623 267.837 198.689 267.525C198.754 267.213 198.882 266.917 199.065 266.655C199.247 266.394 199.481 266.172 199.752 266.003C200.022 265.834 200.324 265.721 200.64 265.672C200.955 265.623 201.277 265.638 201.586 265.717C201.895 265.796 202.186 265.936 202.439 266.129C202.693 266.323 202.905 266.566 203.062 266.844C203.219 267.121 203.319 267.428 203.354 267.745C204.07 272.366 207.951 275.617 212.015 275.022C212.988 274.863 213.918 274.5 214.741 273.957C215.565 273.413 216.264 272.702 216.794 271.869C216.953 271.587 217.169 271.341 217.428 271.146C217.686 270.951 217.982 270.811 218.297 270.735C218.612 270.659 218.939 270.649 219.258 270.705C219.577 270.76 219.882 270.881 220.152 271.059C220.423 271.237 220.654 271.469 220.831 271.74C221.008 272.011 221.128 272.316 221.183 272.635C221.237 272.955 221.226 273.282 221.149 273.596C221.072 273.911 220.931 274.207 220.736 274.465C219.849 275.853 218.678 277.037 217.3 277.94C215.922 278.844 214.369 279.445 212.742 279.704C212.171 279.778 211.596 279.811 211.02 279.801Z" fill="#2E353A"/>
<path d="M188.132 288.898C182.165 288.898 176.816 284.144 175.797 277.57C175.834 277.019 176.057 276.497 176.431 276.091C176.804 275.684 177.305 275.417 177.851 275.334C178.396 275.25 178.954 275.355 179.432 275.632C179.91 275.908 180.279 276.339 180.479 276.854C181.182 281.475 185.076 284.714 189.139 284.132C190.114 283.97 191.043 283.605 191.867 283.059C192.691 282.514 193.39 281.8 193.918 280.966C194.275 280.471 194.81 280.133 195.411 280.023C196.012 279.913 196.632 280.04 197.141 280.377C197.651 280.714 198.01 281.235 198.144 281.831C198.278 282.426 198.176 283.051 197.86 283.574C196.973 284.961 195.802 286.144 194.424 287.045C193.046 287.946 191.493 288.545 189.867 288.801C189.292 288.875 188.712 288.908 188.132 288.898Z" fill="#2E353A"/>
<path d="M165.971 297.013C163.251 296.996 160.621 296.041 158.524 294.308C155.894 292.134 154.165 289.061 153.672 285.684C153.611 285.081 153.784 284.477 154.155 283.997C154.526 283.518 155.068 283.199 155.667 283.107C156.267 283.016 156.878 283.157 157.376 283.504C157.874 283.85 158.22 284.374 158.342 284.968C158.658 287.184 159.787 289.203 161.508 290.633C162.256 291.278 163.136 291.754 164.086 292.026C165.037 292.298 166.035 292.361 167.011 292.21C167.988 292.059 168.921 291.698 169.744 291.151C170.568 290.604 171.263 289.885 171.781 289.044C172.178 288.66 172.694 288.422 173.243 288.371C173.793 288.32 174.344 288.457 174.805 288.761C175.266 289.065 175.609 289.517 175.778 290.043C175.948 290.568 175.932 291.136 175.736 291.652C174.847 293.04 173.673 294.223 172.293 295.124C170.914 296.025 169.358 296.624 167.73 296.879C167.149 296.973 166.56 297.017 165.971 297.013Z" fill="#2E353A"/>
<path d="M306.501 456.514L434.672 409.294" stroke="#2E353A" stroke-width="0.567964" stroke-linecap="round" stroke-linejoin="round"/>
<path d="M303.129 460.456L385.196 430.096" stroke="#2E353A" stroke-width="0.567964" stroke-linecap="round" stroke-linejoin="round"/>
<path d="M147.935 291.567V306.207L302.256 464.07L304.512 451.674L147.935 291.567Z" fill="#99E9A0" stroke="#2E353A" stroke-width="1.13593" stroke-linecap="round" stroke-linejoin="round"/>
<path d="M150.228 303.053L241.865 394.678" stroke="#2E353A" stroke-width="0.567964" stroke-linecap="round" stroke-linejoin="round"/>
<path d="M193.517 342.401L289.071 440.212" stroke="#2E353A" stroke-width="0.567964" stroke-linecap="round" stroke-linejoin="round"/>
<path d="M147.935 291.567L304.512 451.674L458.251 393.575L298.908 240.866L147.935 291.567Z" fill="white" stroke="#2E353A" stroke-width="1.13593" stroke-linecap="round" stroke-linejoin="round"/>
<path d="M146.018 289.044L1 153.693L149.548 107.371L297.768 238.453L146.018 289.044Z" fill="#99E9A0" stroke="#2E353A" stroke-width="1.13593" stroke-linecap="round" stroke-linejoin="round"/>
<path d="M23.1963 154.59L65.6489 141.369" stroke="#2E353A" stroke-width="1.21052" stroke-linecap="round" stroke-linejoin="round"/>
<path d="M29.4678 159.466L71.9204 146.245" stroke="#2E353A" stroke-width="1.21052" stroke-linecap="round" stroke-linejoin="round"/>
<path d="M173.747 292.707C173.286 292.71 172.834 292.575 172.449 292.319C171.938 291.965 171.582 291.427 171.455 290.817C171.329 290.208 171.442 289.573 171.77 289.044C172.982 287.162 173.449 284.896 173.08 282.688C172.874 281.015 172.175 279.441 171.071 278.166C169.967 276.892 168.509 275.975 166.882 275.532C166.295 275.371 165.792 274.99 165.479 274.468C165.165 273.946 165.066 273.323 165.2 272.729C165.334 272.135 165.693 271.615 166.2 271.279C166.708 270.943 167.326 270.815 167.925 270.923C170.478 271.577 172.778 272.978 174.53 274.946C176.283 276.915 177.408 279.361 177.762 281.973C178.316 285.348 177.59 288.809 175.724 291.676C175.501 291.994 175.205 292.253 174.861 292.432C174.517 292.612 174.135 292.706 173.747 292.707Z" fill="#2E353A"/>
<path d="M195.883 284.592C195.421 284.595 194.969 284.46 194.585 284.204C194.325 284.034 194.101 283.814 193.927 283.557C193.752 283.3 193.631 283.01 193.569 282.706C193.507 282.401 193.506 282.088 193.565 281.783C193.625 281.478 193.745 281.188 193.918 280.929C195.124 279.045 195.591 276.781 195.228 274.574C195.022 272.9 194.322 271.326 193.219 270.051C192.115 268.777 190.656 267.86 189.029 267.417C188.712 267.365 188.409 267.248 188.138 267.074C187.867 266.9 187.635 266.673 187.455 266.406C187.275 266.14 187.152 265.839 187.092 265.523C187.032 265.207 187.038 264.882 187.108 264.568C187.178 264.254 187.312 263.957 187.5 263.697C187.689 263.436 187.929 263.217 188.205 263.052C188.482 262.887 188.789 262.781 189.108 262.739C189.427 262.697 189.751 262.721 190.06 262.808C192.613 263.462 194.913 264.863 196.665 266.832C198.418 268.8 199.543 271.247 199.897 273.858C200.452 277.233 199.725 280.694 197.86 283.561C197.637 283.879 197.341 284.138 196.997 284.318C196.653 284.497 196.271 284.591 195.883 284.592Z" fill="#2E353A"/>
<path d="M283.954 254.342C283.539 254.321 283.136 254.194 282.784 253.972C282.432 253.751 282.143 253.443 281.945 253.077C281.746 252.712 281.645 252.302 281.651 251.886C281.656 251.47 281.769 251.063 281.977 250.703C283.19 248.826 283.658 246.564 283.287 244.36C283.084 242.684 282.385 241.107 281.281 239.83C280.177 238.553 278.718 237.635 277.089 237.191C276.786 237.125 276.5 237 276.246 236.822C275.992 236.645 275.775 236.418 275.61 236.157C275.444 235.895 275.332 235.603 275.279 235.297C275.227 234.992 275.236 234.679 275.306 234.377C275.456 233.772 275.834 233.248 276.36 232.914C276.886 232.58 277.521 232.461 278.132 232.582C280.685 233.236 282.985 234.637 284.737 236.606C286.49 238.574 287.615 241.02 287.969 243.632C288.525 247.009 287.793 250.471 285.919 253.335C285.7 253.652 285.406 253.909 285.063 254.085C284.72 254.26 284.339 254.349 283.954 254.342Z" fill="#2E353A"/>
<path d="M261.562 261.219C261.101 261.222 260.649 261.087 260.264 260.831C260.005 260.661 259.781 260.441 259.607 260.183C259.432 259.926 259.31 259.637 259.248 259.333C259.186 259.028 259.185 258.714 259.245 258.409C259.305 258.105 259.425 257.815 259.597 257.556C260.805 255.672 261.271 253.408 260.907 251.2C260.701 249.527 260.002 247.953 258.898 246.678C257.794 245.404 256.336 244.487 254.709 244.044C254.392 243.991 254.088 243.875 253.818 243.701C253.547 243.527 253.315 243.3 253.135 243.033C252.955 242.766 252.831 242.466 252.772 242.149C252.712 241.833 252.717 241.508 252.788 241.194C252.858 240.88 252.991 240.584 253.18 240.323C253.369 240.063 253.609 239.843 253.885 239.679C254.161 239.514 254.468 239.407 254.787 239.366C255.106 239.324 255.431 239.347 255.74 239.435C258.295 240.086 260.596 241.486 262.349 243.455C264.102 245.424 265.226 247.872 265.577 250.485C266.131 253.86 265.405 257.321 263.539 260.188C263.316 260.506 263.02 260.765 262.676 260.944C262.332 261.124 261.95 261.218 261.562 261.219Z" fill="#2E353A"/>
<path d="M241.113 269.103C240.65 269.102 240.198 268.962 239.815 268.703C239.303 268.349 238.947 267.811 238.821 267.201C238.695 266.592 238.807 265.957 239.136 265.428C240.354 263.549 240.826 261.282 240.458 259.072C240.252 257.399 239.553 255.825 238.449 254.55C237.345 253.276 235.887 252.359 234.26 251.916C233.943 251.863 233.639 251.747 233.368 251.573C233.098 251.399 232.865 251.172 232.685 250.905C232.506 250.638 232.382 250.338 232.322 250.021C232.263 249.705 232.268 249.38 232.338 249.066C232.409 248.752 232.542 248.456 232.731 248.195C232.919 247.935 233.159 247.715 233.436 247.551C233.712 247.386 234.019 247.279 234.338 247.238C234.657 247.196 234.981 247.219 235.291 247.307C237.844 247.961 240.144 249.362 241.896 251.33C243.648 253.299 244.774 255.745 245.128 258.357C245.682 261.732 244.955 265.193 243.09 268.06C242.868 268.38 242.573 268.641 242.229 268.823C241.885 269.005 241.502 269.101 241.113 269.103Z" fill="#2E353A"/>
<path d="M218.758 275.495C218.298 275.492 217.848 275.357 217.461 275.107C217.201 274.937 216.977 274.717 216.803 274.46C216.628 274.202 216.507 273.913 216.445 273.609C216.383 273.304 216.382 272.991 216.441 272.686C216.501 272.381 216.621 272.091 216.794 271.832C218 269.948 218.466 267.684 218.103 265.477C217.898 263.803 217.198 262.229 216.094 260.954C214.991 259.68 213.532 258.763 211.905 258.32C211.542 258.32 211.183 258.239 210.855 258.082C210.527 257.924 210.239 257.696 210.012 257.412C209.784 257.128 209.624 256.797 209.541 256.443C209.459 256.089 209.458 255.721 209.537 255.366C209.616 255.011 209.774 254.679 209.999 254.393C210.224 254.108 210.51 253.876 210.836 253.716C211.163 253.556 211.521 253.472 211.884 253.469C212.248 253.466 212.607 253.544 212.936 253.699C215.492 254.349 217.794 255.748 219.547 257.718C221.3 259.687 222.424 262.136 222.773 264.749C223.329 268.124 222.602 271.585 220.736 274.452C220.514 274.772 220.218 275.034 219.874 275.215C219.53 275.397 219.148 275.493 218.758 275.495Z" fill="#2E353A"/>
<path d="M428.656 389.875L434.624 387.68" stroke="#2E353A" stroke-width="0.567964" stroke-linecap="round" stroke-linejoin="round"/>
<path d="M310.844 433.395L423.234 391.888" stroke="#2E353A" stroke-width="0.567964" stroke-linecap="round" stroke-linejoin="round"/>
<path d="M313.998 414.631L421.258 375.017" stroke="#2E353A" stroke-width="0.567964" stroke-linecap="round" stroke-linejoin="round"/>
<path d="M297.478 420.732L306.866 417.263" stroke="#2E353A" stroke-width="0.567964" stroke-linecap="round" stroke-linejoin="round"/>
<path d="M284.111 408.069L407.903 362.354" stroke="#2E353A" stroke-width="0.567964" stroke-linecap="round" stroke-linejoin="round"/>
<path d="M270.757 395.418L394.537 349.703" stroke="#2E353A" stroke-width="0.567964" stroke-linecap="round" stroke-linejoin="round"/>
<path d="M375.979 338.956L381.17 337.04" stroke="#2E353A" stroke-width="0.567964" stroke-linecap="round" stroke-linejoin="round"/>
<path d="M257.391 382.755L368.556 341.697" stroke="#2E353A" stroke-width="0.567964" stroke-linecap="round" stroke-linejoin="round"/>
<path d="M244.024 370.092L367.816 324.377" stroke="#2E353A" stroke-width="0.567964" stroke-linecap="round" stroke-linejoin="round"/>
<path d="M230.657 357.441L354.449 311.726" stroke="#2E353A" stroke-width="0.567964" stroke-linecap="round" stroke-linejoin="round"/>
<path d="M217.303 344.778L341.083 299.063" stroke="#2E353A" stroke-width="0.567964" stroke-linecap="round" stroke-linejoin="round"/>
<path d="M203.936 332.115L327.715 286.4" stroke="#2E353A" stroke-width="0.567964" stroke-linecap="round" stroke-linejoin="round"/>
<path d="M309.972 275.362L314.363 273.737" stroke="#2E353A" stroke-width="0.567964" stroke-linecap="round" stroke-linejoin="round"/>
<path d="M190.569 319.452L306.162 276.769" stroke="#2E353A" stroke-width="0.567964" stroke-linecap="round" stroke-linejoin="round"/>
<path d="M214.161 293.144L300.995 261.086" stroke="#2E353A" stroke-width="0.567964" stroke-linecap="round" stroke-linejoin="round"/>
<path d="M177.215 306.801L201.122 297.971" stroke="#2E353A" stroke-width="0.567964" stroke-linecap="round" stroke-linejoin="round"/>
<g style="mix-blend-mode:multiply">
<path d="M220.152 339.538C232.682 341.176 231.578 319.731 228.4 312.538C226.082 315.195 224.354 318.315 223.332 321.69C222.309 325.064 222.015 328.618 222.469 332.115C222.601 333.748 223.171 335.315 224.119 336.651C224.599 337.313 225.264 337.818 226.03 338.103C226.796 338.387 227.629 338.44 228.425 338.253C229.565 337.769 230.53 336.948 231.19 335.899C233.495 332.843 235.023 329.059 237.449 326.257C240.809 328.525 252.744 332.406 251.021 324.061C250.075 319.452 252.368 319.974 254.83 322.23C255.849 323.152 257.45 322.654 258.711 322.096L270.841 316.759C272.384 315.972 274.056 315.467 275.777 315.267C281.599 314.976 285.408 320.386 291.121 316.565C293.547 314.964 294.105 310.622 297.186 308.972C299.381 307.759 301.965 307.687 304.463 307.347C313.051 306.207 317.442 301.671 325.374 297.571" stroke="#99E9A0" stroke-width="1.13593" stroke-linecap="round" stroke-linejoin="round"/>
</g>
<g style="mix-blend-mode:multiply">
<path d="M229.882 352.941C234.576 353.742 238.591 349.46 242.739 348.089C248.039 346.319 250.344 344.16 255.438 341.964C262.17 339.077 270.078 337.743 268.671 327.567C267.713 331.205 267.604 335.208 266.864 339.017C272.322 341.722 273.79 337.076 274.348 332.952C276.18 332.906 277.99 332.541 279.697 331.873C279.697 332.637 279.94 333.498 279.927 334.226C282.547 335.281 283.566 334.565 284.112 332.249C287.011 331.703 288.042 328.986 290.492 328.319C291.111 335.123 292.845 341.079 292.445 348.041C287.799 349.254 287.072 341.236 288.248 337.913C289.461 334.395 292.954 332.515 294.24 328.84C294.507 329.289 294.301 329.811 294.446 330.296C300.293 326.803 307.788 327.749 313.586 323.661C315.406 322.375 316.704 319.804 318.632 318.906C322.829 316.966 324.078 319.246 327.208 314.673" stroke="#99E9A0" stroke-width="1.13593" stroke-linecap="round" stroke-linejoin="round"/>
</g>
<g style="mix-blend-mode:multiply">
<path d="M272.141 392.907C280.571 390.482 284.27 369.534 281.844 361.844C279.006 352.541 275.1 362.742 274.19 367.739C273.463 371.742 272.298 382.294 276.034 385.339C284.318 392.058 289.376 378.243 290.395 371.996C290.759 375.902 288.406 380.717 289.364 384.926C296.072 385.715 299.395 380.135 298.971 374.374C299.804 375.171 300.368 376.208 300.585 377.34C300.803 378.472 300.662 379.644 300.184 380.693C306.588 380.244 305.533 369.437 306.248 365.083C305.884 368.127 306.163 371.693 308.213 374.155C309.924 376.193 313.186 377.091 315.333 375.514C317.48 373.937 317.056 369.789 314.448 369.243V395.503C314.53 396.262 314.378 397.029 314.011 397.699C313.15 398.911 311.039 398.657 310.057 397.492C309.191 396.222 308.785 394.695 308.905 393.162C308.783 384.562 311.44 372.785 318.099 366.914C318.44 367.751 318.553 368.664 318.426 369.558C319.064 369.31 319.64 368.927 320.115 368.435C320.59 367.943 320.953 367.354 321.18 366.708C321.616 368.637 322.756 371.062 324.709 370.723C325.357 370.553 325.95 370.219 326.432 369.753C329.634 367.108 333.103 365.362 335.25 361.602C335.553 362.548 335.868 363.494 336.184 364.452C336.693 362.62 338.44 361.42 340.15 360.595C342.759 359.368 345.58 358.656 348.458 358.496C350.884 358.375 353.528 358.63 355.736 357.587C356.714 357.064 357.651 356.468 358.538 355.804C361.051 354.148 363.962 353.193 366.968 353.038" stroke="#99E9A0" stroke-width="1.13593" stroke-linecap="round" stroke-linejoin="round"/>
</g>
<path d="M172.205 162.56C172.205 162.56 191.552 138.18 198.102 129.459C204.651 120.738 209.394 114.03 209.394 114.03C209.394 114.03 212.887 116.783 211.82 119.913C210.752 123.042 187.743 154.469 182.624 162.45C177.506 170.432 178.222 180.535 178.598 184.016C178.974 187.498 168.821 176.12 172.205 162.56Z" fill="white" stroke="#2E353A" stroke-width="1.27267" stroke-linecap="round" stroke-linejoin="round"/>
<path d="M209.394 114.03C209.394 114.03 221.439 97.2794 230.378 83.3307C239.317 69.3819 252.368 48.4346 255.473 45.6448C258.579 42.8551 259.331 50.1327 258.324 55.0087C257.317 59.8847 246.631 73.4938 239.414 84.6528C232.197 95.8117 227.734 103.841 221.524 111.167C215.313 118.494 215.677 118.845 211.82 119.913C207.963 120.98 208.715 117.159 209.394 114.03Z" fill="#2E353A" stroke="#2E353A" stroke-width="1.27267" stroke-linecap="round" stroke-linejoin="round"/>
<path d="M168.045 165.009C169.379 155.973 172.399 139.283 179.301 134.031C186.202 128.779 207.089 132.818 208.824 133.134C210.558 133.449 238.043 139.538 246.424 144.693C254.806 149.848 260.434 164.743 262.581 173.367C264.728 181.991 269.337 196.594 270.028 197.625C270.028 197.625 277.002 200.694 280.823 200.33C284.644 199.966 289.726 182.209 300.424 171.717C311.122 161.225 316.678 159.794 328.491 160.801C340.305 161.807 385.184 173.973 389.732 178.449C394.281 182.925 397.119 193.004 396.137 200.282C395.154 207.559 396.586 215.565 396.586 216.947C396.586 218.33 400.794 222.83 399.776 226.651C398.757 230.471 398.126 238.78 395.009 239.884C391.891 240.988 368.955 240.405 351.925 238.089C334.896 235.772 311.207 225.498 295.524 218.318C279.841 211.137 272.187 208.044 260.725 208.129C249.263 208.214 227.042 208.699 206.519 203.969C185.996 199.238 172.047 190.627 168.19 186.854C164.333 183.082 166.723 174.058 168.045 165.009ZM290.939 207.608C296.555 215.916 319.188 224.104 331.366 227.488C343.544 230.872 372.751 236.936 380.369 232.728C387.986 228.519 391.989 203.472 391.285 194.787C390.581 186.102 387.028 181.275 387.028 181.275C372.024 171.996 325.071 162.232 315.368 166.125C305.664 170.019 296.385 182.573 292.977 192.664C289.568 202.756 290.939 207.608 290.939 207.608ZM192.898 193.331C207.89 202.259 231.53 204.879 240.906 205.17C250.282 205.461 259.282 200.536 259.561 189.765C259.839 178.995 254.163 160.97 252.04 155.803C249.918 150.636 242.955 147.531 242.955 147.531C233.555 143.08 194.584 133.267 187.985 134.359C181.387 135.45 175.613 145.469 174.267 160.109C172.921 174.749 177.906 184.404 192.898 193.331Z" fill="#2E353A" stroke="#2E353A" stroke-width="1.27267" stroke-linecap="round" stroke-linejoin="round"/>
<path d="M395.543 216.644C395.543 216.644 399.4 222.527 402.154 218.342C404.907 214.158 440.422 174.325 440.422 174.325C440.422 174.325 441.804 173.961 441.477 176.751C441.15 179.54 403.973 229.453 402.59 231.891C401.208 234.329 395.313 235.068 393.93 234.037C392.547 233.007 395.543 216.644 395.543 216.644Z" fill="white" stroke="#2E353A" stroke-width="1.27267" stroke-linecap="round" stroke-linejoin="round"/>
<path d="M437.994 175.72C440.023 172.107 441.854 168.386 443.477 164.573C447.237 156.216 449.541 139.877 450.148 122.848C450.754 105.818 451.361 95.751 454.502 98.8561C457.644 101.961 454.951 118.663 454.369 131.848C453.787 145.032 449.687 158.278 448.692 165.24C447.94 170.492 443.913 178.813 441.136 178.825C438.358 178.837 438.71 178.146 437.994 175.72Z" fill="#2E353A" stroke="#2E353A" stroke-width="1.27267" stroke-linecap="round" stroke-linejoin="round"/>
<path d="M208.822 393.441L224.093 410.725L201.387 405.607L39.8242 306.765L47.2716 294.599L208.822 393.441Z" fill="white" stroke="#2E353A" stroke-width="1.4364" stroke-linecap="round" stroke-linejoin="round"/>
<g style="mix-blend-mode:multiply" opacity="0.5">
<path d="M208.822 393.441L224.093 410.725L201.387 405.607L39.8242 306.765L47.2716 294.599L208.822 393.441Z" fill="#99E9A0"/>
<path d="M208.822 393.441L224.093 410.725L201.387 405.607L39.8242 306.765L47.2716 294.599L208.822 393.441Z" stroke="#2E353A" stroke-width="1.4364" stroke-linecap="round" stroke-linejoin="round"/>
</g>
<path d="M45.5802 297.368L41.5225 304L203.081 402.849L207.139 396.217L45.5802 297.368Z" stroke="#2E353A" stroke-width="0.718198" stroke-linecap="round" stroke-linejoin="round"/>
<path d="M208.859 393.477L201.424 405.619L224.094 410.725L208.859 393.477Z" fill="white" stroke="#2E353A" stroke-width="1.4364" stroke-linecap="round" stroke-linejoin="round"/>
<path d="M212.753 408.166L224.094 410.725L216.477 402.102L212.753 408.166Z" fill="#99E9A0" stroke="#2E353A" stroke-width="1.4364" stroke-linecap="round" stroke-linejoin="round"/>
<path d="M25.4639 289.614C24.974 290.412 24.6462 291.298 24.4993 292.223C24.3524 293.147 24.3893 294.092 24.6079 295.002C24.8265 295.913 25.2224 296.771 25.7731 297.528C26.3237 298.285 27.0183 298.926 27.817 299.414L39.8251 306.765L47.2725 294.636L35.2644 287.285C33.6554 286.297 31.72 285.987 29.8827 286.423C28.0455 286.86 26.4564 288.007 25.4639 289.614Z" fill="white" stroke="#2E353A" stroke-width="1.4364" stroke-linecap="round" stroke-linejoin="round"/>
<path d="M25.4639 289.614C24.974 290.412 24.6462 291.298 24.4993 292.223C24.3524 293.147 24.3893 294.092 24.6079 295.002C24.8265 295.913 25.2224 296.771 25.7731 297.528C26.3237 298.285 27.0183 298.926 27.817 299.414L33.5663 302.932L41.0137 290.803L35.2644 287.285C33.6554 286.297 31.72 285.987 29.8827 286.423C28.0455 286.86 26.4564 288.007 25.4639 289.614Z" fill="#2E353A" stroke="#2E353A" stroke-width="1.4364" stroke-linecap="round" stroke-linejoin="round"/>
<path d="M351.489 231.696L347.231 228.7C346.573 228.238 345.819 227.931 345.025 227.801C344.231 227.67 343.418 227.721 342.646 227.948C338.147 229.258 329.656 232.594 327.23 235.226C324.076 238.477 323.082 244.359 324.598 247.125C326.114 249.89 332.337 253.42 332.337 253.42L358.403 237.555L351.489 231.696Z" fill="white" stroke="#2E353A" stroke-width="0.9473" stroke-miterlimit="10"/>
<g style="mix-blend-mode:multiply" opacity="0.5">
<path d="M351.489 231.696L347.231 228.7C346.573 228.238 345.819 227.931 345.025 227.801C344.231 227.67 343.418 227.721 342.646 227.948C338.147 229.258 329.656 232.594 327.23 235.226C324.076 238.477 323.082 244.359 324.598 247.125C326.114 249.89 332.337 253.42 332.337 253.42L358.403 237.555L351.489 231.696Z" fill="#99E9A0"/>
<path d="M351.489 231.696L347.231 228.7C346.573 228.238 345.819 227.931 345.025 227.801C344.231 227.67 343.418 227.721 342.646 227.948C338.147 229.258 329.656 232.594 327.23 235.226C324.076 238.477 323.082 244.359 324.598 247.125C326.114 249.89 332.337 253.42 332.337 253.42L358.403 237.555L351.489 231.696Z" stroke="#2E353A" stroke-width="0.9473" stroke-miterlimit="10"/>
</g>
<path d="M354.145 230.471L333.525 239.896C333.525 239.896 326.55 243.838 328.758 255.906L449.505 344.814C449.505 344.814 453.702 347.871 461.283 345.287C468.864 342.704 476.627 333.765 478.264 326.208C479.902 318.651 474.625 316.274 473.643 315.437C472.66 314.6 358.22 231.369 358.22 231.369C357.011 230.597 355.567 230.279 354.145 230.471Z" fill="white" stroke="#2E353A" stroke-width="0.9473" stroke-miterlimit="10"/>
<g style="mix-blend-mode:multiply" opacity="0.5">
<path d="M354.145 230.471L333.525 239.896C333.525 239.896 326.55 243.838 328.758 255.906L449.505 344.814C449.505 344.814 453.702 347.871 461.283 345.287C468.864 342.704 476.627 333.765 478.264 326.208C479.902 318.651 474.625 316.274 473.643 315.437C472.66 314.6 358.22 231.369 358.22 231.369C357.011 230.597 355.567 230.279 354.145 230.471Z" fill="#99E9A0"/>
<path d="M354.145 230.471L333.525 239.896C333.525 239.896 326.55 243.838 328.758 255.906L449.505 344.814C449.505 344.814 453.702 347.871 461.283 345.287C468.864 342.704 476.627 333.765 478.264 326.208C479.902 318.651 474.625 316.274 473.643 315.437C472.66 314.6 358.22 231.369 358.22 231.369C357.011 230.597 355.567 230.279 354.145 230.471Z" stroke="#2E353A" stroke-width="0.9473" stroke-miterlimit="10"/>
</g>
<path d="M470.138 339.017C462.533 346.113 453.327 348.611 449.518 344.584C445.709 340.557 448.851 331.521 456.456 324.413C464.061 317.305 473.267 314.819 477.076 318.846C480.885 322.873 477.731 331.909 470.138 339.017Z" fill="white" stroke="#2E353A" stroke-width="0.9473" stroke-miterlimit="10"/>
<g style="mix-blend-mode:multiply">
<path d="M470.138 339.017C462.533 346.113 453.327 348.611 449.518 344.584C445.709 340.557 448.851 331.521 456.456 324.413C464.061 317.305 473.267 314.819 477.076 318.846C480.885 322.873 477.731 331.909 470.138 339.017Z" fill="#99E9A0"/>
<path d="M470.138 339.017C462.533 346.113 453.327 348.611 449.518 344.584C445.709 340.557 448.851 331.521 456.456 324.413C464.061 317.305 473.267 314.819 477.076 318.846C480.885 322.873 477.731 331.909 470.138 339.017Z" stroke="#2E353A" stroke-width="0.9473" stroke-miterlimit="10"/>
</g>
<path d="M358.208 231.369C357.002 230.6 355.563 230.282 354.145 230.471L333.525 239.896C333.525 239.896 326.55 243.838 328.758 255.906L412.256 317.39C411.662 314.552 411.771 310.404 414.961 305.479C417.921 300.882 431.214 293.471 438.395 289.711C404.409 264.979 358.208 231.369 358.208 231.369Z" fill="#2E353A" stroke="#2E353A" stroke-width="1.27267" stroke-linecap="round" stroke-linejoin="round"/>
<path d="M454.018 324.195L409.915 292.234C409.255 291.756 408.726 291.12 408.377 290.384C408.028 289.648 407.869 288.836 407.916 288.023C407.963 287.21 408.215 286.421 408.647 285.731C409.079 285.04 409.678 284.469 410.388 284.071L417.217 280.347C418.019 279.913 418.926 279.714 419.836 279.772C420.745 279.83 421.62 280.143 422.36 280.675L468.985 314.443" fill="white"/>
<path d="M454.018 324.195L409.915 292.234C409.255 291.756 408.726 291.12 408.377 290.384C408.028 289.648 407.869 288.836 407.916 288.023C407.963 287.21 408.215 286.421 408.647 285.731C409.079 285.04 409.678 284.469 410.388 284.071L417.217 280.347C418.019 279.913 418.926 279.714 419.836 279.772C420.745 279.83 421.62 280.143 422.36 280.675L468.985 314.443" stroke="#2E353A" stroke-width="0.9473" stroke-miterlimit="10"/>
<g style="mix-blend-mode:multiply" opacity="0.5">
<path d="M454.018 324.195L409.915 292.234C409.255 291.756 408.726 291.12 408.377 290.384C408.028 289.648 407.869 288.836 407.916 288.023C407.963 287.21 408.215 286.421 408.647 285.731C409.079 285.04 409.678 284.469 410.388 284.071L417.217 280.347C418.019 279.913 418.926 279.714 419.836 279.772C420.745 279.83 421.62 280.143 422.36 280.675L468.985 314.443" fill="#99E9A0"/>
<path d="M454.018 324.195L409.915 292.234C409.255 291.756 408.726 291.12 408.377 290.384C408.028 289.648 407.869 288.836 407.916 288.023C407.963 287.21 408.215 286.421 408.647 285.731C409.079 285.04 409.678 284.469 410.388 284.071L417.217 280.347C418.019 279.913 418.926 279.714 419.836 279.772C420.745 279.83 421.62 280.143 422.36 280.675L468.985 314.443" stroke="#2E353A" stroke-width="0.9473" stroke-miterlimit="10"/>
</g>
</svg>
